<?xml version="1.0" encoding="utf-8"?>
<!-- Generator: Adobe Illustrator 21.0.0, SVG Export Plug-In . SVG Version: 6.00 Build 0)  -->
<svg version="1.1" id="Layer_1" xmlns="http://www.w3.org/2000/svg" xmlns:xlink="http://www.w3.org/1999/xlink" x="0px" y="0px"
	 viewBox="0 0 100 100" enable-background="new 0 0 100 100" xml:space="preserve">
<path id="XMLID_10_" fill="none" d="M25.1,35.5c-2.6,2.6-4.1,5.9-4.1,11.9s1.7,9.2,4.2,11.7c2.6,2.6,8,5,17.4,5.8c0-9.4,0-23.1,0-35
	C33.1,30.7,27.7,32.8,25.1,35.5z"/>
<path id="XMLID_11_" fill="none" d="M74.9,59.3c2.6-2.6,4.1-5.9,4.1-11.9s-1.6-9.1-4.2-11.8c-2.7-2.7-8-5-17.5-5.7v35
	C66.8,64.2,72.2,62,74.9,59.3z"/>
<path id="XMLID_14_" fill="#BA2027" d="M42.2,77c-2.3,7.6-15,4.3-15,4.3v11.6c3.6,1.7,5.6,2,12.5,1.4c6.8-0.5,17.4-6.3,17.5-17.2
	c-2.3,0.1-4.7,0.2-7.2,0.2C47.3,77.3,44.7,77.2,42.2,77z"/>
<path id="XMLID_3_" fill="#0A0808" d="M87.5,27.5c-4.6-4.6-13.1-8.9-30.3-9.8v12.2c9.5,0.8,14.8,3,17.5,5.7
	c2.6,2.6,4.2,5.7,4.2,11.8c0,6-1.5,9.3-4.1,11.9c-2.7,2.7-8.1,4.9-17.6,5.6c-2.2,0.2-4.6,0.3-7.2,0.3c-2.7,0-5.2-0.1-7.4-0.3
	c-9.5-0.8-14.9-3.2-17.4-5.8c-2.5-2.5-4.2-5.6-4.2-11.7s1.5-9.3,4.1-11.9c2.6-2.6,8-4.8,17.5-5.6c0-4.4,0-8.6,0-12.2
	c-16.5,1-25.5,5.1-30.2,9.8C7.6,32.4,5,38.4,5,47.4s2.6,14.9,7.5,19.8C17,71.7,25.7,76,42.2,77c2.4,0.1,5,0.2,7.8,0.2
	c2.6,0,5-0.1,7.2-0.2c16.9-0.9,25.6-5.2,30.3-9.8c4.8-4.8,7.5-10.9,7.5-19.9C95,38.3,92.4,32.4,87.5,27.5z"/>
<path id="XMLID_2_" fill="#BA2027" d="M42.6,5.4c0,0,0,5,0,12.3c0,3.6,0,7.7,0,12.2c0,11.9,0,25.5,0,35c2.3,0.2,4.7,0.3,7.4,0.3
	c2.7,0,5-0.1,7.2-0.3v-35V17.7V5.4H42.6z"/>
</svg>
