<?xml version="1.0" encoding="utf-8"?>
<!-- Generator: Adobe Illustrator 21.0.0, SVG Export Plug-In . SVG Version: 6.00 Build 0)  -->
<svg version="1.1" id="Layer_1" xmlns="http://www.w3.org/2000/svg" xmlns:xlink="http://www.w3.org/1999/xlink" x="0px" y="0px"
	 viewBox="0 0 200 200" style="enable-background:new 0 0 200 200;" xml:space="preserve">
<style type="text/css">
	.st0{fill:#B91C22;}
	.st1{fill:#FFFFFF;}
</style>
<g id="XMLID_13_">
	<path id="XMLID_14_" class="st0" d="M176.2,108.7H11.5c-2.2,0-4-1.6-4.3-3.8c-0.3-2.2-0.2-6-0.1-9.6c0-1.4,0.1-2.8,0.1-3.8
		c0-35.3,23.6-59.1,58.8-59.1c26.5,0,47.2,13.6,56.9,36.9c6.1-8.3,15.4-13.4,25.4-13.4c19.1,0,32.5,13.1,32.5,31.9v16.5
		C180.6,106.8,178.6,108.7,176.2,108.7z M15.7,100h156.1V87.9c0-16-11.9-23.1-23.7-23.1c-9.7,0-18.6,6.9-22.1,17.2
		c-0.6,1.8-2.2,3.1-4.3,3c-1.9-0.1-3.6-1.4-4.1-3.3c-6.5-25.3-25.8-40.4-51.7-40.4c-30.4,0-50,19.8-50,50.4c0,1.1,0,2.5-0.1,4
		C15.8,97,15.8,98.5,15.7,100z"/>
</g>
<g id="XMLID_11_">
	<path id="XMLID_12_" class="st1" d="M163.9,144c-12,0-22.2-8.4-26.2-20.1c-6.5,25.2-25.7,43.7-56,43.7c-31,0-54.4-19.9-54.4-54.7
		c0-3.5-0.4-10.1,0-12.8H192c0,5.7,0,11.9,0,16.5C192,133.8,179.4,144,163.9,144z"/>
</g>
</svg>
