<svg enable-background="new 0 0 200 200" viewBox="0 0 200 200" xmlns="http://www.w3.org/2000/svg"><path d="m176.2 108.7h-164.7c-2.2 0-4-1.6-4.3-3.8s-.2-6-.1-9.6c0-1.4.1-2.8.1-3.8 0-35.3 23.6-59.1 58.8-59.1 26.5 0 47.2 13.6 56.9 36.9 6.1-8.3 15.4-13.4 25.4-13.4 19.1 0 32.5 13.1 32.5 31.9v16.5c-.2 2.5-2.2 4.4-4.6 4.4zm-160.5-8.7h156.1v-12.1c0-16-11.9-23.1-23.7-23.1-9.7 0-18.6 6.9-22.1 17.2-.6 1.8-2.2 3.1-4.3 3-1.9-.1-3.6-1.4-4.1-3.3-6.5-25.3-25.8-40.4-51.7-40.4-30.4 0-50 19.8-50 50.4 0 1.1 0 2.5-.1 4 0 1.3 0 2.8-.1 4.3z" fill="#b91c22"/><path d="m163.9 144c-12 0-22.2-8.4-26.2-20.1-6.5 25.2-25.7 43.7-56 43.7-31 0-54.4-19.9-54.4-54.7 0-3.5-.4-10.1 0-12.8h164.7v16.5c0 17.2-12.6 27.4-28.1 27.4z" fill="#fff"/></svg>