<?xml version="1.0" encoding="utf-8"?>
<!-- Generator: Adobe Illustrator 21.0.0, SVG Export Plug-In . SVG Version: 6.00 Build 0)  -->
<svg version="1.1" id="Layer_1" xmlns="http://www.w3.org/2000/svg" xmlns:xlink="http://www.w3.org/1999/xlink" x="0px" y="0px"
	 viewBox="0 0 839 785" style="enable-background:new 0 0 839 785;" xml:space="preserve">
<style type="text/css">
	.st0{fill:#494481;}
	.st1{fill:#F2F2F2;}
	.st2{fill:#282137;}
	.st3{fill:#A62225;}
</style>
<polygon class="st0" points="16.478,425.073 128.647,425.073 128.647,477.321 128.822,489.094 114.019,477.321 16.478,477.321 "/>
<path class="st0" d="M212.499,462.431c0,0-0.073,2.099-0.145,3.04c-0.58,11.871-1.448,17.083-3.258,19.037
	c-1.52,1.738-3.257,2.316-5.429,2.534c-2.026,0.289-5.429,0.289-9.121,0.145c-0.072-2.244-1.013-5.357-2.171-7.384
	c2.967,0.29,5.791,0.362,7.093,0.29c1.087,0,1.738-0.073,2.39-0.724c0.868-0.941,1.375-3.692,1.882-10.134h-35.903
	c-0.724,0.579-1.448,1.158-2.172,1.665l5.502,2.099c-1.303,4.343-3.185,9.555-5.719,12.812l-6.948-3.04
	c2.171-2.751,4.126-6.877,5.356-10.641c-2.967,1.955-6.08,3.619-9.192,4.995c-1.014-1.665-3.547-5.14-4.995-6.66
	c6.95-2.461,13.609-6.37,17.952-11.365h-7.021V437.53c5.936-1.086,12.668-2.823,16.794-4.633l4.994,5.284
	c-4.126,1.448-9.265,2.679-14.114,3.619v2.968h12.016v5.646h-12.016v2.896h29.533v-2.896h-11.872v-5.646h11.872v-2.823h-13.102
	v-5.791h20.919v22.946h-28.519c-0.724,1.158-1.521,2.244-2.39,3.33H212.499z M214.454,424.863v14.839h-8.108v-7.455H159.73v7.455
	h-7.818v-14.839H177.9c-0.362-1.086-0.869-2.172-1.376-3.185l8.758-2.461c1.014,1.737,2.028,3.692,2.824,5.646H214.454z
	 M178.84,471.334c1.375,4.126,2.316,9.338,2.171,12.668l-6.804,0.941c0.145-3.33-0.507-8.686-1.738-12.957L178.84,471.334z
	 M187.31,470.827c1.882,3.33,3.474,7.6,3.908,10.423l-6.37,1.737c-0.362-2.895-1.737-7.238-3.402-10.713L187.31,470.827z
	 M194.692,479.297c-0.796-2.027-2.75-5.14-4.633-7.239l5.502-2.316c2.026,2.027,4.126,4.923,4.995,6.949L194.692,479.297z"/>
<path class="st0" d="M244.486,467.932c-0.941-2.389-2.751-5.936-4.488-9.193v28.809h-8.18v-26.927
	c-2.099,6.008-4.488,11.654-7.166,15.636c-0.724-2.606-2.533-6.37-3.692-8.541c3.402-4.778,6.804-12.451,8.903-19.4h-7.962v-8.035
	h9.917v-8.686c-2.316,0.434-4.633,0.869-6.804,1.158c-0.362-1.954-1.376-4.85-2.317-6.659c7.384-1.303,15.563-3.475,20.919-6.008
	l4.561,7.094c-2.533,1.013-5.284,1.882-8.18,2.606v10.496h8.107v8.035h-8.107v1.158c1.882,2.099,7.745,9.627,9.048,11.437
	L244.486,467.932z M288.785,478.427v7.673h-41.839v-7.673h17.445v-6.587h-13.753v-7.384h13.753v-5.863
	c-3.836,0.289-7.745,0.506-11.365,0.652c-0.289-1.882-1.23-4.778-2.099-6.515c10.424-0.652,22.222-2.026,29.534-3.909l5.283,6.515
	c-3.836,0.941-8.252,1.665-12.811,2.316v6.804h12.957v7.384h-12.957v6.587H288.785z M285.311,447.881h-34.31v-24.9h34.31V447.881z
	 M276.986,430.219h-18.024v10.424h18.024V430.219z"/>
<path class="st0" d="M340.75,440.57c1.521,21.137,5.936,37.857,11.22,37.857c1.52,0,2.389-3.836,2.751-13.029
	c1.955,2.026,5.14,4.198,7.528,5.067c-1.303,13.681-4.199,17.01-11.075,17.01c-12.378,0-17.807-21.426-19.544-46.906h-35.975v-8.396
	h35.541c-0.145-3.909-0.218-7.963-0.218-11.944h9.265c-0.072,3.981-0.072,8.035,0.073,11.944h11.436
	c-1.954-2.462-5.574-5.429-8.469-7.601l5.719-4.705c3.257,2.244,7.527,5.646,9.482,8.035l-4.922,4.271h6.804v8.396H340.75z
	 M317.876,473.071c4.416-0.797,9.049-1.665,13.464-2.534l0.652,7.673c-11.872,2.606-24.611,5.284-33.948,7.239l-2.389-8.687
	c3.691-0.579,8.469-1.303,13.68-2.172v-17.445h-10.931v-8.324h31.054v8.324h-11.582V473.071z"/>
<path class="st0" d="M430.212,440.715c-1.809,11.147-4.633,20.412-9.121,28.013c3.692,4.633,8.253,8.469,13.898,10.93
	c-1.954,1.737-4.633,5.14-5.863,7.384c-5.356-2.751-9.699-6.515-13.391-11.003c-4.126,4.778-9.265,8.687-15.708,11.727
	c-0.796-2.027-3.33-6.08-4.994-7.963c6.586-2.75,11.654-6.587,15.635-11.437c-2.606-4.777-4.633-10.206-6.298-16.069
	c-1.158,1.954-2.389,3.764-3.692,5.357c-0.941-1.158-3.04-3.475-4.777-5.212v1.013h-17.445v18.603l17.373-6.008
	c0,2.606,0.506,6.225,0.941,8.107c-20.919,7.89-24.25,9.555-26.421,11.219c-0.434-2.389-1.882-6.804-3.258-8.903
	c1.448-0.652,2.679-1.882,2.679-4.633v-26.855h17.59v-12.161h-18.314v-8.469h26.855v24.829c5.14-7.311,8.687-18.241,10.64-29.316
	l8.469,1.52c-0.723,3.836-1.592,7.672-2.678,11.364h21.137v7.963H430.212z M409.582,441.077c1.376,6.949,3.402,13.391,6.153,19.038
	c2.606-5.501,4.415-11.944,5.501-19.399h-11.508L409.582,441.077z"/>
<path class="st0" d="M460.969,453.455c-1.521,7.021-3.909,14.115-6.805,19.689c0.942,0.651,2.028,1.447,3.402,2.243
	c4.922,2.968,11.654,3.402,20.123,3.402c8.324,0,21.281-0.724,29.317-1.882c-1.014,2.316-2.317,6.515-2.462,8.831
	c-6.08,0.362-18.748,0.869-27.217,0.869c-9.555,0-15.635-0.796-20.846-3.836c-2.967-1.665-5.574-4.053-7.021-4.053
	c-1.665,0-4.054,4.922-5.718,9.048l-5.719-8.252c2.968-3.764,6.226-6.515,8.904-7.745c1.737-3.475,3.257-7.89,4.415-12.161h-9.699
	c1.664-4.053,3.619-9.772,5.356-15.201h-7.673v-7.673h17.807c-1.521,4.923-3.402,10.568-5.14,15.49h4.126l1.23-0.362
	L460.969,453.455z M447.36,434.924c-0.941-3.185-2.678-8.252-3.981-12.089l7.89-2.316c1.375,3.836,3.112,8.614,4.198,11.727
	L447.36,434.924z M464.225,441.439c-1.737-1.375-5.138-3.113-7.093-4.054c4.488-4.053,8.18-10.423,10.279-16.793l7.962,1.882
	c-0.58,1.882-1.376,3.764-2.172,5.574h5.068v-8.107h8.541v8.107h15.78v7.311h-15.78v6.08h18.748v7.238h-46.544v-7.238H464.225z
	 M492.167,475.026v-1.954h-19.544v2.171h-8.252v-22.873h36.337v22.656H492.167z M469.148,435.359
	c-1.448,2.316-3.04,4.343-4.633,6.08h13.753v-6.08H469.148z M492.167,465.833v-6.659h-19.544v6.659H492.167z"/>
<path class="st0" d="M535.446,466.267c-1.231-1.882-3.258-4.56-5.284-7.021v28.23h-8.469v-26.637
	c-2.751,2.461-5.429,4.705-8.253,6.37c-0.579-2.389-2.244-7.166-3.257-8.758c7.239-3.982,14.26-11.075,18.602-18.748h-16.503v-7.745
	h12.667c-1.302-2.678-3.619-6.225-5.863-8.903l6.805-3.547c2.533,2.751,5.283,6.515,6.586,9.121l-5.718,3.33h6.732l1.448-0.362
	l4.56,3.33c-2.026,5.284-4.994,10.496-8.324,15.129c2.968,2.606,8.18,7.673,9.628,9.048L535.446,466.267z M578.804,476.69v8.541
	h-41.766v-8.541h17.445v-26.855h-14.26v-8.324h14.26v-21.209h8.903v21.209h13.68v8.324h-13.68v26.855H578.804z"/>
<path class="st0" d="M623.604,421.967c-0.362,0.435-0.724,0.941-1.086,1.375c6.659,5.791,18.531,10.785,30.04,13.029
	c-1.81,1.52-4.272,4.56-5.429,6.587c-1.448-0.362-2.968-0.869-4.488-1.303v18.675h-50.308V442.09
	c-1.521,0.507-3.04,1.014-4.488,1.375c-0.869-1.592-3.185-5.067-4.633-6.659c13.318-3.113,26.203-9.121,32.79-17.517
	L623.604,421.967z M640.035,440.715c-3.402-1.231-6.659-2.751-9.844-4.416v1.882h-25.407v-1.448
	c-2.824,1.448-5.718,2.823-8.758,3.982H640.035z M596.387,462.72h42.563v24.466h-8.831v-1.737h-25.263v1.954h-8.469V462.72z
	 M604.567,455.12c-0.362-2.244-1.303-5.211-2.46-7.528l5.574-1.592h-8.18v9.121H604.567z M604.856,468.366v2.896h25.263v-2.896
	H604.856z M630.118,479.803v-2.896h-25.263v2.896H630.118z M613.687,445.999h-5.646c1.303,2.462,2.462,5.574,2.896,7.673
	l-4.633,1.448h7.383V445.999z M624.111,432.608c-2.172-1.52-4.272-3.113-6.08-4.705c-1.882,1.592-3.981,3.185-6.153,4.705H624.111z
	 M620.637,445.999v9.121h6.731l-4.342-1.23c1.013-2.172,2.171-5.501,2.823-7.89H620.637z M634.969,445.999h-7.528l5.646,1.375
	c-1.448,2.896-2.824,5.719-3.982,7.745h5.864V445.999z"/>
<path class="st1" d="M55.276,444.512c4.032,2.902,9.835,7.236,12.55,10.213l-3.807,3.43c-2.337-2.789-7.462-7.085-11.531-10.213
	v19.521h-4.9v-18.39c-3.429,3.656-7.461,6.934-11.983,9.271c-0.717-1.206-2.11-3.053-3.091-4.07
	c6.859-3.204,12.738-9.044,16.242-14.81H33.72v-4.598h32.674v4.598h-11.72c-0.641,1.168-1.395,2.336-2.185,3.466v3.919
	L55.276,444.512z"/>
<path class="st1" d="M89.571,457.627c-2.977,3.655-7.386,7.537-11.381,9.986c-0.942-0.942-2.637-2.374-3.73-3.127
	c3.919-2.148,8.253-5.766,10.363-8.743L89.571,457.627z M104.871,435.091v18.014H78.266v-18.014H104.871z M82.901,448.846h17.109
	v-9.459H82.901V448.846z M98.201,455.63c3.429,2.675,8.026,6.519,10.25,9.158l-4.221,2.638c-1.96-2.6-6.407-6.67-9.911-9.497
	L98.201,455.63z"/>
<path class="st2" d="M10.565,214.088c17.015-15.459,28.449-27.809,28.449-37.688c0-6.22-3.476-9.605-8.873-9.605
	c-4.666,0-8.324,3.11-11.526,6.586l-8.874-8.782c6.678-7.043,12.898-10.52,22.595-10.52c13.173,0,22.32,8.416,22.32,21.406
	c0,11.709-10.062,24.607-20.491,35.127c3.385-0.458,8.05-0.915,11.069-0.915h12.532v13.722H10.565V214.088z"/>
<path class="st2" d="M66.186,189.023c0-23.418,9.697-34.944,24.059-34.944c14.361,0,24.149,11.709,24.149,34.944
	c0,23.418-9.788,35.676-24.149,35.676C75.882,224.699,66.186,212.441,66.186,189.023z M99.025,189.023
	c0-18.57-3.933-22.412-8.781-22.412c-4.849,0-8.69,3.842-8.69,22.412c0,18.661,3.842,23.052,8.69,23.052
	C95.092,212.075,99.025,207.685,99.025,189.023z"/>
<path class="st2" d="M125.282,210.246h14.453v-38.695h-12.532v-10.062c7.318-1.372,12.075-3.202,16.832-6.129h11.983v54.886h12.258
	v13.172h-42.994V210.246z"/>
<path class="st2" d="M178.249,206.495c0-8.507,4.848-13.812,11.16-17.197v-0.458c-5.305-3.934-8.873-9.147-8.873-16.374
	c0-11.343,8.965-18.387,21.588-18.387c12.258,0,20.399,7.135,20.399,18.204c0,6.495-3.934,11.892-8.599,15.094v0.457
	c6.495,3.385,11.435,9.056,11.435,18.387c0,10.52-9.514,18.479-23.784,18.479C188.22,224.699,178.249,217.29,178.249,206.495z
	 M210.266,205.581c0-5.946-5.214-8.507-13.539-12.075c-2.744,2.653-4.574,6.769-4.574,11.068c0,5.58,4.482,8.782,9.788,8.782
	C206.606,213.356,210.266,210.978,210.266,205.581z M209.351,173.381c0-4.94-2.835-8.05-7.684-8.05
	c-3.659,0-6.861,2.287-6.861,7.135c0,5.397,4.208,8.324,10.886,10.977C208.253,180.333,209.351,176.857,209.351,173.381z"/>
<path class="st2" d="M253.719,232.2c0-4.299,2.561-7.775,7.41-10.245v-0.458c-2.745-1.83-4.757-4.574-4.757-8.965
	c0-3.659,2.378-7.318,5.763-9.696v-0.366c-3.659-2.561-7.043-7.41-7.043-13.447c0-12.715,10.52-18.936,21.771-18.936
	c3.019,0,5.854,0.457,8.233,1.28h19.118v11.801h-8.05c0.823,1.463,1.464,3.842,1.464,6.312c0,12.167-9.239,17.472-20.765,17.472
	c-1.738,0-3.842-0.274-6.129-0.915c-1.189,1.098-1.647,1.921-1.647,3.659c0,2.378,2.104,3.476,7.684,3.476h8.233
	c12.807,0,20.034,3.934,20.034,13.356c0,10.977-11.343,18.752-29.456,18.752C263.599,245.281,253.719,241.531,253.719,232.2z
	 M289.486,229.364c0-3.11-2.744-3.75-7.592-3.75h-4.94c-3.75,0-5.763-0.183-7.41-0.64c-1.646,1.463-2.47,2.927-2.47,4.665
	c0,3.659,4.391,5.489,11.069,5.489C284.821,235.127,289.486,232.658,289.486,229.364z M283.449,189.023
	c0-5.306-2.744-8.05-6.586-8.05c-3.75,0-6.586,2.744-6.586,8.05c0,5.397,2.836,8.141,6.586,8.141
	C280.705,197.165,283.449,194.42,283.449,189.023z"/>
<path class="st2" d="M310.437,189.023c0-23.418,9.697-34.944,24.058-34.944c14.362,0,24.15,11.709,24.15,34.944
	c0,23.418-9.788,35.676-24.15,35.676C320.134,224.699,310.437,212.441,310.437,189.023z M343.277,189.023
	c0-18.57-3.934-22.412-8.782-22.412c-4.848,0-8.69,3.842-8.69,22.412c0,18.661,3.842,23.052,8.69,23.052
	C339.344,212.075,343.277,207.685,343.277,189.023z"/>
<path class="st2" d="M363.678,171.368h16.374l6.312,23.967c1.281,5.123,2.562,10.52,3.934,16.009h0.458
	c1.189-5.489,2.561-10.886,3.842-16.009L401,171.368h15.643l-16.832,52.05h-18.844L363.678,171.368z"/>
<path class="st2" d="M45.967,261.661c-6.678,15.002-17.38,30.462-27.26,40.067c-2.104-2.378-6.952-7.135-9.696-9.331
	c9.696-8.142,19.301-21.406,24.79-34.67L45.967,261.661z M71.581,303.649c7.41,10.062,15.825,23.052,20.308,31.56l-11.251,5.946
	c-1.189-2.653-2.836-5.671-4.757-8.965c-44.183,3.476-50.404,4.025-54.886,5.672c-0.732-2.287-2.836-8.416-4.482-11.618
	c3.019-0.823,5.488-3.293,9.147-7.318c3.842-3.933,15.277-19.484,22.503-34.669l12.715,5.306
	c-7.044,12.349-15.826,24.607-24.699,34.487l33.572-2.196c-2.927-4.574-5.946-9.331-8.782-13.355L71.581,303.649z M73.318,257.911
	c3.934,12.807,12.258,25.705,23.51,32.565c-2.47,2.378-6.403,7.593-8.233,10.978c-10.429-7.958-18.57-20.216-23.692-32.292H50.267
	v-11.251H73.318z"/>
<path class="st2" d="M157.938,310.052c4.025,11.343,9.971,19.21,15.002,19.21c2.287,0,3.202-3.842,3.75-12.898
	c2.47,2.195,6.403,4.208,9.422,5.123c-1.555,15.185-5.488,18.57-13.721,18.57c-11.435,0-21.04-12.624-26.071-30.004h-23.875v17.106
	l21.771-4.574c0.091,3.11,0.64,7.867,1.189,10.337c-26.894,6.22-31.376,7.135-34.212,8.69c-0.732-2.745-3.202-7.501-4.848-9.605
	c2.012-1.281,4.665-3.842,4.665-7.867v-64.308h66.595v29.73h-23.875c0.274,3.567,0.823,6.952,1.463,10.337h28.907v10.154H157.938z
	 M122.446,269.894v9.605h44.092v-9.605H122.446z M143.943,299.898c-0.641-3.385-1.098-6.77-1.372-10.337h-20.125v10.337H143.943z"/>
<path class="st2" d="M222.8,314.077c-1.098-2.561-3.293-6.403-5.488-10.062v37.14h-10.52v-32.932
	c-3.019,7.044-6.403,13.539-9.971,18.112c-1.006-3.11-3.385-7.592-5.031-10.337c5.123-5.854,10.245-15.642,13.539-24.516h-12.35
	v-10.154h13.813v-10.337c-3.567,0.549-6.952,1.098-10.337,1.464c-0.366-2.47-1.738-6.038-2.927-8.416
	c10.429-1.555,21.863-4.391,29.456-7.501l6.129,8.873c-3.567,1.372-7.592,2.47-11.8,3.385v12.532h12.075v10.154h-12.075v0.732
	c2.653,2.562,10.154,11.16,11.892,13.264L222.8,314.077z M267.898,318.011v23.052h-10.703v-21.131l-27.626,4.757l-1.738-10.337
	l29.364-5.031v-53.605h10.703v51.775l9.056-1.555l1.738,10.154L267.898,318.011z M244.938,305.295
	c-2.836-4.025-9.239-9.879-14.545-13.996l6.952-6.221c5.214,3.659,11.983,9.331,15.002,13.264L244.938,305.295z M247.316,281.146
	c-2.562-3.933-8.507-9.788-13.63-13.721l7.135-6.221c4.94,3.751,11.343,9.148,14.087,13.173L247.316,281.146z"/>
<path class="st2" d="M316.111,304.563c-3.202,0.915-6.495,1.83-9.788,2.653v21.863c0,5.305-1.006,7.867-4.117,9.605
	c-3.019,1.646-7.41,1.921-13.813,1.921c-0.458-2.744-1.83-7.044-3.11-9.879c3.568,0.091,7.318,0.091,8.507,0.091
	c1.373,0,1.738-0.458,1.738-1.83v-18.844l-8.873,2.196l-2.836-10.337c3.385-0.641,7.318-1.555,11.709-2.653v-16.191h-10.52v-10.062
	h10.52v-17.38h10.794v17.38h8.964v10.062h-8.964v13.539l8.416-2.104L316.111,304.563z M366.789,292.214
	c-3.476,12.715-9.331,22.686-17.015,30.37c5.946,4.208,12.99,7.227,21.131,9.239c-2.287,2.195-5.397,6.586-6.952,9.422
	c-8.873-2.653-16.466-6.403-22.777-11.526c-7.135,4.939-15.186,8.599-24.059,11.251c-1.189-2.927-3.842-7.501-5.854-9.879
	c8.05-1.921,15.459-4.848,21.863-8.965c-5.397-6.129-9.696-13.355-12.99-21.771l2.745-0.824h-4.757v-9.788h18.021v-10.978h-19.667
	v-10.062h19.667v-13.081h10.794v13.081h20.491v10.062h-20.491v10.978h10.977l1.921-0.458L366.789,292.214z M330.747,299.532
	c2.562,6.038,6.221,11.526,10.794,16.191c4.757-4.574,8.69-9.971,11.435-16.191H330.747z"/>
<path class="st2" d="M394.785,281.42v-3.567c-3.202,2.378-6.403,4.666-9.788,6.586H423.6v28.724h-31.742
	c-0.183,0.915-0.274,1.921-0.458,2.835h34.396v24.424h-9.514v-2.47h-16.923v2.836h-9.056v-18.936
	c-1.28,5.763-3.202,11.343-5.854,16.009c-2.104-1.373-6.86-3.385-9.513-4.208c7.227-11.618,7.958-27.992,7.958-38.695v-9.239
	l-2.104,1.098c-1.006-2.562-3.842-8.05-5.672-10.428c10.611-4.482,21.314-11.984,27.168-20.765l9.971,3.933
	c-0.549,0.823-1.098,1.555-1.646,2.287c6.769,3.934,14.362,8.416,18.569,11.435l-5.58,9.147c-2.47-2.012-6.037-4.391-9.971-6.952
	v5.946H394.785z M413.721,305.662v-3.751h-20.948c0,1.189-0.092,2.47-0.183,3.751H413.721z M392.956,291.94v3.019v0.549h20.765
	v-3.567H392.956z M412.989,275.017c-2.927-1.829-5.946-3.75-8.69-5.488c-1.921,1.83-3.934,3.75-5.946,5.488H412.989z
	 M399.359,323.408v6.495h16.923v-6.495H399.359z M441.164,316.181h-10.246v-51.044h10.246V316.181z M457.904,255.99v72.083
	c0,5.854-1.098,8.782-4.482,10.52c-3.202,1.83-8.416,2.196-15.734,2.196c-0.457-3.019-1.738-7.867-3.202-10.886
	c4.666,0.091,9.422,0.091,10.885,0.091c1.465,0,2.104-0.458,2.104-2.013V255.99H457.904z"/>
<path class="st2" d="M483.156,315.449c-2.287,6.586-6.037,14.087-9.239,18.753c-1.646-1.372-5.122-3.75-7.136-4.94
	c3.111-4.299,6.129-10.52,8.051-16.191L483.156,315.449z M495.963,310.144v30.37h-10.52v-30.37h-17.016v-9.147h17.016v-7.043
	h-17.564v-8.965h8.873c-0.457-2.744-1.555-6.678-2.652-9.514l7.502-1.83h-12.35v-8.873h15.643c-0.824-2.47-1.83-5.031-2.744-7.227
	l10.885-2.653c1.373,3.019,3.02,6.769,4.117,9.879h13.08v8.873h-11.434l7.409,1.464c-1.372,3.476-2.744,7.043-4.116,9.879h9.514
	v8.965h-15.643v7.043h14.179v9.147H495.963z M482.79,273.645c1.372,3.019,2.562,6.952,3.019,9.514l-6.586,1.83h13.172
	c1.373-3.293,3.02-7.958,3.934-11.343H482.79z M552.404,295.874h-8.508v44.915h-10.611v-44.915h-8.508v1.098
	c0,13.447-1.189,32.291-8.965,44c-1.829-1.921-6.129-5.397-8.415-6.495c1.737-2.653,3.11-5.672,4.116-8.874l-6.494,4.025
	c-1.465-3.659-4.574-9.514-7.136-13.722l7.136-3.842c2.469,3.659,5.305,8.507,6.859,11.983c2.562-8.782,2.836-18.662,2.836-27.077
	v-32.566c9.972-1.829,21.04-4.665,27.718-7.775l8.325,7.958c-7.502,3.019-17.016,5.214-25.98,6.861v14.362h27.627V295.874z"/>
<path class="st2" d="M616.99,322.584c9.788,3.293,20.857,7.318,27.352,10.154l-4.939,8.507
	c-7.959-3.934-24.241-10.154-35.676-14.087l2.836-4.574h-2.744c-4.3,7.684-15.002,15.185-39.336,19.119
	c-1.279-2.562-4.024-6.403-6.037-8.782c16.467-2.47,25.797-6.22,31.011-10.337h-30.554v-8.965h36.683
	c0.092-0.823,0.183-1.646,0.183-2.47v-6.038h10.795v6.404c0,0.731,0,1.372-0.092,2.104h15.917c-1.921-1.646-4.116-3.293-6.038-4.574
	l3.294-3.11h-3.476c-0.367-2.47-1.556-5.489-2.653-7.867c2.927,0.183,6.312,0.183,7.317,0.183c1.007-0.092,1.281-0.366,1.281-1.281
	v-5.306h-15.186c2.379,1.83,4.758,3.75,6.038,5.489l-7.136,5.397c-1.738-2.378-5.58-5.854-8.965-8.05l3.751-2.836h-9.056v-7.044
	h3.567c-0.915-1.829-2.378-3.842-3.567-5.123c8.232-0.823,16.1-2.47,22.869-5.123c-2.014-2.287-4.849-4.94-7.593-7.135
	c-2.928,1.098-6.312,2.195-9.88,3.202c-1.098-1.921-3.567-4.848-5.306-6.129c10.978-2.195,19.21-5.397,23.967-8.965l8.965,1.83
	c-1.28,1.098-2.562,2.104-3.934,3.11h12.716l1.738-0.274l5.58,2.836c-4.025,7.318-10.429,12.349-18.205,15.917h9.972v5.854h10.337
	v7.044H632.45v5.671c0,4.299-0.823,6.221-3.843,7.501c-1.28,0.549-2.927,0.824-4.848,1.006c2.744,1.83,5.488,3.934,7.135,5.672
	l-2.104,2.104h15.186v8.965H616.99z M574.088,291.208c0,4.299-1.28,13.264-7.318,18.295c-1.829-1.464-5.763-3.659-8.232-4.666
	c4.939-3.842,5.945-10.245,6.037-13.63h-5.123v-8.416h19.485v-5.031H563.02v-19.759h9.057v11.526h6.86v-13.63h9.88v52.141h-9.88
	v-16.832H574.088z M608.209,275.474c-4.482,0.458-8.69,0.915-12.807,1.372l-0.915-5.488c3.843-0.274,8.324-0.641,13.63-1.006
	L608.209,275.474z M622.113,284.622v-5.671c-5.764,2.562-12.166,4.391-19.027,5.671H622.113z M615.161,266.144
	c2.013,1.646,4.024,3.567,5.763,5.306c2.652-1.555,5.031-3.293,6.953-5.306H615.161z"/>
<path class="st2" d="M732.621,280.231c-0.823,37.505-1.646,50.952-4.665,55.16c-2.104,3.11-4.3,4.117-7.593,4.666
	c-2.928,0.549-7.684,0.457-12.44,0.274c-0.183-2.927-1.28-7.501-3.202-10.337c4.482,0.274,8.6,0.366,10.611,0.366
	c1.464,0,2.379-0.274,3.201-1.555c2.104-2.47,2.928-13.812,3.477-43.177h-9.696c-1.372,24.15-6.312,43.36-23.967,55.526
	c-1.646-2.653-5.031-6.312-7.593-8.233c4.482-3.019,8.051-6.403,10.795-10.337c-13.996,3.476-28.998,6.952-40.158,9.605
	l-1.738-11.16c1.829-0.366,4.025-0.731,6.312-1.189v-60.375h31.743v53.879l3.933-0.823l1.007,8.599
	c6.129-9.514,8.324-21.314,9.147-35.493h-11.618v-10.245h11.984c0.091-6.221,0.091-12.715,0.091-19.667h10.703
	c0,6.861,0,13.447-0.183,19.667h19.85V280.231z M665.568,269.254v9.239h12.076v-9.239H665.568z M677.645,288.006h-12.076v9.422
	h12.076V288.006z M665.568,318.011c3.843-0.732,7.867-1.646,12.076-2.47v-8.599h-12.076V318.011z"/>
<path class="st2" d="M790.073,292.123v9.513h29.181v9.788h-14.453l9.147,3.293c-3.201,5.123-6.77,10.611-9.604,14.544h19.667v9.971
	h-79.127v-9.971h18.021c-1.463-4.208-4.574-10.245-7.592-14.819l7.227-3.019h-13.265v-9.788h29.09v-9.513h-18.569v-4.482
	c-3.843,1.83-7.775,3.476-11.801,4.939c-1.464-3.202-4.482-7.318-7.227-10.062c17.197-4.94,33.663-14.179,42.354-27.809
	l10.336,4.666c-0.822,1.189-1.646,2.378-2.561,3.659c8.965,8.05,23.783,15.643,37.505,19.485c-2.47,2.378-5.854,6.678-7.501,9.513
	c-4.116-1.463-8.324-3.293-12.44-5.306v5.397H790.073z M764.551,311.424c3.202,4.482,6.678,10.52,7.959,14.545l-7.502,3.293h13.356
	v-17.838H764.551z M800.41,282.152c-5.764-3.567-11.16-7.592-15.826-11.892c-4.391,4.574-9.422,8.416-14.818,11.892H800.41z
	 M790.073,311.424v17.838h11.435l-6.129-2.561c2.836-4.117,6.22-10.52,8.05-15.277H790.073z"/>
<path class="st3" d="M154.061,61.149H22.149c-1.755,0-3.237-1.297-3.473-3.036c-0.239-1.783-0.164-4.778-0.089-7.672
	c0.031-1.148,0.058-2.222,0.058-3.059c0-28.315,18.917-47.34,47.068-47.34c21.254,0,37.769,10.899,45.549,29.575
	c4.858-6.634,12.31-10.729,20.306-10.729c15.307,0,25.996,10.502,25.996,25.541v13.219C157.565,59.58,155.998,61.149,154.061,61.149
	z M25.523,54.142h125.035v-9.715c0-12.803-9.535-18.534-18.989-18.534c-7.777,0-14.893,5.526-17.709,13.751
	c-0.5,1.466-1.765,2.457-3.452,2.366c-1.546-0.06-2.871-1.127-3.257-2.626C101.94,19.136,86.448,7.048,65.714,7.048
	c-24.336,0-40.061,15.832-40.061,40.333c0,0.886-0.027,2.024-0.062,3.238C25.564,51.701,25.533,52.974,25.523,54.142z"/>
<path class="st2" d="M144.216,89.399c-9.604,0-17.798-6.698-21.023-16.12c-5.188,20.146-20.575,34.965-44.83,34.965
	c-24.844,0-43.567-15.98-43.567-43.836c0-2.773-0.293-8.081,0-10.266h131.911c0,4.553,0,9.569,0,13.22
	C166.708,81.177,156.638,89.399,144.216,89.399z"/>
<path class="st2" d="M344.275,743.577h-14.298v-3.636h-5.486v3.636h-14.945v13.967c0,6.962-1.393,13.376-3.291,17.807l4.642,3.165
	c1.561-4.051,2.532-8.271,3.08-14.052l2.574,2.954c0.717-0.97,1.181-1.772,1.983-3.08v14.136h4.557v-22.28
	c0.97-2.152,1.646-4.051,2.279-6.245l-4.557-1.224c-1.477,5.232-3.798,9.621-6.709,13.883c0.127-1.983,0.169-3.671,0.169-5.064
	v-9.283h30.002L344.275,743.577L344.275,743.577z"/>
<path class="st2" d="M345.221,753.831l-4.587-0.003v-4.642h-4.811v4.641l-10.959,0.003v4.768l10.959-0.003v13.081
	c0,0.844-0.464,1.266-1.35,1.266c-0.464,0-4.419-0.292-4.419-0.292l0.633,5.064l6.318-0.003c2.405,0,3.629-1.393,3.629-4.135v-14.98
	l4.587,0.003L345.221,753.831L345.221,753.831z"/>
<path class="st2" d="M328.429,759.949l-3.629,2.321c1.688,2.447,2.743,4.262,4.642,7.427l3.967-2.743
	C331.509,764.295,330.243,762.312,328.429,759.949z"/>
<path class="st2" d="M292.188,767.192c2.363-4.051,3.658-7.424,4.515-15.533h2.55v-4.768h-11.411
	c0.633-1.646,1.772-4.511,2.237-6.41l-4.701-1.101c-1.653,5.878-3.606,9.798-5.494,13.857l-4.489-0.066l0.042-6.38h5.486
	l-0.042-4.641h-19.537l0.042,4.641h9.241l-0.042,21.731c-1.139,0.295-1.252,0.37-2.475,0.707v-17.37h-4.473v18.425l-3.895,0.988
	l1.604,5.064c7.3-1.814,15.325-4.739,20.388-7.103l-0.549-4.388c-1.35,0.633-3.976,1.441-5.79,2.116v-8.955h2.15l-0.645,0.85
	l3.77,2.719c0.675-1.013,1.112-1.613,1.787-3.09c1.329,4.318,2.18,5.5,3.867,8.37c-2.859,2.979-4.811,4.485-9.241,7.231l3.066,4.409
	c3.669-2.826,6.597-5.563,8.918-7.715c1.941,2.194,4.389,5.124,7.379,7.68l3.2-4.23
	C296.377,771.746,294.167,769.772,292.188,767.192z M289.066,763.676c-1.926-3.699-2.954-5.857-3.629-10.794
	c0.211-0.38,0.38-0.675,0.591-1.224h5.865C291.429,757.439,290.967,759.667,289.066,763.676z"/>
<path class="st2" d="M252.317,752.227h-9.579v-3.178h8.102v-4.304h-8.102v-5.279h-5.021v5.279h-7.806v4.304h7.806v3.178h-8.777
	v4.515h13.214v2.792H228.94v4.768h13.214v7.715c0,0.97-0.464,1.435-1.35,1.435c-0.337,0-3.256-0.253-3.256-0.253l0.633,5.275h5.408
	c2.405,0,3.629-1.435,3.629-4.304v-9.867h4.972v-4.768h-4.972v-2.792h5.099L252.317,752.227L252.317,752.227z"/>
<path class="st2" d="M227.928,743.72h-13.039v29.391h13.039V743.72z M219.573,755.758v-7.877h3.671v7.877H219.573z M219.573,768.657
	v-8.637h3.671v8.637H219.573z"/>
<path class="st2" d="M234.004,765.291l-3.587,2.194c1.308,1.857,2.237,3.587,3.755,6.245l3.924-2.49
	C236.62,769.004,235.481,767.274,234.004,765.291z"/>
<path class="st2" d="M189.738,757.068l7.411,0.047v-2.616h-7.769v2.467c-0.717-0.295-1.014-0.4-1.563-0.695v-6.625h10.725v6.962
	h4.768v-10.38h-15.493v-1.604h13.636v-3.587h-32.547v3.587h13.636v1.604h-15.156v10.38h4.768v-6.962h10.387v6.709
	c-0.507,0.295-1.013,0.464-1.561,0.675v-2.532h-7.56v2.616h7.349c-4.515,2.237-10.296,3.84-15.191,4.515l1.604,4.304
	c1.181-0.295,2.405-0.591,3.882-1.055v3.418h21.605c-2.49,1.604-3.967,2.405-7.258,3.755c0.825,2.165,3.265,2.324,5.232,1.266
	c4.051-2.152,6.962-4.051,9.157-6.076v-2.152c1.308,0.38,2.363,0.633,3.376,0.844l1.646-4.346
	C200.054,760.955,194.675,759.305,189.738,757.068z M197.986,764.542h-10.181c0-1.47,0-3.489,0-3.489h-5.275c0,0,0,2.177,0,3.489
	h-10.327c5.528-1.73,9.41-3.629,12.997-5.654C189.251,761.039,193.007,762.854,197.986,764.542z"/>
<path class="st2" d="M185.622,772.073c-3.951-1.32-4.91-1.616-8.196-2.626l-1.83,3.483l17.459,6.563l1.977-4.2
	c0,0-2.317-0.801-4.308-1.503C188.41,772.567,188.993,772.368,185.622,772.073z"/>
<path class="st2" d="M197.149,750.912h-7.924v2.701h7.924V750.912z"/>
<path class="st2" d="M181.15,750.912h-7.729v2.701h7.729V750.912z"/>
<path class="st2" d="M34.741,751.951c6.479,0,11.085,0.953,14.388,2.223v-5.336c-2.795-0.889-7.21-1.842-14.261-1.842
	c-8.989,0-13.276,1.81-15.404,3.938c-1.969,1.969-2.986,4.605-2.986,8.004s1.016,6.035,2.986,8.004
	c2.16,2.192,6.352,3.938,15.119,3.938c7.019,0,11.339-0.985,14.007-3.653c1.461-1.461,2.223-3.526,2.223-7.083v-2.954H31.247v4.447
	h13.721c0.032,0.508,0.032,1.683-0.762,2.477c-1.429,1.429-4.955,1.906-9.624,1.906c-5.717,0-8.703-1.048-10.1-2.446
	c-1.016-1.048-1.556-2.541-1.556-4.637c0-2.033,0.572-3.621,1.683-4.732C25.847,752.968,28.865,751.951,34.741,751.951
	C34.741,751.951,28.865,751.951,34.741,751.951L34.741,751.951L34.741,751.951z"/>
<path class="st2" d="M144.578,747.822h-7.337l-11.752,17.501l-11.72-17.501h-7.655l15.341,22.233h7.782l0,0L144.578,747.822
	L144.578,747.822z"/>
<path class="st3" d="M104.231,732.474h-6.321l-41.261,52.93h6.416L104.231,732.474z"/>
<path class="st2" d="M95.448,750.998c-2.096-2.096-6.13-4.002-14.992-4.002c-8.544,0-12.895,1.874-15.023,4.002
	c-1.937,1.937-2.986,4.351-2.986,7.94s1.048,5.971,2.986,7.909c2.096,2.096,6.321,4.034,15.023,4.034s12.895-1.906,14.992-4.002
	c1.937-1.938,2.986-4.351,2.986-7.94C98.433,755.318,97.385,752.936,95.448,750.998z M80.456,766.054
	c-5.717,0-8.671-1.175-9.941-2.446c-0.985-0.985-1.683-2.255-1.683-4.669s0.603-3.716,1.652-4.764
	c1.302-1.302,4.256-2.35,9.973-2.35c5.717,0,8.576,1.08,9.91,2.414c1.048,1.048,1.683,2.287,1.683,4.701s-0.603,3.716-1.652,4.764
	C89.064,765.037,86.173,766.054,80.456,766.054z"/>
<path class="st0" d="M51.281,550.747c-0.149,2.087-0.248,3.825-0.398,5.415h5.565v5.166h-6.16c-0.348,2.087-0.745,3.328-1.292,4.074
	c-1.093,1.59-2.434,2.087-4.124,2.335c-1.589,0.248-4.122,0.248-6.607,0.099c-0.05-1.292-0.695-3.229-1.44-4.521
	c2.235,0.199,4.172,0.248,5.216,0.199c0.845,0,1.292-0.099,1.739-0.795c0.199-0.298,0.396-0.696,0.595-1.391H17.649
	c0.596-2.931,1.192-6.656,1.788-10.581h-6.856v-5.266h7.601c0.398-2.981,0.745-6.061,1.044-8.793
	c-1.242,1.49-2.435,2.931-3.676,4.173c-1.242-0.944-3.825-2.682-5.315-3.428c4.57-3.825,8.892-10.084,11.425-16.194l5.862,1.689
	c-0.447,0.993-0.944,2.036-1.44,3.08h28.664v5.265H25.001c-0.844,1.341-1.689,2.584-2.583,3.825h29.409c0,0-0.05,1.888-0.05,2.583
	c-0.099,2.881-0.199,5.415-0.298,7.799h7.154v5.266H51.281z M25.349,550.548c-0.298,1.987-0.546,3.825-0.844,5.614h10.879
	c-1.738-1.342-3.925-2.733-5.911-3.676l1.987-1.938H25.349z M26.691,540.265c-0.199,1.789-0.447,3.576-0.696,5.415h9.886
	c-1.738-1.292-3.825-2.583-5.762-3.428l2.036-1.987H26.691z M45.121,556.162c0.099-1.59,0.248-3.378,0.348-5.614H35.135
	c2.286,1.242,4.471,2.732,5.812,3.925l-1.689,1.689H45.121z M45.667,545.68c0.099-1.689,0.149-3.428,0.199-5.415H35.781
	c2.185,1.142,4.322,2.583,5.663,3.725l-1.689,1.689H45.667z"/>
<path class="st0" d="M76.615,523.275c-1.093,3.13-2.384,6.309-3.875,9.439v35.221h-5.613v-25.435
	c-1.093,1.54-2.185,2.981-3.328,4.273c-0.447-1.441-1.887-4.918-2.782-6.408c4.122-4.521,7.898-11.625,10.134-18.779L76.615,523.275
	z M106.967,524.021v43.369h-5.613v-2.434H82.676v2.881h-5.365v-43.815H106.967z M101.354,559.838v-30.7H82.676v30.7H101.354z
	 M94.2,539.52v4.272h4.77v13.314H85.209v-13.314h4.422v-4.272h-5.713v-4.272h5.713v-5.067h4.57v5.067h6.011v4.272H94.2z
	 M94.548,547.866h-5.067v5.216h5.067V547.866z"/>
<path class="st0" d="M157.488,557.354h-11.078v4.819c0,2.732-0.497,4.123-2.534,4.918c-1.987,0.745-4.768,0.795-8.544,0.795
	c-0.248-1.59-0.994-3.676-1.689-5.166c2.384,0.099,5.216,0.099,6.011,0.099c0.794-0.049,1.042-0.198,1.042-0.844v-4.62h-14.008
	c2.086,1.49,4.172,3.229,5.315,4.57l-4.372,3.776c-1.44-1.938-4.768-4.769-7.451-6.607l2.086-1.739h-9.936v-4.67h28.366v-1.838
	c-9.787,0.199-19.176,0.348-26.13,0.398l-0.149-4.223c4.669,0.05,10.779,0,17.486,0v-1.788h-14.307v-14.307h14.307v-1.788h-18.231
	v-4.471h18.231v-3.13h5.762v3.13H155.8v4.471h-18.133v1.788h15.003v14.307h-3.328c2.484,1.292,4.818,2.782,6.408,3.974l-3.627,3.03
	c-0.596-0.497-1.292-1.093-2.087-1.639l-3.626,0.099v1.987h11.078V557.354z M123.112,536.341h8.793v-1.838h-8.793V536.341z
	 M131.904,541.607v-1.888h-8.793v1.888H131.904z M137.667,534.503v1.838h9.24v-1.838H137.667z M146.907,541.607v-1.888h-9.24v1.888
	H146.907z M137.667,546.971l6.259-0.05c-0.695-0.298-1.39-0.646-2.036-0.894l0.994-0.795h-5.217V546.971z"/>
<path class="st0" d="M207.164,556.758h-11.475c3.874,1.938,8.594,4.67,11.177,6.756l-4.619,4.123
	c-2.634-2.384-8.197-5.812-12.519-8.047l3.378-2.832h-5.714v11.128h-5.911v-11.128h-8.345l5.812,1.938
	c-2.881,3.378-7.75,6.458-11.972,8.346c-1.143-1.142-3.577-2.981-4.968-3.925c4.223-1.391,8.645-3.775,10.93-6.359h-10.83v-4.868
	h19.374v-3.428h5.911v3.428h19.772V556.758z M201.054,550.697c-3.527-1.441-8.445-2.881-14.109-4.272
	c-5.564,2.285-12.965,3.328-22.751,3.875c-0.447-1.788-1.193-3.626-2.037-4.868c5.713-0.149,10.532-0.546,14.606-1.242
	c-2.782-0.546-5.565-1.043-8.496-1.49c1.292-1.142,2.732-2.533,4.124-4.073h-9.886v-4.62h13.96c1.192-1.49,2.235-2.931,3.13-4.322
	h-10.78v2.733h-5.464v-7.601h17.635c-0.348-0.745-0.695-1.441-1.042-2.086l6.259-1.242c0.645,0.944,1.341,2.186,1.937,3.328h17.734
	v7.601h-5.713v-2.733h-18.231l3.577,1.093c-0.795,1.043-1.59,2.136-2.533,3.229h9.588c0.447-0.944,0.844-1.987,1.192-3.03
	l5.762,1.142c-0.198,0.646-0.446,1.292-0.695,1.888h7.799v4.62h-10.134c-1.092,1.689-2.384,3.13-3.775,4.272
	c5.365,1.292,10.233,2.682,13.959,3.974L201.054,550.697z M178.649,538.626c-0.398,0.447-0.795,0.844-1.242,1.242
	c2.733,0.447,5.515,0.993,8.148,1.54c1.44-0.795,2.732-1.689,3.825-2.782H178.649z"/>
<path class="st0" d="M242.732,557.802c5.315,1.788,11.326,3.974,14.853,5.514l-2.682,4.62c-4.322-2.136-13.165-5.514-19.374-7.65
	l1.539-2.484h-1.49c-2.335,4.173-8.148,8.246-21.362,10.382c-0.695-1.391-2.185-3.477-3.278-4.769
	c8.942-1.341,14.008-3.378,16.84-5.613h-16.593v-4.868h19.921c0.05-0.447,0.099-0.895,0.099-1.341v-3.279h5.862v3.477
	c0,0.398,0,0.745-0.05,1.143h8.645c-1.044-0.895-2.236-1.788-3.279-2.484l1.788-1.689h-1.887c-0.199-1.341-0.845-2.981-1.441-4.272
	c1.59,0.099,3.428,0.099,3.974,0.099c0.547-0.05,0.696-0.199,0.696-0.696v-2.881h-8.247c1.292,0.994,2.583,2.037,3.279,2.981
	l-3.875,2.931c-0.943-1.292-3.03-3.179-4.868-4.371l2.036-1.54h-4.918v-3.825h1.937c-0.497-0.994-1.291-2.087-1.937-2.782
	c4.47-0.447,8.743-1.341,12.419-2.782c-1.093-1.242-2.633-2.682-4.124-3.875c-1.589,0.596-3.428,1.192-5.365,1.738
	c-0.596-1.043-1.937-2.633-2.881-3.328c5.961-1.193,10.433-2.931,13.016-4.868l4.868,0.993c-0.696,0.596-1.39,1.142-2.136,1.689
	h6.905l0.943-0.149l3.03,1.54c-2.185,3.974-5.663,6.707-9.885,8.644h5.415v3.179h5.613v3.825h-5.613v3.08
	c0,2.335-0.447,3.378-2.086,4.074c-0.696,0.298-1.59,0.447-2.634,0.546c1.491,0.994,2.981,2.136,3.875,3.08l-1.143,1.143h8.247
	v4.868H242.732z M219.433,540.762c0,2.335-0.696,7.204-3.974,9.936c-0.994-0.795-3.13-1.987-4.471-2.533
	c2.684-2.087,3.229-5.564,3.279-7.402h-2.782v-4.57h10.582v-2.732h-8.644v-10.73h4.918v6.259h3.726v-7.402h5.365v28.317h-5.365
	v-9.141H219.433z M237.963,532.218c-2.434,0.248-4.719,0.496-6.955,0.745l-0.497-2.981c2.087-0.149,4.521-0.348,7.402-0.547
	L237.963,532.218z M245.514,537.185v-3.08c-3.13,1.391-6.607,2.384-10.333,3.08H245.514z M241.739,527.15
	c1.092,0.894,2.185,1.938,3.13,2.881c1.44-0.844,2.732-1.788,3.776-2.881H241.739z"/>
<path class="st0" d="M305.522,534.801c-0.446,20.368-0.893,27.671-2.533,29.955c-1.142,1.689-2.335,2.236-4.124,2.534
	c-1.589,0.298-4.172,0.248-6.755,0.149c-0.099-1.59-0.696-4.074-1.739-5.614c2.434,0.149,4.67,0.199,5.762,0.199
	c0.795,0,1.292-0.149,1.739-0.845c1.142-1.341,1.589-7.501,1.887-23.448h-5.265c-0.745,13.115-3.428,23.547-13.016,30.154
	c-0.895-1.441-2.732-3.428-4.124-4.471c2.434-1.639,4.372-3.477,5.862-5.613c-7.6,1.887-15.748,3.775-21.808,5.216l-0.943-6.061
	c0.993-0.199,2.185-0.398,3.427-0.646v-32.787h17.239v29.26l2.136-0.447l0.547,4.67c3.328-5.167,4.521-11.575,4.968-19.275h-6.309
	v-5.564h6.508c0.05-3.378,0.05-6.905,0.05-10.681h5.812c0,3.726,0,7.303-0.099,10.681h10.779V534.801z M269.109,528.839v5.018h6.558
	v-5.018H269.109z M275.667,539.023h-6.558v5.117h6.558V539.023z M269.109,555.317c2.086-0.398,4.273-0.894,6.558-1.341v-4.67h-6.558
	V555.317z"/>
<path class="st0" d="M321.319,559.143l3.428-4.62c2.185,2.136,4.868,3.775,8.196,3.775c3.726,0,6.259-1.838,6.259-5.116
	c0-3.627-2.136-5.862-10.134-5.862v-5.265c6.756,0,8.942-2.335,8.942-5.614c0-2.881-1.788-4.57-4.918-4.62
	c-2.633,0.05-4.77,1.292-6.955,3.279l-3.726-4.471c3.179-2.782,6.707-4.521,11.029-4.521c7.104,0,11.922,3.477,11.922,9.786
	c0,3.974-2.235,6.856-6.16,8.396v0.248c4.173,1.142,7.353,4.222,7.353,9.041c0,6.756-5.911,10.681-12.916,10.681
	C327.826,564.26,323.902,562.074,321.319,559.143z"/>
<path class="st0" d="M351.471,545.034c0-12.717,4.968-18.927,12.469-18.927c7.452,0,12.419,6.259,12.419,18.927
	c0,12.668-4.967,19.225-12.419,19.225C356.44,564.26,351.471,557.702,351.471,545.034z M369.455,545.034
	c0-10.283-2.385-13.264-5.515-13.264c-3.179,0-5.564,2.981-5.564,13.264c0,10.333,2.384,13.512,5.564,13.512
	C367.07,558.546,369.455,555.367,369.455,545.034z"/>
<path class="st0" d="M392.255,546.724h13.562v5.216h-13.562V546.724z"/>
<path class="st0" d="M420.77,559.242l3.378-4.67c2.086,2.036,4.669,3.725,8.097,3.725c3.825,0,6.508-2.434,6.508-6.756
	c0-4.273-2.484-6.657-6.21-6.657c-2.185,0-3.378,0.546-5.514,1.938l-3.328-2.186l0.993-17.834h19.673v6.11h-13.363l-0.695,7.799
	c1.44-0.695,2.732-1.043,4.421-1.043c6.16,0,11.327,3.676,11.327,11.674c0,8.197-6.061,12.916-12.867,12.916
	C427.377,564.26,423.502,561.974,420.77,559.242z"/>
<path class="st0" d="M450.923,545.034c0-12.717,4.968-18.927,12.469-18.927c7.452,0,12.419,6.259,12.419,18.927
	c0,12.668-4.967,19.225-12.419,19.225C455.891,564.26,450.923,557.702,450.923,545.034z M468.906,545.034
	c0-10.283-2.385-13.264-5.515-13.264c-3.179,0-5.564,2.981-5.564,13.264c0,10.333,2.384,13.512,5.564,13.512
	C466.521,558.546,468.906,555.367,468.906,545.034z"/>
<path class="st0" d="M502.288,528.839h-10.333v-4.819h10.333v-2.534h5.812v2.534h5.216v4.819H508.1v2.136h-5.812V528.839z
	 M534.43,562.62c0,2.384-0.398,3.626-1.938,4.421c-1.44,0.795-3.526,0.844-6.16,0.844c-0.199-1.192-0.645-2.583-1.192-3.825
	l-2.435,0.646c-0.098-0.745-0.297-1.59-0.595-2.484c-7.054,0.497-14.308,0.894-19.573,1.242l-0.447-4.968
	c2.484-0.099,5.663-0.248,9.091-0.398v-3.775h-11.177v13.462h-5.664v-13.462h-1.887v-4.719h1.887v-1.391h5.664v1.391h11.177v-2.087
	h-13.711v-15.797h33.483v15.797h-14.109v2.087h17.586V562.62z M503.133,537.831h8.047v-2.285h-8.047V537.831z M511.18,543.693
	v-2.236h-8.047v2.236H511.18z M536.217,524.021v4.819h-10.581v2.136h-5.813v-2.136h-4.918v-4.819h4.918v-2.534h5.813v2.534H536.217z
	 M524.991,535.546h-8.148v2.285h8.148V535.546z M524.991,541.458h-8.148v2.236h8.148V541.458z M520.42,557.653
	c-0.348-0.795-0.745-1.59-1.142-2.285l4.172-1.043h-6.607v3.527L520.42,557.653z M528.021,563.166c0.497,0,0.646-0.149,0.646-0.645
	v-8.197h-4.968c1.59,2.732,3.03,6.359,3.527,8.842H528.021z"/>
<path class="st0" d="M579.286,561.527c1.64,0,1.938-1.292,2.187-8.445c1.291,1.043,3.824,2.086,5.464,2.484
	c-0.596,8.892-2.086,11.476-7.154,11.476h-5.961c-5.613,0-7.054-1.888-7.054-7.7V544.14h-7.451
	c-0.895,10.333-3.179,18.828-15.053,23.646c-0.695-1.49-2.335-3.676-3.676-4.819c10.333-3.875,11.725-10.581,12.321-18.828h-11.228
	v-5.762h44.312v5.762h-13.115v15.202c0,1.887,0.298,2.185,1.938,2.185H579.286z M581.423,530.678h-35.271v-5.713h35.271V530.678z"/>
<path class="st0" d="M12.83,627.502c9.985-8.942,15.897-15.847,15.897-21.511c0-3.725-2.036-5.961-5.514-5.961
	c-2.682,0-4.918,1.739-6.756,3.776l-3.974-3.974c3.378-3.577,6.657-5.564,11.675-5.564c6.955,0,11.574,4.471,11.574,11.326
	c0,6.657-5.514,13.811-12.22,20.368c1.838-0.199,4.273-0.398,5.961-0.398h7.999v6.16H12.83V627.502z"/>
<path class="st0" d="M42.139,613.195c0-12.717,4.968-18.927,12.469-18.927c7.452,0,12.419,6.259,12.419,18.927
	c0,12.668-4.967,19.225-12.419,19.225C47.107,632.42,42.139,625.863,42.139,613.195z M60.123,613.195
	c0-10.283-2.385-13.264-5.515-13.264c-3.179,0-5.564,2.981-5.564,13.264c0,10.333,2.384,13.512,5.564,13.512
	C57.738,626.707,60.123,623.528,60.123,613.195z"/>
<path class="st0" d="M73.287,625.813h7.898v-23.249h-6.657v-4.521c3.676-0.695,6.21-1.639,8.545-3.08h5.415v30.85h6.905v5.911
	H73.287V625.813z"/>
<path class="st0" d="M100.806,622.584c0-4.719,2.881-7.75,6.309-9.588v-0.248c-2.831-2.037-4.868-4.819-4.868-8.744
	c0-5.911,4.669-9.687,11.078-9.687c6.508,0,10.681,3.924,10.681,9.786c0,3.627-2.285,6.657-4.72,8.396v0.248
	c3.378,1.838,6.161,4.819,6.161,9.836c0,5.564-4.919,9.836-12.371,9.836C106.073,632.42,100.806,628.347,100.806,622.584z
	 M118.641,622.336c0-3.825-3.378-5.415-8.148-7.352c-1.987,1.59-3.378,4.073-3.378,6.805c0,3.328,2.732,5.465,6.16,5.465
	C116.355,627.254,118.641,625.515,118.641,622.336z M118.045,604.551c0-2.981-1.789-5.117-4.869-5.117
	c-2.484,0-4.47,1.639-4.47,4.57c0,3.478,2.831,5.167,6.707,6.707C117.2,608.823,118.045,606.737,118.045,604.551z"/>
<path class="st0" d="M131.258,627.651c0-2.683,1.937-4.769,4.52-4.769c2.634,0,4.571,2.086,4.571,4.769
	c0,2.682-1.937,4.769-4.571,4.769C133.195,632.42,131.258,630.334,131.258,627.651z"/>
<path class="st0" d="M147.949,625.813h7.898v-23.249h-6.657v-4.521c3.676-0.695,6.21-1.639,8.545-3.08h5.415v30.85h6.905v5.911
	h-22.106V625.813z"/>
<path class="st0" d="M176.662,627.651c0-2.683,1.937-4.769,4.52-4.769c2.634,0,4.571,2.086,4.571,4.769
	c0,2.682-1.937,4.769-4.571,4.769C178.599,632.42,176.662,630.334,176.662,627.651z"/>
<path class="st0" d="M222.612,625.813h7.898v-23.249h-6.657v-4.521c3.676-0.695,6.21-1.639,8.545-3.08h5.415v30.85h6.905v5.911
	h-22.106V625.813z"/>
<path class="st0" d="M271.592,617.567v11.575c0,2.732-0.447,4.173-1.937,5.067c-1.491,0.994-3.676,1.193-6.856,1.143
	c-0.149-1.441-0.795-3.875-1.541-5.415c1.839,0.05,3.527,0.05,4.124,0c0.596,0,0.845-0.199,0.845-0.844v-9.936
	c-1.64,0.447-3.13,0.894-4.571,1.292l-1.341-5.713c1.689-0.348,3.675-0.895,5.911-1.441v-8.793h-5.366v-5.464h5.366v-9.39h5.365
	v9.39h4.968v5.464h-4.968v7.352l4.471-1.192l0.794,5.316L271.592,617.567z M294.195,630.085c1.143,0.099,2.235,0.149,3.478,0.149
	c1.689,0,7.848,0,9.985-0.05c-0.696,1.192-1.391,3.676-1.59,5.167h-8.644c-6.508,0-11.525-1.193-14.903-7.203
	c-1.292,3.13-3.03,5.763-5.217,7.799c-0.893-0.944-3.13-2.782-4.321-3.527c4.122-3.279,6.16-8.793,6.904-15.549l5.366,0.646
	c-0.248,1.788-0.547,3.477-0.944,5.017c1.093,2.881,2.533,4.67,4.322,5.812v-12.966h-11.675v-4.769h29.36v4.769h-12.121v4.372h9.488
	v4.62h-9.488V630.085z M303.833,608.327h-24.441v-17.139h24.441V608.327z M298.17,595.311h-13.363v2.484h13.363V595.311z
	 M298.17,601.62h-13.363v2.533h13.363V601.62z"/>
<path class="st0" d="M356.191,624.919h-11.475c3.874,1.938,8.594,4.67,11.177,6.756l-4.619,4.123
	c-2.634-2.384-8.197-5.812-12.519-8.048l3.378-2.831h-5.714v11.128h-5.911v-11.128h-8.345l5.812,1.938
	c-2.881,3.378-7.75,6.458-11.972,8.346c-1.143-1.142-3.577-2.981-4.968-3.925c4.223-1.391,8.645-3.775,10.93-6.359h-10.83v-4.868
	h19.374v-3.427h5.911v3.427h19.772V624.919z M350.081,618.858c-3.527-1.441-8.445-2.881-14.109-4.272
	c-5.564,2.285-12.965,3.328-22.751,3.875c-0.447-1.788-1.193-3.626-2.037-4.868c5.713-0.149,10.532-0.546,14.606-1.242
	c-2.782-0.546-5.565-1.043-8.496-1.49c1.292-1.142,2.732-2.533,4.124-4.073h-9.886v-4.62h13.96c1.192-1.49,2.235-2.931,3.13-4.322
	h-10.78v2.733h-5.464v-7.601h17.635c-0.348-0.745-0.695-1.441-1.042-2.086l6.259-1.242c0.645,0.944,1.341,2.186,1.937,3.328h17.734
	v7.601h-5.713v-2.733h-18.231l3.577,1.093c-0.795,1.043-1.59,2.136-2.533,3.229h9.588c0.447-0.944,0.844-1.987,1.192-3.031
	l5.762,1.143c-0.198,0.646-0.446,1.292-0.695,1.888h7.799v4.62H345.51c-1.092,1.689-2.384,3.13-3.775,4.272
	c5.365,1.292,10.233,2.682,13.959,3.974L350.081,618.858z M327.676,606.787c-0.398,0.447-0.795,0.844-1.242,1.242
	c2.733,0.447,5.515,0.993,8.148,1.54c1.44-0.795,2.732-1.689,3.825-2.782H327.676z"/>
<path class="st0" d="M404.079,609.618c-1.888,6.011-4.322,11.376-7.551,16.046c1.044,2.633,2.235,4.173,3.577,4.173
	c0.994,0,1.49-1.987,1.738-7.153c1.193,1.242,3.13,2.484,4.471,3.03c-0.845,7.799-2.533,9.787-6.756,9.787
	c-2.931,0-5.166-1.838-6.955-4.918c-1.788,1.987-3.726,3.725-5.911,5.315c-0.547-0.844-1.49-1.887-2.384-2.782h-14.705v2.037h-5.017
	v-16.145c-0.398,0.398-0.795,0.795-1.193,1.142c-0.844-0.894-2.782-2.533-3.874-3.328c3.13-2.583,6.061-6.706,7.699-10.83
	l4.919,1.341c-0.447,1.093-0.994,2.186-1.59,3.279h4.471c-0.497-0.944-1.044-1.938-1.59-2.732l4.372-1.788
	c0.994,1.341,1.987,3.13,2.583,4.521h5.166v4.372h-6.16v2.086h5.316v3.478h-5.316v2.186h5.316v3.477h-5.316v2.285h5.863v1.391
	c1.788-1.49,3.526-3.179,5.067-5.117c-1.491-5.067-2.384-11.574-2.881-18.778h-26.578v-4.918h10.184v-2.931h-8.047v-4.819h8.047
	v-3.627h5.762v3.627h7.7v4.819h-7.7v2.931h10.383c-0.149-3.676-0.248-7.501-0.248-11.327h5.862
	c-0.099,3.875-0.05,7.701,0.099,11.327h12.916v4.918H393.15c0.298,4.57,0.795,8.744,1.441,12.27c1.639-3.13,3.03-6.507,4.073-10.184
	L404.079,609.618z M374.67,614.984h-5.068v2.086h5.068V614.984z M374.67,620.547h-5.068v2.186h5.068V620.547z M369.602,628.496
	h5.068v-2.285h-5.068V628.496z M400.353,600.527c-1.143-2.087-3.925-5.117-6.259-7.253l4.122-2.831
	c2.435,1.938,5.366,4.819,6.657,6.856L400.353,600.527z"/>
<path class="st0" d="M455.593,627.651v5.911h-45.356v-5.911h6.309v-27.82h6.21v27.82h9.042v-38.004h6.309v15.5h14.804v5.961h-14.804
	v16.543H455.593z"/>
<path class="st0" d="M192.83,627.502c9.985-8.942,15.897-15.847,15.897-21.511c0-3.725-2.036-5.961-5.514-5.961
	c-2.682,0-4.918,1.739-6.756,3.776l-3.974-3.974c3.378-3.577,6.657-5.564,11.675-5.564c6.955,0,11.574,4.471,11.574,11.326
	c0,6.657-5.514,13.811-12.221,20.368c1.838-0.199,4.273-0.398,5.961-0.398h7.999v6.16H192.83V627.502z"/>
</svg>
