<?xml version="1.0" encoding="utf-8"?>
<!-- Generator: Adobe Illustrator 21.0.0, SVG Export Plug-In . SVG Version: 6.00 Build 0)  -->
<svg version="1.1" id="Layer_1" xmlns="http://www.w3.org/2000/svg" xmlns:xlink="http://www.w3.org/1999/xlink" x="0px" y="0px"
	 viewBox="0 0 378 190" enable-background="new 0 0 378 190" xml:space="preserve">
<g id="XMLID_1_">
	<g id="XMLID_13_">
		<g id="XMLID_14_">
			<path id="XMLID_615_" fill="#B91C22" d="M74.2,32.8H2c-1,0-1.8-0.7-1.9-1.7s-0.1-2.6,0-4.2c0-0.6,0-1.2,0-1.7
				C0.1,9.7,10.4-0.7,25.8-0.7c11.6,0,20.7,6,24.9,16.2c2.7-3.6,6.7-5.9,11.1-5.9c8.4,0,14.2,5.7,14.2,14v7.2
				C76.1,31.9,75.2,32.8,74.2,32.8z M3.8,28.9h68.4v-5.3c0-7-5.2-10.1-10.4-10.1c-4.3,0-8.1,3-9.7,7.5c-0.3,0.8-1,1.3-1.9,1.3
				c-0.8,0-1.6-0.6-1.8-1.4C45.6,9.8,37.2,3.2,25.8,3.2c-13.3,0-21.9,8.7-21.9,22.1c0,0.5,0,1.1,0,1.8C3.9,27.6,3.8,28.3,3.8,28.9z"
				/>
		</g>
	</g>
	<g id="XMLID_11_">
		<g id="XMLID_12_">
			<path id="XMLID_612_" fill="#040000" d="M68.8,48.2c-5.3,0-9.7-3.7-11.5-8.8c-2.8,11-11.3,19.1-24.5,19.1
				C19.2,58.5,9,49.8,9,34.5c0-1.5-0.2-4.4,0-5.6h72.2c0,2.5,0,5.2,0,7.2C81.1,43.7,75.6,48.2,68.8,48.2z"/>
		</g>
	</g>
</g>
<g id="XMLID_22_">
	<path id="XMLID_263_" fill="#040000" d="M103.8,33.7c-2.3,5.2-6.1,10.7-9.5,14c-0.7-0.8-2.4-2.5-3.4-3.3c3.4-2.8,6.8-7.5,8.7-12.1
		L103.8,33.7z M112.7,48.4c2.6,3.5,5.5,8.1,7.1,11l-3.9,2.1c-0.4-0.9-1-2-1.7-3.1c-15.5,1.2-17.6,1.4-19.2,2c-0.3-0.8-1-2.9-1.6-4.1
		c1.1-0.3,1.9-1.2,3.2-2.6c1.3-1.4,5.3-6.8,7.9-12.1l4.4,1.9c-2.5,4.3-5.5,8.6-8.6,12.1l11.7-0.8c-1-1.6-2.1-3.3-3.1-4.7L112.7,48.4
		z M113.3,32.4c1.4,4.5,4.3,9,8.2,11.4c-0.9,0.8-2.2,2.7-2.9,3.8c-3.6-2.8-6.5-7.1-8.3-11.3h-5.1v-3.9H113.3z"/>
	<path id="XMLID_267_" fill="#040000" d="M142.9,50.6c1.4,4,3.5,6.7,5.2,6.7c0.8,0,1.1-1.3,1.3-4.5c0.9,0.8,2.2,1.5,3.3,1.8
		c-0.5,5.3-1.9,6.5-4.8,6.5c-4,0-7.4-4.4-9.1-10.5h-8.4v6L138,55c0,1.1,0.2,2.8,0.4,3.6c-9.4,2.2-11,2.5-12,3
		c-0.3-1-1.1-2.6-1.7-3.4c0.7-0.4,1.6-1.3,1.6-2.8V33h23.3v10.4h-8.4c0.1,1.2,0.3,2.4,0.5,3.6h10.1v3.6H142.9z M130.5,36.5v3.4h15.4
		v-3.4H130.5z M138,47c-0.2-1.2-0.4-2.4-0.5-3.6h-7V47H138z"/>
	<path id="XMLID_271_" fill="#040000" d="M165.6,52c-0.4-0.9-1.2-2.2-1.9-3.5v13H160V50c-1.1,2.5-2.2,4.7-3.5,6.3
		c-0.4-1.1-1.2-2.7-1.8-3.6c1.8-2,3.6-5.5,4.7-8.6h-4.3v-3.6h4.8v-3.6c-1.2,0.2-2.4,0.4-3.6,0.5c-0.1-0.9-0.6-2.1-1-2.9
		c3.6-0.5,7.6-1.5,10.3-2.6l2.1,3.1c-1.2,0.5-2.7,0.9-4.1,1.2v4.4h4.2v3.6h-4.2v0.3c0.9,0.9,3.6,3.9,4.2,4.6L165.6,52z M181.4,53.4
		v8.1h-3.7v-7.4l-9.7,1.7l-0.6-3.6l10.3-1.8V31.6h3.7v18.1l3.2-0.5l0.6,3.6L181.4,53.4z M173.4,48.9c-1-1.4-3.2-3.5-5.1-4.9l2.4-2.2
		c1.8,1.3,4.2,3.3,5.2,4.6L173.4,48.9z M174.2,40.5c-0.9-1.4-3-3.4-4.8-4.8l2.5-2.2c1.7,1.3,4,3.2,4.9,4.6L174.2,40.5z"/>
	<path id="XMLID_276_" fill="#040000" d="M198.3,48.7c-1.1,0.3-2.3,0.6-3.4,0.9v7.6c0,1.9-0.4,2.8-1.4,3.4c-1.1,0.6-2.6,0.7-4.8,0.7
		c-0.2-1-0.6-2.5-1.1-3.5c1.2,0,2.6,0,3,0c0.5,0,0.6-0.2,0.6-0.6v-6.6l-3.1,0.8l-1-3.6c1.2-0.2,2.6-0.5,4.1-0.9v-5.7h-3.7v-3.5h3.7
		v-6.1h3.8v6.1h3.1v3.5H195v4.7l2.9-0.7L198.3,48.7z M216,44.4c-1.2,4.4-3.3,7.9-6,10.6c2.1,1.5,4.5,2.5,7.4,3.2
		c-0.8,0.8-1.9,2.3-2.4,3.3c-3.1-0.9-5.8-2.2-8-4c-2.5,1.7-5.3,3-8.4,3.9c-0.4-1-1.3-2.6-2-3.5c2.8-0.7,5.4-1.7,7.6-3.1
		c-1.9-2.1-3.4-4.7-4.5-7.6l1-0.3H199v-3.4h6.3v-3.8h-6.9v-3.5h6.9v-4.6h3.8v4.6h7.2v3.5H209v3.8h3.8l0.7-0.2L216,44.4z M203.4,46.9
		c0.9,2.1,2.2,4,3.8,5.7c1.7-1.6,3-3.5,4-5.7H203.4z"/>
	<path id="XMLID_280_" fill="#040000" d="M225.8,40.6v-1.2c-1.1,0.8-2.2,1.6-3.4,2.3h13.5v10h-11.1c-0.1,0.3-0.1,0.7-0.2,1h12v8.5
		h-3.3v-0.9h-5.9v1h-3.2v-6.6c-0.4,2-1.1,4-2,5.6c-0.7-0.5-2.4-1.2-3.3-1.5c2.5-4.1,2.8-9.8,2.8-13.5v-3.2l-0.7,0.4
		c-0.4-0.9-1.3-2.8-2-3.6c3.7-1.6,7.5-4.2,9.5-7.3L232,33c-0.2,0.3-0.4,0.5-0.6,0.8c2.4,1.4,5,2.9,6.5,4l-2,3.2
		c-0.9-0.7-2.1-1.5-3.5-2.4v2.1L225.8,40.6L225.8,40.6z M232.4,49.1v-1.3h-7.3c0,0.4,0,0.9-0.1,1.3H232.4z M225.1,44.3v1.1v0.2h7.3
		v-1.2L225.1,44.3L225.1,44.3z M232.2,38.3c-1-0.6-2.1-1.3-3-1.9c-0.7,0.6-1.4,1.3-2.1,1.9H232.2z M227.4,55.3v2.3h5.9v-2.3H227.4z
		 M242,52.7h-3.6V34.9h3.6V52.7z M247.9,31.7v25.2c0,2-0.4,3.1-1.6,3.7c-1.1,0.6-2.9,0.8-5.5,0.8c-0.2-1.1-0.6-2.8-1.1-3.8
		c1.6,0,3.3,0,3.8,0s0.7-0.2,0.7-0.7V31.7H247.9z"/>
	<path id="XMLID_288_" fill="#040000" d="M256.7,52.5c-0.8,2.3-2.1,4.9-3.2,6.6c-0.6-0.5-1.8-1.3-2.5-1.7c1.1-1.5,2.1-3.7,2.8-5.7
		L256.7,52.5z M261.2,50.6v10.6h-3.7V50.6h-6v-3.2h6V45h-6.1v-3.1h3.1c-0.2-1-0.5-2.3-0.9-3.3l2.6-0.6h-4.3v-3.1h5.5
		c-0.3-0.9-0.6-1.8-1-2.5l3.8-0.9c0.5,1.1,1.1,2.4,1.4,3.5h4.6v3.1h-4l2.6,0.5c-0.5,1.2-1,2.5-1.4,3.5h3.3V45h-5.5v2.5h5v3.2h-5
		V50.6z M256.6,37.9c0.5,1.1,0.9,2.4,1.1,3.3l-2.3,0.6h4.6c0.5-1.2,1.1-2.8,1.4-4h-4.8V37.9z M280.9,45.6h-3v15.7h-3.7V45.6h-3V46
		c0,4.7-0.4,11.3-3.1,15.4c-0.6-0.7-2.1-1.9-2.9-2.3c0.6-0.9,1.1-2,1.4-3.1l-2.3,1.4c-0.5-1.3-1.6-3.3-2.5-4.8l2.5-1.3
		c0.9,1.3,1.9,3,2.4,4.2c0.9-3.1,1-6.5,1-9.5V34.6c3.5-0.6,7.4-1.6,9.7-2.7l2.9,2.8c-2.6,1.1-6,1.8-9.1,2.4v5h9.7V45.6z"/>
	<path id="XMLID_293_" fill="#040000" d="M303.5,55c3.4,1.2,7.3,2.6,9.6,3.6l-1.7,3c-2.8-1.4-8.5-3.6-12.5-4.9l1-1.6h-1
		c-1.5,2.7-5.2,5.3-13.8,6.7c-0.4-0.9-1.4-2.2-2.1-3.1c5.8-0.9,9-2.2,10.8-3.6h-10.7V52H296c0-0.3,0.1-0.6,0.1-0.9V49h3.8v2.2
		c0,0.3,0,0.5,0,0.7h5.6c-0.7-0.6-1.4-1.2-2.1-1.6l1.2-1.1h-1.2c-0.1-0.9-0.5-1.9-0.9-2.8c1,0.1,2.2,0.1,2.6,0.1s0.4-0.1,0.4-0.4
		v-1.9H300c0.8,0.6,1.7,1.3,2.1,1.9l-2.5,1.9c-0.6-0.8-2-2-3.1-2.8l1.3-1h-3.2v-2.5h1.2c-0.3-0.6-0.8-1.3-1.2-1.8
		c2.9-0.3,5.6-0.9,8-1.8c-0.7-0.8-1.7-1.7-2.7-2.5c-1,0.4-2.2,0.8-3.5,1.1c-0.4-0.7-1.2-1.7-1.9-2.1c3.8-0.8,6.7-1.9,8.4-3.1
		l3.1,0.6c-0.4,0.4-0.9,0.7-1.4,1.1h4.4l0.6-0.1l2,1c-1.4,2.6-3.6,4.3-6.4,5.6h3.5v2h3.6v2.5h-3.6v2c0,1.5-0.3,2.2-1.3,2.6
		c-0.4,0.2-1,0.3-1.7,0.4c1,0.6,1.9,1.4,2.5,2l-0.7,0.7h5.3V55H303.5z M288.5,44c0,1.5-0.4,4.6-2.6,6.4c-0.6-0.5-2-1.3-2.9-1.6
		c1.7-1.3,2.1-3.6,2.1-4.8h-1.8v-2.9h6.8v-1.8h-5.6v-6.9h3.2v4h2.4v-4.8h3.5v18.2h-3.5V44H288.5z M300.4,38.5
		c-1.6,0.2-3,0.3-4.5,0.5l-0.3-1.9c1.3-0.1,2.9-0.2,4.8-0.4V38.5z M305.3,41.7v-2c-2,0.9-4.3,1.5-6.7,2H305.3z M302.9,35.2
		c0.7,0.6,1.4,1.2,2,1.9c0.9-0.5,1.8-1.2,2.4-1.9H302.9z"/>
	<path id="XMLID_299_" fill="#040000" d="M344,40.2c-0.3,13.1-0.6,17.8-1.6,19.3c-0.7,1.1-1.5,1.4-2.7,1.6c-1,0.2-2.7,0.2-4.4,0.1
		c-0.1-1-0.4-2.6-1.1-3.6c1.6,0.1,3,0.1,3.7,0.1c0.5,0,0.8-0.1,1.1-0.5c0.7-0.9,1-4.8,1.2-15.1h-3.4c-0.5,8.4-2.2,15.2-8.4,19.4
		c-0.6-0.9-1.8-2.2-2.7-2.9c1.6-1.1,2.8-2.2,3.8-3.6c-4.9,1.2-10.1,2.4-14,3.4l-0.6-3.9c0.6-0.1,1.4-0.3,2.2-0.4V32.9h11.1v18.8
		l1.4-0.3l0.4,3c2.1-3.3,2.9-7.5,3.2-12.4h-4.1v-3.6h4.2c0-2.2,0-4.4,0-6.9h3.7c0,2.4,0,4.7-0.1,6.9h6.9v1.8H344z M320.5,36.3v3.2
		h4.2v-3.2H320.5z M324.7,42.9h-4.2v3.3h4.2V42.9z M320.5,53.4c1.3-0.3,2.8-0.6,4.2-0.9v-3h-4.2V53.4z"/>
	<path id="XMLID_304_" fill="#040000" d="M364.1,44.3v3.3h10.2V51h-5.1l3.2,1.2c-1.1,1.8-2.4,3.7-3.4,5.1h6.9v3.5h-27.7v-3.5h6.3
		c-0.5-1.5-1.6-3.6-2.7-5.2l2.5-1.1h-4.6v-3.4H360v-3.3h-6.5v-1.6c-1.3,0.6-2.7,1.2-4.1,1.7c-0.5-1.1-1.6-2.6-2.5-3.5
		c6-1.7,11.8-5,14.8-9.7l3.6,1.6c-0.3,0.4-0.6,0.8-0.9,1.3c3.1,2.8,8.3,5.5,13.1,6.8c-0.9,0.8-2,2.3-2.6,3.3
		c-1.4-0.5-2.9-1.2-4.4-1.9v1.9h-6.4V44.3z M355.1,51.1c1.1,1.6,2.3,3.7,2.8,5.1l-2.6,1.2h4.7v-6.2L355.1,51.1L355.1,51.1z
		 M367.7,40.8c-2-1.2-3.9-2.7-5.5-4.2c-1.5,1.6-3.3,2.9-5.2,4.2H367.7z M364.1,51.1v6.2h4l-2.1-0.9c1-1.4,2.2-3.7,2.8-5.3H364.1z"/>
</g>
<g id="XMLID_9_">
	<g id="XMLID_21_">
		<path id="XMLID_261_" fill="#040000" d="M108.2,12.5c3.1,0,5.2,0.4,6.8,1V11c-1.3-0.4-3.4-0.9-6.7-0.9c-4.2,0-6.3,0.9-7.3,1.9
			c-0.9,0.9-1.4,2.2-1.4,3.8s0.5,2.8,1.4,3.8c1,1,3,1.9,7.1,1.9c3.3,0,5.3-0.5,6.6-1.7c0.7-0.7,1-1.7,1-3.3V15h-9.2v2.1h6.5
			c0,0.2,0,0.8-0.4,1.2c-0.7,0.7-2.3,0.9-4.5,0.9c-2.7,0-4.1-0.5-4.8-1.2c-0.5-0.5-0.7-1.2-0.7-2.2s0.3-1.7,0.8-2.2
			C104,13,105.5,12.5,108.2,12.5C108.2,12.5,105.5,12.5,108.2,12.5L108.2,12.5L108.2,12.5z"/>
	</g>
	<g id="XMLID_20_">
		<path id="XMLID_260_" fill="#040000" d="M160,10.6h-3.5l-5.5,8.2l-5.5-8.2h-3.6l7.2,10.5h3.7l0,0L160,10.6L160,10.6z"/>
	</g>
	<g id="XMLID_19_">
		<path id="XMLID_259_" fill="#B91C22" d="M141,3.4h-3l-19.4,24.9h3L141,3.4z"/>
	</g>
	<g id="XMLID_10_">
		<path id="XMLID_2_" fill="#040000" d="M136.8,12.1c-1-1-2.9-1.9-7.1-1.9c-4,0-6.1,0.9-7.1,1.9c-0.9,0.9-1.4,2.1-1.4,3.7
			s0.5,2.8,1.4,3.7c1,1,3,1.9,7.1,1.9c4.1,0,6.1-0.9,7.1-1.9c0.9-0.9,1.4-2.1,1.4-3.7C138.2,14.1,137.8,13,136.8,12.1z M129.8,19.2
			c-2.7,0-4.1-0.6-4.7-1.2c-0.5-0.5-0.8-1.1-0.8-2.2s0.3-1.8,0.8-2.2c0.6-0.6,2-1.1,4.7-1.1s4,0.5,4.7,1.1c0.5,0.5,0.8,1.1,0.8,2.2
			s-0.3,1.8-0.8,2.2C133.8,18.7,132.5,19.2,129.8,19.2z"/>
	</g>
</g>
<g id="XMLID_3_">
	<path id="XMLID_208_" fill="#B91C22" d="M52,93.2c-1.4,0.7-2.2,2-2.2,2.8c0.1,0,0.3-0.1,0.5-0.1c1,0,1.7,0.8,1.7,1.8
		s-0.7,1.8-1.9,1.8S48,98.4,48,96.9c0-2.4,1.6-4.1,3.3-4.9L52,93.2z M56.9,93.2c-1.5,0.7-2.2,2-2.2,2.8c0.1,0,0.3-0.1,0.5-0.1
		c1,0,1.7,0.8,1.7,1.8s-0.7,1.8-1.9,1.8s-2.1-1.1-2.1-2.6c0-2.4,1.6-4.1,3.3-4.9L56.9,93.2z"/>
	<path id="XMLID_211_" fill="#B91C22" d="M62.7,103.5c-0.9-0.8-2.9-1.9-4.4-2.6l1.5-2.1c1.5,0.6,3.6,1.6,4.5,2.4L62.7,103.5z
		 M65.5,106.8c-1.2,2.5-2.6,5.3-4,7.6l-2.4-1.9c1.2-1.8,3-4.8,4.3-7.5L65.5,106.8z M64,97.1c-0.9-0.9-2.9-2-4.4-2.7l1.6-2.1
		c1.5,0.6,3.5,1.6,4.5,2.5L64,97.1z M79.5,104c-0.8,2.6-2.2,4.7-3.9,6.2c1.6,0.8,3.4,1.4,5.4,1.8c-0.6,0.6-1.5,1.8-1.9,2.6
		c-2.3-0.6-4.3-1.4-6-2.5c-2,1.2-4.4,2-7,2.5c-0.3-0.8-0.9-1.9-1.4-2.6c2.2-0.4,4.3-1,6-1.8c-1.1-1.1-2.1-2.3-2.9-3.7l1.8-0.6h-3.2
		v-2.5h10.7l0.5-0.1L79.5,104z M70.9,96.9c-0.8,2.6-2,4.8-3.7,6.3c-0.5-0.5-1.8-1.4-2.5-1.8c2.4-1.9,3.7-5.2,4.2-9.2l3,0.3
		c-0.1,0.6-0.2,1.2-0.3,1.8h7.8c0,0,0,0.7-0.1,1.1c-0.2,3.9-0.6,5.6-1.2,6.3c-0.5,0.6-1.1,0.8-1.9,0.9c-0.7,0.1-1.8,0.1-3.1,0
		c0-0.8-0.4-1.9-0.8-2.6c1.1,0.1,2.2,0.1,2.6,0.1s0.6,0,0.8-0.2c0.3-0.3,0.5-1.2,0.6-3L70.9,96.9L70.9,96.9z M70.5,105.9
		c0.6,1,1.5,2,2.6,2.8c1-0.8,1.8-1.7,2.5-2.8H70.5z"/>
	<path id="XMLID_218_" fill="#B91C22" d="M91.2,97.8c-0.3,0.6-0.6,1.3-1,1.9h11.2v11.9c0,1.4-0.3,2.2-1.2,2.6
		c-0.9,0.5-2.3,0.5-4.2,0.5c-0.1-0.8-0.5-2-0.9-2.8c1.2,0.1,2.6,0.1,3,0.1s0.6-0.1,0.6-0.5V110h-9c-0.4,1.8-1.2,3.6-2.7,4.8
		c-0.4-0.6-1.5-1.8-2.1-2.2c2.1-1.8,2.2-4.4,2.2-6.6v-1.9c-0.9,1-1.9,1.8-3,2.6c-0.4-0.6-1.3-1.7-1.9-2.2c2.4-1.6,4.3-4,5.8-6.7
		h-5.2v-2.7h6.4c0.4-1,0.7-1.9,1-2.9l3,0.7c-0.2,0.7-0.5,1.5-0.8,2.2h11.7v2.7H91.2z M98.7,107.7v-1.6H90c0,0.5,0,1,0,1.6H98.7z
		 M98.7,102.2H90v1.5h8.6L98.7,102.2L98.7,102.2z"/>
	<path id="XMLID_222_" fill="#B91C22" d="M118.9,92.3c0,1-0.1,2.3-0.2,3.7c0.3,3.2,1.8,12.3,10.2,16c-0.9,0.7-1.7,1.7-2.1,2.5
		c-5.3-2.5-8-7.2-9.4-11.4c-1.3,4.2-3.8,8.6-8.8,11.5c-0.5-0.8-1.4-1.7-2.4-2.3c9.7-5.2,9.3-16,9.4-20
		C115.6,92.3,118.9,92.3,118.9,92.3z"/>
	<path id="XMLID_224_" fill="#040000" d="M147.6,108.2c-0.6,1-1.3,1.8-2.2,2.6c2.5,0.6,4.8,1.2,6.7,1.8l-2.6,2
		c-1.8-0.7-4.2-1.4-6.9-2.1c-2.7,1.3-6.4,1.9-11,2.2c-0.2-0.8-0.6-1.8-1.1-2.5c2.9-0.1,5.4-0.4,7.5-0.8c-1.5-0.3-3.1-0.6-4.7-0.9
		c0.6-0.7,1.2-1.4,1.8-2.3h-4.6v-2.4h6.1c0.5-0.7,0.9-1.5,1.2-2.2H132v-6.7h5.2v-1.4h-6.3V93h20.9v2.5h-6.5v1.4h5.7v6.7h-12.9
		l2.5,0.6c-0.2,0.5-0.5,1.1-0.8,1.6h5.8c0.2-0.4,0.4-0.9,0.5-1.3l2.8,0.7c-0.1,0.2-0.2,0.5-0.2,0.7h3.6v2.4L147.6,108.2L147.6,108.2
		z M134.7,101.4h2.5v-2.2h-2.5V101.4z M138.4,108.2c-0.2,0.3-0.5,0.6-0.7,0.9c1.4,0.3,2.9,0.6,4.2,0.9c0.8-0.5,1.6-1.1,2.2-1.8
		H138.4z M139.9,96.9h2.7v-1.4h-2.7V96.9z M142.6,101.4v-2.2h-2.7v2.2H142.6z M145.3,99.2v2.2h2.9v-2.2H145.3z"/>
	<path id="XMLID_231_" fill="#040000" d="M161.6,107.2c0-0.3-0.1-0.7-0.2-1.2c-4.8,0.7-5.7,0.9-6.3,1.2c-0.1-0.5-0.6-1.8-0.9-2.6
		c0.6-0.2,1.2-0.7,1.9-1.6c0.3-0.3,0.8-1,1.5-1.9c-1.8,0.2-2.4,0.4-2.7,0.5c-0.1-0.5-0.6-1.8-0.9-2.4c0.5-0.1,0.9-0.6,1.4-1.3
		c0.5-0.7,2.1-3.3,3-5.9l2.6,1.1c-0.9,2-2.1,4.1-3.4,5.8l1.6-0.1c0.6-1,1.2-2,1.7-3.1l2.4,1.5c-1.4,2.4-3.1,4.9-5,7l2.5-0.3
		c-0.2-0.6-0.4-1.3-0.6-1.8l2.1-0.7c0.6,1.6,1.3,3.8,1.5,5L161.6,107.2z M157.6,108.4c-0.2,2.2-0.6,4.6-1.1,6.1
		c-0.5-0.3-1.7-0.6-2.3-0.8c0.6-1.4,0.9-3.7,1-5.7L157.6,108.4z M160.2,107.9c0.3,1.7,0.6,3.9,0.7,5.3l-2.3,0.5
		c0-1.5-0.3-3.7-0.6-5.4L160.2,107.9z M162.7,107.2c0.5,1.4,1.1,3.3,1.3,4.5l-2.1,0.7c-0.2-1.2-0.7-3.1-1.2-4.6L162.7,107.2z
		 M171.4,93c-0.1,0.3-0.2,0.6-0.4,0.8c1.5,2.4,3.9,4.9,6.2,6.3c-0.7,0.5-1.6,1.6-2.1,2.3c-0.5-0.4-1-0.9-1.6-1.3v1.5h-7.9v-1.2
		c-0.5,0.5-1.1,0.9-1.6,1.3c-0.4-0.6-1.3-1.6-1.9-2.1c3-1.9,5.5-5.2,6.7-8.4L171.4,93z M164.5,104.5h10.8v10.2h-2.9v-1.2h-5.1v1.2
		h-2.8V104.5z M172.6,100c-1-1.1-1.9-2.4-2.8-3.6c-0.8,1.3-1.7,2.5-2.7,3.6H172.6z M167.2,107v4h5.1v-4H167.2z"/>
	<path id="XMLID_240_" fill="#040000" d="M185.9,93.2c-0.6,1.7-1.4,3.3-2.3,4.9v16.5h-2.7v-12.3c-0.5,0.7-1.1,1.4-1.6,1.9
		c-0.3-0.7-1.1-2.3-1.5-3c2.2-2.2,4.2-5.6,5.4-9L185.9,93.2z M194.4,99.2v12.3c0,1.4-0.2,2.2-1.1,2.6c-0.8,0.5-2,0.6-3.5,0.6
		c-0.1-0.8-0.6-2.1-1-2.9c1,0,2,0,2.4,0c0.3,0,0.4-0.1,0.4-0.4V99.2h-2.8c-0.7,1.4-1.5,2.7-2.3,3.7c-0.5-0.5-1.7-1.4-2.3-1.9
		c1.8-2,3.3-5.4,4.1-8.6l2.8,0.6c-0.3,1.2-0.7,2.4-1.1,3.6h8.3l0.5-0.1l2,0.4c-0.3,1.9-0.7,4.2-1,5.6l-2.4-0.4
		c0.1-0.7,0.3-1.8,0.4-2.8L194.4,99.2L194.4,99.2z M190.4,103.5c-0.7,3-1.9,6.1-3.3,8c-0.6-0.5-1.8-1.2-2.4-1.5
		c1.4-1.7,2.4-4.4,2.9-7.1L190.4,103.5z M197.8,102.7c1.2,2.5,2.3,5.7,2.6,7.8l-2.7,0.9c-0.3-2.1-1.3-5.4-2.4-7.9L197.8,102.7z"/>
	<path id="XMLID_245_" fill="#040000" d="M211.1,109.9l0.1,2.3c-2.9,0.7-5.9,1.3-8.2,1.8l-0.5-2.6c1-0.1,2.2-0.4,3.5-0.6v-6h-3.1
		v-2.4h3.1v-1.8h-1.8v-1.1c-0.4,0.4-0.8,0.7-1.2,1c-0.1-0.6-0.6-2.2-1-2.9c1.8-1.3,3.6-3.4,4.7-5.6l2,1c-0.1,0.3-0.3,0.6-0.4,0.9
		c1.4,0.8,2.8,1.9,3.7,2.7l-1.2,2.4c-0.2-0.2-0.4-0.4-0.6-0.6v2.2h-2v1.8h2.8v2.4h-2.8v5.6L211.1,109.9z M204.7,105.7
		c0.4,1.3,0.8,3,0.9,4.1l-1.8,0.6c-0.1-1.2-0.4-2.9-0.8-4.2L204.7,105.7z M210.1,98.3c-0.9-0.8-2-1.6-3.1-2.3
		c-0.5,0.8-1.1,1.6-1.7,2.3H210.1z M208.4,109.5c0.3-1.1,0.7-2.8,0.8-4l1.9,0.6c-0.4,1.4-0.9,3-1.2,4L208.4,109.5z M223.2,108.5
		c-0.8,1.1-1.9,2.1-3.1,2.9c0.6,0.6,1.3,0.9,1.9,0.9c0.6,0,0.8-0.5,0.9-1.9c0.5,0.5,1.3,0.8,2,1c-0.4,2.6-1.2,3.2-3,3.2
		c-1.5,0-2.9-0.7-4-1.9c-1.6,0.8-3.3,1.4-5,1.9c-0.3-0.5-1.1-1.6-1.6-2.1c1.8-0.4,3.6-1,5.2-1.7c-0.5-0.8-0.8-1.6-1.2-2.6l-3.1,0.3
		l-0.2-2.3l2.7-0.2c-0.2-1-0.4-2-0.4-3c-0.4,0.1-0.7,0.2-1.1,0.3c-0.3-0.6-1.1-1.6-1.6-2c1.7-0.4,3.4-0.9,4.9-1.5
		c-0.4-0.6-0.7-1.3-1-2.1l-3.2,0.3l-0.2-2.3l2.8-0.2c-0.2-1-0.4-2.1-0.5-3.2h2.5c0,1.1,0.2,2.1,0.4,3l3.2-0.3
		c-0.6-0.5-1.6-1-2.4-1.3l1.4-1.5c1,0.4,2.2,1,2.9,1.5l-1.1,1.3l2.8-0.2l0.2,2.2l-3.2,0.3l2,0.7c-0.7,0.9-1.7,1.7-2.8,2.4
		c0.5,0.4,1,0.6,1.6,0.6s0.7-0.4,0.8-1.6c0.5,0.5,1.3,0.8,1.9,1c-0.4,2.4-1.1,2.9-2.8,2.9c-1.4,0-2.7-0.6-3.7-1.6
		c-0.8,0.4-1.7,0.7-2.6,1.1h1.4c0,1.1,0.2,2.2,0.4,3.2l3.3-0.3c-0.7-0.5-1.8-1.1-2.6-1.4l1.3-1.5c1,0.4,2.4,1.1,3.1,1.6l-1.2,1.3
		l3.1-0.3l0.2,2.2l-3.6,0.3L223.2,108.5z M218,108.1c0.2,0.6,0.5,1.1,0.8,1.6c0.8-0.5,1.4-1.1,2-1.8L218,108.1z M218.3,97.5
		c0.2,0.4,0.4,0.8,0.6,1.2c0.7-0.4,1.3-0.9,1.8-1.4L218.3,97.5z"/>
	<path id="XMLID_253_" fill="#040000" d="M234.4,110.4c0-1.4,1.1-2.4,2.5-2.4s2.5,1,2.5,2.4s-1.1,2.4-2.5,2.4
		S234.4,111.8,234.4,110.4z M234.8,98.2l-0.1-3.6h4.4l-0.1,3.6l-0.8,8.2h-2.5L234.8,98.2z"/>
	<path id="XMLID_256_" fill="#040000" d="M243.4,98.3c1.5-0.7,2.2-2,2.2-2.8c-0.1,0.1-0.3,0.1-0.5,0.1c-1,0-1.7-0.8-1.7-1.8
		c0-0.9,0.7-1.8,1.9-1.8s2.1,1.1,2.1,2.6c0,2.4-1.6,4.1-3.3,4.8L243.4,98.3z M248.3,98.3c1.4-0.7,2.2-2,2.2-2.8
		c-0.1,0.1-0.3,0.1-0.5,0.1c-1,0-1.7-0.8-1.7-1.8c0-0.9,0.7-1.8,1.9-1.8s2.1,1.1,2.1,2.6c0,2.4-1.6,4.1-3.3,4.8L248.3,98.3z"/>
</g>
<path id="XMLID_110_" d="M55.2,145c-0.2,0-0.5,0-0.8,0c-1.8,0.1-2.6,1.1-2.8,2.1l0,0c0.5-0.5,1-0.7,1.9-0.7c1.5,0,2.7,1,2.7,2.8
	c0,1.7-1.4,3.2-3.3,3.2c-2.4,0-3.5-1.7-3.5-3.8c0-1.7,0.6-3,1.6-3.9c0.9-0.8,2-1.2,3.4-1.4c0.3,0,0.7,0,0.8,0
	C55.2,143.3,55.2,145,55.2,145z M54.1,149.4c0-0.8-0.5-1.5-1.4-1.5c-0.6,0-1,0.3-1.2,0.8c0,0.1-0.1,0.2-0.1,0.6
	c0,0.9,0.5,1.8,1.5,1.8C53.6,150.9,54.1,150.3,54.1,149.4z"/>
<path id="XMLID_113_" d="M62.6,153.4v-7.7c-0.5,0.8-0.9,1.6-1.5,2.1c-0.1-0.2-0.3-0.7-0.5-0.9c1.1-1.4,2.3-3.7,2.9-6.1l1,0.3
	c0,0.1-0.1,0.1-0.3,0.1c-0.3,0.9-0.7,1.8-1,2.7l0.3,0.1c0,0.1-0.1,0.1-0.2,0.2v9H62.6z M65.1,141.7h8.1v11.6h-0.9v-0.7H66v0.8h-0.9
	V141.7z M66,151.8h6.3v-9.4H66V151.8z M71.6,145.3h-2.1v1.6h1.7v3.6h-3.9v-3.6h1.6v-1.6h-2.1v-0.7h2.1v-1.6l1,0.1
	c0,0.1-0.1,0.1-0.2,0.2v1.4h2.1v0.6H71.6z M70.3,149.9v-2.3h-2.5v2.3H70.3z"/>
<path id="XMLID_119_" d="M85.2,141.6v10.5c0,0.7-0.2,1-0.7,1.1c-0.5,0.1-1.4,0.2-2.9,0.1c-0.1-0.2-0.2-0.7-0.3-1c0.7,0,1.2,0,1.8,0
	c1.1,0,1.2,0,1.2-0.5v-3h-6.6c-0.3,1.6-1,3.2-2.5,4.4c-0.1-0.2-0.5-0.6-0.7-0.7c2.4-2,2.6-4.7,2.6-7v-4.2h8.1V141.6z M77.9,145.8
	c0,0.7,0,1.6-0.1,2.5h6.5v-2.5H77.9z M84.3,142.5h-6.4v2.4h6.4V142.5z"/>
<path id="XMLID_123_" d="M88.5,149.7c1,0.8,2.4,2.1,3,3l-0.9,0.7c-0.7-0.9-2-2.3-2.9-3L88.5,149.7z"/>
<path id="XMLID_125_" d="M107.9,148.5h-2c0,1-0.1,1.7-0.1,2.4h1.7v0.8h-1.8c-0.2,1.6-0.7,1.8-1.9,1.8c-0.3,0-0.8,0-1.2,0
	c0-0.2-0.1-0.6-0.2-0.8c0.6,0,1,0,1.4,0c0.7,0,0.9,0,1-1h-7l-0.1,0.6h-0.9c0.2-1,0.5-2.3,0.6-3.6h-1.9v-0.8h2.1
	c0.1-1.1,0.3-2.1,0.3-3h7.8h0.5c0,0.6-0.1,2.7-0.1,3h1.9v0.7H107.9z M107.3,143.3h-9.1c-0.7,1-1.4,1.9-2.1,2.7
	c-0.2-0.1-0.6-0.3-0.8-0.6c1.1-1,2.4-2.9,3.2-4.6l1.1,0.3c-0.1,0.1-0.2,0.1-0.3,0.1c-0.2,0.3-0.3,0.8-0.6,1.2h8.7V143.3z
	 M102.5,150.8h2.4c0.1-0.6,0.1-1.4,0.2-2.4h-6.8c-0.1,0.8-0.2,1.7-0.3,2.4H102.5c-0.6-0.6-1.7-1.4-2.6-1.8l0.6-0.6
	c1,0.5,2.1,1.2,2.7,1.8L102.5,150.8z M105.1,147.7c0-0.7,0.1-1.5,0.1-2.3h-6.5c-0.1,0.7-0.2,1.5-0.3,2.3H105.1z M100.6,145.4
	c0.9,0.3,2,1,2.6,1.6l-0.6,0.6c-0.6-0.6-1.6-1.2-2.5-1.6L100.6,145.4z"/>
<path id="XMLID_131_" d="M110.9,153.4v-7.7c-0.5,0.8-0.9,1.6-1.5,2.1c-0.1-0.2-0.3-0.7-0.5-0.9c1.1-1.4,2.3-3.7,2.9-6.1l1,0.3
	c0,0.1-0.1,0.1-0.3,0.1c-0.3,0.9-0.7,1.8-1,2.7l0.3,0.1c0,0.1-0.1,0.1-0.2,0.2v9H110.9z M113.5,141.7h8.1v11.6h-0.9v-0.7h-6.4v0.8
	h-0.9v-11.7H113.5z M114.3,151.8h6.3v-9.4h-6.3V151.8z M120.1,145.3h-2.1v1.6h1.7v3.6h-3.9v-3.6h1.6v-1.6h-2.1v-0.7h2.1v-1.6l1,0.1
	c0,0.1-0.1,0.1-0.2,0.2v1.4h2.1v0.6H120.1z M118.7,149.9v-2.3h-2.5v2.3H118.7z"/>
<path id="XMLID_137_" d="M135.9,149.6v0.8h-3.3v2c0,0.5-0.1,0.8-0.6,0.9c-0.5,0.1-1.1,0.1-2.3,0.1c0-0.2-0.1-0.6-0.3-0.8
	c0.9,0,1.6,0,1.8,0c0.2,0,0.3-0.1,0.3-0.2v-2h-8.2v-0.8h8.2v-0.9h1.1c0,0.1-0.1,0.1-0.2,0.2v0.7L135.9,149.6L135.9,149.6z
	 M129.3,143.5v-0.8h-5.6v-0.8h5.6v-1.1l1.1,0.1c0,0.1-0.1,0.1-0.2,0.2v0.8h5.6v0.8h-5.6v0.8h4.1v3.7h-1.5c1,0.3,2,0.9,2.6,1.4
	l-0.6,0.6c-0.2-0.2-0.5-0.3-0.8-0.6c-3.5,0.1-7.2,0.2-9.5,0.2c0,0.1-0.1,0.1-0.2,0.2l-0.3-0.9c1.4,0,3.2,0,5.2,0v-0.8h-3.9v-3.7h4.1
	V143.5z M127.9,152.7c-0.5-0.6-1.5-1.2-2.3-1.8l0.7-0.6c0.8,0.5,1.8,1.2,2.4,1.7L127.9,152.7z M126.1,144.2v0.9h3.2v-0.9H126.1z
	 M126.1,146.5h3.2v-0.9h-3.2V146.5z M133.3,144.2h-3.3v0.9h3.2v-0.9H133.3z M133.3,146.5v-0.9h-3.3v0.9H133.3z M130.1,147.2v0.8h2.8
	c-0.3-0.2-0.8-0.3-1.1-0.5l0.3-0.3H130.1z"/>
<path id="XMLID_146_" d="M149.9,149.9h-4.8c1.2,1.1,3.3,2,5.2,2.5c-0.2,0.2-0.5,0.6-0.6,0.8c-1.9-0.6-4.2-1.7-5.4-3v3.3h-0.9v-3.2
	c-1.4,1.4-3.4,2.4-5.3,2.9c-0.1-0.2-0.3-0.6-0.6-0.7c1.8-0.5,3.9-1.4,5.1-2.5h-4.8v-0.8h5.6v-1.1l1.1,0.1c0,0.1-0.1,0.1-0.2,0.2v0.9
	h5.7v0.6H149.9z M140.6,146.9l-0.8-0.3c0.3-0.5,0.9-1,1.4-1.6h-3.3v-0.8h3.8c0.3-0.5,0.7-0.9,1-1.4l1,0.3c0,0.1-0.1,0.1-0.3,0.1
	c-0.2,0.2-0.5,0.6-0.7,0.9h7v0.8H147c-0.3,0.8-0.9,1.4-1.6,1.9c1.4,0.3,2.7,0.8,3.6,1.1l-0.6,0.7c-1-0.3-2.5-0.8-4.1-1.2
	c-1.4,0.6-3.2,1-6,1.1c0-0.2-0.2-0.6-0.3-0.7c2.1-0.1,3.8-0.3,5-0.8c-0.8-0.2-1.6-0.3-2.4-0.6L140.6,146.9z M139.1,142.7v1.1h-0.9
	v-2h5.1v-1l1.1,0.1c0,0.1-0.1,0.1-0.2,0.2v0.8h5.2v2h-0.9v-1.1h-9.4V142.7z M142.1,145c-0.2,0.3-0.6,0.7-0.8,1
	c0.9,0.2,1.9,0.5,2.9,0.7c0.8-0.5,1.4-0.9,1.7-1.6h-3.8V145z"/>
<path id="XMLID_151_" d="M155.4,150.3c0.3,0.2,1.2,0.6,2,0.6c1,0,1.6-0.6,1.6-1.1c0-0.9-0.9-1.2-1.8-1.2h-0.8V147h0.8
	c0.7,0,1.6-0.2,1.6-1c0-0.6-0.5-0.9-1.4-0.9c-0.7,0-1.5,0.3-1.8,0.6l-0.5-1.5c0.6-0.3,1.6-0.7,2.7-0.7c1.9,0,2.9,1,2.9,2.1
	c0,0.9-0.6,1.7-1.6,2l0,0c1,0.2,1.9,1,1.9,2.1c0,1.6-1.4,2.7-3.6,2.7c-1.1,0-2.1-0.3-2.6-0.7L155.4,150.3z"/>
<path id="XMLID_153_" d="M169.6,147.8c0,2.7-1.1,4.6-3.4,4.6c-2.3,0-3.3-2-3.3-4.5c0-2.6,1.1-4.5,3.4-4.5
	C168.6,143.3,169.6,145.4,169.6,147.8z M165,147.9c0,2,0.5,2.9,1.2,2.9s1.2-1,1.2-3c0-1.9-0.5-2.9-1.2-2.9
	C165.6,144.9,165,145.9,165,147.9z"/>
<path id="XMLID_156_" d="M171.2,149.7c0-1.8,0.8-2.5,1.9-2.5c0.7,0,1.1,0.2,1.9,0.7c0.6,0.3,1,0.6,1.2,0.6c0.3,0,0.6-0.3,0.6-1.1
	h1.2c0.1,1.9-0.8,2.6-1.8,2.6c-0.7,0-1.1-0.2-1.9-0.7c-0.6-0.3-1-0.6-1.2-0.6c-0.3,0-0.6,0.2-0.7,1.1h-1.2V149.7z"/>
<path id="XMLID_158_" d="M185.6,145.2h-3.4l-0.2,1.4c0.2,0,0.3,0,0.6,0c0.8,0,1.7,0.2,2.4,0.7c0.7,0.5,1,1.1,1,2.3
	c0,1.7-1.4,3-3.7,3c-1,0-1.9-0.2-2.5-0.5l0.3-1.6c0.3,0.2,1.2,0.5,2,0.5c0.9,0,1.8-0.5,1.8-1.4c0-0.9-0.7-1.5-2.5-1.5
	c-0.5,0-0.8,0-1.2,0.1l0.6-4.6h4.8L185.6,145.2L185.6,145.2z"/>
<path id="XMLID_160_" d="M194.3,147.8c0,2.7-1.1,4.6-3.4,4.6c-2.3,0-3.3-2-3.3-4.5c0-2.6,1.1-4.5,3.4-4.5
	C193.4,143.3,194.3,145.4,194.3,147.8z M189.7,147.9c0,2,0.5,2.9,1.2,2.9c0.8,0,1.2-1,1.2-3c0-1.9-0.5-2.9-1.2-2.9
	C190.3,144.9,189.7,145.9,189.7,147.9z"/>
<path id="XMLID_163_" d="M208.3,142h3.2v0.8h-3.2v0.8h-0.9v-0.8h-3.9v0.8h-0.9v-0.8h-3.2V142h3.2v-1.1l1.1,0.1
	c0,0.1-0.1,0.1-0.2,0.2v0.9h3.9V141l1.1,0.1c0,0.1-0.1,0.1-0.2,0.2V142z M210.8,148.7v3.8c0,0.9-0.3,0.9-2.3,0.9
	c0-0.2-0.1-0.6-0.2-0.8c0.7,0,1.2,0,1.4,0c0.2,0,0.2,0,0.2-0.2v-3h-4.1v1.6l1.8-0.1c-0.2-0.3-0.5-0.7-0.7-1l0.7-0.2
	c0.7,0.7,1.2,1.7,1.5,2.5l-0.7,0.2c-0.1-0.2-0.2-0.6-0.3-0.8c-2.1,0.1-4.3,0.2-5.7,0.3c0,0.1-0.1,0.1-0.2,0.2l-0.3-1
	c0.8,0,1.9,0,3.2-0.1v-1.6H201v3.9h-0.9v-4.7h4.8v-0.7h-3.8v-4.1h8.7v4.1h-3.9v0.7h5V148.7z M202,144.5v1h2.9v-1H202z M202,147.2
	h2.9v-1H202V147.2z M209,145.5v-1h-3v1H209z M209,147.2v-1h-3v1H209z"/>
<g id="XMLID_5_">
	<path id="XMLID_6_" fill="#040000" d="M190,15.5c0-1.9,1.1-3,2.6-3c0.7,0,1.3,0.4,1.6,0.7l-0.4,0.5c-0.3-0.3-0.7-0.6-1.2-0.6
		c-1.1,0-1.8,0.9-1.8,2.4s0.7,2.4,1.8,2.4c0.6,0,1-0.2,1.4-0.7l0.4,0.5c-0.5,0.5-1,0.8-1.8,0.8C191.1,18.6,190,17.4,190,15.5z"/>
	<path id="XMLID_8_" fill="#040000" d="M195.2,12.8c0-0.3,0.2-0.5,0.5-0.5s0.5,0.2,0.5,0.5s-0.2,0.5-0.5,0.5
		C195.4,13.2,195.2,13,195.2,12.8z M195.3,14.1h0.7v4.3h-0.7V14.1z"/>
	<path id="XMLID_25_" fill="#040000" d="M196.9,14.1h0.8l0.8,2.5c0.1,0.4,0.3,0.9,0.4,1.3l0,0c0.1-0.4,0.3-0.9,0.4-1.3l0.8-2.5h0.7
		l-1.5,4.3h-0.8L196.9,14.1z"/>
	<path id="XMLID_27_" fill="#040000" d="M201.6,12.8c0-0.3,0.2-0.5,0.5-0.5s0.5,0.2,0.5,0.5s-0.2,0.5-0.5,0.5S201.6,13,201.6,12.8z
		 M201.7,14.1h0.7v4.3h-0.7V14.1z"/>
	<path id="XMLID_30_" fill="#040000" d="M203.6,16.3c0-1.4,1-2.3,2.1-2.3c0.6,0,1,0.2,1.3,0.5l-0.4,0.5c-0.3-0.2-0.5-0.4-0.9-0.4
		c-0.8,0-1.4,0.7-1.4,1.7s0.5,1.7,1.3,1.7c0.4,0,0.8-0.2,1-0.4L207,18c-0.4,0.4-0.9,0.6-1.4,0.6C204.5,18.6,203.6,17.7,203.6,16.3z"
		/>
	<path id="XMLID_32_" fill="#040000" d="M211.1,13.2h-1.8v-0.6h4.3v0.6h-1.8v5.2h-0.7V13.2z"/>
	<path id="XMLID_34_" fill="#040000" d="M213.6,16.3c0-1.4,1-2.3,2-2.3c1.1,0,1.7,0.8,1.7,2c0,0.2,0,0.3,0,0.4h-2.9
		c0,0.9,0.6,1.5,1.4,1.5c0.4,0,0.8-0.1,1.1-0.3l0.3,0.5c-0.4,0.2-0.8,0.4-1.4,0.4C214.6,18.6,213.6,17.7,213.6,16.3z M216.7,15.9
		c0-0.9-0.4-1.4-1.1-1.4c-0.6,0-1.2,0.5-1.2,1.4H216.7z"/>
	<path id="XMLID_37_" fill="#040000" d="M218.1,16.3c0-1.4,1-2.3,2.1-2.3c0.6,0,1,0.2,1.3,0.5l-0.4,0.5c-0.3-0.2-0.5-0.4-0.9-0.4
		c-0.8,0-1.4,0.7-1.4,1.7s0.5,1.7,1.3,1.7c0.4,0,0.8-0.2,1-0.4l0.3,0.5c-0.4,0.4-0.9,0.6-1.4,0.6C219,18.6,218.1,17.7,218.1,16.3z"
		/>
	<path id="XMLID_39_" fill="#040000" d="M222.5,12.1h0.7v1.7v0.9c0.4-0.4,0.8-0.7,1.4-0.7c0.9,0,1.3,0.6,1.3,1.7v2.8h-0.7v-2.7
		c0-0.8-0.2-1.2-0.8-1.2c-0.4,0-0.8,0.2-1.2,0.7v3.2h-0.7V12.1z"/>
	<path id="XMLID_41_" fill="#040000" d="M229.2,12.6h1.7c1.3,0,2.2,0.4,2.2,1.7c0,1.2-0.9,1.8-2.2,1.8h-1v2.3h-0.7V12.6z
		 M230.8,15.5c1,0,1.5-0.4,1.5-1.2s-0.5-1.1-1.6-1.1h-0.8v2.3H230.8z"/>
	<path id="XMLID_44_" fill="#040000" d="M234.2,14.1h0.6l0.1,0.8l0,0c0.3-0.6,0.7-0.9,1.2-0.9c0.2,0,0.3,0,0.5,0.1l-0.1,0.6
		c-0.1-0.1-0.2-0.1-0.4-0.1c-0.4,0-0.8,0.3-1.1,1v2.8h-0.7v-4.3H234.2z"/>
	<path id="XMLID_46_" fill="#040000" d="M236.9,16.3c0-1.4,1-2.3,2-2.3c1.1,0,2,0.8,2,2.3c0,1.4-1,2.3-2,2.3
		C237.8,18.6,236.9,17.7,236.9,16.3z M240.1,16.3c0-1-0.5-1.7-1.3-1.7s-1.3,0.7-1.3,1.7s0.5,1.7,1.3,1.7S240.1,17.3,240.1,16.3z"/>
	<path id="XMLID_49_" fill="#040000" d="M242,17.1v-2.4h-0.6v-0.6h0.7l0.1-1.2h0.6v1.2h1.2v0.6h-1.2v2.4c0,0.5,0.2,0.8,0.7,0.8
		c0.2,0,0.4-0.1,0.5-0.1l0.1,0.5c-0.2,0.1-0.5,0.2-0.8,0.2C242.3,18.6,242,18,242,17.1z"/>
	<path id="XMLID_51_" fill="#040000" d="M244.5,16.3c0-1.4,1-2.3,2-2.3c1.1,0,2,0.8,2,2.3c0,1.4-1,2.3-2,2.3
		C245.4,18.6,244.5,17.7,244.5,16.3z M247.7,16.3c0-1-0.5-1.7-1.3-1.7s-1.3,0.7-1.3,1.7s0.5,1.7,1.3,1.7S247.7,17.3,247.7,16.3z"/>
	<path id="XMLID_54_" fill="#040000" d="M249.6,17.1v-2.4H249v-0.6h0.7l0.1-1.2h0.6v1.2h1.2v0.6h-1.2v2.4c0,0.5,0.2,0.8,0.7,0.8
		c0.2,0,0.4-0.1,0.5-0.1l0.1,0.5c-0.2,0.1-0.5,0.2-0.8,0.2C249.9,18.6,249.6,18,249.6,17.1z"/>
	<path id="XMLID_56_" fill="#040000" d="M252.1,20.2l0.1-0.6c0.1,0,0.2,0.1,0.3,0.1c0.5,0,0.8-0.4,1-0.9l0.1-0.3l-1.7-4.3h0.8
		l0.9,2.4c0.1,0.4,0.3,0.8,0.4,1.2l0,0c0.1-0.4,0.2-0.8,0.4-1.2l0.8-2.4h0.7l-1.6,4.7c-0.3,0.9-0.8,1.5-1.6,1.5
		C252.4,20.3,252.2,20.3,252.1,20.2z"/>
	<path id="XMLID_58_" fill="#040000" d="M256.7,14.1h0.6l0.1,0.5l0,0c0.4-0.3,0.9-0.6,1.4-0.6c1.1,0,1.7,0.9,1.7,2.2
		c0,1.5-0.9,2.3-1.9,2.3c-0.4,0-0.8-0.2-1.2-0.5v0.8v1.5h-0.7V14.1z M259.7,16.2c0-1-0.3-1.6-1.1-1.6c-0.4,0-0.7,0.2-1.2,0.6v2.3
		c0.4,0.3,0.8,0.5,1.1,0.5C259.2,18,259.7,17.3,259.7,16.2z"/>
	<path id="XMLID_61_" fill="#040000" d="M261.3,16.3c0-1.4,1-2.3,2-2.3c1.1,0,1.7,0.8,1.7,2c0,0.2,0,0.3,0,0.4h-3
		c0,0.9,0.6,1.5,1.4,1.5c0.4,0,0.8-0.1,1.1-0.3l0.3,0.5c-0.4,0.2-0.8,0.4-1.4,0.4C262.2,18.6,261.3,17.7,261.3,16.3z M264.3,15.9
		c0-0.9-0.4-1.4-1.1-1.4c-0.6,0-1.2,0.5-1.2,1.4H264.3z"/>
	<path id="XMLID_64_" fill="#040000" d="M267.6,15.5c0-1.9,1.1-3,2.7-3c0.8,0,1.4,0.4,1.7,0.7l-0.4,0.5c-0.3-0.3-0.7-0.6-1.3-0.6
		c-1.2,0-1.9,0.9-1.9,2.4s0.7,2.4,2,2.4c0.4,0,0.8-0.1,1.1-0.3V16h-1.2v-0.6h1.9v2.5c-0.4,0.4-1,0.7-1.8,0.7
		C268.7,18.6,267.6,17.4,267.6,15.5z"/>
	<path id="XMLID_66_" fill="#040000" d="M273.4,14.1h0.6l0.1,0.8l0,0c0.3-0.6,0.7-0.9,1.2-0.9c0.2,0,0.3,0,0.5,0.1l-0.1,0.6
		c-0.1-0.1-0.2-0.1-0.4-0.1c-0.4,0-0.8,0.3-1.1,1v2.8h-0.7v-4.3H273.4z"/>
	<path id="XMLID_68_" fill="#040000" d="M276,17.3c0-0.9,0.8-1.4,2.7-1.6c0-0.6-0.2-1.1-0.9-1.1c-0.5,0-1,0.2-1.3,0.5l-0.3-0.5
		c0.4-0.3,1-0.6,1.7-0.6c1.1,0,1.5,0.7,1.5,1.8v2.7h-0.6l-0.1-0.5l0,0c-0.4,0.3-0.9,0.6-1.4,0.6C276.5,18.6,276,18.1,276,17.3z
		 M278.6,17.4v-1.2c-1.5,0.2-2,0.5-2,1.1c0,0.5,0.3,0.7,0.8,0.7S278.2,17.8,278.6,17.4z"/>
	<path id="XMLID_71_" fill="#040000" d="M280.8,14.1h0.6l0.1,0.6l0,0c0.4-0.4,0.9-0.7,1.5-0.7c0.9,0,1.3,0.6,1.3,1.7v2.8h-0.7v-2.7
		c0-0.8-0.2-1.2-0.8-1.2c-0.4,0-0.8,0.2-1.2,0.7v3.2h-0.7L280.8,14.1L280.8,14.1z"/>
	<path id="XMLID_73_" fill="#040000" d="M285.8,17.1v-2.4h-0.6v-0.6h0.7l0.1-1.2h0.6v1.2h1.2v0.6h-1.2v2.4c0,0.5,0.2,0.8,0.7,0.8
		c0.2,0,0.4-0.1,0.5-0.1l0.1,0.5c-0.2,0.1-0.5,0.2-0.8,0.2C286.1,18.6,285.8,18,285.8,17.1z"/>
</g>
<path d="M50.4,174.2v-0.8l1-0.9c2.3-2.2,3.4-3.4,3.4-4.8c0-0.9-0.5-1.8-1.8-1.8c-0.8,0-1.5,0.4-1.9,0.8l-0.4-0.9
	c0.6-0.5,1.5-0.9,2.6-0.9c2,0,2.8,1.4,2.8,2.7c0,1.7-1.2,3.1-3.2,4.9l-0.7,0.7v0h4.1v1H50.4z"/>
<path d="M63.7,169.5c0,3.1-1.2,4.8-3.2,4.8c-1.8,0-3-1.7-3-4.7c0-3.1,1.3-4.8,3.2-4.8C62.6,164.8,63.7,166.6,63.7,169.5z
	 M58.7,169.6c0,2.4,0.7,3.7,1.9,3.7c1.3,0,1.9-1.5,1.9-3.8c0-2.3-0.6-3.7-1.9-3.7C59.5,165.8,58.7,167.1,58.7,169.6z"/>
<path d="M67.5,166.2L67.5,166.2l-1.6,0.9l-0.2-0.9l2-1.1h1.1v9.2h-1.2V166.2z"/>
<path d="M78,165v0.8l-4,8.3h-1.3l4-8.1v0h-4.5v-1H78z"/>
<path d="M78.6,174.7l3.9-10.2h1l-3.9,10.2H78.6z"/>
<path d="M90.2,169.5c0,3.1-1.2,4.8-3.2,4.8c-1.8,0-3-1.7-3-4.7c0-3.1,1.3-4.8,3.2-4.8C89.1,164.8,90.2,166.6,90.2,169.5z
	 M85.2,169.6c0,2.4,0.7,3.7,1.9,3.7c1.3,0,1.9-1.5,1.9-3.8c0-2.3-0.6-3.7-1.9-3.7C86,165.8,85.2,167.1,85.2,169.6z"/>
<path d="M97.3,165v0.8l-4,8.3H92l4-8.1v0h-4.5v-1H97.3z"/>
<path d="M97.9,174.7l3.9-10.2h1l-3.9,10.2H97.9z"/>
<path d="M106.1,166.2L106.1,166.2l-1.6,0.9l-0.2-0.9l2-1.1h1.1v9.2h-1.2V166.2z"/>
<path d="M115.8,165.9c-0.3,0-0.6,0-0.9,0.1c-1.9,0.3-3,1.7-3.2,3.3h0c0.4-0.6,1.2-1.1,2.2-1.1c1.6,0,2.8,1.2,2.8,3
	c0,1.7-1.1,3.2-3,3.2c-2,0-3.2-1.5-3.2-3.9c0-1.8,0.6-3.2,1.5-4.1c0.8-0.7,1.8-1.2,2.9-1.4c0.4-0.1,0.7-0.1,0.9-0.1V165.9z
	 M115.5,171.2c0-1.3-0.7-2.1-1.9-2.1c-0.7,0-1.4,0.5-1.8,1.1c-0.1,0.1-0.1,0.3-0.1,0.5c0,1.5,0.7,2.6,2,2.6
	C114.8,173.4,115.5,172.5,115.5,171.2z"/>
<path d="M125.1,169.5c-0.5,0.2-1,0.3-1.5,0.5v3.9c0,0.6-0.1,0.8-0.5,1c-0.3,0.2-0.9,0.2-1.7,0.2c0-0.3-0.2-0.7-0.3-1
	c0.6,0,1.2,0,1.3,0c0.2,0,0.3-0.1,0.3-0.3v-3.6c-0.6,0.2-1.1,0.4-1.6,0.5l-0.3-1c0.5-0.1,1.2-0.3,1.9-0.5v-3.1h-1.7v-1h1.7v-2.8h1
	v2.8h1.5v1h-1.5v2.8l1.4-0.4L125.1,169.5z M129.7,174c0.4,0.1,0.9,0.1,1.3,0.1c0.3,0,2.3,0,2.7,0c-0.1,0.2-0.3,0.7-0.3,0.9H131
	c-2,0-3.5-0.4-4.4-2.4c-0.4,1.1-0.9,1.9-1.7,2.6c-0.2-0.2-0.5-0.5-0.8-0.6c1.3-1,1.9-2.6,2.1-4.6l1,0.1c-0.1,0.5-0.2,1-0.3,1.5
	c0.4,1.2,1,1.8,1.8,2.2v-4.5h-3.4v-0.9h8v0.9h-3.6v1.6h2.9v0.9h-2.9V174z M132.6,167.4H126v-4.6h6.6V167.4z M131.6,163.6h-4.6v1.1
	h4.6V163.6z M131.6,165.5h-4.6v1.1h4.6V165.5z"/>
<path d="M147.6,170.9v0.9h-5.8v3.4h-1v-3.4h-5.7v-0.9h5.7v-1.2h1v1.2H147.6z M146.3,170.3c-1.1-0.4-2.7-0.9-4.6-1.3
	c-1.5,0.6-3.5,1-6.1,1.1c-0.1-0.3-0.2-0.6-0.4-0.9c1.9-0.1,3.5-0.3,4.8-0.6c-1-0.2-1.9-0.4-3-0.5c0.4-0.4,0.9-0.9,1.4-1.4h-3.2v-0.9
	h3.9c0.4-0.5,0.8-1,1.1-1.5l1,0.3c-0.3,0.4-0.6,0.8-0.9,1.1h3.5c0.2-0.3,0.3-0.6,0.4-1l1,0.2c-0.1,0.3-0.2,0.5-0.3,0.7h2.5v0.9h-3
	c-0.4,0.7-1,1.2-1.7,1.6c1.7,0.4,3.3,0.8,4.4,1.2L146.3,170.3z M139.6,172.4c-0.9,1-2.3,1.8-3.5,2.4c-0.2-0.2-0.6-0.6-0.9-0.7
	c1.3-0.5,2.6-1.2,3.4-2L139.6,172.4z M136.4,165.5h-1v-2h5.4c-0.2-0.3-0.4-0.6-0.5-0.8l1-0.3c0.2,0.3,0.5,0.7,0.7,1.1h5.2v2h-1v-1.1
	h-9.8V165.5z M139.6,166.8c-0.3,0.3-0.6,0.6-0.9,0.9c0.9,0.1,1.8,0.3,2.7,0.5c0.7-0.4,1.3-0.8,1.8-1.4H139.6z M143.6,172
	c1.3,0.6,2.9,1.5,3.7,2.2l-0.8,0.8c-0.8-0.7-2.4-1.7-3.7-2.3L143.6,172z"/>
<path d="M161,167.8c-0.5,1.6-1.2,3.2-2.1,4.5c0.4,1.1,0.9,1.7,1.5,1.7c0.4,0,0.5-0.6,0.6-2.3c0.2,0.2,0.6,0.4,0.8,0.5
	c-0.2,2.1-0.5,2.7-1.5,2.7c-0.9,0-1.6-0.6-2.1-1.8c-0.6,0.7-1.3,1.4-2.1,1.9c-0.2-0.2-0.5-0.5-0.7-0.7c0.2-0.1,0.3-0.2,0.5-0.3h-4.6
	v0.7h-0.9v-5c-0.2,0.3-0.4,0.5-0.6,0.7c-0.2-0.2-0.5-0.5-0.7-0.6c0.9-0.8,1.7-2,2.2-3.2l0.9,0.2c-0.2,0.4-0.4,0.8-0.6,1.2h2
	c-0.2-0.4-0.4-0.8-0.6-1.1l0.8-0.3c0.3,0.4,0.7,1,0.8,1.4h1.8v0.8h-2.1v0.9h1.8v0.7h-1.8v1h1.8v0.7h-1.8v1h2.1v0.6
	c0.6-0.5,1.2-1.1,1.6-1.7c-0.5-1.5-0.7-3.4-0.9-5.5h-7.8v-0.9h3.2v-1.2h-2.6v-0.9h2.6v-1.3h1v1.3h2.5v0.9h-2.5v1.2h3.5
	c-0.1-1.1-0.1-2.2-0.1-3.4h1c0,1.2,0,2.3,0.1,3.4h3.8v0.9h-3.8c0.1,1.7,0.4,3.2,0.6,4.4c0.6-1.1,1.1-2.3,1.5-3.5L161,167.8z
	 M153.2,169.1h-2v0.9h2V169.1z M153.2,170.7h-2v1h2V170.7z M151.2,173.3h2v-1h-2V173.3z M160.6,165.2c-0.4-0.6-1.3-1.5-2-2.1
	l0.7-0.5c0.8,0.6,1.6,1.4,2.1,2L160.6,165.2z"/>
<path d="M175.8,173.5v1h-12.6v-1h1.9v-8h1.1v8h3.3v-11.1h1.1v4.7h4.6v1h-4.6v5.4H175.8z"/>
</svg>
