<?xml version="1.0" encoding="utf-8"?>
<!-- Generator: Adobe Illustrator 21.0.0, SVG Export Plug-In . SVG Version: 6.00 Build 0)  -->
<svg version="1.1" id="Layer_1" xmlns="http://www.w3.org/2000/svg" xmlns:xlink="http://www.w3.org/1999/xlink" x="0px" y="0px"
	 viewBox="0 0 361 191" style="enable-background:new 0 0 361 191;" xml:space="preserve">
<style type="text/css">
	.st0{fill:#FFFFFF;}
	.st1{opacity:0.42;}
	.st2{clip-path:url(#SVGID_2_);fill:#FFFFFF;}
	.st3{clip-path:url(#SVGID_4_);fill:#FFFFFF;}
	.st4{clip-path:url(#SVGID_6_);fill:#FFFFFF;}
	.st5{fill:#B91C22;}
</style>
<g>
	<path class="st0" d="M98.056,151.97v-1.274l1.309-1.207c2.601-2.414,3.824-3.739,3.841-5.201c0-0.986-0.527-1.854-1.972-1.854
		c-0.969,0-1.802,0.493-2.363,0.918l-0.612-1.479c0.799-0.646,2.006-1.139,3.399-1.139c2.448,0,3.638,1.547,3.638,3.349
		c0,1.938-1.394,3.501-3.314,5.286l-0.969,0.833v0.034h4.539v1.733H98.056z"/>
	<path class="st0" d="M114.97,146.378c0,3.552-1.394,5.778-4.029,5.778c-2.55,0-3.91-2.312-3.926-5.677
		c0-3.434,1.461-5.745,4.045-5.745C113.729,140.735,114.97,143.115,114.97,146.378z M109.122,146.48
		c-0.017,2.686,0.731,4.079,1.887,4.079c1.224,0,1.87-1.495,1.87-4.147c0-2.566-0.612-4.079-1.87-4.079
		C109.888,142.332,109.106,143.709,109.122,146.48z"/>
	<path class="st0" d="M119.56,142.808h-0.034l-2.023,1.021l-0.357-1.581l2.686-1.326h1.75v11.049h-2.022V142.808z"/>
	<path class="st0" d="M132.99,140.921v1.343l-4.674,9.706h-2.21l4.658-9.281v-0.033h-5.202v-1.734H132.99z"/>
	<path class="st0" d="M133.908,152.65l4.148-12.323h1.462l-4.148,12.323H133.908z"/>
	<path class="st0" d="M148.035,146.378c0,3.552-1.394,5.778-4.029,5.778c-2.55,0-3.91-2.312-3.926-5.677
		c0-3.434,1.461-5.745,4.045-5.745C146.794,140.735,148.035,143.115,148.035,146.378z M142.187,146.48
		c-0.017,2.686,0.731,4.079,1.887,4.079c1.224,0,1.87-1.495,1.87-4.147c0-2.566-0.612-4.079-1.87-4.079
		C142.952,142.332,142.17,143.709,142.187,146.48z"/>
	<path class="st0" d="M156.942,140.921v1.343l-4.674,9.706h-2.21l4.658-9.281v-0.033h-5.202v-1.734H156.942z"/>
	<path class="st0" d="M157.861,152.65l4.147-12.323h1.462l-4.148,12.323H157.861z"/>
	<path class="st0" d="M167.466,142.808h-0.034l-2.023,1.021l-0.357-1.581l2.686-1.326h1.75v11.049h-2.022V142.808z"/>
	<path class="st0" d="M180.028,142.401c-0.306,0-0.646,0-1.071,0.051c-2.312,0.271-3.434,1.699-3.706,3.229h0.051
		c0.544-0.629,1.377-1.071,2.481-1.071c1.904,0,3.382,1.36,3.382,3.604c0,2.108-1.547,3.943-3.892,3.943
		c-2.686,0-4.165-2.039-4.165-4.759c0-2.125,0.765-3.858,1.921-4.964c1.02-0.951,2.346-1.495,3.926-1.632
		c0.459-0.051,0.799-0.051,1.054-0.033L180.028,142.401z M179.042,148.332c0-1.274-0.697-2.192-1.921-2.192
		c-0.782,0-1.479,0.476-1.802,1.139c-0.085,0.17-0.136,0.374-0.136,0.663c0.034,1.462,0.731,2.651,2.074,2.651
		C178.345,150.593,179.042,149.659,179.042,148.332z"/>
</g>
<g id="XMLID_107_" class="st1">
	<g id="XMLID_389_">
		<g>
			<defs>
				<rect id="SVGID_1_" x="0.5" y="0.4" width="360.5" height="63.6"/>
			</defs>
			<clipPath id="SVGID_2_">
				<use xlink:href="#SVGID_1_"  style="overflow:visible;"/>
			</clipPath>
			<path id="XMLID_391_" class="st2" d="M0,0.4V64V0.4z"/>
		</g>
		<g>
			<defs>
				<rect id="SVGID_3_" x="0.5" y="0.4" width="360.5" height="63.6"/>
			</defs>
			<clipPath id="SVGID_4_">
				<use xlink:href="#SVGID_3_"  style="overflow:visible;"/>
			</clipPath>
			<rect id="XMLID_392_" class="st3" width="361" height="64"/>
		</g>
		<g>
			<defs>
				<rect id="SVGID_5_" x="0.5" y="0.4" width="360.5" height="63.6"/>
			</defs>
			<clipPath id="SVGID_6_">
				<use xlink:href="#SVGID_5_"  style="overflow:visible;"/>
			</clipPath>
			<path id="XMLID_393_" class="st4" d="M361,64V0.4V64z"/>
		</g>
	</g>
</g>
<g id="XMLID_100_">
	<g id="XMLID_103_">
		<g id="XMLID_104_">
			<path id="XMLID_888_" class="st5" d="M77.8,32.9H17.3c-0.8,0-1.5-0.6-1.6-1.4c-0.1-0.8-0.1-2.2,0-3.5c0-0.5,0-1,0-1.4
				c0-13,8.7-21.7,21.6-21.7c9.7,0,17.3,5,20.9,13.5c2.2-3,5.6-4.9,9.3-4.9c7,0,11.9,4.8,11.9,11.7v6.1
				C79.4,32.2,78.6,32.9,77.8,32.9z M18.9,29.7h57.3v-4.4c0-5.9-4.4-8.5-8.7-8.5c-3.6,0-6.8,2.5-8.1,6.3c-0.2,0.7-0.8,1.1-1.6,1.1
				c-0.7,0-1.3-0.5-1.5-1.2c-2.4-9.3-9.5-14.8-19-14.8C26.2,8.2,19,15.4,19,26.6c0,0.4,0,0.9,0,1.5C18.9,28.6,18.9,29.2,18.9,29.7z"
				/>
		</g>
	</g>
	<g id="XMLID_101_">
		<g id="XMLID_102_">
			<path id="XMLID_885_" class="st0" d="M73.2,45.9c-4.4,0-8.1-3.1-9.6-7.4c-2.4,9.2-9.4,16-20.5,16c-11.4,0-20-7.3-20-20.1
				c0-1.3-0.1-3.7,0-4.7h60.4c0,2.1,0,4.4,0,6.1C83.5,42.1,78.9,45.9,73.2,45.9z"/>
		</g>
	</g>
</g>
<g id="XMLID_99_">
	<path id="XMLID_343_" class="st0" d="M102.8,33.6c-2,4.4-5.1,8.9-8,11.7c-0.6-0.7-2-2.1-2.8-2.7c2.8-2.4,5.7-6.3,7.3-10.1
		L102.8,33.6z M110.3,45.9c2.2,2.9,4.6,6.7,5.9,9.2l-3.3,1.7c-0.3-0.8-0.8-1.7-1.4-2.6c-12.9,1-14.8,1.2-16.1,1.7
		c-0.2-0.7-0.8-2.5-1.3-3.4c0.9-0.2,1.6-1,2.7-2.1c1.1-1.2,4.5-5.7,6.6-10.1l3.7,1.6c-2.1,3.6-4.6,7.2-7.2,10.1l9.8-0.6
		c-0.9-1.3-1.7-2.7-2.6-3.9L110.3,45.9z M110.8,32.5c1.2,3.7,3.6,7.5,6.9,9.5c-0.7,0.7-1.9,2.2-2.4,3.2c-3.1-2.3-5.4-5.9-6.9-9.5
		H104v-3.3h6.8V32.5z"/>
	<path id="XMLID_347_" class="st0" d="M135.6,47.7c1.2,3.3,2.9,5.6,4.4,5.6c0.7,0,0.9-1.1,1.1-3.8c0.7,0.6,1.9,1.2,2.8,1.5
		c-0.5,4.4-1.6,5.4-4,5.4c-3.3,0-6.2-3.7-7.6-8.8h-7v5l6.4-1.3c0,0.9,0.2,2.3,0.3,3c-7.9,1.8-9.2,2.1-10,2.5
		c-0.2-0.8-0.9-2.2-1.4-2.8c0.6-0.4,1.4-1.1,1.4-2.3V33h19.5v8.7h-7c0.1,1,0.2,2,0.4,3h8.5v3H135.6z M125.2,36v2.8h12.9V36H125.2z
		 M131.5,44.8c-0.2-1-0.3-2-0.4-3h-5.9v3H131.5z"/>
	<path id="XMLID_351_" class="st0" d="M154.6,48.9c-0.3-0.8-1-1.9-1.6-2.9v10.9h-3.1v-9.6c-0.9,2.1-1.9,4-2.9,5.3
		c-0.3-0.9-1-2.2-1.5-3c1.5-1.7,3-4.6,4-7.2h-3.6v-3h4v-3c-1,0.2-2,0.3-3,0.4c-0.1-0.7-0.5-1.8-0.9-2.5c3.1-0.5,6.4-1.3,8.6-2.2
		l1.8,2.6c-1,0.4-2.2,0.7-3.5,1v3.7h3.5v3h-3.5v0.2c0.8,0.8,3,3.3,3.5,3.9L154.6,48.9z M167.8,50.1v6.7h-3.1v-6.2l-8.1,1.4l-0.5-3
		l8.6-1.5V31.8h3.1V47l2.7-0.5l0.5,3L167.8,50.1z M161,46.3c-0.8-1.2-2.7-2.9-4.3-4.1l2-1.8c1.5,1.1,3.5,2.7,4.4,3.9L161,46.3z
		 M161.7,39.3c-0.8-1.2-2.5-2.9-4-4l2.1-1.8c1.4,1.1,3.3,2.7,4.1,3.9L161.7,39.3z"/>
	<path id="XMLID_356_" class="st0" d="M181.9,46.1c-0.9,0.3-1.9,0.5-2.9,0.8v6.4c0,1.6-0.3,2.3-1.2,2.8s-2.2,0.6-4,0.6
		c-0.1-0.8-0.5-2.1-0.9-2.9c1,0,2.1,0,2.5,0s0.5-0.1,0.5-0.5v-5.5l-2.6,0.6l-0.8-3c1-0.2,2.1-0.5,3.4-0.8v-4.7h-3.1V37h3.1v-5.1h3.2
		V37h2.6v2.9H179v4l2.5-0.6L181.9,46.1z M196.7,42.5c-1,3.7-2.7,6.6-5,8.9c1.7,1.2,3.8,2.1,6.2,2.7c-0.7,0.6-1.6,1.9-2,2.8
		c-2.6-0.8-4.8-1.9-6.7-3.4c-2.1,1.4-4.4,2.5-7,3.3c-0.3-0.9-1.1-2.2-1.7-2.9c2.4-0.6,4.5-1.4,6.4-2.6c-1.6-1.8-2.8-3.9-3.8-6.4
		l0.8-0.2h-1.4v-2.9h5.3v-3.2H182v-2.9h5.8v-3.8h3.2v3.8h6v2.9h-6v3.2h3.2l0.6-0.1L196.7,42.5z M186.2,44.6c0.7,1.8,1.8,3.4,3.2,4.7
		c1.4-1.3,2.5-2.9,3.3-4.7H186.2z"/>
	<path id="XMLID_360_" class="st0" d="M204.9,39.3v-1c-0.9,0.7-1.9,1.4-2.9,1.9h11.3v8.4H204c-0.1,0.3-0.1,0.6-0.1,0.8H214v7.2h-2.8
		v-0.7h-5v0.8h-2.7v-5.5c-0.4,1.7-0.9,3.3-1.7,4.7c-0.6-0.4-2-1-2.8-1.2c2.1-3.4,2.3-8.2,2.3-11.3v-2.7l-0.6,0.3
		c-0.3-0.7-1.1-2.4-1.7-3.1c3.1-1.3,6.2-3.5,8-6.1l2.9,1.2c-0.2,0.2-0.3,0.5-0.5,0.7c2,1.2,4.2,2.5,5.4,3.3l-1.6,2.7
		c-0.7-0.6-1.8-1.3-2.9-2v1.7h-5.4V39.3z M210.4,46.4v-1.1h-6.1c0,0.3,0,0.7-0.1,1.1H210.4z M204.4,42.4v0.9v0.2h6.1v-1h-6.1V42.4z
		 M210.2,37.5c-0.9-0.5-1.7-1.1-2.5-1.6c-0.6,0.5-1.2,1.1-1.7,1.6H210.2z M206.2,51.6v1.9h5v-1.9H206.2z M218.5,49.5h-3V34.6h3V49.5
		z M223.4,31.9V53c0,1.7-0.3,2.6-1.3,3.1c-0.9,0.5-2.5,0.6-4.6,0.6c-0.1-0.9-0.5-2.3-0.9-3.2c1.4,0,2.8,0,3.2,0s0.6-0.1,0.6-0.6v-21
		H223.4z"/>
	<path id="XMLID_368_" class="st0" d="M230.8,49.3c-0.7,1.9-1.8,4.1-2.7,5.5c-0.5-0.4-1.5-1.1-2.1-1.4c0.9-1.3,1.8-3.1,2.4-4.7
		L230.8,49.3z M234.5,47.8v8.9h-3.1v-8.9h-5v-2.7h5V43h-5.1v-2.6h2.6c-0.1-0.8-0.5-2-0.8-2.8l2.2-0.5h-3.6v-2.6h4.6
		c-0.2-0.7-0.5-1.5-0.8-2.1l3.2-0.8c0.4,0.9,0.9,2,1.2,2.9h3.8v2.6h-3.3l2.2,0.4c-0.4,1-0.8,2.1-1.2,2.9h2.8V43h-4.6v2.1h4.2v2.7
		H234.5z M230.7,37.1c0.4,0.9,0.8,2,0.9,2.8l-1.9,0.5h3.9c0.4-1,0.9-2.3,1.2-3.3H230.7z M251,43.6h-2.5v13.1h-3.1V43.6H243v0.3
		c0,3.9-0.3,9.5-2.6,12.9c-0.5-0.6-1.8-1.6-2.5-1.9c0.5-0.8,0.9-1.7,1.2-2.6l-1.9,1.2c-0.4-1.1-1.3-2.8-2.1-4l2.1-1.1
		c0.7,1.1,1.6,2.5,2,3.5c0.8-2.6,0.8-5.5,0.8-7.9v-9.5c2.9-0.5,6.2-1.4,8.1-2.3l2.4,2.3c-2.2,0.9-5,1.5-7.6,2v4.2h8.1V43.6z"/>
	<path id="XMLID_373_" class="st0" d="M269.9,51.4c2.9,1,6.1,2.1,8,3l-1.4,2.5c-2.3-1.2-7.1-3-10.4-4.1l0.8-1.3h-0.8
		c-1.3,2.2-4.4,4.4-11.5,5.6c-0.4-0.7-1.2-1.9-1.8-2.6c4.8-0.7,7.6-1.8,9.1-3H253v-2.6h10.7c0-0.2,0.1-0.5,0.1-0.7v-1.8h3.2v1.9
		c0,0.2,0,0.4,0,0.6h4.7c-0.6-0.5-1.2-1-1.8-1.3l1-0.9h-1c-0.1-0.7-0.5-1.6-0.8-2.3c0.9,0.1,1.8,0.1,2.1,0.1c0.3,0,0.4-0.1,0.4-0.4
		v-1.6H267c0.7,0.5,1.4,1.1,1.8,1.6l-2.1,1.6c-0.5-0.7-1.6-1.7-2.6-2.4l1.1-0.8h-2.7v-2.1h1c-0.3-0.5-0.7-1.1-1-1.5
		c2.4-0.2,4.7-0.7,6.7-1.5c-0.6-0.7-1.4-1.4-2.2-2.1c-0.9,0.3-1.8,0.6-2.9,0.9c-0.3-0.6-1-1.4-1.6-1.8c3.2-0.6,5.6-1.6,7-2.6
		l2.6,0.5c-0.4,0.3-0.8,0.6-1.2,0.9h3.7l0.5-0.1l1.6,0.8c-1.2,2.1-3.1,3.6-5.3,4.7h2.9v1.7h3v2.1h-3V44c0,1.3-0.2,1.8-1.1,2.2
		c-0.4,0.2-0.9,0.2-1.4,0.3c0.8,0.5,1.6,1.2,2.1,1.7l-0.6,0.6h4.4v2.6C277.7,51.4,269.9,51.4,269.9,51.4z M257.4,42.2
		c0,1.3-0.4,3.9-2.1,5.4c-0.5-0.4-1.7-1.1-2.4-1.4c1.4-1.1,1.7-3,1.8-4h-1.5v-2.5h5.7v-1.5h-4.7v-5.8h2.7v3.4h2v-4h2.9v15.3h-2.9
		v-4.9H257.4z M267.4,37.6c-1.3,0.1-2.5,0.3-3.7,0.4l-0.3-1.6c1.1-0.1,2.4-0.2,4-0.3V37.6z M271.4,40.3v-1.7
		c-1.7,0.7-3.6,1.3-5.6,1.7H271.4z M269.4,34.9c0.6,0.5,1.2,1,1.7,1.6c0.8-0.5,1.5-1,2-1.6H269.4z"/>
	<path id="XMLID_379_" class="st0" d="M303.8,39c-0.2,11-0.5,14.9-1.4,16.1c-0.6,0.9-1.3,1.2-2.2,1.4c-0.9,0.2-2.2,0.1-3.6,0.1
		c-0.1-0.9-0.4-2.2-0.9-3c1.3,0.1,2.5,0.1,3.1,0.1c0.4,0,0.7-0.1,0.9-0.5c0.6-0.7,0.9-4,1-12.6h-2.8c-0.4,7.1-1.8,12.7-7,16.3
		c-0.5-0.8-1.5-1.8-2.2-2.4c1.3-0.9,2.4-1.9,3.2-3c-4.1,1-8.5,2-11.8,2.8l-0.5-3.3c0.5-0.1,1.2-0.2,1.8-0.3V32.9h9.3v15.8l1.2-0.2
		l0.3,2.5c1.8-2.8,2.4-6.2,2.7-10.4h-3.4v-3h3.5c0-1.8,0-3.7,0-5.8h3.1c0,2,0,3.9-0.1,5.8h5.8V39z M284.2,35.8v2.7h3.5v-2.7H284.2z
		 M287.7,41.3h-3.5V44h3.5V41.3z M284.2,50.1c1.1-0.2,2.3-0.5,3.5-0.7v-2.5h-3.5V50.1z"/>
	<path id="XMLID_384_" class="st0" d="M320.6,42.5v2.8h8.5v2.9h-4.2l2.7,1c-0.9,1.5-2,3.1-2.8,4.3h5.8v2.9h-23.2v-2.9h5.3
		c-0.4-1.2-1.3-3-2.2-4.3l2.1-0.9h-3.9v-2.9h8.5v-2.8h-5.4v-1.3c-1.1,0.5-2.3,1-3.5,1.4c-0.4-0.9-1.3-2.1-2.1-2.9
		c5-1.4,9.9-4.2,12.4-8.1l3,1.4c-0.2,0.3-0.5,0.7-0.8,1.1c2.6,2.4,7,4.6,11,5.7c-0.7,0.7-1.7,2-2.2,2.8c-1.2-0.4-2.4-1-3.6-1.6v1.6
		h-5.4V42.5z M313.1,48.1c0.9,1.3,2,3.1,2.3,4.3l-2.2,1h3.9v-5.2h-4V48.1z M323.6,39.6c-1.7-1-3.3-2.2-4.6-3.5
		c-1.3,1.3-2.8,2.5-4.3,3.5H323.6z M320.6,48.1v5.2h3.3l-1.8-0.8c0.8-1.2,1.8-3.1,2.4-4.5h-3.9V48.1z"/>
</g>
<g id="XMLID_92_">
	<g id="XMLID_98_">
		<path id="XMLID_341_" class="st0" d="M106.3,16c2.6,0,4.4,0.4,5.7,0.9v-2.1c-1.1-0.4-2.8-0.7-5.6-0.7c-3.5,0-5.2,0.7-6.1,1.6
			c-0.8,0.8-1.2,1.8-1.2,3.2s0.4,2.4,1.2,3.2c0.9,0.9,2.5,1.6,6,1.6c2.8,0,4.5-0.4,5.5-1.4c0.6-0.6,0.9-1.4,0.9-2.8v-1.2H105v1.8
			h5.4c0,0.2,0,0.7-0.3,1c-0.6,0.6-2,0.8-3.8,0.8c-2.3,0-3.4-0.4-4-1c-0.4-0.4-0.6-1-0.6-1.8s0.2-1.4,0.7-1.9
			C102.8,16.4,103.9,16,106.3,16C106.3,16,103.9,16,106.3,16L106.3,16L106.3,16z"/>
	</g>
	<g id="XMLID_97_">
		<path id="XMLID_340_" class="st0" d="M149.6,14.4h-2.9l-4.6,6.9l-4.6-6.9h-3l6.1,8.8h3.1l0,0L149.6,14.4L149.6,14.4z"/>
	</g>
	<g id="XMLID_96_">
		<path id="XMLID_339_" class="st5" d="M133.7,8.3h-2.5l-16.3,20.9h2.5L133.7,8.3z"/>
	</g>
	<g id="XMLID_93_">
		<path id="XMLID_134_" class="st0" d="M130.2,15.6c-0.8-0.8-2.4-1.6-5.9-1.6c-3.4,0-5.1,0.7-5.9,1.6c-0.8,0.8-1.2,1.7-1.2,3.1
			s0.4,2.4,1.2,3.1c0.8,0.8,2.5,1.6,5.9,1.6s5.1-0.8,5.9-1.6c0.8-0.8,1.2-1.7,1.2-3.1C131.4,17.3,131,16.4,130.2,15.6z M124.3,21.6
			c-2.3,0-3.4-0.5-3.9-1c-0.4-0.4-0.7-0.9-0.7-1.8s0.2-1.5,0.7-1.9c0.5-0.5,1.7-0.9,3.9-0.9c2.3,0,3.4,0.4,3.9,1
			c0.4,0.4,0.7,0.9,0.7,1.9s-0.2,1.5-0.7,1.9S126.5,21.6,124.3,21.6z"/>
	</g>
</g>
<path id="XMLID_190_" class="st0" d="M89.65,109.9c-0.3,0-0.6,0-0.9,0c-2.2,0.2-3.1,1.3-3.4,2.5l0,0c0.5-0.5,1.2-0.8,2.2-0.8
	c1.7,0,3.2,1.2,3.2,3.4c0,2.1-1.6,3.8-3.8,3.8c-2.8,0-4.1-2.1-4.1-4.5c0-2,0.7-3.6,1.8-4.6c1-0.9,2.4-1.5,4-1.5c0.4,0,0.7,0,1,0
	C89.65,108.2,89.65,109.9,89.65,109.9z M88.35,115.1c0-1-0.5-1.8-1.6-1.8c-0.7,0-1.2,0.4-1.4,0.9c-0.1,0.1-0.1,0.3-0.1,0.6
	c0,1.1,0.6,2.1,1.7,2.1C87.75,116.9,88.35,116.2,88.35,115.1z"/>
<path id="XMLID_193_" class="st0" d="M98.25,119.9v-9.1c-0.5,0.9-1.1,1.8-1.7,2.6c-0.1-0.3-0.4-0.8-0.5-1c1.4-1.7,2.7-4.4,3.5-7.2
	l1.3,0.4c0,0.1-0.2,0.2-0.4,0.2c-0.4,1.1-0.8,2.1-1.2,3.2l0.4,0.1c0,0.1-0.1,0.2-0.3,0.2V120h-1.1V119.9z M101.35,106.1h9.6v13.7h-1
	V119h-7.6v0.9h-1V106.1z M102.35,118h7.5v-11h-7.5V118z M109.05,110.3h-2.6v1.9h1.9v4.3h-4.7v-4.3h1.8v-1.9h-2.6v-0.8h2.6v-1.9
	l1.2,0.1c0,0.1-0.1,0.2-0.3,0.2v1.6h2.6v0.8H109.05z M107.55,115.8v-2.7h-2.9v2.7H107.55z"/>
<path id="XMLID_199_" class="st0" d="M125.15,105.9v12.4c0,0.8-0.2,1.2-0.8,1.4s-1.7,0.2-3.4,0.2c-0.1-0.3-0.3-0.8-0.5-1.1
	c0.8,0,1.5,0,2.1,0c1.4,0,1.5,0,1.5-0.5v-3.6h-7.9c-0.4,1.9-1.2,3.8-2.9,5.2c-0.2-0.2-0.6-0.6-0.8-0.8c2.8-2.3,3-5.7,3-8.3v-4.9
	L125.15,105.9L125.15,105.9z M116.45,110.8c0,0.8,0,1.8-0.2,2.9h7.7v-2.9H116.45z M124.05,107h-7.6v2.8h7.6V107z"/>
<path id="XMLID_203_" class="st0" d="M128.95,115.5c1.2,0.9,2.8,2.5,3.6,3.5l-1,0.9c-0.8-1-2.4-2.7-3.5-3.7L128.95,115.5z"/>
<path id="XMLID_205_" class="st0" d="M151.95,114.1h-2.3c0,1.1-0.1,2-0.2,2.8h2v1h-2.1c-0.3,1.9-0.8,2.1-2.2,2.1c-0.4,0-1,0-1.5,0
	c0-0.3-0.1-0.6-0.3-0.9c0.6,0,1.2,0.1,1.6,0.1c0.8,0,1,0,1.2-1.2h-8.3l-0.1,0.6l-1.1-0.1c0.2-1.1,0.5-2.7,0.7-4.3h-2.3v-1h2.5
	c0.2-1.3,0.4-2.6,0.5-3.7h9.2h0.6c0,0.7-0.1,3.2-0.1,3.6h2.3v1H151.95z M151.35,107.9h-10.8c-0.8,1.2-1.6,2.3-2.5,3.1
	c-0.2-0.2-0.6-0.5-0.9-0.6c1.4-1.3,2.8-3.4,3.7-5.5l1.3,0.5c-0.1,0.1-0.2,0.2-0.4,0.1c-0.2,0.5-0.5,0.9-0.7,1.4h10.3V107.9z
	 M145.55,116.8h2.8c0.1-0.7,0.1-1.6,0.2-2.8h-8c-0.1,1-0.3,2-0.4,2.8h5.3c-0.7-0.7-2-1.5-3.1-2.1l0.6-0.6c1.2,0.5,2.5,1.4,3.2,2.1
	L145.55,116.8z M148.55,113.1c0-0.8,0.1-1.7,0.1-2.7h-7.7c-0.1,0.9-0.2,1.8-0.4,2.7H148.55z M143.35,110.5c1.1,0.5,2.4,1.2,3,1.8
	l-0.7,0.7c-0.6-0.6-1.9-1.4-3-1.9L143.35,110.5z"/>
<path id="XMLID_211_" class="st0" d="M155.55,119.9v-9.1c-0.5,0.9-1.1,1.8-1.7,2.6c-0.1-0.3-0.4-0.8-0.5-1c1.4-1.7,2.7-4.4,3.5-7.2
	l1.3,0.4c0,0.1-0.2,0.2-0.4,0.2c-0.4,1.1-0.8,2.1-1.2,3.2l0.4,0.1c0,0.1-0.1,0.2-0.3,0.2V120h-1.1V119.9z M158.55,106.1h9.6v13.7h-1
	V119h-7.5v0.9h-1v-13.8H158.55z M159.55,118h7.5v-11h-7.5V118z M166.35,110.3h-2.6v1.9h1.9v4.3h-4.7v-4.3h1.8v-1.9h-2.4v-0.8h2.6
	v-1.9l1.2,0.1c0,0.1-0.1,0.2-0.3,0.2v1.6h2.6v0.8H166.35z M164.85,115.8v-2.7h-2.9v2.7H164.85z"/>
<path id="XMLID_217_" class="st0" d="M185.15,115.3v0.9h-3.9v2.5c0,0.6-0.1,0.9-0.6,1c-0.5,0.2-1.3,0.2-2.6,0.2c0-0.3-0.2-0.7-0.3-1
	c1,0,1.9,0,2.2,0s0.3-0.1,0.3-0.3v-2.4h-9.7v-0.9h9.7v-1.1l1.4,0.1c0,0.1-0.1,0.2-0.3,0.2v0.8H185.15z M177.25,108.2v-1h-6.6v-0.9
	h6.6V105l1.4,0.1c0,0.1-0.1,0.2-0.3,0.2v1h6.7v0.9h-6.7v1h4.8v4.4h-1.7c1.2,0.4,2.4,1.1,3.1,1.6l-0.6,0.6c-0.3-0.2-0.6-0.4-1-0.7
	c-4.1,0.1-8.5,0.2-11.3,0.3c0,0.1-0.1,0.2-0.2,0.2l-0.3-1.1c1.6,0,3.8,0,6.1,0v-0.9h-4.7v-4.4L177.25,108.2L177.25,108.2z
	 M175.75,119.1c-0.6-0.6-1.7-1.5-2.7-2.1l0.7-0.6c1,0.6,2.2,1.4,2.8,2L175.75,119.1z M173.55,109v1.1h3.7V109H173.55z M173.55,111.8
	h3.7v-1.1h-3.7V111.8z M182.05,109h-3.8v1.1h3.8V109z M182.05,111.8v-1.1h-3.8v1.1H182.05z M178.25,112.6v0.9h3.3
	c-0.4-0.2-0.9-0.4-1.3-0.5l0.4-0.4H178.25z"/>
<path id="XMLID_226_" class="st0" d="M201.65,115.9h-5.8c1.5,1.3,3.9,2.5,6.1,3c-0.2,0.2-0.5,0.6-0.7,0.9c-2.3-0.6-4.9-2-6.4-3.6
	v3.8h-1.1v-3.7c-1.5,1.6-4,2.9-6.3,3.5c-0.1-0.3-0.4-0.7-0.7-0.9c2.2-0.5,4.6-1.6,6-3h-5.8V115h6.7v-1.5l1.4,0.1
	c0,0.1-0.1,0.2-0.3,0.2v1.1h6.8v1H201.65z M190.65,112.1l-1-0.3c0.5-0.5,1-1.2,1.6-1.9h-3.9V109h4.6c0.4-0.5,0.8-1.1,1.1-1.6
	l1.2,0.4c0,0.1-0.1,0.1-0.4,0.1c-0.2,0.3-0.5,0.7-0.8,1h8.3v0.9h-3.2c-0.4,0.9-1,1.6-1.9,2.2c1.6,0.4,3.2,0.9,4.3,1.3l-0.7,0.8
	c-1.2-0.4-2.9-1-4.8-1.5c-1.5,0.7-3.7,1.2-7,1.4c0-0.2-0.2-0.6-0.4-0.9c2.6-0.2,4.5-0.5,5.9-0.9c-0.9-0.2-1.9-0.4-2.8-0.6
	L190.65,112.1z M188.85,107.2v1.4h-1v-2.3h6v-1.2l1.4,0.1c0,0.1-0.1,0.2-0.3,0.2v0.9h6.2v2.3h-1v-1.4H188.85z M192.45,109.9
	c-0.3,0.4-0.6,0.8-0.9,1.1c1.1,0.2,2.3,0.5,3.5,0.8c0.9-0.5,1.6-1.1,2-1.9L192.45,109.9L192.45,109.9z"/>
<path id="XMLID_231_" class="st0" d="M208.25,116.2c0.4,0.2,1.4,0.6,2.4,0.6c1.3,0,1.9-0.6,1.9-1.4c0-1-1-1.5-2.1-1.5h-1v-1.7h0.9
	c0.8,0,1.9-0.3,1.9-1.2c0-0.6-0.5-1.1-1.5-1.1c-0.8,0-1.7,0.4-2.2,0.6l-0.5-1.8c0.6-0.4,1.9-0.8,3.2-0.8c2.2,0,3.5,1.2,3.5,2.6
	c0,1.1-0.6,2-1.9,2.4l0,0c1.2,0.2,2.3,1.2,2.3,2.5c0,1.8-1.6,3.2-4.3,3.2c-1.3,0-2.5-0.4-3.1-0.7L208.25,116.2z"/>
<path id="XMLID_233_" class="st0" d="M224.95,113.3c0,3.2-1.3,5.4-4,5.4s-3.9-2.4-3.9-5.4s1.3-5.4,4-5.4
	C223.85,108,224.95,110.5,224.95,113.3z M219.55,113.4c0,2.4,0.6,3.5,1.5,3.5s1.5-1.2,1.5-3.6c0-2.3-0.5-3.5-1.5-3.5
	C220.15,109.8,219.55,111,219.55,113.4z"/>
<path id="XMLID_236_" class="st0" d="M226.85,115.5c0-2.1,0.9-3,2.2-3c0.8,0,1.3,0.3,2.2,0.8c0.7,0.4,1.1,0.6,1.5,0.6
	s0.6-0.3,0.7-1.3h1.5c0.1,2.3-0.9,3-2.1,3c-0.8,0-1.4-0.3-2.2-0.8c-0.7-0.4-1.1-0.7-1.5-0.7s-0.7,0.3-0.8,1.3h-1.5V115.5z"/>
<path id="XMLID_238_" class="st0" d="M243.95,110.2h-4l-0.2,1.6c0.2,0,0.4,0,0.7,0c1,0,2,0.2,2.7,0.8c0.8,0.5,1.3,1.4,1.3,2.6
	c0,1.9-1.7,3.7-4.5,3.7c-1.3,0-2.3-0.3-2.9-0.6l0.4-1.8c0.5,0.2,1.4,0.5,2.4,0.5s2.1-0.5,2.1-1.6s-0.8-1.7-2.9-1.7
	c-0.6,0-1,0-1.4,0.1l0.7-5.5h5.7v1.9H243.95z"/>
<path id="XMLID_240_" class="st0" d="M254.15,113.3c0,3.2-1.3,5.4-4,5.4s-3.9-2.4-3.9-5.4s1.3-5.4,4-5.4
	C253.15,108,254.15,110.5,254.15,113.3z M248.75,113.4c0,2.4,0.6,3.5,1.5,3.5s1.5-1.2,1.5-3.6c0-2.3-0.5-3.5-1.5-3.5
	C249.35,109.8,248.75,111,248.75,113.4z"/>
<path id="XMLID_243_" class="st0" d="M270.75,106.4h3.8v0.9h-3.8v0.9h-1.1v-0.9h-4.7v0.9h-1.1v-0.9h-3.7v-0.9h3.7V105l1.4,0.1
	c0,0.1-0.1,0.2-0.3,0.2v1.1h4.7V105l1.4,0.1c0,0.1-0.1,0.2-0.3,0.2V106.4z M273.75,114.3v4.5c0,1.1-0.5,1.1-2.7,1.1
	c0-0.3-0.2-0.6-0.3-0.9c0.8,0,1.5,0,1.7,0s0.3-0.1,0.3-0.3v-3.6h-4.8v1.9l2.2-0.1c-0.3-0.4-0.5-0.8-0.8-1.1l0.8-0.3
	c0.8,0.9,1.5,2.1,1.8,2.9l-0.9,0.3c-0.1-0.3-0.2-0.6-0.4-1c-2.5,0.2-5.1,0.3-6.8,0.4c0,0.1-0.1,0.2-0.2,0.2l-0.4-1.2
	c1,0,2.3-0.1,3.7-0.1v-1.9h-4.7v4.7h-1v-5.7h5.7v-0.9h-4.6v-4.7h10.3v4.9h-4.7v0.9L273.75,114.3L273.75,114.3z M263.35,109.3v1.2
	h3.5v-1.2H263.35z M263.35,112.6h3.5v-1.3h-3.5V112.6z M271.55,110.6v-1.2h-3.7v1.2H271.55z M271.55,112.6v-1.3h-3.7v1.3H271.55z"/>
<path id="XMLID_269_" class="st0" d="M191.3,146.4l-1.9,0.7v4.8c0,1.2-0.6,1.4-2.6,1.3c0-0.3-0.2-0.7-0.3-1c0.4,0,0.8,0,1.2,0
	c0.7,0,0.8,0,0.8-0.3v-4.4c-0.8,0.3-1.4,0.5-2,0.7c0,0.1-0.1,0.2-0.2,0.3l-0.4-1.2c0.7-0.2,1.6-0.5,2.6-0.8v-3.9h-2.4v-1h2.4v-3.3
	l1.3,0.1c0,0.1-0.1,0.2-0.3,0.2v3h1.8v1h-1.8v3.4l1.8-0.6L191.3,146.4z M196.4,151.7c0.5,0.1,1.1,0.1,1.6,0.1h2.8
	c-0.1,0.2-0.3,0.7-0.3,1h-2.6c-2.3,0-4-0.4-5.1-2.5c-0.4,1.2-1,2.2-1.8,2.9c-0.2-0.2-0.5-0.4-0.8-0.6c1.3-1.1,2-3.1,2.3-5.4l1.3,0.2
	c0,0.1-0.1,0.2-0.3,0.2c-0.1,0.5-0.2,1-0.3,1.4c0.5,1.3,1.2,2,2.1,2.3v-4.7h-3.8v-1h9.2v1h-4.3v2h3.6v0.9h-3.6L196.4,151.7
	L196.4,151.7z M199.7,138.9v5.5h-7.4v-5.5H199.7z M198.7,141.2v-1.5h-5.4v1.5H198.7z M198.7,143.6v-1.5h-5.4v1.5H198.7z"/>
<path id="XMLID_275_" class="st0" d="M217.2,149.2h-5.8c1.5,1.3,3.9,2.5,6.1,3c-0.2,0.2-0.5,0.6-0.7,0.9c-2.3-0.6-4.9-2-6.4-3.6v3.8
	h-1.1v-3.7c-1.5,1.6-4,2.9-6.3,3.5c-0.1-0.3-0.4-0.7-0.7-0.9c2.2-0.5,4.6-1.6,6-3h-5.7v-0.9h6.7v-1.4l1.4,0.1c0,0.1-0.1,0.2-0.3,0.2
	v1.1h6.8L217.2,149.2L217.2,149.2z M206.1,145.4l-1-0.3c0.5-0.5,1-1.2,1.6-1.9h-3.9v-0.9h4.6c0.4-0.5,0.8-1.1,1.1-1.6l1.2,0.4
	c0,0.1-0.1,0.1-0.4,0.1c-0.2,0.3-0.5,0.7-0.8,1h8.3v0.9h-3.2c-0.4,0.9-1,1.6-1.9,2.2c1.6,0.4,3.2,0.9,4.3,1.3l-0.7,0.8
	c-1.2-0.4-2.9-1-4.8-1.5c-1.5,0.7-3.7,1.2-7,1.4c0-0.2-0.2-0.6-0.4-0.9c2.6-0.2,4.5-0.5,5.9-0.9c-0.9-0.2-1.9-0.4-2.8-0.6
	L206.1,145.4z M204.3,140.5v1.4h-1v-2.3h6v-1.2l1.4,0.1c0,0.1-0.1,0.2-0.3,0.2v0.9h6.2v2.3h-1v-1.4L204.3,140.5L204.3,140.5z
	 M208,143.2c-0.3,0.4-0.6,0.8-0.9,1.1c1.1,0.2,2.3,0.5,3.5,0.8c0.9-0.5,1.6-1.1,2-1.9L208,143.2L208,143.2z"/>
<path id="XMLID_280_" class="st0" d="M229.2,143.5c0.2,1.9,0.4,3.6,0.8,5c0.8-1.3,1.5-2.8,2-4.3l1.3,0.4c0,0.1-0.2,0.2-0.3,0.2
	c-0.6,1.8-1.4,3.5-2.5,5c0.5,1.5,1.2,2.3,2,2.3c0.5,0,0.7-0.8,0.8-2.8c0.2,0.2,0.6,0.5,0.9,0.6c-0.2,2.5-0.6,3.3-1.7,3.3
	c-1.1,0-2-0.9-2.7-2.4c-0.8,0.9-1.8,1.8-2.8,2.4c-0.2-0.3-0.5-0.6-0.8-0.8l0.4-0.2h-4.9v0.9h-1v-5.8c-0.3,0.3-0.5,0.6-0.8,0.9
	c-0.2-0.2-0.5-0.4-0.7-0.6c1-0.9,1.9-2.4,2.5-3.8l1.2,0.4c0,0.1-0.1,0.1-0.3,0.1c-0.2,0.4-0.4,0.8-0.6,1.2h2
	c0.3-0.5,0.5-1.1,0.7-1.6l1.2,0.3c0,0.1-0.1,0.2-0.3,0.2c-0.1,0.3-0.4,0.7-0.6,1.1h2.4v0.9h-2.6v1.1h2.3v0.8h-2.3v1.2h2.3v0.8h-2.3
	v1.2h2.5v0.5c0.8-0.6,1.5-1.3,2.2-2.1c-0.5-1.7-0.9-3.8-1.1-6.1h-8.8v-1h3.8v-1.7h-3.1v-0.9h3.1v-1.6l1.3,0.1c0,0.1-0.1,0.2-0.3,0.2
	v1.2h3v0.9h-3v1.7h3.9c-0.1-1.3-0.1-2.7-0.2-4.1l1.4,0.1c0,0.1-0.1,0.2-0.3,0.2c0,1.3,0,2.6,0.1,3.8h4.7v1h-4.8V143.5z M223.6,147.3
	v-1.1h-2.1v1.1H223.6z M223.6,149.3v-1.2h-2.1v1.2H223.6z M221.5,150v1.2h2.1V150H221.5z M230.9,138.7c0.9,0.7,2,1.6,2.5,2.4
	l-0.8,0.6c-0.5-0.7-1.5-1.7-2.5-2.4L230.9,138.7z"/>
<path id="XMLID_286_" class="st0" d="M244.2,151.3h6.2v1.1h-14.6v-1.1h2.3v-9.4l1.4,0.1c0,0.1-0.1,0.2-0.3,0.2v9.1h3.8v-12.9
	l1.5,0.1c0,0.1-0.1,0.2-0.3,0.2v5.1h5.3v1.1h-5.3L244.2,151.3L244.2,151.3z"/>
<g id="XMLID_89_">
	<path id="XMLID_135_" class="st0" d="M159.7,19.1c0-2.8,1.7-4.6,3.9-4.6c1.1,0,1.9,0.5,2.4,1.1l-0.6,0.7c-0.5-0.5-1-0.8-1.8-0.8
		c-1.7,0-2.8,1.4-2.8,3.6s1.1,3.6,2.7,3.6c0.8,0,1.5-0.4,2-1l0.6,0.7c-0.7,0.8-1.6,1.3-2.7,1.3C161.3,23.6,159.7,21.9,159.7,19.1z"
		/>
	<path id="XMLID_137_" class="st0" d="M167.5,14.9c0-0.4,0.3-0.7,0.8-0.7s0.8,0.3,0.8,0.7s-0.3,0.7-0.8,0.7S167.5,15.3,167.5,14.9z
		 M167.7,17h1.1v6.5h-1.1V17z"/>
	<path id="XMLID_140_" class="st0" d="M170.1,17h1.1l1.2,3.7c0.2,0.6,0.4,1.3,0.6,1.9l0,0c0.2-0.6,0.4-1.3,0.6-1.9l1.2-3.7h1.1
		l-2.3,6.5h-1.3L170.1,17z"/>
	<path id="XMLID_142_" class="st0" d="M177.1,14.9c0-0.4,0.3-0.7,0.8-0.7s0.8,0.3,0.8,0.7s-0.3,0.7-0.8,0.7S177.1,15.3,177.1,14.9z
		 M177.3,17h1.1v6.5h-1.1V17z"/>
	<path id="XMLID_145_" class="st0" d="M180.1,20.2c0-2.2,1.5-3.4,3.1-3.4c0.9,0,1.4,0.4,1.9,0.8l-0.6,0.7c-0.4-0.3-0.8-0.6-1.3-0.6
		c-1.2,0-2,1-2,2.5s0.8,2.5,2,2.5c0.6,0,1.1-0.3,1.5-0.6l0.5,0.7c-0.6,0.5-1.3,0.8-2.1,0.8C181.4,23.6,180.1,22.4,180.1,20.2z"/>
	<path id="XMLID_147_" class="st0" d="M191.3,15.6h-2.7v-0.9h6.4v0.9h-2.7v7.9h-1.1v-7.9H191.3z"/>
	<path id="XMLID_149_" class="st0" d="M195.2,20.2c0-2.1,1.4-3.4,2.9-3.4c1.7,0,2.6,1.2,2.6,3.1c0,0.2,0,0.5,0,0.6h-4.4
		c0.1,1.4,0.9,2.3,2.2,2.3c0.6,0,1.2-0.2,1.6-0.5l0.4,0.7c-0.6,0.4-1.3,0.7-2.2,0.7C196.6,23.6,195.2,22.4,195.2,20.2z M199.7,19.7
		c0-1.3-0.6-2-1.6-2c-0.9,0-1.7,0.7-1.9,2H199.7z"/>
	<path id="XMLID_152_" class="st0" d="M201.8,20.2c0-2.2,1.5-3.4,3.1-3.4c0.9,0,1.4,0.4,1.9,0.8l-0.6,0.7c-0.4-0.3-0.8-0.6-1.3-0.6
		c-1.2,0-2,1-2,2.5s0.8,2.5,2,2.5c0.6,0,1.1-0.3,1.5-0.6l0.5,0.7c-0.6,0.5-1.3,0.8-2.1,0.8C203.2,23.6,201.8,22.4,201.8,20.2z"/>
	<path id="XMLID_154_" class="st0" d="M208.4,13.9h1.1v2.6v1.3c0.6-0.6,1.3-1.1,2.2-1.1c1.4,0,2,0.9,2,2.6v4.1h-1.1v-4
		c0-1.2-0.4-1.7-1.2-1.7c-0.7,0-1.1,0.3-1.8,1v4.7h-1.1v-9.5H208.4z"/>
	<path id="XMLID_156_" class="st0" d="M218.5,14.7h2.5c2,0,3.3,0.7,3.3,2.6S223,20,221.1,20h-1.5v3.5h-1.1V14.7z M220.9,19.1
		c1.5,0,2.3-0.6,2.3-1.8c0-1.3-0.8-1.7-2.3-1.7h-1.3v3.5C219.6,19.1,220.9,19.1,220.9,19.1z"/>
	<path id="XMLID_159_" class="st0" d="M226,17h0.9l0.1,1.2l0,0c0.5-0.8,1.1-1.4,1.8-1.4c0.3,0,0.5,0,0.7,0.1l-0.2,1
		c-0.2-0.1-0.4-0.1-0.6-0.1c-0.5,0-1.2,0.4-1.6,1.5v4.2H226V17z"/>
	<path id="XMLID_161_" class="st0" d="M230,20.2c0-2.2,1.4-3.4,3-3.4s3,1.3,3,3.4c0,2.2-1.4,3.4-3,3.4S230,22.4,230,20.2z
		 M234.9,20.2c0-1.5-0.8-2.5-1.9-2.5c-1.1,0-1.9,1-1.9,2.5s0.8,2.5,1.9,2.5C234.2,22.7,234.9,21.7,234.9,20.2z"/>
	<path id="XMLID_164_" class="st0" d="M237.7,21.5v-3.6h-1V17l1-0.1l0.1-1.8h0.9V17h1.8v0.9h-1.8v3.6c0,0.8,0.3,1.3,1,1.3
		c0.2,0,0.5-0.1,0.7-0.2l0.2,0.8c-0.4,0.1-0.8,0.2-1.2,0.2C238.2,23.6,237.7,22.8,237.7,21.5z"/>
	<path id="XMLID_166_" class="st0" d="M241.4,20.2c0-2.2,1.4-3.4,3-3.4s3,1.3,3,3.4c0,2.2-1.4,3.4-3,3.4
		C242.8,23.6,241.4,22.4,241.4,20.2z M246.3,20.2c0-1.5-0.8-2.5-1.9-2.5c-1.1,0-1.9,1-1.9,2.5s0.8,2.5,1.9,2.5
		C245.6,22.7,246.3,21.7,246.3,20.2z"/>
	<path id="XMLID_169_" class="st0" d="M249.1,21.5v-3.6h-1V17l1-0.1l0.1-1.8h0.9V17h1.8v0.9h-1.8v3.6c0,0.8,0.3,1.3,1,1.3
		c0.2,0,0.5-0.1,0.7-0.2l0.2,0.8c-0.4,0.1-0.8,0.2-1.2,0.2C249.6,23.6,249.1,22.8,249.1,21.5z"/>
	<path id="XMLID_171_" class="st0" d="M252.8,26.1l0.2-0.9c0.1,0,0.3,0.1,0.5,0.1c0.7,0,1.2-0.6,1.5-1.4l0.1-0.5l-2.6-6.5h1.1
		l1.3,3.6c0.2,0.6,0.4,1.2,0.6,1.8h0.1c0.2-0.6,0.4-1.2,0.6-1.8l1.2-3.6h1.1L256,24c-0.5,1.3-1.1,2.3-2.4,2.3
		C253.3,26.3,253,26.2,252.8,26.1z"/>
	<path id="XMLID_173_" class="st0" d="M259.7,17h0.9l0.1,0.7l0,0c0.6-0.5,1.3-0.9,2.1-0.9c1.7,0,2.6,1.3,2.6,3.3
		c0,2.2-1.3,3.5-2.8,3.5c-0.6,0-1.2-0.3-1.8-0.8v1.1v2.2h-1.1L259.7,17L259.7,17z M264.3,20.1c0-1.4-0.5-2.4-1.7-2.4
		c-0.6,0-1.1,0.3-1.8,0.9V22c0.6,0.5,1.2,0.7,1.6,0.7C263.5,22.7,264.3,21.7,264.3,20.1z"/>
	<path id="XMLID_176_" class="st0" d="M266.7,20.2c0-2.1,1.4-3.4,2.9-3.4c1.7,0,2.6,1.2,2.6,3.1c0,0.2,0,0.5,0,0.6h-4.4
		c0.1,1.4,0.9,2.3,2.2,2.3c0.6,0,1.2-0.2,1.6-0.5L272,23c-0.6,0.4-1.3,0.7-2.2,0.7C268.1,23.6,266.7,22.4,266.7,20.2z M271.2,19.7
		c0-1.3-0.6-2-1.6-2c-0.9,0-1.7,0.7-1.9,2H271.2z"/>
	<path id="XMLID_179_" class="st0" d="M276.1,19.1c0-2.8,1.7-4.6,4-4.6c1.2,0,2,0.6,2.5,1.1l-0.6,0.7c-0.4-0.5-1-0.8-1.9-0.8
		c-1.8,0-2.9,1.4-2.9,3.6s1,3.6,2.9,3.6c0.6,0,1.2-0.2,1.6-0.5v-2.3h-1.9V19h2.9v3.7c-0.6,0.6-1.5,1-2.7,1
		C277.7,23.6,276.1,21.9,276.1,19.1z"/>
	<path id="XMLID_181_" class="st0" d="M284.8,17h0.9l0.1,1.2l0,0c0.5-0.8,1.1-1.4,1.8-1.4c0.3,0,0.5,0,0.7,0.1l-0.2,1
		c-0.2-0.1-0.4-0.1-0.6-0.1c-0.5,0-1.2,0.4-1.6,1.5v4.2h-1.1L284.8,17L284.8,17z"/>
	<path id="XMLID_183_" class="st0" d="M288.7,21.8c0-1.4,1.2-2.1,4-2.4c0-0.8-0.3-1.6-1.3-1.6c-0.8,0-1.4,0.3-2,0.7l-0.4-0.8
		c0.6-0.4,1.5-0.9,2.6-0.9c1.6,0,2.3,1.1,2.3,2.7v4H293l-0.1-0.8l0,0c-0.6,0.5-1.4,0.9-2.2,0.9C289.5,23.6,288.7,23,288.7,21.8z
		 M292.7,21.9v-1.8c-2.2,0.3-2.9,0.8-2.9,1.6c0,0.7,0.5,1,1.2,1C291.5,22.8,292.1,22.5,292.7,21.9z"/>
	<path id="XMLID_186_" class="st0" d="M295.9,17h0.9l0.1,0.9l0,0c0.6-0.6,1.3-1.1,2.2-1.1c1.4,0,2,0.9,2,2.6v4.1H300v-4
		c0-1.2-0.4-1.7-1.2-1.7c-0.7,0-1.1,0.3-1.8,1v4.7h-1.1V17z"/>
	<path id="XMLID_188_" class="st0" d="M303.4,21.5v-3.6h-1V17l1-0.1l0.1-1.8h0.9V17h1.8v0.9h-1.8v3.6c0,0.8,0.3,1.3,1,1.3
		c0.2,0,0.5-0.1,0.7-0.2l0.2,0.8c-0.4,0.1-0.8,0.2-1.2,0.2C303.8,23.6,303.4,22.8,303.4,21.5z"/>
</g>
</svg>
