<?xml version="1.0" encoding="utf-8"?>
<!-- Generator: Adobe Illustrator 21.0.0, SVG Export Plug-In . SVG Version: 6.00 Build 0)  -->
<svg version="1.1" id="Layer_1" xmlns="http://www.w3.org/2000/svg" xmlns:xlink="http://www.w3.org/1999/xlink" x="0px" y="0px"
	 viewBox="0 0 450 340" style="enable-background:new 0 0 450 340;" xml:space="preserve">
<style type="text/css">
	.st0{fill:#B92025;}
	.st1{fill:#FFFFFF;}
	.st2{fill:#FFFFFF;stroke:#FFFFFF;stroke-width:0.25;stroke-miterlimit:10;}
</style>
<g id="XMLID_111_">
	<g id="XMLID_112_">
		<path id="XMLID_114_" class="st0" d="M70.473,31.843H8.98c-0.852,0-1.533-0.596-1.618-1.448c-0.085-0.852-0.085-2.214,0-3.577
			c0-0.511,0-1.022,0-1.448c0-13.201,8.773-22.059,21.889-22.059c9.88,0,17.63,5.11,21.207,13.798
			c2.3-3.066,5.706-5.025,9.454-5.025c7.154,0,12.094,4.855,12.094,11.924v6.132C72.091,31.076,71.324,31.843,70.473,31.843z
			 M10.513,28.521h58.256v-4.514c0-5.962-4.429-8.602-8.858-8.602c-3.662,0-6.899,2.555-8.262,6.388
			c-0.256,0.681-0.852,1.107-1.618,1.107c-0.681,0-1.363-0.511-1.533-1.192C46.114,12.254,38.96,6.633,29.25,6.633
			c-11.328,0-18.652,7.41-18.652,18.823c0,0.426,0,0.937,0,1.533C10.598,27.414,10.513,28.01,10.513,28.521z"/>
	</g>
</g>
<g id="XMLID_107_">
	<g id="XMLID_108_">
		<path id="XMLID_109_" class="st1" d="M65.873,44.959c-4.514,0-8.262-3.151-9.795-7.495c-2.385,9.369-9.624,16.268-20.867,16.268
			c-11.583,0-20.271-7.41-20.271-20.441c0-1.278-0.17-3.747,0-4.77h61.493c0,2.129,0,4.429,0,6.132
			C76.349,41.126,71.665,44.959,65.873,44.959z"/>
	</g>
</g>
<g id="XMLID_96_">
	<path id="XMLID_105_" class="st1" d="M21.183,80.363c-2.6,5.879-6.896,12.096-10.74,15.827c-0.791-0.904-2.713-2.826-3.844-3.731
		c3.844-3.165,7.687-8.479,9.835-13.679L21.183,80.363z M31.245,96.981c2.939,3.957,6.218,9.157,8.027,12.435l-4.409,2.374
		c-0.452-1.017-1.13-2.261-1.922-3.505c-17.523,1.357-19.897,1.583-21.706,2.261c-0.339-0.904-1.13-3.278-1.809-4.635
		c1.244-0.339,2.148-1.357,3.618-2.939c1.47-1.583,5.992-7.687,8.931-13.679l4.974,2.148c-2.826,4.861-6.218,9.722-9.722,13.679
		l13.227-0.904c-1.13-1.809-2.374-3.731-3.505-5.313L31.245,96.981z M31.923,78.893c1.583,5.087,4.861,10.174,9.27,12.888
		c-1.017,0.904-2.487,3.052-3.278,4.296c-4.07-3.165-7.348-8.027-9.383-12.775h-5.766v-4.409H31.923z"/>
	<path id="XMLID_104_" class="st1" d="M65.386,99.468c1.583,4.522,3.957,7.574,5.879,7.574c0.904,0,1.244-1.47,1.47-5.087
		c1.017,0.904,2.487,1.696,3.731,2.035c-0.565,5.992-2.148,7.348-5.426,7.348c-4.522,0-8.366-4.974-10.288-11.87h-9.496v6.783
		l8.592-1.809c0,1.244,0.226,3.165,0.452,4.07c-10.627,2.487-12.435,2.826-13.566,3.391c-0.339-1.131-1.244-2.939-1.922-3.844
		c0.791-0.452,1.809-1.47,1.809-3.165V79.572H72.96v11.757h-9.496c0.113,1.357,0.339,2.713,0.565,4.07h11.418v4.07H65.386z
		 M51.368,83.528v3.844h17.41v-3.844H51.368z M59.846,95.399c-0.226-1.357-0.452-2.713-0.565-4.07h-7.913v4.07H59.846z"/>
	<path id="XMLID_103_" class="st1" d="M91.048,101.051c-0.452-1.017-1.357-2.487-2.148-3.957v14.696h-4.183V98.79
		c-1.244,2.826-2.487,5.313-3.957,7.122c-0.452-1.244-1.357-3.052-2.035-4.07c2.035-2.261,4.07-6.218,5.313-9.722h-4.861v-4.07
		h5.426v-4.07c-1.357,0.226-2.713,0.452-4.07,0.565c-0.113-1.017-0.678-2.374-1.13-3.278c4.07-0.565,8.592-1.696,11.644-2.939
		l2.374,3.505c-1.357,0.565-3.052,1.017-4.635,1.357v4.974h4.748v4.07h-4.748v0.339c1.017,1.017,4.07,4.409,4.748,5.2
		L91.048,101.051z M108.91,102.634v9.157h-4.183v-8.366l-10.966,1.922l-0.678-4.07l11.644-2.035V77.989h4.183v20.462l3.618-0.565
		l0.678,4.07L108.91,102.634z M99.866,97.547c-1.13-1.583-3.618-3.957-5.766-5.539l2.713-2.487c2.035,1.47,4.748,3.731,5.879,5.2
		L99.866,97.547z M100.77,88.05c-1.017-1.583-3.391-3.844-5.426-5.426l2.826-2.487c1.922,1.47,4.522,3.618,5.539,5.2L100.77,88.05z"
		/>
	<path id="XMLID_102_" class="st1" d="M128.015,97.32c-1.244,0.339-2.6,0.678-3.844,1.017v8.592c0,2.148-0.452,3.165-1.583,3.844
		c-1.244,0.678-2.939,0.791-5.426,0.791c-0.226-1.13-0.678-2.826-1.244-3.957c1.357,0,2.939,0,3.391,0
		c0.565,0,0.678-0.226,0.678-0.678v-7.461l-3.505,0.904l-1.13-4.07c1.357-0.226,2.939-0.565,4.635-1.017v-6.444h-4.183v-3.957h4.183
		v-6.896h4.296v6.896h3.505v3.957h-3.505v5.313l3.278-0.791L128.015,97.32z M148.025,92.459c-1.357,4.974-3.731,8.931-6.783,11.983
		c2.374,1.696,5.087,2.826,8.366,3.618c-0.904,0.904-2.148,2.6-2.713,3.731c-3.505-1.017-6.557-2.487-9.044-4.522
		c-2.826,1.922-5.992,3.391-9.496,4.409c-0.452-1.131-1.47-2.939-2.261-3.957c3.165-0.791,6.105-1.922,8.592-3.505
		c-2.148-2.374-3.844-5.313-5.087-8.592l1.13-0.339h-1.922v-3.844h7.122v-4.296h-7.8v-3.957h7.8v-5.2h4.296v5.2h8.14v3.957h-8.253
		v4.296h4.296l0.791-0.226L148.025,92.459z M133.781,95.286c1.017,2.374,2.487,4.522,4.296,6.444
		c1.922-1.809,3.391-3.957,4.522-6.444H133.781z"/>
	<path id="XMLID_101_" class="st1" d="M159.104,88.163v-1.357c-1.244,0.904-2.487,1.809-3.844,2.6h15.262v11.305h-12.548
		c-0.113,0.339-0.113,0.791-0.226,1.13h13.566v9.609h-3.731v-1.017h-6.67v1.13h-3.618v-7.461c-0.452,2.261-1.244,4.522-2.261,6.331
		c-0.791-0.565-2.713-1.357-3.731-1.696c2.826-4.635,3.165-11.079,3.165-15.262v-3.618l-0.791,0.452
		c-0.452-1.017-1.47-3.165-2.261-4.07c4.183-1.809,8.479-4.748,10.74-8.253l3.957,1.583c-0.226,0.339-0.452,0.565-0.678,0.904
		c2.713,1.583,5.652,3.278,7.348,4.522l-2.261,3.618c-1.017-0.791-2.374-1.696-3.957-2.713v2.374L159.104,88.163L159.104,88.163z
		 M166.565,97.773v-1.47h-8.253c0,0.452,0,1.017-0.113,1.47H166.565z M158.312,92.346v1.244v0.226h8.253v-1.357L158.312,92.346
		L158.312,92.346z M166.339,85.563c-1.13-0.678-2.374-1.47-3.391-2.148c-0.791,0.678-1.583,1.47-2.374,2.148H166.339z
		 M160.913,104.782v2.6h6.67v-2.6H160.913z M177.418,101.842h-4.07V81.72h4.07V101.842z M184.088,78.102v28.488
		c0,2.261-0.452,3.505-1.809,4.183c-1.244,0.678-3.278,0.904-6.218,0.904c-0.226-1.244-0.678-3.165-1.244-4.296
		c1.809,0,3.731,0,4.296,0s0.791-0.226,0.791-0.791V78.102H184.088z"/>
	<path id="XMLID_100_" class="st1" d="M194.036,101.616c-0.904,2.6-2.374,5.539-3.618,7.461c-0.678-0.565-2.035-1.47-2.826-1.922
		c1.244-1.696,2.374-4.183,3.165-6.444L194.036,101.616z M199.123,99.468v11.983h-4.183V99.468h-6.783v-3.618h6.783v-2.713h-6.896
		v-3.505h3.505c-0.226-1.13-0.565-2.6-1.017-3.731l2.939-0.678h-4.861V81.72h6.218c-0.339-1.017-0.678-2.035-1.13-2.826l4.296-1.017
		c0.565,1.244,1.244,2.713,1.583,3.957h5.2v3.505h-4.522l2.939,0.565c-0.565,1.357-1.13,2.826-1.583,3.957h3.731v3.278h-6.218v2.826
		h5.652v3.618h-5.652V99.468z M193.923,85.111c0.565,1.244,1.017,2.713,1.244,3.731l-2.6,0.678h5.2
		c0.565-1.357,1.244-3.165,1.583-4.522h-5.426V85.111z M221.394,93.816h-3.391v17.749h-4.183V93.816h-3.391v0.452
		c0,5.313-0.452,12.775-3.505,17.41c-0.678-0.791-2.374-2.148-3.278-2.6c0.678-1.017,1.244-2.261,1.583-3.505l-2.6,1.583
		c-0.565-1.47-1.809-3.731-2.826-5.426l2.826-1.47c1.017,1.47,2.148,3.391,2.713,4.748c1.017-3.505,1.131-7.348,1.131-10.74V81.38
		c3.957-0.678,8.366-1.809,10.966-3.052l3.278,3.165c-2.939,1.244-6.783,2.035-10.288,2.713v5.652h10.966V93.816z"/>
	<path id="XMLID_99_" class="st1" d="M246.943,104.443c3.844,1.357,8.253,2.939,10.853,4.07l-1.922,3.391
		c-3.165-1.583-9.609-4.07-14.131-5.539l1.13-1.809h-1.13c-1.696,3.052-5.879,5.992-15.601,7.574
		c-0.452-1.017-1.583-2.487-2.374-3.505c6.557-1.017,10.174-2.487,12.209-4.07h-12.096v-3.505h14.583
		c0-0.339,0.113-0.678,0.113-1.017V97.66h4.296v2.487c0,0.339,0,0.565,0,0.791h6.331c-0.791-0.678-1.583-1.357-2.374-1.809
		l1.357-1.244h-1.357c-0.113-1.017-0.565-2.148-1.017-3.165c1.13,0.113,2.487,0.113,2.939,0.113c0.452,0,0.452-0.113,0.452-0.452
		v-2.148h-6.218c0.904,0.678,1.922,1.47,2.374,2.148l-2.826,2.148c-0.678-0.904-2.261-2.261-3.505-3.165l1.47-1.13h-3.618v-2.826
		h1.357c-0.339-0.678-0.904-1.47-1.357-2.035c3.278-0.339,6.331-1.017,9.044-2.035c-0.791-0.904-1.922-1.922-3.052-2.826
		c-1.13,0.452-2.487,0.904-3.957,1.244c-0.452-0.791-1.357-1.922-2.148-2.374c4.296-0.904,7.574-2.148,9.496-3.505l3.505,0.678
		c-0.452,0.452-1.017,0.791-1.583,1.244h4.974l0.678-0.113l2.261,1.13c-1.583,2.939-4.07,4.861-7.235,6.331h3.957v2.261h4.07v2.826
		h-4.07v2.261c0,1.696-0.339,2.487-1.47,2.939c-0.452,0.226-1.13,0.339-1.922,0.452c1.131,0.678,2.148,1.583,2.826,2.261
		l-0.791,0.791h5.992v3.505H246.943z M229.986,92.007c0,1.696-0.452,5.2-2.939,7.235c-0.678-0.565-2.261-1.47-3.278-1.809
		c1.922-1.47,2.374-4.07,2.374-5.426h-2.035v-3.278h7.687v-2.035h-6.331v-7.8h3.618v4.522h2.713v-5.426h3.957v20.575h-3.957v-6.557
		H229.986z M243.439,85.789c-1.809,0.226-3.391,0.339-5.087,0.565l-0.339-2.148c1.47-0.113,3.278-0.226,5.426-0.452V85.789z
		 M248.978,89.407v-2.261c-2.261,1.017-4.861,1.696-7.574,2.261H248.978z M246.265,82.059c0.791,0.678,1.583,1.357,2.261,2.148
		c1.017-0.565,2.035-1.357,2.713-2.148H246.265z"/>
	<path id="XMLID_98_" class="st1" d="M292.728,87.711c-0.339,14.809-0.678,20.123-1.809,21.819
		c-0.791,1.244-1.696,1.583-3.052,1.809c-1.13,0.226-3.052,0.226-4.974,0.113c-0.113-1.13-0.452-2.939-1.244-4.07
		c1.809,0.113,3.391,0.113,4.183,0.113c0.565,0,0.904-0.113,1.244-0.565c0.791-1.017,1.13-5.426,1.357-17.07h-3.844
		c-0.565,9.496-2.487,17.184-9.496,21.932c-0.678-1.017-2.035-2.487-3.052-3.278c1.809-1.244,3.165-2.487,4.296-4.07
		c-5.539,1.357-11.418,2.713-15.827,3.844l-0.678-4.409c0.678-0.113,1.583-0.339,2.487-0.452V79.459h12.549v21.253l1.583-0.339
		l0.452,3.391c2.374-3.731,3.278-8.479,3.618-14.018h-4.635v-4.07h4.748c0-2.487,0-4.974,0-7.8h4.183c0,2.713,0,5.313-0.113,7.8h7.8
		v2.035H292.728z M266.162,83.302v3.618h4.748v-3.618H266.162z M270.91,90.764h-4.748v3.731h4.748V90.764z M266.162,102.634
		c1.47-0.339,3.165-0.678,4.748-1.017v-3.391h-4.748V102.634z"/>
	<path id="XMLID_97_" class="st1" d="M315.451,92.346v3.731h11.531v3.844h-5.766l3.618,1.357c-1.244,2.035-2.713,4.183-3.844,5.766
		h7.8v3.957h-31.315v-3.957h7.122c-0.565-1.696-1.809-4.07-3.052-5.879l2.826-1.244h-5.2v-3.844h11.644v-3.731h-7.348v-1.809
		c-1.47,0.678-3.052,1.357-4.635,1.922c-0.565-1.244-1.809-2.939-2.826-3.957c6.783-1.922,13.34-5.652,16.731-10.966l4.07,1.809
		c-0.339,0.452-0.678,0.904-1.017,1.47c3.505,3.165,9.383,6.218,14.81,7.687c-1.017,0.904-2.261,2.6-2.939,3.731
		c-1.583-0.565-3.278-1.357-4.974-2.148v2.148h-7.235V92.346z M305.277,100.034c1.244,1.809,2.6,4.183,3.165,5.766l-2.939,1.357
		h5.313v-7.009L305.277,100.034L305.277,100.034z M319.521,88.39c-2.261-1.357-4.409-3.052-6.218-4.748
		c-1.696,1.809-3.731,3.278-5.879,4.748H319.521z M315.451,100.034v7.009h4.522l-2.374-1.017c1.13-1.583,2.487-4.183,3.165-5.992
		H315.451z"/>
</g>
<g id="XMLID_94_">
	<path id="XMLID_95_" class="st1" d="M17.098,185.083c3.1,0,5.2,0.4,6.8,1v-2.5c-1.3-0.4-3.4-0.9-6.7-0.9c-4.2,0-6.3,0.9-7.3,1.9
		c-0.9,0.9-1.4,2.2-1.4,3.8s0.5,2.8,1.4,3.8c1,1,3,1.9,7.1,1.9c3.3,0,5.3-0.5,6.6-1.7c0.7-0.7,1-1.7,1-3.3v-1.5h-9.2v2.1h6.5
		c0,0.2,0,0.8-0.4,1.2c-0.7,0.7-2.3,0.9-4.5,0.9c-2.7,0-4.1-0.5-4.8-1.2c-0.5-0.5-0.7-1.2-0.7-2.2s0.3-1.7,0.8-2.2
		C12.898,185.583,14.398,185.083,17.098,185.083C17.098,185.083,14.398,185.083,17.098,185.083L17.098,185.083L17.098,185.083z"/>
</g>
<g id="XMLID_92_">
	<path id="XMLID_93_" class="st1" d="M68.898,183.183h-3.5l-5.5,8.2l-5.5-8.2h-3.6l7.2,10.5h3.7l0,0L68.898,183.183L68.898,183.183z
		"/>
</g>
<g id="XMLID_90_">
	<path id="XMLID_91_" class="st0" d="M49.898,175.983h-3l-19.4,24.9h3L49.898,175.983z"/>
</g>
<g id="XMLID_88_">
	<path id="XMLID_89_" class="st1" d="M45.698,184.683c-1-1-2.9-1.9-7.1-1.9c-4,0-6.1,0.9-7.1,1.9c-0.9,0.9-1.4,2.1-1.4,3.7
		c0,1.6,0.5,2.8,1.4,3.7c1,1,3,1.9,7.1,1.9c4.1,0,6.1-0.9,7.1-1.9c0.9-0.9,1.4-2.1,1.4-3.7
		C47.098,186.683,46.698,185.583,45.698,184.683z M38.698,191.783c-2.7,0-4.1-0.6-4.7-1.2c-0.5-0.5-0.8-1.1-0.8-2.2
		c0-1.1,0.3-1.8,0.8-2.2c0.6-0.6,2-1.1,4.7-1.1s4,0.5,4.7,1.1c0.5,0.5,0.8,1.1,0.8,2.2c0,1.1-0.3,1.8-0.8,2.2
		C42.698,191.283,41.398,191.783,38.698,191.783z"/>
</g>
<g id="XMLID_4_">
	<path id="XMLID_52_" class="st1" d="M6.627,138.746c0-8.428,4.88-13.308,11.534-13.308c3.105,0,5.767,1.774,7.098,3.105
		l-1.774,2.218c-1.331-1.331-3.105-2.662-5.323-2.662c-4.88,0-7.985,3.992-7.985,10.646c0,6.654,3.105,10.646,7.985,10.646
		c2.662,0,4.436-0.887,6.21-3.105l1.774,2.218c-2.218,2.218-4.436,3.549-7.985,3.549C11.506,152.497,6.627,147.174,6.627,138.746z"
		/>
	<path id="XMLID_50_" class="st1" d="M29.694,126.769c0-1.331,0.887-2.218,2.218-2.218c1.331,0,2.218,0.887,2.218,2.218
		c0,1.331-0.887,2.218-2.218,2.218C30.581,128.543,29.694,127.656,29.694,126.769z M30.137,132.535h3.105v19.075h-3.105V132.535z"/>
	<path id="XMLID_48_" class="st1" d="M37.235,132.535h3.549l3.549,11.09c0.444,1.774,1.331,3.992,1.774,5.767l0,0
		c0.444-1.774,1.331-3.992,1.774-5.767l3.549-11.09h3.105l-6.654,19.075h-3.549L37.235,132.535z"/>
	<path id="XMLID_47_" class="st1" d="M58.084,126.769c0-1.331,0.887-2.218,2.218-2.218s2.218,0.887,2.218,2.218
		c0,1.331-0.887,2.218-2.218,2.218S58.084,127.656,58.084,126.769z M58.528,132.535h3.105v19.075h-3.105V132.535z"/>
	<path id="XMLID_45_" class="st1" d="M66.956,142.295c0-6.21,4.436-10.203,9.316-10.203c2.662,0,4.436,0.887,5.767,2.218
		l-1.774,2.218c-1.331-0.887-2.218-1.774-3.992-1.774c-3.549,0-6.21,3.105-6.21,7.541s2.218,7.541,5.767,7.541
		c1.774,0,3.549-0.887,4.436-1.774l1.774,1.774c-1.774,1.774-3.992,2.662-6.21,2.662C70.948,152.497,66.956,148.505,66.956,142.295z
		"/>
	<path id="XMLID_43_" class="st1" d="M100.226,128.543h-7.985v-2.662h19.075v2.662h-7.985v23.067h-3.105V128.543z"/>
	<path id="XMLID_42_" class="st1" d="M111.316,142.295c0-6.21,4.436-10.203,8.872-10.203c4.88,0,7.541,3.549,7.541,8.872
		c0,0.887,0,1.331,0,1.774h-12.864c0,3.992,2.662,6.654,6.21,6.654c1.774,0,3.549-0.444,4.88-1.331l1.331,2.218
		c-1.774,0.887-3.549,1.774-6.21,1.774C115.752,152.497,111.316,148.505,111.316,142.295z M125.067,140.52
		c0-3.992-1.774-6.21-4.88-6.21c-2.662,0-5.323,2.218-5.323,6.21H125.067z"/>
	<path id="XMLID_40_" class="st1" d="M131.278,142.295c0-6.21,4.436-10.203,9.316-10.203c2.662,0,4.436,0.887,5.767,2.218
		l-1.774,2.218c-1.331-0.887-2.218-1.774-3.992-1.774c-3.549,0-6.21,3.105-6.21,7.541s2.218,7.541,5.767,7.541
		c1.774,0,3.549-0.887,4.436-1.774l1.331,2.218c-1.774,1.774-3.992,2.662-6.21,2.662
		C135.27,152.497,131.278,148.505,131.278,142.295z"/>
	<path id="XMLID_38_" class="st1" d="M150.796,123.663h3.105v7.541v3.992c1.774-1.774,3.549-3.105,6.21-3.105
		c3.992,0,5.767,2.662,5.767,7.541v12.421h-3.105v-11.977c0-3.549-0.887-5.323-3.549-5.323c-1.774,0-3.549,0.887-5.323,3.105v14.195
		h-3.105V123.663z"/>
	<path id="XMLID_36_" class="st1" d="M180.517,125.881h7.541c5.767,0,9.759,1.774,9.759,7.541c0,5.323-3.992,7.985-9.759,7.985
		h-4.436v10.203h-3.105V125.881z M187.615,138.746c4.436,0,6.654-1.774,6.654-5.323c0-3.549-2.218-4.88-7.098-4.88h-3.549v10.203
		H187.615z"/>
	<path id="XMLID_35_" class="st1" d="M202.697,132.535h2.662l0.444,3.549l0,0c1.331-2.662,3.105-3.992,5.323-3.992
		c0.887,0,1.331,0,2.218,0.444l-0.444,2.662c-0.444-0.444-0.887-0.444-1.774-0.444c-1.774,0-3.549,1.331-4.88,4.436v12.421h-3.105
		v-19.075C203.141,132.535,202.697,132.535,202.697,132.535z"/>
	<path id="XMLID_33_" class="st1" d="M214.674,142.295c0-6.21,4.436-10.203,8.872-10.203c4.88,0,8.872,3.549,8.872,10.203
		c0,6.21-4.436,10.203-8.872,10.203C218.667,152.497,214.674,148.505,214.674,142.295z M228.87,142.295
		c0-4.436-2.218-7.541-5.767-7.541c-3.549,0-5.767,3.105-5.767,7.541s2.218,7.541,5.767,7.541
		C226.652,149.836,228.87,146.731,228.87,142.295z"/>
	<path id="XMLID_31_" class="st1" d="M237.298,145.843v-10.646h-2.662v-2.662h3.105l0.444-5.323h2.662v5.323h5.323v2.662h-5.323
		v10.646c0,2.218,0.887,3.549,3.105,3.549c0.887,0,1.774-0.444,2.218-0.444l0.444,2.218c-0.887,0.444-2.218,0.887-3.549,0.887
		C238.629,152.497,237.298,149.836,237.298,145.843z"/>
	<path id="XMLID_29_" class="st1" d="M248.388,142.295c0-6.21,4.436-10.203,8.872-10.203c4.88,0,8.872,3.549,8.872,10.203
		c0,6.21-4.436,10.203-8.872,10.203C252.38,152.497,248.388,148.505,248.388,142.295z M262.583,142.295
		c0-4.436-2.218-7.541-5.767-7.541c-3.549,0-5.767,3.105-5.767,7.541s2.218,7.541,5.767,7.541
		C260.365,149.836,262.583,146.731,262.583,142.295z"/>
	<path id="XMLID_28_" class="st1" d="M271.011,145.843v-10.646h-2.662v-2.662h3.105l0.444-5.323h2.662v5.323h5.323v2.662h-5.323
		v10.646c0,2.218,0.887,3.549,3.105,3.549c0.887,0,1.774-0.444,2.218-0.444l0.444,2.218c-0.887,0.444-2.218,0.887-3.549,0.887
		C272.342,152.497,271.011,149.836,271.011,145.843z"/>
	<path id="XMLID_26_" class="st1" d="M282.101,159.595l0.444-2.662c0.444,0,0.887,0.444,1.331,0.444
		c2.218,0,3.549-1.774,4.436-3.992l0.444-1.331l-7.541-19.075h3.549l3.992,10.646c0.444,1.774,1.331,3.549,1.774,5.323l0,0
		c0.444-1.774,0.887-3.549,1.774-5.323l3.549-10.646h3.105l-7.098,20.849c-1.331,3.992-3.549,6.654-7.098,6.654
		C283.432,160.039,282.545,160.039,282.101,159.595z"/>
	<path id="XMLID_24_" class="st1" d="M302.507,132.535h2.662l0.444,2.218l0,0c1.774-1.331,3.992-2.662,6.21-2.662
		c4.88,0,7.541,3.992,7.541,9.759c0,6.654-3.992,10.203-8.428,10.203c-1.774,0-3.549-0.887-5.323-2.218v3.549v6.654h-3.105V132.535z
		 M315.815,141.851c0-4.436-1.331-7.098-4.88-7.098c-1.774,0-3.105,0.887-5.323,2.662v10.203c1.774,1.331,3.549,2.218,4.88,2.218
		C313.597,149.836,315.815,146.731,315.815,141.851z"/>
	<path id="XMLID_23_" class="st1" d="M322.912,142.295c0-6.21,4.436-10.203,8.872-10.203c4.88,0,7.541,3.549,7.541,8.872
		c0,0.887,0,1.331,0,1.774h-13.308c0,3.992,2.662,6.654,6.21,6.654c1.774,0,3.549-0.444,4.88-1.331l1.331,2.218
		c-1.774,0.887-3.549,1.774-6.21,1.774C326.905,152.497,322.912,148.505,322.912,142.295z M336.22,140.52
		c0-3.992-1.774-6.21-4.88-6.21c-2.662,0-5.323,2.218-5.323,6.21H336.22z"/>
	<path id="XMLID_18_" class="st1" d="M350.859,138.746c0-8.428,4.88-13.308,11.977-13.308c3.549,0,6.21,1.774,7.541,3.105
		l-1.774,2.218c-1.331-1.331-3.105-2.662-5.767-2.662c-5.323,0-8.428,3.992-8.428,10.646c0,6.654,3.105,10.646,8.872,10.646
		c1.774,0,3.549-0.444,4.88-1.331v-7.098h-5.323v-2.662h8.428v11.09c-1.774,1.774-4.436,3.105-7.985,3.105
		C355.739,152.497,350.859,147.174,350.859,138.746z"/>
	<path id="XMLID_17_" class="st1" d="M376.588,132.535h2.662l0.444,3.549l0,0c1.331-2.662,3.105-3.992,5.323-3.992
		c0.887,0,1.331,0,2.218,0.444l-0.444,2.662c-0.444-0.444-0.887-0.444-1.774-0.444c-1.774,0-3.549,1.331-4.88,4.436v12.421h-3.105
		v-19.075C377.032,132.535,376.588,132.535,376.588,132.535z"/>
	<path id="XMLID_16_" class="st1" d="M388.121,146.731c0-3.992,3.549-6.21,11.977-7.098c0-2.662-0.887-4.88-3.992-4.88
		c-2.218,0-4.436,0.887-5.767,2.218l-1.331-2.218c1.774-1.331,4.436-2.662,7.541-2.662c4.88,0,6.654,3.105,6.654,7.985v11.977
		h-2.662l-0.444-2.218l0,0c-1.774,1.331-3.992,2.662-6.21,2.662C390.339,152.497,388.121,150.279,388.121,146.731z M399.655,147.174
		v-5.323c-6.654,0.887-8.872,2.218-8.872,4.88c0,2.218,1.331,3.105,3.549,3.105S397.881,148.949,399.655,147.174z"/>
	<path id="XMLID_15_" class="st1" d="M409.414,132.535h2.662l0.444,2.662l0,0c1.774-1.774,3.992-3.105,6.654-3.105
		c3.992,0,5.767,2.662,5.767,7.541v12.421h-3.105v-11.977c0-3.549-0.887-5.323-3.549-5.323c-1.774,0-3.549,0.887-5.323,3.105v14.195
		h-3.105L409.414,132.535L409.414,132.535z"/>
	<path id="XMLID_7_" class="st1" d="M431.594,145.843v-10.646h-2.662v-2.662h3.105l0.444-5.323h2.662v5.323h5.323v2.662h-5.323
		v10.646c0,2.218,0.887,3.549,3.105,3.549c0.887,0,1.774-0.444,2.218-0.444l0.444,2.218c-0.887,0.444-2.218,0.887-3.549,0.887
		C432.925,152.497,431.594,149.836,431.594,145.843z"/>
</g>
<g>
	<path id="XMLID_75_" class="st1" d="M11.771,299.678c-0.215,0-0.536,0-0.858,0c-1.931,0.107-2.79,1.18-3.004,2.253l0,0
		c0.536-0.536,1.073-0.751,2.039-0.751c1.609,0,2.897,1.073,2.897,3.004c0,1.824-1.502,3.434-3.541,3.434
		c-2.575,0-3.756-1.824-3.756-4.077c0-1.824,0.644-3.219,1.717-4.185c0.966-0.858,2.146-1.288,3.648-1.502c0.322,0,0.751,0,0.858,0
		C11.771,297.854,11.771,299.678,11.771,299.678z M10.591,304.399c0-0.858-0.536-1.61-1.502-1.61c-0.644,0-1.073,0.322-1.288,0.858
		c0,0.107-0.107,0.215-0.107,0.644c0,0.966,0.536,1.931,1.61,1.931C10.054,306.009,10.591,305.365,10.591,304.399z"/>
	<path id="XMLID_74_" class="st1" d="M19.711,308.691v-8.262c-0.536,0.858-0.966,1.717-1.609,2.253
		c-0.107-0.215-0.322-0.751-0.537-0.966c1.18-1.502,2.468-3.97,3.112-6.545l1.073,0.322c0,0.107-0.107,0.107-0.322,0.107
		c-0.322,0.966-0.751,1.931-1.073,2.897l0.322,0.107c0,0.107-0.107,0.107-0.215,0.215v9.657h-0.751V308.691z M22.394,296.137h8.691
		v12.447H30.12v-0.751h-6.76v0.858h-0.966V296.137z M23.36,306.975h6.76v-10.086h-6.76V306.975z M29.368,300h-2.253v1.717h1.824
		v3.863h-4.185v-3.863h1.717V300h-2.253v-0.751h2.253v-1.717l1.073,0.107c0,0.107-0.107,0.107-0.215,0.215v1.502h2.253V300H29.368z
		 M27.974,304.936v-2.468h-2.682v2.468H27.974z"/>
	<path id="XMLID_72_" class="st1" d="M43.961,296.03v11.267c0,0.751-0.215,1.073-0.751,1.18c-0.536,0.107-1.502,0.215-3.112,0.107
		c-0.107-0.215-0.215-0.751-0.322-1.073c0.751,0,1.288,0,1.931,0c1.18,0,1.288,0,1.288-0.536v-3.219h-7.082
		c-0.322,1.717-1.073,3.434-2.683,4.721c-0.107-0.215-0.536-0.644-0.751-0.751c2.575-2.146,2.79-5.043,2.79-7.511v-4.507h8.691
		V296.03z M36.128,300.537c0,0.751,0,1.717-0.107,2.682h6.975v-2.682H36.128z M42.996,296.996h-6.867v2.575h6.867V296.996z"/>
	<path id="XMLID_70_" class="st1" d="M47.502,304.721c1.073,0.858,2.575,2.253,3.219,3.219l-0.966,0.751
		c-0.751-0.966-2.146-2.468-3.112-3.219L47.502,304.721z"/>
	<path id="XMLID_69_" class="st1" d="M68.318,303.434h-2.146c0,1.073-0.107,1.824-0.107,2.575h1.824v0.858h-1.931
		c-0.215,1.717-0.751,1.931-2.039,1.931c-0.322,0-0.858,0-1.288,0c0-0.215-0.107-0.644-0.215-0.858c0.644,0,1.073,0,1.502,0
		c0.751,0,0.966,0,1.073-1.073h-7.511l-0.107,0.644h-0.966c0.215-1.073,0.536-2.468,0.644-3.863h-2.039v-0.858h2.253
		c0.107-1.18,0.322-2.253,0.322-3.219h8.369h0.536c0,0.644-0.107,2.897-0.107,3.219h2.039v0.751h-0.107V303.434z M67.675,297.854
		H57.91c-0.751,1.073-1.502,2.039-2.253,2.897c-0.215-0.107-0.644-0.322-0.858-0.644c1.18-1.073,2.575-3.112,3.434-4.936l1.18,0.322
		c-0.107,0.107-0.215,0.107-0.322,0.107c-0.215,0.322-0.322,0.858-0.644,1.288h9.335v0.966H67.675z M62.524,305.902h2.575
		c0.107-0.644,0.107-1.502,0.215-2.575h-7.296c-0.107,0.858-0.215,1.824-0.322,2.575H62.524c-0.644-0.644-1.824-1.502-2.79-1.931
		l0.644-0.644c1.073,0.536,2.253,1.288,2.897,1.931L62.524,305.902z M65.314,302.575c0-0.751,0.107-1.609,0.107-2.468h-6.975
		c-0.107,0.751-0.215,1.609-0.322,2.468H65.314z M60.485,300.107c0.966,0.322,2.146,1.073,2.79,1.717l-0.644,0.644
		c-0.644-0.644-1.717-1.288-2.682-1.717L60.485,300.107z"/>
	<path id="XMLID_67_" class="st1" d="M71.537,308.691v-8.262c-0.536,0.858-0.966,1.717-1.61,2.253
		c-0.107-0.215-0.322-0.751-0.536-0.966c1.18-1.502,2.468-3.97,3.112-6.545l1.073,0.322c0,0.107-0.107,0.107-0.322,0.107
		c-0.322,0.966-0.751,1.931-1.073,2.897l0.322,0.107c0,0.107-0.107,0.107-0.215,0.215v9.657h-0.751V308.691z M74.327,296.137h8.691
		v12.447h-0.966v-0.751h-6.867v0.858H74.22v-12.554L74.327,296.137L74.327,296.137z M75.186,306.975h6.76v-10.086h-6.76V306.975z
		 M81.409,300h-2.253v1.717h1.824v3.863h-4.185v-3.863h1.717V300h-2.253v-0.751h2.253v-1.717l1.073,0.107
		c0,0.107-0.107,0.107-0.215,0.215v1.502h2.253V300H81.409z M79.907,304.936v-2.468h-2.682v2.468H79.907z"/>
	<path id="XMLID_65_" class="st1" d="M98.362,304.614v0.858h-3.541v2.146c0,0.536-0.107,0.858-0.644,0.966
		c-0.536,0.107-1.18,0.107-2.468,0.107c0-0.215-0.107-0.644-0.322-0.858c0.966,0,1.717,0,1.931,0c0.215,0,0.322-0.107,0.322-0.215
		v-2.146h-8.799v-0.858h8.799v-0.966h1.18c0,0.107-0.107,0.107-0.215,0.215v0.751H98.362L98.362,304.614z M91.281,298.069v-0.858
		h-6.009v-0.858h6.009v-1.18l1.18,0.107c0,0.107-0.107,0.107-0.215,0.215v0.858h6.009v0.858h-6.009v0.858h4.399v3.97h-1.61
		c1.073,0.322,2.146,0.966,2.79,1.502l-0.644,0.644c-0.215-0.215-0.536-0.322-0.858-0.644c-3.756,0.107-7.726,0.215-10.193,0.215
		c0,0.107-0.107,0.107-0.215,0.215l-0.322-0.966c1.502,0,3.434,0,5.58,0v-0.858h-4.185v-3.97h4.399v-0.107H91.281z M89.778,307.94
		c-0.537-0.644-1.61-1.288-2.468-1.931l0.751-0.644c0.858,0.536,1.931,1.288,2.575,1.824L89.778,307.94z M87.847,298.82v0.966h3.434
		v-0.966H87.847z M87.847,301.288h3.434v-0.966h-3.434C87.847,300.322,87.847,301.288,87.847,301.288z M95.573,298.82h-3.541v0.966
		h3.434v-0.966H95.573z M95.573,301.288v-0.966h-3.541v0.966H95.573z M92.139,302.039v0.858h3.004
		c-0.322-0.215-0.858-0.322-1.18-0.536l0.322-0.322H92.139z"/>
	<path id="XMLID_63_" class="st1" d="M113.384,304.936h-5.15c1.288,1.18,3.541,2.146,5.58,2.682
		c-0.215,0.215-0.536,0.644-0.644,0.858c-2.039-0.644-4.507-1.824-5.794-3.219v3.541h-0.966v-3.434
		c-1.502,1.502-3.648,2.575-5.687,3.112c-0.107-0.215-0.322-0.644-0.644-0.751c1.931-0.536,4.185-1.502,5.472-2.682h-5.15v-0.858
		h6.009v-1.18l1.18,0.107c0,0.107-0.107,0.107-0.215,0.215v0.966h6.116v0.644H113.384z M103.405,301.717l-0.858-0.322
		c0.322-0.536,0.966-1.073,1.502-1.717h-3.541v-0.858h4.077c0.322-0.536,0.751-0.966,1.073-1.502l1.073,0.322
		c0,0.107-0.107,0.107-0.322,0.107c-0.215,0.215-0.536,0.644-0.751,0.966h7.511v0.858h-2.897c-0.322,0.858-0.966,1.502-1.717,2.039
		c1.502,0.322,2.897,0.858,3.863,1.18l-0.644,0.751c-1.073-0.322-2.682-0.858-4.399-1.288c-1.502,0.644-3.434,1.073-6.438,1.18
		c0-0.215-0.215-0.644-0.322-0.751c2.253-0.107,4.077-0.322,5.365-0.858c-0.858-0.215-1.717-0.322-2.575-0.644L103.405,301.717z
		 M101.796,297.21v1.18h-0.966v-2.146h5.472v-1.073l1.18,0.107c0,0.107-0.107,0.107-0.215,0.215v0.858h5.58v2.146h-0.966v-1.18
		h-10.086L101.796,297.21L101.796,297.21z M105.015,299.678c-0.215,0.322-0.644,0.751-0.858,1.073
		c0.966,0.215,2.039,0.537,3.112,0.751c0.858-0.536,1.502-0.966,1.824-1.717h-4.077L105.015,299.678L105.015,299.678z"/>
	<path id="XMLID_62_" class="st1" d="M119.286,305.365c0.322,0.215,1.288,0.644,2.146,0.644c1.073,0,1.717-0.644,1.717-1.18
		c0-0.966-0.966-1.288-1.931-1.288h-0.858v-1.717h0.858c0.751,0,1.717-0.215,1.717-1.073c0-0.644-0.537-0.966-1.502-0.966
		c-0.751,0-1.609,0.322-1.931,0.644l-0.536-1.609c0.644-0.322,1.717-0.751,2.897-0.751c2.039,0,3.112,1.073,3.112,2.253
		c0,0.966-0.644,1.824-1.717,2.146l0,0c1.073,0.215,2.039,1.073,2.039,2.253c0,1.717-1.502,2.897-3.863,2.897
		c-1.18,0-2.253-0.322-2.79-0.751L119.286,305.365z"/>
	<path id="XMLID_60_" class="st1" d="M134.522,302.683c0,2.897-1.18,4.936-3.648,4.936c-2.468,0-3.541-2.146-3.541-4.828
		c0-2.79,1.18-4.828,3.648-4.828C133.449,297.854,134.522,300.107,134.522,302.683z M129.587,302.79
		c0,2.146,0.536,3.112,1.288,3.112s1.288-1.073,1.288-3.219c0-2.039-0.536-3.112-1.288-3.112
		C130.23,299.571,129.587,300.644,129.587,302.79z"/>
	<path id="XMLID_59_" class="st1" d="M136.239,304.721c0-1.931,0.858-2.683,2.039-2.683c0.751,0,1.18,0.215,2.039,0.751
		c0.644,0.322,1.073,0.644,1.288,0.644c0.322,0,0.644-0.322,0.644-1.18h1.288c0.107,2.039-0.858,2.79-1.931,2.79
		c-0.751,0-1.18-0.215-2.039-0.751c-0.644-0.322-1.073-0.644-1.288-0.644c-0.322,0-0.644,0.215-0.751,1.18h-1.288V304.721z"/>
	<path id="XMLID_57_" class="st1" d="M151.69,299.893h-3.648l-0.215,1.502c0.215,0,0.322,0,0.644,0c0.858,0,1.824,0.215,2.575,0.751
		s1.073,1.18,1.073,2.468c0,1.824-1.502,3.219-3.97,3.219c-1.073,0-2.039-0.215-2.683-0.536l0.322-1.717
		c0.322,0.215,1.288,0.536,2.146,0.536c0.966,0,1.931-0.536,1.931-1.502c0-0.966-0.751-1.609-2.682-1.609
		c-0.536,0-0.858,0-1.288,0.107l0.644-4.936h5.15L151.69,299.893L151.69,299.893z"/>
	<path id="XMLID_55_" class="st1" d="M161.026,302.683c0,2.897-1.18,4.936-3.648,4.936s-3.541-2.146-3.541-4.828
		c0-2.79,1.18-4.828,3.648-4.828C160.06,297.854,161.026,300.107,161.026,302.683z M156.09,302.79c0,2.146,0.536,3.112,1.288,3.112
		c0.858,0,1.288-1.073,1.288-3.219c0-2.039-0.536-3.112-1.288-3.112C156.734,299.571,156.09,300.644,156.09,302.79z"/>
	<path id="XMLID_53_" class="st1" d="M176.048,296.459h3.434v0.858h-3.434v0.858h-0.966v-0.858h-4.185v0.858h-0.966v-0.858h-3.434
		v-0.858h3.434v-1.18l1.18,0.107c0,0.107-0.107,0.107-0.215,0.215v0.966h4.185v-1.18l1.18,0.107c0,0.107-0.107,0.107-0.215,0.215
		L176.048,296.459L176.048,296.459z M178.73,303.648v4.077c0,0.966-0.322,0.966-2.468,0.966c0-0.215-0.107-0.644-0.215-0.858
		c0.751,0,1.288,0,1.502,0s0.215,0,0.215-0.215v-3.219h-4.399v1.717l1.931-0.107c-0.215-0.322-0.536-0.751-0.751-1.073l0.751-0.215
		c0.751,0.751,1.288,1.824,1.61,2.682l-0.751,0.215c-0.107-0.215-0.215-0.644-0.322-0.858c-2.253,0.107-4.614,0.215-6.116,0.322
		c0,0.107-0.107,0.107-0.215,0.215l-0.322-1.073c0.858,0,2.039,0,3.434-0.107v-1.717h-4.399v4.185h-0.966v-5.043h5.15v-0.751h-4.077
		v-4.399h9.335v4.399h-4.185v0.751h5.365v0.107H178.73z M169.288,299.142v1.073h3.112v-1.073H169.288z M169.288,302.039h3.112
		v-1.073h-3.112V302.039z M176.799,300.215v-1.073h-3.219v1.073H176.799z M176.799,302.039v-1.073h-3.219v1.073H176.799z"/>
	<path class="st1" d="M6.621,331.01v-0.858l1.073-0.966c2.468-2.361,3.648-3.648,3.648-5.15c0-0.966-0.536-1.931-1.931-1.931
		c-0.858,0-1.61,0.429-2.039,0.858l-0.429-0.966c0.644-0.536,1.61-0.966,2.79-0.966c2.146,0,3.004,1.502,3.004,2.897
		c0,1.824-1.288,3.326-3.434,5.258l-0.751,0.751l0,0h4.399v1.073H6.621z"/>
	<path class="st1" d="M20.892,325.967c0,3.326-1.288,5.15-3.434,5.15c-1.931,0-3.219-1.824-3.219-5.043
		c0-3.326,1.395-5.15,3.434-5.15C19.711,320.924,20.892,322.855,20.892,325.967z M15.527,326.074c0,2.575,0.751,3.97,2.039,3.97
		c1.395,0,2.039-1.61,2.039-4.077s-0.644-3.97-2.039-3.97C16.385,321.997,15.527,323.391,15.527,326.074z"/>
	<path class="st1" d="M24.969,322.426L24.969,322.426l-1.717,0.966l-0.215-0.966l2.146-1.18h1.18v9.872h-1.288v-8.691H24.969z"/>
	<path class="st1" d="M36.236,321.138v0.858l-4.292,8.906h-1.395l4.292-8.691l0,0h-4.829v-1.073H36.236z"/>
	<path class="st1" d="M36.879,331.546l4.185-10.945h1.073l-4.185,10.945H36.879z"/>
	<path class="st1" d="M49.326,325.967c0,3.326-1.288,5.15-3.434,5.15c-1.931,0-3.219-1.824-3.219-5.043
		c0-3.326,1.395-5.15,3.434-5.15C48.146,320.924,49.326,322.855,49.326,325.967z M43.961,326.074c0,2.575,0.751,3.97,2.039,3.97
		c1.395,0,2.039-1.61,2.039-4.077s-0.644-3.97-2.039-3.97C44.82,321.997,43.961,323.391,43.961,326.074z"/>
	<path class="st1" d="M56.945,321.138v0.858l-4.292,8.906h-1.395l4.292-8.691l0,0h-4.829v-1.073H56.945z"/>
	<path class="st1" d="M57.588,331.546l4.185-10.945h1.073l-4.185,10.945H57.588z"/>
	<path class="st1" d="M66.387,322.426L66.387,322.426l-1.717,0.966l-0.215-0.966l2.146-1.18h1.18v9.872h-1.288v-8.691H66.387z"/>
	<path class="st1" d="M76.795,322.104c-0.322,0-0.644,0-0.966,0.107c-2.039,0.322-3.219,1.824-3.434,3.541l0,0
		c0.429-0.644,1.288-1.18,2.361-1.18c1.717,0,3.004,1.288,3.004,3.219c0,1.824-1.18,3.434-3.219,3.434
		c-2.146,0-3.434-1.609-3.434-4.185c0-1.931,0.644-3.434,1.609-4.399c0.858-0.751,1.931-1.288,3.112-1.502
		c0.429-0.107,0.751-0.107,0.966-0.107C76.795,321.031,76.795,322.104,76.795,322.104z M76.473,327.791
		c0-1.395-0.751-2.253-2.039-2.253c-0.751,0-1.502,0.536-1.931,1.18c-0.107,0.107-0.107,0.322-0.107,0.536
		c0,1.609,0.751,2.79,2.146,2.79C75.722,330.151,76.473,329.186,76.473,327.791z"/>
	<path class="st1" d="M86.774,325.967c-0.536,0.215-1.073,0.322-1.609,0.536v4.185c0,0.644-0.107,0.858-0.536,1.073
		c-0.322,0.215-0.966,0.215-1.824,0.215c0-0.322-0.215-0.751-0.322-1.073c0.644,0,1.288,0,1.395,0c0.215,0,0.322-0.107,0.322-0.322
		v-3.863c-0.644,0.215-1.18,0.429-1.717,0.536l-0.322-1.073c0.536-0.107,1.288-0.322,2.039-0.537v-3.326h-1.824v-1.073h1.824v-3.004
		h1.073v3.004h1.609v1.073h-1.609v3.004l1.502-0.429L86.774,325.967z M91.71,330.795c0.429,0.107,0.966,0.107,1.395,0.107
		c0.322,0,2.468,0,2.897,0c-0.107,0.215-0.322,0.751-0.322,0.966h-2.575c-2.146,0-3.756-0.429-4.721-2.575
		c-0.429,1.18-0.966,2.039-1.824,2.79c-0.215-0.215-0.536-0.536-0.858-0.644c1.395-1.073,2.039-2.79,2.253-4.936l1.073,0.107
		c-0.107,0.536-0.215,1.073-0.322,1.609c0.429,1.288,1.073,1.931,1.931,2.361v-4.829h-3.648v-0.966h8.584v0.966H91.71v1.717h3.112
		v0.966H91.71L91.71,330.795L91.71,330.795z M94.821,323.713H87.74v-4.936h7.082V323.713z M93.748,319.636h-4.936v1.18h4.936
		V319.636z M93.748,321.675h-4.936v1.18h4.936V321.675z"/>
	<path class="st1" d="M110.916,327.469v0.966h-6.223v3.648h-1.073v-3.648h-6.116v-0.966h6.116v-1.288h1.073v1.288H110.916z
		 M109.522,326.825c-1.18-0.429-2.897-0.966-4.936-1.395c-1.61,0.644-3.756,1.073-6.545,1.18c-0.107-0.322-0.215-0.644-0.429-0.966
		c2.039-0.107,3.756-0.322,5.15-0.644c-1.073-0.215-2.039-0.429-3.219-0.536c0.429-0.429,0.966-0.966,1.502-1.502h-3.434v-0.966
		h4.185c0.429-0.537,0.858-1.073,1.18-1.61l1.073,0.322c-0.322,0.429-0.644,0.858-0.966,1.18h3.756
		c0.215-0.322,0.322-0.644,0.429-1.073l1.073,0.215c-0.107,0.322-0.215,0.536-0.322,0.751h2.683v0.966h-3.219
		c-0.429,0.751-1.073,1.288-1.824,1.717c1.824,0.429,3.541,0.858,4.721,1.288L109.522,326.825z M102.332,329.078
		c-0.966,1.073-2.468,1.931-3.756,2.575c-0.215-0.215-0.644-0.644-0.966-0.751c1.395-0.536,2.79-1.288,3.648-2.146L102.332,329.078z
		 M98.899,321.675h-1.073v-2.146h5.794c-0.215-0.322-0.429-0.644-0.536-0.858l1.073-0.322c0.215,0.322,0.537,0.751,0.751,1.18h5.58
		v2.146h-1.073v-1.18H98.899L98.899,321.675L98.899,321.675z M102.332,323.07c-0.322,0.322-0.644,0.644-0.966,0.966
		c0.966,0.107,1.931,0.322,2.897,0.536c0.751-0.429,1.395-0.858,1.931-1.502H102.332z M106.624,328.649
		c1.395,0.644,3.112,1.609,3.97,2.361l-0.858,0.858c-0.858-0.751-2.575-1.824-3.97-2.468L106.624,328.649z"/>
	<path class="st1" d="M125.295,324.143c-0.536,1.717-1.288,3.434-2.253,4.828c0.429,1.18,0.966,1.824,1.61,1.824
		c0.429,0,0.536-0.644,0.644-2.468c0.215,0.215,0.644,0.429,0.858,0.536c-0.215,2.253-0.536,2.897-1.609,2.897
		c-0.966,0-1.717-0.644-2.253-1.931c-0.644,0.751-1.395,1.502-2.253,2.039c-0.215-0.215-0.536-0.536-0.751-0.751
		c0.215-0.107,0.322-0.215,0.536-0.322h-4.936v0.751h-0.966v-5.365c-0.215,0.322-0.429,0.536-0.644,0.751
		c-0.215-0.215-0.536-0.536-0.751-0.644c0.966-0.858,1.824-2.146,2.361-3.434l0.966,0.215c-0.215,0.429-0.429,0.858-0.644,1.288
		h2.146c-0.215-0.429-0.429-0.858-0.644-1.18l0.858-0.322c0.322,0.429,0.751,1.073,0.858,1.502h1.931v0.858h-2.253v0.966h1.931
		v0.751h-1.931v1.073h1.931v0.751h-1.931v1.073h2.253v0.644c0.644-0.536,1.288-1.18,1.717-1.824
		c-0.536-1.609-0.751-3.648-0.966-5.902h-8.369v-0.966h3.434v-1.288h-2.79v-0.966h2.79v-1.395h1.073v1.395h2.683v0.966h-2.683v1.288
		h3.756c-0.107-1.18-0.107-2.361-0.107-3.648h1.073c0,1.288,0,2.468,0.107,3.648h4.077v0.966h-4.077
		c0.107,1.824,0.429,3.434,0.644,4.721c0.644-1.18,1.18-2.468,1.609-3.755L125.295,324.143z M116.925,325.537h-2.146v0.966h2.146
		V325.537z M116.925,327.254h-2.146v1.073h2.146V327.254z M114.779,330.044h2.146v-1.073h-2.146V330.044z M124.865,321.353
		c-0.429-0.644-1.395-1.609-2.146-2.253l0.751-0.536c0.858,0.644,1.717,1.502,2.253,2.146L124.865,321.353z"/>
	<path class="st1" d="M141.175,330.259v1.073h-13.52v-1.073h2.039v-8.584h1.18v8.584h3.541v-11.91h1.18v5.043h4.936v1.073h-4.936
		v5.794H141.175L141.175,330.259z"/>
</g>
<g>
	<path class="st2" d="M87.945,186.628c-0.128,0.08-0.24,0.177-0.352,0.272c1.44,0.832,4.161,1.713,6.643,2.097
		c-0.24,0.256-0.544,0.688-0.704,0.961c-1.153-0.208-2.337-0.561-3.441-0.944v0.64H83.64v-0.688
		c-1.072,0.433-2.161,0.816-3.169,1.104c-0.225-0.239-0.656-0.656-0.944-0.848c2.641-0.625,5.538-1.713,7.283-3.042h-0.545v-2.513
		H81.19v1.969h-1.088v-2.801h6.162v-0.896h-5.233v-0.912h11.62v0.912h-5.234v0.896h6.179v2.801h-1.12v-1.969h-5.059v2.513h-0.368
		L87.945,186.628z M81.383,186.212c1.04-0.191,2.545-0.544,4.065-0.88l0.08,0.736c-1.328,0.384-2.657,0.736-3.777,1.04
		L81.383,186.212z M90.778,190.326l0.753,0.496c-0.769,0.977-2.113,2.017-3.266,2.721c0.513,0.256,0.977,0.48,1.329,0.656
		l-0.497,0.881c-1.168-0.656-3.489-1.729-5.218-2.449l0.496-0.736c0.832,0.336,1.809,0.736,2.753,1.152
		c0.833-0.448,1.825-1.12,2.562-1.745h-8.147v-0.912h9.044L90.778,190.326z M82.279,183.875c1.009,0.176,2.385,0.496,3.105,0.753
		l-0.32,0.736c-0.736-0.272-2.097-0.625-3.121-0.849L82.279,183.875z M89.723,188.869c-1.169-0.448-2.193-0.96-2.945-1.44
		c-0.881,0.528-1.873,1.009-2.897,1.44H89.723z M88.441,185.252l0.177,0.032l-0.4-0.593c0.929-0.176,2.321-0.592,3.121-0.849
		l0.513,0.673c-0.913,0.368-2.257,0.624-3.186,0.784c1.232,0.24,2.817,0.672,3.697,1.024l-0.304,0.769
		c-0.913-0.385-2.625-0.864-3.922-1.152L88.441,185.252z"/>
	<path class="st2" d="M101.929,191.895h-3.441v1.28h-1.104v-11.732h4.546V191.895z M98.487,182.53v3.538h2.32v-3.538H98.487z
		 M100.808,190.806v-3.681h-2.32v3.681H100.808z M107.371,183.379v2.064h3.489v1.057h-1.393v1.745h1.856v1.057h-1.856v4.289
		c0,0.688-0.177,1.024-0.656,1.201c-0.513,0.191-1.297,0.208-2.594,0.208c-0.048-0.337-0.224-0.801-0.384-1.121
		c0.977,0.032,1.873,0.032,2.129,0.017c0.256-0.017,0.336-0.08,0.336-0.32v-4.273h-6.019v-1.057h6.019V186.5h-5.378v-1.057h3.281
		v-2.064h-3.985v-1.072h3.985v-1.921h1.169v1.921h4.001v1.072H107.371z M104.233,189.861c0.752,0.816,1.648,1.985,2.064,2.722
		l-1.04,0.64c-0.384-0.768-1.248-1.937-2.017-2.801L104.233,189.861z"/>
	<path class="st2" d="M127.627,184.468c-0.432,2.657-1.072,4.802-2.112,6.546c0.864,1.329,1.952,2.354,3.329,2.993
		c-0.256,0.24-0.624,0.705-0.816,1.009c-1.312-0.688-2.369-1.696-3.217-2.945c-0.913,1.201-2.098,2.193-3.602,2.978
		c-0.128-0.272-0.465-0.784-0.688-1.041c1.568-0.752,2.737-1.744,3.633-3.024c-0.704-1.312-1.232-2.85-1.648-4.546
		c-0.32,0.64-0.672,1.232-1.04,1.744c-0.192-0.208-0.688-0.608-0.944-0.784l0.08-0.112h-1.793v4.066l2.737-0.625l0.112,1.073
		c-2.625,0.64-5.459,1.312-7.443,1.761l-0.225-1.185l0.945-0.192v-7.106h1.088v6.866l1.633-0.353v-8.915h-3.394v-1.152h7.315v1.152
		h-2.77v3.489h2.177v0.561c1.072-1.665,1.793-3.938,2.225-6.339l1.185,0.208c-0.191,0.944-0.432,1.889-0.688,2.753h4.993v1.121
		H127.627z M123.226,184.739c0.368,1.889,0.88,3.634,1.616,5.106c0.769-1.473,1.265-3.266,1.585-5.378h-3.089L123.226,184.739z"/>
	<path class="st2" d="M133.735,183.235v4.705c0,2.161-0.177,5.202-1.361,7.155c-0.224-0.224-0.736-0.576-1.008-0.688
		c1.088-1.809,1.185-4.466,1.185-6.467v-5.81h6.37c-0.192-0.513-0.464-1.104-0.72-1.569l1.168-0.336
		c0.32,0.593,0.688,1.345,0.929,1.905h5.538v1.104H133.735z M138.217,183.892c-0.304,0.88-0.704,1.792-1.185,2.673v8.451h-1.12
		v-6.707c-0.385,0.528-0.816,1.024-1.265,1.457c-0.112-0.288-0.385-0.801-0.544-1.072c1.328-1.28,2.417-3.394,2.961-5.122
		L138.217,183.892z M145.852,187.236h-1.824v6.291c0,0.72-0.16,1.057-0.641,1.265c-0.496,0.191-1.296,0.208-2.513,0.208
		c-0.048-0.337-0.24-0.833-0.4-1.185c0.929,0.048,1.793,0.032,2.033,0.032c0.256-0.017,0.352-0.08,0.352-0.337v-6.274h-4.786v-1.12
		h4.786v-2.385h1.169v2.385h1.824V187.236z M139.609,188.341c0.704,0.992,1.488,2.289,1.856,3.121l-1.008,0.496
		c-0.368-0.848-1.152-2.192-1.793-3.201L139.609,188.341z"/>
</g>
<g>
	<path class="st2" d="M27.502,254.258h-4.944v3.265c0,0.984-0.216,1.44-0.984,1.704c-0.769,0.265-2.017,0.265-4.104,0.265
		c-0.072-0.48-0.36-1.104-0.6-1.585c1.584,0.049,3.024,0.049,3.432,0.024c0.408-0.024,0.528-0.12,0.528-0.432v-3.241h-9.528
		c1.344,0.769,2.832,1.896,3.576,2.736l-1.272,1.152c-0.744-0.912-2.376-2.184-3.792-3.024l1.032-0.864H5.876v-1.536H20.83v-1.512
		h-3.672v-4.849h8.929v4.849h-3.528v1.512h4.944V254.258z M6.308,250.346c1.104-0.071,2.473-0.168,3.961-0.264v-2.376H6.812v-1.345
		h8.713v1.345h-3.576v2.256l4.032-0.312v1.345c-3.432,0.312-6.984,0.552-9.505,0.768L6.308,250.346z M22.582,242.425H7.149v-1.199
		h15.433v-1.44H8.613v-1.272h15.721v2.713h1.776v1.199h-1.776v2.736H8.493v-1.296h14.089V242.425z M18.837,249.962h5.496v-2.353
		h-5.496V249.962z"/>
	<path class="st2" d="M36.933,250.442v6.769c0,1.008-0.24,1.487-0.864,1.752c-0.624,0.288-1.608,0.336-3.265,0.336
		c-0.072-0.456-0.312-1.176-0.552-1.656c1.152,0.048,2.184,0.024,2.472,0.024c0.337,0,0.48-0.12,0.48-0.456v-6.241
		c-1.152,0.36-2.232,0.648-3.192,0.937l-0.528-1.729c1.032-0.24,2.328-0.6,3.721-0.984v-5.136h-3.433v-1.681h3.433v-4.8h1.729v4.8
		h2.928v1.681h-2.928v4.656c0.96-0.264,1.968-0.576,2.976-0.84l0.217,1.632L36.933,250.442z M51.886,247.394
		c-1.007,2.185-2.472,4.345-4.224,6.217c0.888,2.208,2.017,3.552,3.384,3.696c0.647,0.048,1.031-1.248,1.271-3.912
		c0.36,0.408,1.128,0.84,1.513,0.983c-0.553,3.889-1.488,5.089-2.688,4.993c-2.136-0.168-3.744-1.729-4.896-4.369
		c-1.656,1.513-3.528,2.784-5.425,3.648c-0.336-0.456-0.888-1.032-1.392-1.392c2.208-0.864,4.32-2.305,6.145-4.009
		c-0.721-2.112-1.2-4.704-1.584-7.633l-3.673,0.385l-0.168-1.681l3.673-0.384c-0.192-1.992-0.36-4.08-0.456-6.289h1.775
		c0.097,2.137,0.24,4.177,0.433,6.097l7.344-0.744l0.191,1.633l-7.344,0.792c0.312,2.4,0.744,4.536,1.248,6.312
		c1.44-1.608,2.616-3.433,3.409-5.232L51.886,247.394z M50.014,242.594c-0.648-1.009-2.04-2.521-3.217-3.553l1.32-0.888
		c1.176,1.008,2.641,2.448,3.312,3.408L50.014,242.594z"/>
	<path class="st2" d="M66.093,238.873c-1.729,3.937-4.369,7.753-7.033,10.201c-0.336-0.36-1.104-1.104-1.584-1.44
		c2.688-2.232,5.185-5.736,6.673-9.361L66.093,238.873z M72.837,250.274c1.944,2.567,4.225,5.928,5.377,8.064l-1.776,0.983
		c-0.336-0.672-0.792-1.439-1.296-2.304c-12.434,0.864-13.754,0.937-14.689,1.272c-0.072-0.385-0.433-1.345-0.696-1.896
		c0.648-0.145,1.344-0.937,2.256-2.064c0.984-1.104,4.057-5.376,6.049-9.457l1.992,0.841c-2.064,3.72-4.561,7.44-7.032,10.297
		l11.089-0.624c-0.937-1.488-2.017-3.049-2.977-4.32L72.837,250.274z M73.341,238.177c1.152,3.792,3.553,7.393,6.36,9.241
		c-0.432,0.359-1.056,1.151-1.392,1.656c-2.712-2.017-5.017-5.473-6.312-9.098h-4.465v-1.8H73.341z"/>
	<path class="st2" d="M97.077,251.042c1.248,3.816,3.456,6.433,5.592,6.408c0.696-0.023,0.984-0.983,1.104-3.504
		c0.408,0.36,1.08,0.696,1.561,0.84c-0.288,3.505-1.009,4.417-2.761,4.417c-3.216,0.023-5.977-3.385-7.368-8.161H87.98v6.001
		l5.76-1.393c0,0.48,0.097,1.272,0.192,1.632c-6.528,1.753-7.417,1.969-7.993,2.328c-0.144-0.479-0.527-1.271-0.84-1.632
		c0.433-0.216,1.057-0.768,1.057-1.752v-17.426h16.969v6.937h-7.008c0.071,1.272,0.264,2.473,0.527,3.625h8.257v1.68H97.077z
		 M87.98,240.481v3.576h13.369v-3.576H87.98z M94.772,249.362c-0.216-1.152-0.408-2.353-0.479-3.625H87.98v3.625H94.772z"/>
	<path class="st2" d="M117.5,251.906c-0.408-0.792-1.416-2.353-2.232-3.576v11.112h-1.752v-10.608
		c-0.983,2.4-2.231,4.776-3.48,6.265c-0.168-0.48-0.6-1.2-0.888-1.608c1.513-1.704,3.192-4.776,4.129-7.537h-3.793v-1.68h4.032
		v-3.624c-1.104,0.216-2.231,0.408-3.288,0.552c-0.096-0.384-0.336-1.008-0.528-1.393c2.688-0.432,5.833-1.128,7.633-1.92
		l1.08,1.416c-0.888,0.36-1.992,0.696-3.145,0.96v4.009h3.528v1.68h-3.528v0.433c0.744,0.84,2.809,3.48,3.312,4.128L117.5,251.906z
		 M128.35,253.178v6.265h-1.753v-5.977l-7.824,1.297l-0.288-1.704l8.112-1.297v-14.209h1.753v13.921l2.808-0.432l0.265,1.632
		L128.35,253.178z M123.717,249.986c-0.864-1.057-2.712-2.545-4.225-3.505l1.104-1.056c1.536,0.936,3.408,2.352,4.296,3.384
		L123.717,249.986z M124.245,243.649c-0.744-1.008-2.4-2.424-3.816-3.408l1.128-1.032c1.44,0.912,3.12,2.28,3.912,3.288
		L124.245,243.649z"/>
	<path class="st2" d="M143.252,249.674c-0.96,0.288-1.944,0.576-2.88,0.864v6.792c0,1.009-0.265,1.488-0.889,1.776
		c-0.6,0.288-1.607,0.336-3.24,0.312c-0.071-0.456-0.336-1.152-0.575-1.633c1.151,0.024,2.184,0.024,2.472,0
		c0.36,0,0.48-0.119,0.48-0.456v-6.264l-2.881,0.84l-0.504-1.752c0.96-0.217,2.112-0.505,3.385-0.864v-5.232h-3.072v-1.681h3.072
		v-4.8h1.752v4.8h2.664v1.681h-2.664v4.752c0.864-0.24,1.776-0.504,2.664-0.768L143.252,249.674z M156.021,246.985
		c-1.008,3.289-2.713,5.905-4.873,7.897c1.729,1.416,3.793,2.447,6.193,3.096c-0.385,0.36-0.889,1.057-1.152,1.536
		c-2.496-0.768-4.633-1.92-6.409-3.48c-2.04,1.561-4.368,2.664-6.816,3.433c-0.191-0.48-0.624-1.225-0.96-1.608
		c2.328-0.624,4.561-1.632,6.505-3.048c-1.681-1.801-3-4.009-3.937-6.577l0.072-0.023h-0.792v-1.656h5.136v-3.576h-5.616v-1.656
		h5.616v-3.769h1.753v3.769h5.736v1.656h-5.736v3.576h3.816l0.287-0.072L156.021,246.985z M146.324,248.21
		c0.816,2.088,2.017,3.984,3.528,5.521c1.656-1.488,3-3.337,3.864-5.521H146.324z"/>
	<path class="st2" d="M167.924,237.865c-0.408,1.176-0.84,2.496-1.248,3.528h3.984v15.577h-6.673v1.896h-1.632v-17.473h2.688
		c0.359-1.152,0.792-2.761,0.96-3.889L167.924,237.865z M169.028,243.001h-5.041v5.017h5.041V243.001z M169.028,255.362v-5.761
		h-5.041v5.761H169.028z M182.397,242.233c-0.384,10.944-0.696,14.642-1.656,15.817c-0.528,0.672-1.08,0.888-1.896,0.96
		c-0.84,0.096-2.208,0.048-3.552-0.024c-0.049-0.527-0.265-1.248-0.601-1.752c1.561,0.145,3,0.145,3.553,0.145
		c0.479,0,0.744-0.049,0.983-0.36c0.793-0.84,1.152-4.488,1.465-14.041h-6.097c-0.672,1.608-1.416,3.072-2.256,4.2
		c-0.312-0.288-1.08-0.769-1.465-1.008c1.608-2.112,2.904-5.425,3.673-8.713l1.704,0.408c-0.288,1.176-0.624,2.328-1.032,3.456
		h7.177V242.233z M177.093,253.059c-0.72-1.44-2.328-3.816-3.648-5.545l1.393-0.816c1.344,1.704,3,4.009,3.768,5.425
		L177.093,253.059z"/>
	<path class="st2" d="M189.645,253.13c-0.288,2.208-0.72,4.633-1.248,6.169c-0.312-0.145-1.008-0.36-1.393-0.48
		c0.601-1.56,0.984-3.864,1.2-5.928L189.645,253.13z M193.821,252.146c-0.049-0.385-0.12-0.889-0.24-1.393
		c-4.656,0.72-5.4,0.864-5.809,1.104c-0.072-0.36-0.336-1.128-0.528-1.561c0.48-0.096,0.984-0.696,1.656-1.608
		c0.36-0.407,1.08-1.439,1.92-2.76c-2.376,0.288-2.88,0.36-3.192,0.528c-0.096-0.312-0.359-1.08-0.527-1.488
		c0.384-0.097,0.768-0.624,1.224-1.345c0.48-0.695,2.04-3.479,2.904-6.096l1.536,0.647c-0.96,2.256-2.16,4.608-3.408,6.409
		l2.353-0.192c0.624-1.032,1.176-2.16,1.68-3.24l1.416,0.84c-1.416,2.784-3.192,5.593-5.017,7.825l3.457-0.433
		c-0.216-0.816-0.433-1.656-0.696-2.376l1.272-0.312c0.6,1.656,1.176,3.793,1.344,5.064L193.821,252.146z M191.757,252.794
		c0.288,1.752,0.576,4.009,0.647,5.521l-1.367,0.24c-0.024-1.512-0.288-3.792-0.576-5.545L191.757,252.794z M193.772,252.218
		c0.528,1.416,1.08,3.265,1.32,4.44l-1.248,0.408c-0.216-1.224-0.768-3.072-1.224-4.488L193.772,252.218z M204.094,256.082
		c1.776,0.648,3.648,1.488,4.872,2.064l-0.744,1.272c-1.271-0.624-3.264-1.561-5.04-2.28l0.6-1.057h-4.104l1.271,1.08
		c-1.824,0.841-4.104,1.776-5.736,2.425c-0.168-0.384-0.479-0.912-0.744-1.272c1.561-0.576,3.841-1.536,5.137-2.232h-3.721v-7.032
		h11.833v7.032H204.094z M201.069,240.121h-6.12v-1.248h6.12v-1.296h1.752v1.296h5.856v1.248h-5.856v1.296h4.896v1.2h-11.761v-1.2
		h5.112V240.121z M195.117,243.602h13.369v4.393h-13.369V243.602z M196.629,246.77h2.713v-1.968h-2.713V246.77z M197.493,251.138
		h8.545v-1.008h-8.545V251.138z M197.493,253.034h8.545v-1.032h-8.545V253.034z M197.493,255.002h8.545v-1.104h-8.545V255.002z
		 M203.229,246.77v-1.968h-2.496v1.968H203.229z M206.902,244.802h-2.28v1.968h2.28V244.802z"/>
	<path class="st2" d="M221.949,248.786v8.496c0,0.864-0.192,1.32-0.769,1.608c-0.552,0.288-1.439,0.312-2.904,0.312
		c-0.048-0.433-0.288-1.129-0.504-1.536c1.032,0.023,1.92,0.023,2.185,0c0.288,0,0.408-0.097,0.408-0.408v-8.257l-4.033,0.552
		c0,3.12-0.287,7.321-2.04,10.033c-0.264-0.288-0.96-0.744-1.344-0.912c1.584-2.496,1.776-6.024,1.8-8.905l-1.56,0.24l-0.216-1.536
		l1.775-0.216v-7.729h2.112c0.288-0.937,0.601-2.137,0.769-3l1.8,0.336c-0.336,0.888-0.672,1.872-0.984,2.664h3.505v6.841
		l1.344-0.168l0.072,1.392L221.949,248.786z M216.332,248.065c1.249-0.12,2.617-0.312,4.033-0.479v-5.617h-4.033V248.065z
		 M218.612,254.498c-0.336-0.983-1.08-2.544-1.728-3.696l1.104-0.479c0.673,1.176,1.44,2.664,1.801,3.624L218.612,254.498z
		 M218.061,243.049c0.576,1.057,1.176,2.448,1.464,3.312l-1.176,0.553c-0.288-0.937-0.888-2.377-1.416-3.433L218.061,243.049z
		 M233.038,257.475c0.168,0,0.36-0.048,0.456-0.12c0.096-0.096,0.191-0.312,0.216-0.672c0.048-0.433,0.072-1.368,0.096-2.593
		c0.336,0.288,0.816,0.528,1.248,0.673c-0.023,1.104-0.096,2.448-0.191,2.928c-0.12,0.504-0.336,0.816-0.601,1.008
		c-0.288,0.217-0.72,0.312-1.151,0.312h-1.08c-0.456,0-0.937-0.145-1.272-0.456c-0.36-0.312-0.456-0.72-0.456-2.376v-9.193h-3.984
		v3.816c0,2.713-0.384,6.289-2.712,8.665c-0.312-0.312-0.984-0.84-1.393-1.032c2.16-2.208,2.425-5.232,2.425-7.656v-5.377h7.344
		v10.897c0,0.6,0.024,0.96,0.12,1.056c0.097,0.096,0.217,0.12,0.385,0.12H233.038z M234.286,242.81h-11.185v-1.584h4.776
		c-0.36-0.984-0.912-2.209-1.465-3.169l1.584-0.456c0.696,1.104,1.393,2.568,1.753,3.625h4.536V242.81z"/>
	<path class="st2" d="M259.654,242.785c0,0-0.024,0.672-0.049,0.937c-0.527,9.841-1.031,13.417-2.088,14.617
		c-0.552,0.672-1.128,0.864-2.04,0.96c-0.84,0.072-2.376,0.023-3.84-0.072c-0.024-0.528-0.24-1.296-0.601-1.824
		c1.632,0.145,3.168,0.168,3.769,0.168c0.504,0,0.815-0.071,1.104-0.359c0.864-0.816,1.393-4.201,1.849-12.649h-8.185
		c-0.336,4.969-1.92,10.776-8.881,15.025c-0.288-0.433-0.937-1.128-1.368-1.416c6.505-3.864,8.041-9.121,8.4-13.609h-7.681v-1.776
		h7.777c0-0.36,0-0.696,0-1.032v-4.152h1.848v4.152c0,0.336,0,0.672,0,1.032H259.654z"/>
</g>
</svg>
