<?xml version="1.0" encoding="utf-8"?>
<!-- Generator: Adobe Illustrator 21.0.0, SVG Export Plug-In . SVG Version: 6.00 Build 0)  -->
<svg version="1.1" id="Layer_1" xmlns="http://www.w3.org/2000/svg" xmlns:xlink="http://www.w3.org/1999/xlink" x="0px" y="0px"
	 viewBox="0 0 160 160" style="enable-background:new 0 0 160 160;" xml:space="preserve">
<style type="text/css">
	.st0{fill:#009245;stroke:#FFFFFF;stroke-miterlimit:10;}
	.st1{fill:#FF4D00;stroke:#FFFFFF;stroke-miterlimit:10;}
	.st2{fill:#FFFFFF;stroke:#FFFFFF;stroke-width:0.5;stroke-miterlimit:10;}
</style>
<polygon class="st0" points="-7,-10 -7,21.3 141.7,170 160,170 173,157 173,144.7 18.3,-10 "/>
<g>
	<path class="st2" d="M52.6,35.8c-3.2,3.3-9.7,10.6-6.8,22.1c-0.5-0.1-1.7-0.1-2.2,0c-1.8-7.3,0.3-13.2,2.9-17.5
		c-6.1,3.4-11.8,4.4-17.6,2.9c0-0.5,0-1.7-0.1-2.3c6.2,1.9,12.1,0.5,18.4-3.5l0.7,0.9c0.7-1,1.5-1.9,2.1-2.6l-4.5-4.5l1.4-1.4
		L52.6,35.8z"/>
	<path class="st2" d="M83.5,66.1l-16,16l-1.3-1.3l0.8-0.8L54.3,67.4l-0.8,0.8l-1.3-1.3l16-16L83.5,66.1z M68.2,78.7L80.9,66
		L68.3,53.4L55.6,66.1L68.2,78.7z M67.9,69.4l3.7,3.7l-0.8,0.8l-3.7-3.7l-1.3,1.3l3.6,3.6L68.5,76l-3.6-3.6l-1.3,1.3l-1.2-1.2
		l1.3-1.3l-4.8-4.8c0.8-0.4,1.9-1,2.8-1.6l-1-1l0.8-0.8l5.2,5.2l0.8-0.8l-4.2-4.2l2.7-2.7l8,8l-2.7,2.7l-2.6-2.6L67.9,69.4z
		 M65.8,68.9l-3.1-3.1c-0.6,0.3-1.2,0.7-1.7,1l3.5,3.5L65.8,68.9z M65.1,63.6l5.6,5.6l1.2-1.2l-5.6-5.6L65.1,63.6z M76.7,68.2
		l-0.8,0.8L65.4,58.5l0.8-0.8l3,3c0.5-0.2,1-0.5,1.5-0.7l-2.2-2.2l0.8-0.8l2.5,2.5c0.5-0.3,0.9-0.6,1.3-0.8l1,1.3
		c-0.3,0.2-0.8,0.4-1.2,0.6l4,4L75,66.5L76.7,68.2z M71.9,61.1c-0.5,0.3-1,0.5-1.5,0.8l3.4,3.4l1.1-1.1L71.9,61.1z"/>
	<path class="st2" d="M86.6,88.9c-2.9,1-6.4,1.9-9.2,2.6l-0.2-2.1c2.4-0.4,6.2-1.4,9.3-2.4L86.6,88.9z M93.2,93.5
		c-3.2,2.3-7,3.5-12.4,1.9c0.1-0.6,0-1.5-0.1-2.1c4.9,1.5,8.3,0.7,11.1-1.2l-4.4-4.4l1.3-1.3l4.6,4.6c0.8-0.6,1.5-1.3,2.2-2l2.1-2.1
		l-3.7-3.7l1.3-1.3l3.7,3.7l2.9-2.9l1.3,1.3l-2.9,2.9l4.4,4.4L99,96.8l1.5,1.5l-1.3,1.3L93.2,93.5z M87.4,84.8
		c-0.1-1.4-0.7-3.7-1.4-5.3l1.8-0.3c0.7,1.6,1.4,3.9,1.5,5.3L87.4,84.8z M94.8,96.1c-0.5,3.3-1.3,7.7-1.9,10l-1.9-0.5
		c0.7-2.3,1.5-6.7,2-10L94.8,96.1z M93.3,80.9c-0.1-1.4-0.7-3.8-1.4-5.5l1.7-0.3c0.7,1.7,1.5,4,1.6,5.4L93.3,80.9z M96.8,90.4
		c-0.7,0.7-1.4,1.4-2.2,2l3.1,3.1l4.1-4.1l-3-3L96.8,90.4z"/>
	<path class="st2" d="M111.5,110.3c-1.9,1.3-4.1,2.5-6.1,3.1c0.2,0.6,0.2,1.4,0.5,2.6c0.5,2.1,2,3.9,4.2,6c2.4,2.4,5.5,5.2,7.8,7
		c-0.5,0.2-1.4,0.6-1.8,1c-1.5-1.3-5.1-4.7-7.2-6.8c-2.4-2.4-3.8-4.2-4.4-6.4c-0.3-1.2-0.3-2.5-0.8-2.9c-0.4-0.4-2.2,0.1-3.9,0.8
		l0.3-2.2c1.2-0.2,2.4-0.3,3.2-0.3l0-0.1c1.8-0.3,4-1.3,5.8-2.4l-2.4-2.4c1.6-0.6,3.8-1.5,5.7-2.5l-2.1-2.1l1.2-1.2l3.8,3.8
		c-1.8,0.9-3.9,1.8-5.7,2.6l1,1l0.3,0.2L111.5,110.3z M113.6,118.9c-1.9-0.1-4.4-0.6-6.3-1.3c0-0.5,0-1.4-0.2-1.9
		c1.9,0.8,4,1.4,5.6,1.5L113.6,118.9z M120.9,125.2l-12-12l1.1-1.1l3.2,3.2l1.7-1.7l-2.5-2.5l1.1-1.1l2.5,2.5l1.3-1.3l1.3,1.3
		l-1.3,1.3l3,3l1.3-1.3l1.3,1.3l-1.3,1.3l2.6,2.6l-1.1,1.1l-2.6-2.6l-1.7,1.7l3.3,3.3L120.9,125.2z M114.5,116.6l3,3l1.7-1.7l-3-3
		L114.5,116.6z M121.3,111.6c-0.4,0.2-1,0.6-1.2,0.7c-4.3-3-4.9-3.4-5.4-3.5c0.2-0.4,0.5-1.2,0.6-1.6c0.3,0.1,0.8,0.1,1.5-0.6
		l3.7-3.7l4.9,4.9l-3.1,3.1l-3.8-3.8l-1.4,1.4L121.3,111.6z M114.8,102.9c0.5-1.1,1.3-2.9,1.9-4.2l1.5,0.9c-0.6,1.4-1.3,3.1-1.8,4.2
		L114.8,102.9z M116.4,126.5c-0.1-1.5-0.6-3.8-1.3-5.8l1.5,0.2c0.8,2.1,1.4,4.5,1.6,6.1L116.4,126.5z M120.7,105l-1.2,1.2l2.6,2.6
		l1.2-1.2L120.7,105z M122.4,115.8c-1.2-1.2-1.1-2,0.1-3.2l3.7-3.7l5,5l-3.1,3.1l-3.9-3.9l-0.7,0.7c-0.5,0.5-0.6,0.7-0.2,1.1
		l2.4,2.4c0.3,0.3,0.9,0.9,1.2,1.1c-0.3,0.3-0.6,0.8-0.9,1.1c-0.3-0.2-0.8-0.7-1.3-1.1L122.4,115.8z M126.5,110.9l-1.2,1.2l2.7,2.7
		l1.2-1.2L126.5,110.9z"/>
</g>
</svg>
