<?xml version="1.0" encoding="utf-8"?>
<!-- Generator: Adobe Illustrator 21.0.0, SVG Export Plug-In . SVG Version: 6.00 Build 0)  -->
<svg version="1.1" id="Layer_1" xmlns="http://www.w3.org/2000/svg" xmlns:xlink="http://www.w3.org/1999/xlink" x="0px" y="0px"
	 viewBox="0 0 160 160" style="enable-background:new 0 0 160 160;" xml:space="preserve">
<style type="text/css">
	.st0{fill:#009245;stroke:#FFFFFF;stroke-miterlimit:10;}
	.st1{fill:#FF4D00;stroke:#FFFFFF;stroke-miterlimit:10;}
	.st2{fill:#FFFFFF;stroke:#FFFFFF;stroke-width:0.5;stroke-miterlimit:10;}
</style>
<polygon class="st1" points="141.7,170 160,170 170,160 170,141.7 18.3,-10 -10,-10 -10,18.3 "/>
<g>
	<path class="st2" d="M49.5,34.8c-1.2,0.4-2.6,0.6-4.1,0.8c-0.9,3-2.9,5.3-5,7.4c-2.6,2.6-5,4.7-6.7,5c-0.6,0.1-1.1-0.1-1.6-0.4
		c-0.7-0.5-1.4-1.2-2.2-2c0.4-0.5,0.8-1.1,0.9-1.7c0.8,0.9,1.5,1.6,1.9,2c0.3,0.2,0.5,0.3,0.9,0.2c1-0.2,3.2-2,5.6-4.4
		c0.3-0.3,0.7-0.7,1-1c-2.2,0.5-4.6,0.7-6.5,0.5c0.2-0.5,0.4-1.4,0.4-1.9c2.2,0.5,5.4,0.1,7.9-0.8c0.7-0.9,1.2-1.8,1.6-2.9
		c-1.6,0.1-3.1,0-4.4-0.2c0.2-0.5,0.4-1.4,0.5-2c1.2,0.3,2.9,0.4,4.5,0.4c0.2-1.2,0.3-2.5,0.3-3.9l1.6,0.2c0.1,1.3,0,2.5-0.2,3.6
		c1.2-0.1,2.3-0.3,3.3-0.6L49.5,34.8z M48.8,56c-1.9,0.3-3.9-0.1-6-0.8c1,1.8,2.2,3.6,3.6,5.3c-0.5,0-1.4,0.1-1.8,0.3
		c-1.6-2-3-4.3-4-6.5c-2.3-1.1-4.5-2.5-6.6-4c0.2-0.4,0.4-1.2,0.5-1.7c1.7,1.4,3.6,2.6,5.4,3.6c-0.6-1.6-0.9-3.1-0.9-4.5l0.8,0.3
		l-1.2-1.2l1-1l8.8,8.8l0.3,0.2L48.8,56z M40.5,48.7c0.1,1.3,0.5,2.8,1.2,4.4c1.6,0.7,3,1.1,4.4,1.2L40.5,48.7z M51.3,39.4l-3-3l1-1
		l3,3l1.3-1.3l1.2,1.2l-3.4,3.4l1.4,0.4c0,1.1-0.1,2.3-0.2,3l3.6,3.6l-0.9,0.9l-3.9-3.9l-0.9,0.9l3.5,3.5l-0.8,0.8l-3.5-3.5L49,48.2
		l3.5,3.5l-0.8,0.8L48.2,49L47.2,50l4.1,4.1L50.5,55l-8.2-8.2l-0.5,0.5l-1.2-1.2l4.8-4.8c-0.6,0.1-1.2,0.1-1.7,0.1
		c0-0.4,0-1.3-0.1-1.8c1.8,0.2,4-0.1,5.8-0.7l0.8,1.5c-0.5,0.2-1.1,0.3-1.6,0.5l2.8,2.8c0.1-0.7,0.1-1.4,0.1-2l0,0l-1.2-1.2
		L51.3,39.4z M47,47.8L44.1,45l-0.9,0.9l2.9,2.9L47,47.8z M48.7,46.1l-2.9-2.9l-0.9,0.9l2.9,2.9L48.7,46.1z M50.3,44.5l-2.9-2.9
		l-0.9,0.9l2.9,2.9L50.3,44.5z M54.6,44.9l-1.3-1.3l3.5-3.5l1.3,1.3l-1.3,1.3l3.5,3.5l-1,1l-3.5-3.5L54.6,44.9z"/>
	<path class="st2" d="M65.6,74.1c1.4,3.1,3.3,7.3,4.1,9.7L68,84.3c-0.8-2.4-2.6-7-4.1-10.2l1.4-0.3L64.4,73
		c-2.2,0.8-5.7,0.4-11.7-3.8c0.2-0.5,0.3-1.3,0.3-1.8c4.9,3.5,7.9,4.3,9.8,4.1l-6.8-6.8l1.1-1.1l7.3,7.3c0.3-0.2,0.5-0.4,0.8-0.6
		l1.1-1.1l1.3,1.3l-1.1,1.1c-0.2,0.2-0.4,0.4-0.7,0.6l3.7,3.7c0-0.8-0.1-1.8-0.3-2.6l1,0.1l-0.6-0.6c0.3-0.4,0.5-0.9,0.7-1.4
		c0.8,0.9,1.5,1.6,1.7,1.8c0.3,0.2,0.4,0.2,0.6,0l1.8-1.8L70.2,67c0.3,1.2,0.4,2.6,0.3,3.5L69,70.4c0.1-0.9,0-2.5-0.2-3.7l1.4,0.2
		l-2.2-2.2l1-1l6.5,6.5l1.3-1.3l1.3,1.3l-1.3,1.3l2.3,2.3l-1,1l-2.3-2.3l-1.8,1.8c-0.6,0.6-1,0.8-1.7,0.5c-0.4-0.2-0.9-0.6-1.6-1.2
		c0.2,0.9,0.4,2.2,0.3,2.9l-0.8,0l3.4,3.4L72.4,81L65.6,74.1z M64.4,61.4c-0.9,0.9-2.8,2.2-5.1,2c-0.1-0.4-0.3-1.2-0.4-1.6
		c2,0.3,3.6-0.9,4.3-1.6l0.2-0.2l-1.3-1.3l1.1-1.1l4,4l1.4-1.4l-3.1-3.1l3.7-3.7l1.2,1.2l-2.6,2.6l2,2l3-3l1.2,1.2L63.7,67.5
		l-1.2-1.2l3.6-3.6l-1.4-1.4L64.4,61.4z M82.9,68.7c-4.4,1.2-9.3-1.3-13.5-4.6c0.2-0.4,0.3-1,0.3-1.4c2,1.6,4.1,3,6.3,3.9
		c0.1-1,0.1-2.3-0.1-3.4c-1.1-0.4-2.1-0.9-3.3-1.5c0.1-0.4,0.1-1.1,0-1.5c2.8,1.6,5.3,2.5,7.1,2.7l0.9,1.4c-0.5,0-1.1-0.1-1.6-0.2
		l3.4,3.4l0.3,0.2L82.9,68.7z M74.5,65.4c-1.2-1-2.3-1.9-3.3-2.8l0.7-0.9c0.9,0.8,2.1,1.8,3.3,2.9L74.5,65.4z M77.1,63.9
		c0.1,1.1,0.2,2.2,0.1,3.2c1.2,0.4,2.4,0.5,3.5,0.5L77.1,63.9z"/>
	<path class="st2" d="M88.5,90c-0.9-0.4-1.8-0.9-2.7-1.3l-5.1,5.1c-0.7,0.7-1.2,0.9-1.9,0.7c-0.6-0.2-1.4-0.8-2.5-2
		c0.3-0.4,0.7-1.1,0.9-1.6c0.8,0.8,1.5,1.5,1.7,1.7c0.2,0.2,0.4,0.3,0.7,0l4.6-4.6c-1-0.5-1.9-1-2.8-1.4l1-1.6
		c0.8,0.5,1.9,1.1,3.1,1.7l4-4l-2.2-2.2l1.2-1.2l2.2,2.2l3.6-3.6l1.2,1.2l-3.6,3.6l2,2l-1.2,1.2l-2-2l-3.6,3.6l2.4,1.3L88.5,90z
		 M88.6,101.8c0.5,0.6,1,1.2,1.6,1.8c0.4,0.4,2.9,2.9,3.5,3.5c-0.5,0.1-1.2,0.5-1.6,0.8l-3.1-3.1c-2.6-2.6-4-5-2.7-8.7
		c-1.9,0.9-3.7,1.2-5.5,1.1c0-0.4-0.1-1.3-0.2-1.8c2.9,0.3,5.7-0.9,8.7-3.3l1.1,1.4c-0.8,0.6-1.5,1.1-2.3,1.6c-1,2-1,3.7-0.4,5.1
		l5.7-5.7L89,90.1l1.1-1.1l10.3,10.3l-1.1,1.1l-4.6-4.6l-2.1,2.1l3.7,3.7l-1.1,1.1L91.5,99L88.6,101.8z M100.8,97l-8.5-8.5l5.9-5.9
		l8.5,8.5L100.8,97z M101.9,93.2l-6-6l-1.4,1.4l6,6L101.9,93.2z M104.3,90.9l-6-6l-1.4,1.4l6,6L104.3,90.9z"/>
	<path class="st2" d="M108.7,117.9c-2.3,0.1-5.3-0.6-7.6-1.5c0-0.5-0.1-1.5-0.2-2c2.2,1,4.9,1.8,6.9,1.7L108.7,117.9z M121,126.2
		l-1.1,1.1l-7.5-7.5l-4.4,4.4l-1.3-1.3l4.4-4.4l-7.3-7.3l1.1-1.1l7.3,7.3l1.5-1.5l1.3,1.3l-1.5,1.5L121,126.2z M120.1,123.7
		c-0.9-2-2.4-4.6-4.2-7.5c-2.8-1.1-5.8-3.3-9.3-6.4c0.3-0.5,0.5-1.1,0.7-1.7c2.6,2.4,4.8,4.1,6.9,5.4c-1-1.5-2-2.9-3.2-4.5
		c1.1,0.1,2.3,0.1,3.5,0l-4.1-4.1l1.1-1.1l5,5c1.2-0.1,2.3-0.3,3.3-0.5l0.9,1.7c-0.8,0.1-1.7,0.3-2.6,0.3l4.4,4.4
		c0.6-0.2,1.2-0.4,1.8-0.7l1,1.6c-0.5,0.2-0.9,0.4-1.3,0.6l3.2,3.2l-1.1,1.1l-3.8-3.8c-1.4,0.3-2.8,0.3-4.2,0
		c1.7,2.7,3.2,5.2,4.2,7.2L120.1,123.7z M113.6,104.8l-1.3-1.3l2.6-2.6l7,7c0.2-0.6,0.3-1.2,0.4-1.7l1.7,1c-0.1,0.7-0.3,1.6-0.5,2.3
		l6.6,6.6l-2.6,2.6l-1.3-1.3l1.4-1.4l-12.6-12.6L113.6,104.8z M114.5,122.4c0.9,2.4,1.8,5.6,2,7.6l-2,0c-0.1-1.9-0.9-5.2-1.8-7.6
		L114.5,122.4z M116,110.6c-0.8,0-1.5,0-2.2,0c1,1.4,2,2.8,2.9,4.2c1.4,0.5,2.7,0.7,4.1,0.6L116,110.6z"/>
</g>
</svg>
