<?xml version="1.0" encoding="utf-8"?>
<!-- Generator: Adobe Illustrator 21.0.0, SVG Export Plug-In . SVG Version: 6.00 Build 0)  -->
<svg version="1.1" id="Layer_1" xmlns="http://www.w3.org/2000/svg" xmlns:xlink="http://www.w3.org/1999/xlink" x="0px" y="0px"
	 viewBox="0 0 154 155" style="enable-background:new 0 0 154 155;" xml:space="preserve">
<style type="text/css">
	.st0{fill:#006BB0;}
	.st1{filter:url(#Adobe_OpacityMaskFilter);}
	.st2{fill:#FFFFFF;}
	.st3{mask:url(#mask-2);fill:#FFFFFF;}
	.st4{fill:#FF7700;}
</style>
<title>icon-special</title>
<desc>Created with Sketch.</desc>
<circle id="Oval-4" class="st0" cx="77" cy="77" r="77"/>
<g id="Clip-2">
</g>
<defs>
	<filter id="Adobe_OpacityMaskFilter" filterUnits="userSpaceOnUse" x="36" y="24.001" width="81.907" height="106.999">
		<feColorMatrix  type="matrix" values="1 0 0 0 0  0 1 0 0 0  0 0 1 0 0  0 0 0 1 0"/>
	</filter>
</defs>
<mask maskUnits="userSpaceOnUse" x="36" y="24.001" width="81.907" height="106.999" id="mask-2">
	<g class="st1">
		<polygon id="path-1" class="st2" points="36,24.001 117.907,24.001 117.907,131 36,131 		"/>
	</g>
</mask>
<path id="Fill-1" class="st3" d="M46.916,82.079c-0.077,2.3,0.434,3.041,2.651,3.667c1.049,0.296,2.118,0.57,3.196,0.706
	c4.356,0.549,7.501,2.715,9.343,6.722c0.312,0.68,0.713,1.322,1.106,1.962c0.329,0.536,0.692,1.052,1.064,1.56
	c0.819,1.12,1.893,1.46,3.206,0.979c0.728-0.267,1.456-0.538,2.169-0.841c1.072-0.456,2.129-0.944,3.195-1.414
	c2.727-1.201,5.461-1.22,8.196-0.027c1.423,0.621,2.829,1.281,4.263,1.873c2.69,1.11,3.578,0.832,5.125-1.64
	c0.912-1.457,1.727-2.974,2.618-4.445c1.321-2.182,3.242-3.572,5.733-4.157c1.89-0.444,3.801-0.802,5.675-1.302
	c2.118-0.565,2.706-1.39,2.584-3.57c-0.093-1.666-0.301-3.327-0.484-4.987c-0.321-2.922,0.383-5.522,2.384-7.731
	c1.026-1.133,2.065-2.254,3.057-3.415c2.019-2.364,2.015-3.454-0.023-5.809c-0.984-1.137-2.016-2.233-3.032-3.342
	c-2.074-2.265-2.753-4.943-2.409-7.94c0.182-1.588,0.376-3.177,0.471-4.771c0.132-2.212-0.476-3.009-2.61-3.634
	c-0.396-0.116-0.798-0.216-1.201-0.302c-1.353-0.291-2.711-0.565-4.063-0.86c-2.735-0.596-4.833-2.08-6.256-4.492
	c-0.394-0.668-0.781-1.34-1.174-2.008c-0.529-0.898-1.022-1.82-1.6-2.684c-1.251-1.869-2.154-2.169-4.256-1.356
	c-1.38,0.534-2.735,1.142-4.069,1.782c-3.245,1.556-6.457,1.527-9.69-0.041c-1.332-0.646-2.688-1.252-4.071-1.779
	c-1.988-0.757-2.921-0.46-4.094,1.302c-0.804,1.207-1.558,2.456-2.228,3.742c-1.728,3.317-4.401,5.246-8.111,5.842
	c-1.577,0.253-3.132,0.672-4.676,1.092c-1.379,0.375-2.042,1.374-1.973,2.773c0.078,1.569,0.19,3.142,0.4,4.698
	c0.474,3.522-0.272,6.632-2.852,9.209c-0.875,0.874-1.696,1.802-2.509,2.735c-2.074,2.379-2.087,3.464-0.037,5.856
	c1.073,1.252,2.219,2.441,3.299,3.688c1.541,1.779,2.34,3.845,2.191,6.21C47.293,77.981,47.087,80.029,46.916,82.079
	 M99.708,115.977c-1.012,2.189-2.016,4.362-3.02,6.534c-1.066,2.307-2.145,4.609-3.193,6.925c-0.444,0.981-1.114,1.574-2.238,1.517
	c-1.095-0.056-1.664-0.722-2.043-1.686c-3.862-9.846-7.739-19.686-11.612-29.528c-0.071-0.18-0.115-0.377-0.219-0.536
	c-0.094-0.144-0.274-0.362-0.378-0.342c-0.168,0.032-0.376,0.201-0.443,0.363c-0.552,1.343-1.076,2.697-1.607,4.049
	c-3.41,8.672-6.819,17.343-10.231,26.014c-0.633,1.607-2.189,2.206-3.416,1.266c-0.382-0.293-0.674-0.763-0.882-1.21
	c-1.946-4.168-3.864-8.349-5.791-12.526c-0.121-0.263-0.25-0.522-0.407-0.849c-1.915,0.451-3.821,0.9-5.727,1.35
	c-2.245,0.53-4.491,1.054-6.733,1.598c-0.949,0.23-1.8,0.125-2.454-0.653c-0.627-0.746-0.617-1.564-0.266-2.452
	c3.263-8.261,6.51-16.528,9.76-24.794c0.104-0.265,0.196-0.536,0.3-0.82c-0.769-0.272-1.509-0.495-2.219-0.792
	c-2.806-1.174-4.287-3.323-4.286-6.323c0.001-2.171,0.249-4.346,0.462-6.513c0.17-1.73-0.298-3.191-1.494-4.453
	c-1.018-1.074-2.053-2.141-2.972-3.297c-0.749-0.941-1.461-1.951-1.97-3.033c-1.068-2.271-0.72-4.513,0.641-6.557
	c0.762-1.144,1.708-2.166,2.588-3.229c0.34-0.41,0.698-0.813,1.096-1.167c1.981-1.76,2.405-3.956,2.016-6.474
	c-0.247-1.597-0.366-3.227-0.384-4.844c-0.038-3.442,1.578-5.777,4.862-6.874c1.787-0.597,3.657-0.985,5.516-1.318
	c2.174-0.389,3.712-1.481,4.769-3.418c0.926-1.697,1.901-3.39,3.057-4.935c2.068-2.764,4.689-3.562,7.997-2.526
	c1.429,0.448,2.858,0.996,4.162,1.721c2.738,1.522,5.339,1.454,8.095-0.003c1.612-0.853,3.383-1.486,5.154-1.942
	c2.487-0.641,4.689,0.14,6.378,2.062c0.841,0.958,1.525,2.062,2.215,3.141c0.639,0.999,1.199,2.049,1.781,3.083
	c0.813,1.444,2.045,2.29,3.661,2.625c1.593,0.33,3.183,0.67,4.769,1.028c0.519,0.117,1.031,0.282,1.531,0.466
	c3.191,1.178,4.84,3.38,4.84,6.77c-0.001,1.905-0.211,3.819-0.461,5.712c-0.273,2.072,0.236,3.802,1.701,5.315
	c1.214,1.253,2.38,2.561,3.471,3.921c1.28,1.597,2.015,3.414,1.778,5.523c-0.162,1.44-0.733,2.727-1.628,3.829
	c-1.252,1.543-2.578,3.028-3.922,4.493c-1.182,1.288-1.637,2.766-1.434,4.477c0.12,1.01,0.268,2.019,0.329,3.033
	c0.079,1.326,0.195,2.664,0.098,3.983c-0.211,2.872-1.806,4.775-4.467,5.816c-0.63,0.247-1.28,0.443-2.011,0.694
	c0.287,0.735,0.573,1.468,0.861,2.2c3.056,7.771,6.115,15.54,9.159,23.315c0.164,0.418,0.295,0.891,0.272,1.33
	c-0.076,1.443-1.347,2.251-2.896,1.886c-3.875-0.913-7.749-1.833-11.623-2.75C100.319,116.107,100.037,116.049,99.708,115.977"/>
<path id="Fill-4" class="st4" d="M77.004,40.522c12.627,0.008,22.87,10.236,22.861,22.829
	c-0.008,12.723-10.217,22.811-23.077,22.803c-12.437-0.008-22.651-10.29-22.654-22.805C54.132,50.761,64.398,40.514,77.004,40.522z"
	/>
<polygon id="Star" class="st2" points="77,70.388 68.348,75 70,65.231 63,58.313 72.674,56.888 77,48 81.326,56.888 91,58.313 
	84,65.231 85.652,75 "/>
</svg>
