<?xml version="1.0" encoding="UTF-8"?>
<svg width="154px" height="155px" viewBox="0 0 154 155" version="1.1" xmlns="http://www.w3.org/2000/svg" xmlns:xlink="http://www.w3.org/1999/xlink">
    <!-- Generator: Sketch 48.2 (47327) - http://www.bohemiancoding.com/sketch -->
    <title>icon-special</title>
    <desc>Created with Sketch.</desc>
    <defs>
        <polygon id="path-1" points="3.43999546e-05 0.00132370815 81.9072028 0.00132370815 81.9072028 106.999982 3.43999546e-05 106.999982"></polygon>
    </defs>
    <g id="icon" stroke="none" stroke-width="1" fill="none" fill-rule="evenodd" transform="translate(-782.000000, -95.000000)">
        <g id="Group-22" transform="translate(782.000000, 95.000000)">
            <circle id="Oval-4" fill="#633A7C" cx="77" cy="77" r="77"></circle>
            <g id="Group-26" transform="translate(36.000000, 24.000000)">
                <g id="Page-1">
                    <g id="Group-3">
                        <mask id="mask-2" fill="white">
                            <use xlink:href="#path-1"></use>
                        </mask>
                        <g id="Clip-2"></g>
                        <path d="M10.9158779,58.0786696 C10.8391306,60.378588 11.3496609,61.1200283 13.566579,61.745891 C14.6155078,62.042031 15.6841342,62.3162185 16.7626822,62.4521492 C21.1187498,63.0008149 24.2637854,65.1669834 26.1055754,69.173959 C26.4179633,69.8537579 26.8189171,70.4959033 27.2117,71.1355772 C27.5405754,71.6713041 27.904031,72.18755 28.2755114,72.6955092 C29.0946359,73.8156655 30.1685149,74.1558557 31.4810986,73.6740649 C32.2091769,73.4068557 32.9369633,73.136012 33.6504509,72.8327484 C34.7221413,72.3771261 35.7796786,71.8885024 36.8456786,71.419069 C39.573127,70.2176451 42.3071413,70.1994726 45.0417391,71.3921736 C46.4646288,72.0128027 47.8705932,72.6735568 49.3051555,73.2654005 C51.9951057,74.3750894 52.8832445,74.0978489 54.4305932,71.6255092 C55.3426609,70.1683611 56.1577,68.6514617 57.0481733,67.1805024 C58.3696573,64.9981967 60.2900915,63.608069 62.780732,63.0232035 C64.6702338,62.5796478 66.5817676,62.2214304 68.4556573,61.7216125 C70.5733584,61.1566641 71.1619491,60.3320663 71.0399705,58.1513598 C70.9467356,56.4851546 70.7388174,54.8246193 70.5564331,53.1643747 C70.2355826,50.2420826 70.9395861,47.6428258 72.940853,45.4337701 C73.9665826,44.3012565 75.0063192,43.1800826 75.9983441,42.0186383 C78.0177036,39.6543163 78.0130345,38.5645446 75.9755826,36.2093815 C74.9915826,35.0723611 73.9591413,33.9767742 72.9433335,32.8673761 C70.8695505,30.6023489 70.1902053,27.9240052 70.5339633,24.9272783 C70.7160559,23.3397239 70.9096751,21.7507158 71.0046609,20.1567647 C71.1367071,17.9443652 70.5285648,17.1473897 68.3942302,16.5231261 C67.9982374,16.4072579 67.5965541,16.3075269 67.192974,16.2208802 C65.8395363,15.9298285 64.482305,15.6560772 63.1298886,15.3611003 C60.3952907,14.7646043 58.2969954,13.2812878 56.8738139,10.8691356 C56.4797178,10.2012579 56.0932089,9.52901875 55.6995505,8.86099565 C55.1706359,7.96327147 54.6777605,7.04141413 54.0990915,6.17654592 C52.8485185,4.30709891 51.9447676,4.0077606 49.8429705,4.82029185 C48.4626858,5.35398342 47.1082267,5.96254592 45.773611,6.60236522 C42.528337,8.15822663 39.3167676,8.12915054 36.083458,6.56151332 C34.7517605,5.9158788 33.3952587,5.30949701 32.0124936,4.78263832 C30.0243584,4.02520625 29.0912801,4.32221848 27.9184758,6.08422935 C27.1149633,7.29161386 26.360184,8.54028641 25.6906146,9.82574022 C23.9629242,13.1425948 21.2896075,15.0719386 17.5793263,15.6674168 C16.0022125,15.9205242 14.4474224,16.3398014 12.9032836,16.7593693 C11.5243121,17.1338693 10.8610167,18.1337959 10.9306146,19.5326465 C11.0086751,21.1017375 11.1210238,22.6746084 11.330547,24.2307606 C11.8046004,27.752747 11.0590132,30.8622891 8.47834769,33.440175 C7.60363238,34.313766 6.78217331,35.2424562 5.96932278,36.174781 C3.89524804,38.553641 3.8827,39.638906 5.93240819,42.0307049 C7.00526584,43.2825758 8.15151495,44.4719332 9.23123025,45.7182796 C10.7721591,47.4971546 11.571732,49.5635921 11.4223228,51.9284957 C11.2927569,53.9809766 11.0867356,56.0286601 10.9158779,58.0786696 M63.7076822,91.9770255 C62.6959598,94.1664549 61.6921164,96.3387293 60.688127,98.5111492 C59.6218352,100.818482 58.5427036,103.12029 57.4952338,105.436346 C57.0515292,106.417519 56.3810843,107.010526 55.2568673,106.953246 C54.1619776,106.897565 53.5925007,106.231723 53.2143085,105.267705 C49.3525754,95.4215242 45.4752302,85.5813041 41.6024082,75.7394848 C41.5314972,75.559213 41.4874331,75.3620772 41.3836929,75.2033217 C41.2894367,75.058959 41.1093868,74.8416152 41.0059384,74.8610962 C40.8379989,74.8926438 40.6299349,75.0621573 40.5634011,75.2242565 C40.0112872,76.567281 39.4874794,77.9216451 38.9559384,79.2731016 C35.545789,87.9446084 32.1370986,96.6165514 28.7246146,105.28704 C28.0919598,106.894512 26.5355648,107.492752 25.3084829,106.552723 C24.9264972,106.260217 24.6346822,105.789911 24.4261804,105.343157 C22.4805043,101.1751 20.5622587,96.9942497 18.6351128,92.8173245 C18.5138637,92.5547674 18.3850274,92.2952633 18.228031,91.9683027 C16.3127036,92.419709 14.4067142,92.8680622 12.5010167,93.3183054 C10.2562302,93.8486533 8.0099847,94.3727497 5.76826228,94.915891 C4.81971779,95.1458829 3.96805587,95.0409182 3.31409858,94.2631329 C2.68713416,93.5171859 2.69734769,92.6991302 3.04825516,91.8108557 C6.31118399,83.5499033 9.55777117,75.2824087 12.8078601,67.0165133 C12.9123299,66.7510486 13.0042516,66.4809318 13.1078459,66.1968584 C12.3392053,65.9251424 11.5984331,65.7019834 10.8885932,65.4051166 C8.08293843,64.2314603 6.60153986,62.0824467 6.60285302,59.0825215 C6.60372847,56.9111193 6.8522089,54.7360826 7.06465018,52.5697688 C7.23434057,50.839887 6.7662694,49.3788136 5.57026584,48.1164753 C4.55256121,47.0421139 3.5176395,45.9753122 2.59842242,44.8196832 C1.84991708,43.8784902 1.13715907,42.8688231 0.6280879,41.7870473 C-0.440392527,39.5156234 -0.0924032028,37.2737117 1.26920534,35.2299535 C2.03098826,34.086391 2.97749004,33.0637851 3.85760391,32.0004726 C4.19727651,31.5900636 4.55591708,31.187069 4.95351495,30.8337946 C6.9343548,29.073819 7.35850783,26.8775568 6.96951851,24.3600038 C6.72278897,22.7625636 6.60358256,21.1327035 6.58578185,19.5157823 C6.54799181,16.0739005 8.16362527,13.7386546 11.4475648,12.64205 C13.2346395,12.0452633 15.1044438,11.6568068 16.9640345,11.3241764 C19.1377641,10.9355745 20.6762125,9.84289511 21.7325826,7.90628234 C22.6583655,6.20925652 23.6339028,4.51615598 24.7896359,2.97163424 C26.8574367,0.207952174 29.4785185,-0.590186413 32.7868246,0.446085326 C34.2159883,0.893857065 35.6447142,1.44208668 36.949273,2.16709891 C39.6875185,3.68865054 42.2880274,3.6206125 45.0440737,2.16360978 C46.6563512,1.31109891 48.4272302,0.677676359 50.1984011,0.221327174 C52.6851021,-0.419509783 54.8877214,0.361037772 56.5766004,2.28369402 C57.4180488,3.24160571 58.1016253,4.34533397 58.7919135,5.42420217 C59.4308423,6.42311114 59.9906893,7.47275788 60.5727142,8.50713967 C61.385273,9.95134891 62.6178993,10.7976084 64.2333868,11.1322742 C65.8259669,11.4622878 67.4165043,11.8018965 69.0028103,12.1601139 C69.522095,12.2772905 70.0339384,12.4418611 70.5338174,12.6264943 C73.7248139,13.8046573 75.3742979,16.0067348 75.3734224,19.3968611 C75.3728388,21.301781 75.1622943,23.2162959 74.9126466,25.1090038 C74.6393619,27.1805296 75.148579,28.9111383 76.6140737,30.4236764 C77.8280238,31.6767103 78.9941164,32.9845527 80.0846288,34.3450228 C81.364821,35.9420269 82.1000488,37.7594277 81.863095,39.8677348 C81.7012836,41.3072918 81.1297641,42.5943448 80.2352053,43.6967647 C78.983611,45.2393965 77.6576039,46.7250391 76.3136502,48.189747 C75.1320915,49.4775269 74.6762765,50.9557552 74.8793797,52.6664467 C74.9993157,53.6762592 75.1478495,54.6853448 75.2082552,55.6990826 C75.287337,57.0249522 75.4030416,58.3633245 75.3061591,59.6817796 C75.0947391,62.5542063 73.4996786,64.4566546 70.83891,65.4972878 C70.2088815,65.743853 69.5591555,65.940262 68.8277214,66.1908978 C69.1151591,66.9257959 69.4005541,67.6590948 69.6885754,68.3913761 C72.7441698,76.1619603 75.8037036,83.9310908 78.8471875,91.7064726 C79.0107498,92.1241505 79.1419206,92.5978 79.1188673,93.0367035 C79.0428495,94.4800405 77.7717036,95.2879196 76.2231875,94.9231601 C72.3478851,94.0100255 68.4743335,93.0897674 64.5999064,92.1734345 C64.3194722,92.107141 64.0369954,92.0492796 63.7076822,91.9770255" id="Fill-1" fill="#FFFFFF" mask="url(#mask-2)"></path>
                    </g>
                    <path d="M41.0040675,16.5220636 C53.6309279,16.5301816 63.8736644,26.7585505 63.8653796,39.3514269 C63.8570948,52.0749159 53.6479335,62.1626696 40.7882274,62.1544067 C28.3507538,62.1464337 18.1372321,51.8645731 18.1346159,39.3492524 C18.1319996,26.7610149 28.3979916,16.5139457 41.0040675,16.5220636 Z" id="Fill-4" fill="#C5C5C5"></path>
                </g>
                <polygon id="Star" fill="#FFFFFF" points="41 46.3878494 32.3475242 51 34 41.2313082 27 34.3130823 36.6737621 32.8878494 41 24 45.3262379 32.8878494 55 34.3130823 48 41.2313082 49.6524758 51"></polygon>
            </g>
        </g>
    </g>
</svg>