<?xml version="1.0" encoding="UTF-8"?>
<svg width="154px" height="155px" viewBox="0 0 154 155" version="1.1" xmlns="http://www.w3.org/2000/svg" xmlns:xlink="http://www.w3.org/1999/xlink">
    <!-- Generator: Sketch 43.2 (39069) - http://www.bohemiancoding.com/sketch -->
    <title>icon-policy</title>
    <desc>Created with Sketch.</desc>
    <defs>
        <rect id="path-1" x="80" y="810" width="1280" height="7099" rx="20"></rect>
        <filter x="-0.5%" y="-0.1%" width="101.1%" height="100.2%" filterUnits="objectBoundingBox" id="filter-2">
            <feOffset dx="0" dy="2" in="SourceAlpha" result="shadowOffsetOuter1"></feOffset>
            <feGaussianBlur stdDeviation="2" in="shadowOffsetOuter1" result="shadowBlurOuter1"></feGaussianBlur>
            <feColorMatrix values="0 0 0 0 0   0 0 0 0 0   0 0 0 0 0  0 0 0 0.5 0" type="matrix" in="shadowBlurOuter1"></feColorMatrix>
        </filter>
        <polygon id="path-3" points="0 18.9411765 0 46 34 46 34 18.9411765 0 18.9411765"></polygon>
        <polygon id="path-5" points="0 18.9411765 0 46 34 46 34 18.9411765 0 18.9411765"></polygon>
        <polygon id="path-7" points="0 18.9411765 0 46 34 46 34 18.9411765 0 18.9411765"></polygon>
    </defs>
    <g id="Page-1" stroke="none" stroke-width="1" fill="none" fill-rule="evenodd">
        <g id="landing-page" transform="translate(-877.000000, -1686.000000)">
            <g id="Rectangle-2">
                <use fill="black" fill-opacity="1" filter="url(#filter-2)" xlink:href="#path-1"></use>
                <use fill="#FFFFFF" fill-rule="evenodd" xlink:href="#path-1"></use>
            </g>
            <g id="Group-22" transform="translate(877.000000, 1686.351064)">
                <circle id="Oval-4" fill="#E55827" cx="77" cy="77" r="77"></circle>
                <g id="Page-1" transform="translate(94.000000, 32.000000)" fill="#FFFFFF">
                    <path d="M23.1340756,30.0532021 C32.166863,28.7296066 39,22.563958 39,15.1577282 C39,6.78658659 30.2692462,0 19.4997295,0 C8.73075376,0 0,6.78658659 0,15.1577282 C0,21.4360758 4.91039551,26.822923 11.9083382,29.1243308 C11.7094414,32.0188333 10.9873339,35.0772308 8.92759611,36 C8.92759611,36 18.9667789,33.853208 23.1340756,30.0532021 Z" id="Combined-Shape"></path>
                </g>
                <g id="Page-1" transform="translate(66.500000, 34.000000) scale(-1, 1) translate(-66.500000, -34.000000) translate(52.000000, 21.000000)" fill="#C5C5C5">
                    <path d="M17.2022613,21.7050904 C23.9189494,20.7491603 29,16.2961919 29,10.9472482 C29,4.90142364 22.5079011,0 14.4997988,0 C6.49209895,0 0,4.90142364 0,10.9472482 C0,15.4816103 3.65131974,19.372111 8.85491814,21.0342389 C8.70702054,23.124713 8.17006881,25.3335556 6.6384689,26 C6.6384689,26 14.1035023,24.4495391 17.2022613,21.7050904 Z" id="Combined-Shape"></path>
                </g>
                <g id="Page-1" transform="translate(40.000000, 53.500000) scale(-1, 1) translate(-40.000000, -53.500000) translate(24.000000, 39.000000)" fill="#FFFFFF">
                    <path d="M18.9818056,24.209524 C26.3933235,23.1432942 32,18.1765217 32,12.2103922 C32,5.46697253 24.8363046,0 15.999778,0 C7.16369539,0 0,5.46697253 0,12.2103922 C0,17.26795 4.02904247,21.6073546 9.77094415,23.4612665 C9.6077468,25.7929491 9.01524834,28.2566582 7.32520706,29 C7.32520706,29 15.5624853,27.2706398 18.9818056,24.209524 Z" id="Combined-Shape"></path>
                </g>
                <g id="Page-1" transform="translate(15.000000, 68.000000)">
                    <path d="M26.8421053,9.01985621 C26.8421053,14.0006965 22.8360415,18.0392157 17.8947368,18.0392157 C12.9534322,18.0392157 8.94736842,14.0006965 8.94736842,9.01985621 C8.94736842,4.03851917 12.9534322,0 17.8947368,0 C22.8360415,0 26.8421053,4.03851917 26.8421053,9.01985621" id="Fill-1" fill="#FFFFFF"></path>
                    <mask id="mask-4" fill="white">
                        <use xlink:href="#path-3"></use>
                    </mask>
                    <g id="Clip-4"></g>
                    <path d="M17,18.9411765 C7.61090469,18.9411765 0,26.8421503 0,36.5879761 C0,37.5009643 0.0669931881,38.3980571 0.195715814,39.2737906 C4.63832123,43.4527729 10.5322862,46 17,46 C23.4677138,46 29.3621573,43.4527729 33.8047627,39.2737906 C33.9334853,38.3980571 34,37.5009643 34,36.5879761 C34,26.8421503 26.3890953,18.9411765 17,18.9411765" id="Fill-3" fill="#FFFFFF" mask="url(#mask-4)"></path>
                </g>
                <g id="Page-1" transform="translate(60.000000, 62.000000)">
                    <path d="M26.8421053,9.01985621 C26.8421053,14.0006965 22.8360415,18.0392157 17.8947368,18.0392157 C12.9534322,18.0392157 8.94736842,14.0006965 8.94736842,9.01985621 C8.94736842,4.03851917 12.9534322,0 17.8947368,0 C22.8360415,0 26.8421053,4.03851917 26.8421053,9.01985621" id="Fill-1" fill="#FFFFFF"></path>
                    <mask id="mask-6" fill="white">
                        <use xlink:href="#path-5"></use>
                    </mask>
                    <g id="Clip-4"></g>
                    <path d="M17,18.9411765 C7.61090469,18.9411765 0,26.8421503 0,36.5879761 C0,37.5009643 0.0669931881,38.3980571 0.195715814,39.2737906 C4.63832123,43.4527729 10.5322862,46 17,46 C23.4677138,46 29.3621573,43.4527729 33.8047627,39.2737906 C33.9334853,38.3980571 34,37.5009643 34,36.5879761 C34,26.8421503 26.3890953,18.9411765 17,18.9411765" id="Fill-3" fill="#FFFFFF" mask="url(#mask-6)"></path>
                </g>
                <g id="Page-1" transform="translate(105.000000, 68.000000)">
                    <path d="M26.8421053,9.01985621 C26.8421053,14.0006965 22.8360415,18.0392157 17.8947368,18.0392157 C12.9534322,18.0392157 8.94736842,14.0006965 8.94736842,9.01985621 C8.94736842,4.03851917 12.9534322,0 17.8947368,0 C22.8360415,0 26.8421053,4.03851917 26.8421053,9.01985621" id="Fill-1" fill="#FFFFFF"></path>
                    <mask id="mask-8" fill="white">
                        <use xlink:href="#path-7"></use>
                    </mask>
                    <g id="Clip-4"></g>
                    <path d="M17,18.9411765 C7.61090469,18.9411765 0,26.8421503 0,36.5879761 C0,37.5009643 0.0669931881,38.3980571 0.195715814,39.2737906 C4.63832123,43.4527729 10.5322862,46 17,46 C23.4677138,46 29.3621573,43.4527729 33.8047627,39.2737906 C33.9334853,38.3980571 34,37.5009643 34,36.5879761 C34,26.8421503 26.3890953,18.9411765 17,18.9411765" id="Fill-3" fill="#FFFFFF" mask="url(#mask-8)"></path>
                </g>
            </g>
        </g>
    </g>
</svg>
