<?xml version="1.0" encoding="UTF-8"?>
<svg width="154px" height="155px" viewBox="0 0 154 155" version="1.1" xmlns="http://www.w3.org/2000/svg" xmlns:xlink="http://www.w3.org/1999/xlink">
    <!-- Generator: Sketch 43.2 (39069) - http://www.bohemiancoding.com/sketch -->
    <title>icon-new-media</title>
    <desc>Created with Sketch.</desc>
    <defs>
        <rect id="path-1" x="80" y="810" width="1280" height="7099" rx="20"></rect>
        <filter x="-0.5%" y="-0.1%" width="101.1%" height="100.2%" filterUnits="objectBoundingBox" id="filter-2">
            <feOffset dx="0" dy="2" in="SourceAlpha" result="shadowOffsetOuter1"></feOffset>
            <feGaussianBlur stdDeviation="2" in="shadowOffsetOuter1" result="shadowBlurOuter1"></feGaussianBlur>
            <feColorMatrix values="0 0 0 0 0   0 0 0 0 0   0 0 0 0 0  0 0 0 0.5 0" type="matrix" in="shadowBlurOuter1"></feColorMatrix>
        </filter>
    </defs>
    <g id="Page-1" stroke="none" stroke-width="1" fill="none" fill-rule="evenodd">
        <g id="landing-page" transform="translate(-643.000000, -1686.000000)">
            <g id="Rectangle-2">
                <use fill="black" fill-opacity="1" filter="url(#filter-2)" xlink:href="#path-1"></use>
                <use fill="#FFFFFF" fill-rule="evenodd" xlink:href="#path-1"></use>
            </g>
            <g id="Group-21" transform="translate(643.000000, 1686.351064)">
                <circle id="Oval-4" fill="#633A7C" cx="77" cy="77" r="77"></circle>
                <g id="Group-10" transform="translate(24.000000, 40.000000)">
                    <g id="Page-1">
                        <polygon id="Fill-1" fill="#FFFFFF" points="0 66.6511293 90.6578947 66.6511293 90.6578947 3.10802586 0 3.10802586"></polygon>
                        <polygon id="Fill-2" fill="#633A7C" points="89.1644803 0 5.99701974 14.2825345 16.9526776 78.238319 100.119441 63.9557845"></polygon>
                        <polygon id="Fill-3" fill="#FFFFFF" points="9.96992763 17.7322966 20.5239013 80.3913828 105.79323 65.9929345 95.2399539 3.33384828"></polygon>
                        <path d="M19.0821057,33.4202413 L19.0821057,23.327973 L20.9276803,23.327973 L25.5995039,30.2220833 L25.5995039,23.327973 L27.2816328,23.327973 L27.2816328,33.4202413 L25.402007,33.4202413 L20.7642346,26.526131 L20.7642346,33.4202413 L19.0821057,33.4202413 Z M29.8014211,33.4202413 L29.8014211,23.327973 L36.1008917,23.327973 L36.1008917,24.7122503 L31.8989745,24.7122503 L31.8989745,27.5285387 L35.3449552,27.5285387 L35.3449552,28.8787206 L31.8989745,28.8787206 L31.8989745,31.9882303 L36.4209729,31.9882303 L36.4209729,33.4202413 L29.8014211,33.4202413 Z M39.7312346,33.4202413 L37.2182566,23.327973 L39.200036,23.327973 L41.0388004,30.7130585 L42.7754112,23.327973 L44.5256425,23.327973 L46.1737202,30.6721439 L48.1078279,23.327973 L49.5584087,23.327973 L46.9160362,33.4202413 L44.9138261,33.4202413 L43.3610917,26.4988546 L41.7334447,33.4202413 L39.7312346,33.4202413 Z M50.3756374,33.331593 L50.3756374,31.5995415 C51.4607408,32.0541505 52.389194,32.2814516 53.1610249,32.2814516 C53.7013065,32.2814516 54.1269422,32.160982 54.4379446,31.9200393 C54.7489471,31.6790965 54.904446,31.351783 54.904446,30.9380888 C54.904446,30.6107704 54.8068335,30.3345996 54.6116057,30.1095681 C54.4163779,29.8845367 54.0463586,29.617458 53.5015368,29.3083239 L52.8273232,28.9332734 C51.9238271,28.4241113 51.2859411,27.9365505 50.9136462,27.4705764 C50.5413513,27.0046022 50.3552066,26.4602161 50.3552066,25.8374019 C50.3552066,25.0054675 50.6605293,24.3372023 51.2711837,23.8325864 C51.8818382,23.3279705 52.6888433,23.0756663 53.6922235,23.0756663 C54.4958357,23.0756663 55.4015883,23.1915898 56.4095087,23.4234404 L56.4095087,25.0395671 C55.3788874,24.6531495 54.563937,24.4599436 53.964633,24.4599436 C53.5015345,24.4599436 53.1303802,24.5633656 52.851159,24.7702127 C52.5719379,24.9770598 52.4323294,25.2486845 52.4323294,25.5850952 C52.4323294,25.8624066 52.5299418,26.1056188 52.7251696,26.3147389 C52.9203974,26.523859 53.2881467,26.7807092 53.8284283,27.0852972 L54.5503136,27.4876241 C55.5219124,28.0331549 56.1915792,28.5354902 56.5593339,28.9946453 C56.9270886,29.4538003 57.1109632,30.0129609 57.1109632,30.6721439 C57.1109632,31.6086384 56.7636445,32.3428208 56.0689967,32.8747133 C55.3743489,33.4066058 54.416385,33.672548 53.1950761,33.672548 C52.3869238,33.672548 51.4471202,33.5588975 50.3756374,33.331593 Z" id="NEWS" fill="#C6C6C6" transform="translate(38.096534, 28.374107) rotate(-10.000000) translate(-38.096534, -28.374107) "></path>
                        <polygon id="Fill-4" fill="#DADADA" points="54.6174066 43.4758422 22.2971697 48.9328681 21.6011961 44.8018681 53.9214329 39.3448422"></polygon>
                        <polygon id="Fill-5" fill="#DADADA" points="93.1259513 36.9731483 60.8057145 42.4308724 60.1104382 38.2991741 92.430675 32.8421483"></polygon>
                        <polygon id="Fill-6" fill="#DADADA" points="55.7772 50.3611216 23.4569632 55.8188457 22.7609895 51.6871474 55.0812263 46.2301216"></polygon>
                        <polygon id="Fill-7" fill="#DADADA" points="94.285675 43.8591259 61.9654382 49.3161517 61.2701618 45.1844534 93.5897013 39.7274276"></polygon>
                        <polygon id="Fill-8" fill="#DADADA" points="57.1685197 58.6238198 24.8482829 64.081544 24.1523092 59.9498457 56.4725461 54.4928198"></polygon>
                        <polygon id="Fill-9" fill="#DADADA" points="95.6776921 52.1211259 63.3574553 57.57885 62.6614816 53.4471517 94.9817184 47.9901259"></polygon>
                        <polygon id="Fill-10" fill="#DADADA" points="58.3283132 65.5097276 26.0080763 70.9667534 25.3121026 66.8357534 57.6323395 61.3780293"></polygon>
                        <polygon id="Fill-11" fill="#DADADA" points="96.8368579 59.0070336 64.5173184 64.4640595 63.8213447 60.3330595 96.1415816 54.8753353"></polygon>
                    </g>
                </g>
            </g>
        </g>
    </g>
</svg>