<?xml version="1.0" encoding="UTF-8"?>
<svg width="154px" height="155px" viewBox="0 0 154 155" version="1.1" xmlns="http://www.w3.org/2000/svg" xmlns:xlink="http://www.w3.org/1999/xlink">
    <!-- Generator: Sketch 43.2 (39069) - http://www.bohemiancoding.com/sketch -->
    <title>icon-open-society</title>
    <desc>Created with Sketch.</desc>
    <defs>
        <rect id="path-1" x="80" y="810" width="1280" height="7099" rx="20"></rect>
        <filter x="-0.5%" y="-0.1%" width="101.1%" height="100.2%" filterUnits="objectBoundingBox" id="filter-2">
            <feOffset dx="0" dy="2" in="SourceAlpha" result="shadowOffsetOuter1"></feOffset>
            <feGaussianBlur stdDeviation="2" in="shadowOffsetOuter1" result="shadowBlurOuter1"></feGaussianBlur>
            <feColorMatrix values="0 0 0 0 0   0 0 0 0 0   0 0 0 0 0  0 0 0 0.5 0" type="matrix" in="shadowBlurOuter1"></feColorMatrix>
        </filter>
        <polygon id="path-3" points="0 8 0 21 16 21 16 8 0 8"></polygon>
        <polygon id="path-5" points="0 6 0 15.75 12 15.75 12 6 0 6"></polygon>
        <polygon id="path-7" points="0 6 0 15.75 12 15.75 12 6 0 6"></polygon>
    </defs>
    <g id="Page-1" stroke="none" stroke-width="1" fill="none" fill-rule="evenodd">
        <g id="landing-page" transform="translate(-643.000000, -1944.000000)">
            <g id="Rectangle-2">
                <use fill="black" fill-opacity="1" filter="url(#filter-2)" xlink:href="#path-1"></use>
                <use fill="#FFFFFF" fill-rule="evenodd" xlink:href="#path-1"></use>
            </g>
            <g id="Group-24" transform="translate(643.000000, 1944.351064)">
                <circle id="Oval-4" fill="#633A7C" cx="77" cy="77" r="77"></circle>
                <g id="Group-17" transform="translate(22.000000, 25.000000)">
                    <circle id="Oval-8" fill="#FFFFFF" cx="101" cy="42" r="7"></circle>
                    <circle id="Oval-8" fill="#FFFFFF" cx="23" cy="18" r="7"></circle>
                    <g id="Group-15" transform="translate(0.000000, 37.000000)">
                        <circle id="Oval-8" fill="#FFFFFF" cx="16" cy="16" r="16"></circle>
                        <g id="Page-1" transform="translate(8.000000, 5.000000)">
                            <path d="M12,4.00011015 C12,6.20900454 10.2090539,8 8,8 C5.79094614,8 4,6.20900454 4,4.00011015 C4,1.79099546 5.79094614,0 8,0 C10.2090539,0 12,1.79099546 12,4.00011015" id="Fill-1" fill="#BEBEBE"></path>
                            <mask id="mask-4" fill="white">
                                <use xlink:href="#path-3"></use>
                            </mask>
                            <g id="Clip-4"></g>
                            <path d="M8,8 C3.58160221,8 0,11.7959026 0,16.4781364 C0,16.9167676 0.0315262062,17.3477622 0.0921015594,17.7684951 C2.1827394,19.7762235 4.95636998,21 8,21 C11.04363,21 13.8174858,19.7762235 15.9081236,17.7684951 C15.968699,17.3477622 16,16.9167676 16,16.4781364 C16,11.7959026 12.4183978,8 8,8" id="Fill-3" fill="#BEBEBE" mask="url(#mask-4)"></path>
                        </g>
                    </g>
                    <g id="Group-14" transform="translate(49.000000, 89.000000)">
                        <circle id="Oval-8" fill="#FFFFFF" cx="11" cy="11" r="11"></circle>
                        <g id="Page-1" transform="translate(5.000000, 3.000000)">
                            <path d="M9,3.00008261 C9,4.65675341 7.6567904,6 6,6 C4.3432096,6 3,4.65675341 3,3.00008261 C3,1.34324659 4.3432096,0 6,0 C7.6567904,0 9,1.34324659 9,3.00008261" id="Fill-1" fill="#BEBEBE"></path>
                            <mask id="mask-6" fill="white">
                                <use xlink:href="#path-5"></use>
                            </mask>
                            <g id="Clip-4"></g>
                            <path d="M6,6 C2.68620166,6 0,8.84692697 0,12.3586023 C0,12.6875757 0.0236446546,13.0108217 0.0690761696,13.3263713 C1.63705455,14.8321676 3.71727749,15.75 6,15.75 C8.28272251,15.75 10.3631143,14.8321676 11.9310927,13.3263713 C11.9765242,13.0108217 12,12.6875757 12,12.3586023 C12,8.84692697 9.31379834,6 6,6" id="Fill-3" fill="#BEBEBE" mask="url(#mask-6)"></path>
                        </g>
                    </g>
                    <g id="Group-16" transform="translate(60.000000, 0.000000)">
                        <circle id="Oval-8" fill="#FFFFFF" cx="11" cy="11" r="11"></circle>
                        <g id="Page-1" transform="translate(5.000000, 3.000000)">
                            <path d="M9,3.00008261 C9,4.65675341 7.6567904,6 6,6 C4.3432096,6 3,4.65675341 3,3.00008261 C3,1.34324659 4.3432096,0 6,0 C7.6567904,0 9,1.34324659 9,3.00008261" id="Fill-1" fill="#BEBEBE"></path>
                            <mask id="mask-8" fill="white">
                                <use xlink:href="#path-7"></use>
                            </mask>
                            <g id="Clip-4"></g>
                            <path d="M6,6 C2.68620166,6 0,8.84692697 0,12.3586023 C0,12.6875757 0.0236446546,13.0108217 0.0690761696,13.3263713 C1.63705455,14.8321676 3.71727749,15.75 6,15.75 C8.28272251,15.75 10.3631143,14.8321676 11.9310927,13.3263713 C11.9765242,13.0108217 12,12.6875757 12,12.3586023 C12,8.84692697 9.31379834,6 6,6" id="Fill-3" fill="#BEBEBE" mask="url(#mask-8)"></path>
                        </g>
                    </g>
                    <path d="M24.5,64.5 L54.5,94.5" id="Line" stroke="#FFFFFF" stroke-width="3" stroke-linecap="square"></path>
                    <path d="M26.5,19.5 L99.5,42.5" id="Line" stroke="#FFFFFF" stroke-width="3" stroke-linecap="square"></path>
                    <path d="M16.5,39.5 L23.5,20.5" id="Line" stroke="#FFFFFF" stroke-width="3" stroke-linecap="square"></path>
                    <path d="M24.5,15.5 L63.5,9.5" id="Line" stroke="#FFFFFF" stroke-width="3" stroke-linecap="square"></path>
                    <path d="M78.5,12.5 L99.5,38.5" id="Line" stroke="#FFFFFF" stroke-width="3" stroke-linecap="square"></path>
                    <path d="M67.5,95.5 L100.5,43.5" id="Line" stroke="#FFFFFF" stroke-width="3" stroke-linecap="square"></path>
                    <path d="M61.5,89.5 L70.5,20.5" id="Line" stroke="#FFFFFF" stroke-width="3" stroke-linecap="square"></path>
                </g>
            </g>
        </g>
    </g>
</svg>