<?xml version="1.0" encoding="utf-8"?>
<!-- Generator: Adobe Illustrator 16.0.0, SVG Export Plug-In . SVG Version: 6.00 Build 0)  -->
<!DOCTYPE svg PUBLIC "-//W3C//DTD SVG 1.1//EN" "http://www.w3.org/Graphics/SVG/1.1/DTD/svg11.dtd">
<svg version="1.1" id="Layer_1" xmlns="http://www.w3.org/2000/svg" xmlns:xlink="http://www.w3.org/1999/xlink" x="0px" y="0px"
	 width="1200px" height="500px" viewBox="0 0 1200 500" enable-background="new 0 0 1200 500" xml:space="preserve">
<g id="圖層_1">
	<g>
		<g>
			<defs>
				<rect id="SVGID_1_" x="379.82" y="-991.013" width="1575.98" height="896.242"/>
			</defs>
			<clipPath id="SVGID_2_">
				<use xlink:href="#SVGID_1_"  overflow="visible"/>
			</clipPath>
			<path clip-path="url(#SVGID_2_)" fill="#167B87" d="M1423.121,499.183c0,0-52.369-55.31-71.65-178.921
				S1316.177,71.405,1150.49-21.16S799.428-95.833,696.813-206.781C594.199-317.729,533.088-415.033,387.582-450.735
				S148.856-471.65,85.948-533.252l-14.706,68.056l721.814,680.883L1423.121,499.183z"/>
		</g>
		<g>
			<defs>
				<rect id="SVGID_3_" x="379.82" y="-991.013" width="1575.98" height="896.242"/>
			</defs>
			<clipPath id="SVGID_4_">
				<use xlink:href="#SVGID_3_"  overflow="visible"/>
			</clipPath>
			<g clip-path="url(#SVGID_4_)">
				<g>
					<g>
						<path fill="#165969" d="M1465.687,336.52c0,0-200.653-87.745-248.693-203.268c-48.039-115.523-65.522-191.421-248.366-241.993
							c-182.843-50.572-249.836,15.033-375.898-68.382c-126.062-83.415-208.415-163.562-358.17-163.726
							c-149.755-0.164-236.928,36.274-312.582-8.66l1.879,69.608L786.52,210.539L1465.687,336.52z"/>
					</g>
				</g>
			</g>
		</g>
	</g>
	<g>
		<g>
			<defs>
				<rect id="SVGID_5_" x="938.644" y="-3.268" width="1575.98" height="896.242"/>
			</defs>
			<clipPath id="SVGID_6_">
				<use xlink:href="#SVGID_5_"  overflow="visible"/>
			</clipPath>
			<path clip-path="url(#SVGID_6_)" fill="#167B87" d="M1981.944,1486.928c0,0-52.369-55.311-71.65-178.921
				c-19.28-123.611-35.294-248.856-200.98-341.422s-351.062-74.673-453.677-185.621
				c-102.614-110.947-163.725-208.251-309.231-243.954c-145.507-35.702-238.726-20.915-301.634-82.517l-14.706,68.056
				l721.813,680.883L1981.944,1486.928z"/>
		</g>
	</g>
</g>
<g>
	<path fill="#F14839" d="M412.827,226.471c-3.269,7.353-8.579,15.033-13.399,19.771c-1.062-1.144-3.431-3.513-4.738-4.575
		c4.738-4.003,9.478-10.539,12.173-17.075L412.827,226.471z M425.408,247.141c3.677,4.983,7.762,11.355,9.968,15.523l-5.556,2.94
		c-0.572-1.308-1.389-2.778-2.369-4.411c-21.732,1.715-24.837,1.961-27.043,2.777c-0.326-1.145-1.389-4.167-2.206-5.719
		c1.471-0.408,2.696-1.635,4.494-3.596c1.879-1.96,7.517-9.558,11.111-17.075l6.29,2.615c-3.431,6.045-7.761,12.091-12.173,16.993
		l16.503-1.062c-1.471-2.287-2.94-4.574-4.33-6.617L425.408,247.141z M426.308,224.591c1.96,6.291,6.045,12.664,11.601,16.013
		c-1.226,1.144-3.186,3.758-4.085,5.392c-5.146-3.921-9.15-9.967-11.683-15.931h-7.189v-5.556h11.356V224.591z"/>
	<path fill="#F14839" d="M467.974,250.327c1.961,5.556,4.902,9.477,7.354,9.477c1.144,0,1.552-1.879,1.879-6.372
		c1.226,1.062,3.187,2.042,4.656,2.532c-0.735,7.517-2.695,9.15-6.78,9.15c-5.638,0-10.376-6.209-12.827-14.788H450.49v8.416
		l10.702-2.288c0.082,1.552,0.327,3.84,0.572,5.065c-13.235,3.104-15.441,3.514-16.83,4.248c-0.327-1.389-1.552-3.676-2.369-4.738
		c0.98-0.653,2.287-1.879,2.287-3.84V225.49h32.762v14.706H465.85c0.163,1.797,0.408,3.431,0.735,5.065h14.216v4.984h-12.827
		V250.327z M450.49,230.556v4.738h21.732v-4.738H450.49z M461.029,245.261c-0.326-1.634-0.572-3.35-0.653-5.065h-9.886v5.065
		H461.029z"/>
	<path fill="#F14839" d="M499.918,252.287c-0.571-1.225-1.634-3.186-2.695-4.983v18.301h-5.147v-16.258
		c-1.471,3.431-3.187,6.7-4.902,8.906c-0.49-1.553-1.634-3.758-2.45-5.066c2.532-2.859,5.064-7.679,6.699-12.091h-6.209v-4.983h6.78
		v-5.065c-1.797,0.245-3.431,0.572-5.065,0.735c-0.163-1.226-0.816-2.941-1.471-4.167c5.147-0.735,10.785-2.124,14.543-3.676
		l3.022,4.33c-1.797,0.653-3.758,1.225-5.8,1.634v6.209h5.964v4.983h-5.964v0.327c1.307,1.226,4.983,5.474,5.882,6.536
		L499.918,252.287z M522.141,254.248v11.356h-5.311v-10.376l-13.644,2.369l-0.817-5.064l14.461-2.452v-26.389h5.311v25.49
		l4.493-0.735l0.817,4.984L522.141,254.248z M510.784,247.958c-1.389-1.961-4.575-4.902-7.189-6.863l3.432-3.104
		c2.532,1.797,5.882,4.575,7.353,6.536L510.784,247.958z M512.01,236.029c-1.226-1.96-4.167-4.82-6.699-6.781l3.513-3.105
		c2.451,1.879,5.556,4.494,6.944,6.455L512.01,236.029z"/>
	<path fill="#F14839" d="M545.833,247.631c-1.552,0.49-3.186,0.898-4.82,1.307v10.785c0,2.613-0.49,3.84-2.042,4.738
		c-1.471,0.816-3.677,0.98-6.781,0.98c-0.245-1.389-0.898-3.432-1.552-4.902c1.797,0.082,3.595,0.082,4.166,0.082
		c0.653,0,0.817-0.245,0.817-0.898v-9.314l-4.33,1.062l-1.389-5.065c1.634-0.327,3.595-0.735,5.801-1.307v-8.007h-5.147v-4.983
		h5.147v-8.579h5.31v8.579h4.412v4.983h-4.412v6.7l4.167-1.062L545.833,247.631z M570.833,241.503
		c-1.716,6.291-4.575,11.193-8.415,14.951c2.941,2.042,6.373,3.595,10.376,4.575c-1.144,1.062-2.696,3.268-3.432,4.657
		c-4.33-1.308-8.088-3.187-11.192-5.638c-3.513,2.451-7.517,4.248-11.847,5.556c-0.571-1.471-1.879-3.677-2.859-4.901
		c4.003-0.98,7.599-2.369,10.784-4.412c-2.695-3.023-4.738-6.618-6.372-10.703l1.389-0.409h-2.369v-4.82h8.905v-5.392h-9.723v-4.984
		h9.723v-6.454h5.311v6.454h10.131v4.984h-10.131v5.392h5.392l0.98-0.245L570.833,241.503z M553.022,245.098
		c1.226,2.941,3.104,5.637,5.311,8.006c2.37-2.288,4.249-4.902,5.638-8.006H553.022z"/>
	<path fill="#F14839" d="M584.559,236.193v-1.716c-1.552,1.144-3.186,2.288-4.82,3.268h19.036v14.134H583.17
		c-0.082,0.49-0.163,0.98-0.245,1.389h16.912v12.01h-4.657v-1.225h-8.333v1.389h-4.494v-9.314c-0.653,2.859-1.552,5.557-2.859,7.926
		c-1.062-0.654-3.35-1.635-4.656-2.043c3.595-5.719,3.921-13.807,3.921-19.036v-4.575l-1.062,0.572
		c-0.49-1.226-1.879-4.003-2.778-5.147c5.229-2.206,10.458-5.882,13.399-10.212l4.901,1.96c-0.245,0.409-0.571,0.735-0.816,1.144
		c3.35,1.961,7.107,4.167,9.15,5.637l-2.778,4.494c-1.226-0.98-2.941-2.125-4.901-3.432v2.941h-9.314V236.193z M593.954,248.121
		v-1.879H583.66c0,0.572-0.082,1.226-0.082,1.879H593.954z M583.66,241.421v1.471v0.245h10.213v-1.797H583.66V241.421z
		 M593.546,233.006c-1.471-0.898-2.941-1.879-4.249-2.696c-0.979,0.898-1.96,1.879-2.94,2.696H593.546z M586.847,256.863v3.186
		h8.333v-3.186H586.847z M607.435,253.35h-5.065v-25.163h5.065V253.35z M615.687,223.693v35.54c0,2.859-0.572,4.33-2.206,5.146
		c-1.553,0.898-4.167,1.062-7.762,1.062c-0.245-1.471-0.816-3.84-1.552-5.393c2.287,0.082,4.656,0.082,5.392,0.082
		s1.062-0.245,1.062-0.98v-35.458H615.687L615.687,223.693z"/>
	<path fill="#F14839" d="M628.104,252.941c-1.144,3.268-2.941,6.944-4.575,9.232c-0.816-0.654-2.532-1.88-3.513-2.451
		c1.552-2.125,3.022-5.147,4.003-8.007L628.104,252.941z M634.396,250.327v14.951h-5.147v-14.951h-8.415v-4.493h8.415v-3.432h-8.66
		v-4.412h4.33c-0.245-1.389-0.735-3.268-1.307-4.657l3.676-0.899h-6.045v-4.33h7.68c-0.409-1.226-0.899-2.451-1.39-3.595
		l5.393-1.307c0.653,1.471,1.471,3.35,2.042,4.902h6.455v4.33h-5.638l3.677,0.735c-0.654,1.716-1.389,3.431-2.043,4.902h4.657v4.412
		h-7.68v3.432h6.944v4.494h-6.944V250.327z M627.941,232.353c0.653,1.471,1.226,3.431,1.471,4.657l-3.269,0.899h6.454
		c0.654-1.634,1.471-3.922,1.961-5.556H627.941L627.941,232.353z M662.173,243.301h-4.166v22.141h-5.229v-22.141h-4.166v0.572
		c0,6.618-0.572,15.931-4.412,21.651c-0.898-0.98-3.022-2.697-4.166-3.188c0.816-1.307,1.552-2.777,2.042-4.33l-3.187,1.961
		c-0.735-1.797-2.287-4.656-3.513-6.78l3.513-1.88c1.226,1.798,2.614,4.167,3.35,5.883c1.226-4.33,1.389-9.15,1.389-13.317v-16.013
		c4.902-0.898,10.376-2.288,13.645-3.84l4.085,3.922c-3.677,1.47-8.415,2.532-12.827,3.35v7.108h13.644V243.301z"/>
	<path fill="#F14839" d="M694.036,256.454c4.82,1.634,10.294,3.595,13.48,4.983l-2.451,4.167
		c-3.922-1.961-11.929-4.983-17.565-6.944l1.389-2.287H687.5c-2.124,3.758-7.353,7.516-19.363,9.395
		c-0.653-1.225-1.96-3.186-2.94-4.33c8.088-1.225,12.745-3.104,15.277-5.064h-15.032v-4.412h18.056
		c0.081-0.408,0.081-0.817,0.081-1.226v-2.941h5.311v3.187c0,0.326,0,0.653-0.081,1.062h7.843c-0.98-0.817-2.043-1.634-2.941-2.288
		l1.634-1.552h-1.716c-0.163-1.226-0.734-2.696-1.307-3.84c1.471,0.082,3.104,0.082,3.595,0.082c0.49-0.082,0.653-0.163,0.653-0.653
		v-2.615h-7.516c1.144,0.899,2.369,1.879,2.94,2.696l-3.513,2.696c-0.817-1.144-2.777-2.859-4.412-4.003l1.879-1.389h-4.493v-3.431
		h1.798c-0.49-0.899-1.145-1.879-1.798-2.533c4.085-0.409,7.925-1.226,11.274-2.533c-0.98-1.144-2.369-2.451-3.758-3.513
		c-1.471,0.572-3.104,1.062-4.902,1.552c-0.571-0.98-1.797-2.369-2.614-3.022c5.393-1.062,9.478-2.696,11.765-4.412l4.412,0.899
		c-0.654,0.572-1.226,1.062-1.961,1.552h6.291l0.816-0.164l2.778,1.389c-1.961,3.595-5.147,6.045-8.987,7.843h4.902v2.86h5.065
		v3.431h-5.065v2.778c0,2.124-0.408,3.104-1.879,3.676c-0.654,0.245-1.471,0.409-2.369,0.49c1.389,0.899,2.695,1.961,3.513,2.777
		l-1.062,1.062h7.517v4.412h-13.153V256.454z M672.876,241.013c0,2.124-0.653,6.536-3.595,8.987
		c-0.898-0.735-2.859-1.797-4.085-2.288c2.451-1.879,2.941-5.065,2.941-6.699h-2.533v-4.167h9.559v-2.451h-7.761v-9.722h4.493v5.637
		h3.35v-6.699h4.902v25.653h-4.902v-8.251H672.876z M689.706,233.251c-2.206,0.245-4.249,0.49-6.291,0.654l-0.49-2.696
		c1.879-0.163,4.085-0.327,6.699-0.49L689.706,233.251z M696.568,237.745v-2.778c-2.859,1.226-5.964,2.124-9.396,2.778H696.568z
		 M693.137,228.676c0.98,0.817,1.961,1.797,2.86,2.615c1.307-0.735,2.45-1.634,3.431-2.615H693.137z"/>
	<path fill="#F14839" d="M750.98,235.621c-0.408,18.464-0.817,25.082-2.288,27.205c-1.062,1.553-2.124,2.043-3.758,2.288
		c-1.471,0.245-3.758,0.245-6.127,0.163c-0.082-1.471-0.654-3.676-1.553-5.064c2.206,0.163,4.248,0.163,5.229,0.163
		c0.735,0,1.144-0.163,1.553-0.735c1.062-1.226,1.471-6.781,1.716-21.242h-4.82c-0.654,11.928-3.104,21.324-11.765,27.369
		c-0.817-1.307-2.451-3.104-3.759-4.084c2.206-1.471,4.004-3.188,5.311-5.066c-6.862,1.717-14.297,3.432-19.771,4.738l-0.816-5.473
		c0.898-0.164,1.961-0.327,3.104-0.572v-29.739h15.604v26.552l1.961-0.408l0.49,4.248c3.022-4.657,4.085-10.458,4.493-17.483h-5.719
		v-5.065h5.882c0.082-3.104,0.082-6.291,0.082-9.722h5.311c0,3.35,0,6.618-0.082,9.722h9.805v2.206H750.98z M717.974,230.229v4.575
		h5.964v-4.575H717.974z M723.856,239.461h-5.964v4.657h5.964V239.461z M717.974,254.248c1.879-0.326,3.84-0.816,5.964-1.225v-4.249
		h-5.964V254.248z"/>
	<path fill="#F14839" d="M779.248,241.503v4.657h14.379v4.82h-7.107l4.493,1.634c-1.552,2.532-3.35,5.229-4.738,7.189h9.723v4.902
		h-38.971v-4.902h8.905c-0.735-2.042-2.288-5.065-3.759-7.271l3.595-1.471h-6.535v-4.821h14.297v-4.657h-9.15v-2.206
		c-1.879,0.899-3.84,1.716-5.801,2.451c-0.735-1.552-2.206-3.595-3.595-4.984c8.497-2.451,16.585-6.944,20.834-13.725l5.065,2.288
		c-0.409,0.572-0.817,1.144-1.226,1.797c4.411,4.003,11.683,7.68,18.464,9.559c-1.226,1.144-2.859,3.268-3.677,4.657
		c-2.042-0.735-4.085-1.634-6.127-2.614v2.696H779.248z M766.667,250.98c1.552,2.206,3.268,5.146,3.921,7.189l-3.676,1.634h6.617
		v-8.823H766.667z M784.313,236.602c-2.859-1.798-5.474-3.758-7.761-5.883c-2.125,2.288-4.657,4.167-7.271,5.883H784.313z
		 M779.248,250.98v8.823h5.638l-3.023-1.226c1.39-2.042,3.104-5.146,4.004-7.516h-6.618V250.98z"/>
</g>
<g id="標記" display="none">
	
		<rect x="624.102" y="-997.304" display="inline" fill="none" stroke="#FF00FF" stroke-width="1.2439" stroke-miterlimit="10" width="1045.752" height="1010.784"/>
</g>
<g>
	<g>
		<g transform="translate(425.000000, 1.000000)">
			<path fill="#E2E4C9" d="M239.379,452.104h-11.683v-2.941h-4.493v2.941h-12.174v11.438c0,5.719-1.144,10.947-2.696,14.542
				l3.759,2.614c1.307-3.35,2.042-6.781,2.532-11.52l2.124,2.451c0.572-0.817,0.98-1.471,1.635-2.533v11.52h3.758v-18.219
				c0.816-1.797,1.307-3.35,1.879-5.065l-3.758-0.98c-1.226,4.249-3.104,7.844-5.475,11.356c0.082-1.634,0.164-3.022,0.164-4.166
				v-7.599h24.51L239.379,452.104L239.379,452.104z"/>
			<path fill="#E2E4C9" d="M240.114,460.438h-3.758v-3.758h-3.922v3.758h-8.987v3.922h8.987v10.703c0,0.653-0.408,1.062-1.144,1.062
				c-0.408,0-3.595-0.245-3.595-0.245l0.49,4.167h5.146c1.961,0,2.941-1.144,2.941-3.35v-12.255h3.758L240.114,460.438
				L240.114,460.438z"/>
			<path fill="#E2E4C9" d="M226.389,465.422l-2.941,1.879c1.39,1.961,2.206,3.513,3.759,6.046l3.268-2.206
				C228.922,469.017,227.859,467.383,226.389,465.422z"/>
		</g>
		<g transform="translate(285.000000, 0.000000)">
			<path fill="#E2E4C9" d="M336.813,472.386c1.961-3.35,3.023-6.046,3.677-12.663h2.042v-3.922h-9.313
				c0.49-1.308,1.471-3.677,1.798-5.229l-3.84-0.899c-1.39,4.82-2.941,8.007-4.494,11.356l-3.676-0.081v-5.229h4.493v-3.758h-15.932
				v3.758h7.517v17.729c-0.898,0.246-1.062,0.327-2.042,0.572v-14.216h-3.677v15.033l-3.187,0.816l1.308,4.167
				c5.964-1.471,12.5-3.84,16.666-5.801l-0.408-3.595c-1.144,0.49-3.268,1.144-4.738,1.716v-7.354h1.716l-0.49,0.654l3.104,2.206
				c0.571-0.817,0.898-1.308,1.471-2.533c1.062,3.514,1.797,4.493,3.186,6.863c-2.369,2.45-3.921,3.676-7.516,5.882l2.532,3.595
				c3.022-2.287,5.393-4.575,7.271-6.291c1.552,1.798,3.595,4.167,6.046,6.291l2.614-3.431
				C340.245,476.062,338.447,474.51,336.813,472.386z M334.281,469.526c-1.553-3.023-2.451-4.82-2.941-8.823
				c0.163-0.327,0.327-0.572,0.49-0.98h4.82C336.16,464.379,335.833,466.258,334.281,469.526z"/>
		</g>
		<g transform="translate(149.000000, 0.000000)">
			<g>
				<path fill="#E2E4C9" d="M440.216,460.131h-7.844v-2.614h6.618v-3.514h-6.618v-4.33h-4.085v4.33h-6.372v3.514h6.372v2.614h-7.189
					v3.677h10.785v2.287h-10.785v3.922h10.785v6.291c0,0.816-0.409,1.144-1.145,1.144c-0.245,0-2.696-0.245-2.696-0.245l0.49,4.33
					h4.412c1.961,0,2.941-1.144,2.941-3.514v-8.088h4.085v-3.922h-4.085v-2.287h4.167L440.216,460.131L440.216,460.131z"/>
				<path fill="#E2E4C9" d="M420.281,453.187H409.66v24.02h10.621V453.187z M413.5,463.072v-6.455h3.022v6.455H413.5z
					 M413.5,473.611v-7.108h3.022v7.026H413.5V473.611z"/>
				<path fill="#E2E4C9" d="M425.265,470.833l-2.941,1.798c1.062,1.552,1.798,2.941,3.104,5.065l3.187-2.043
					C427.389,473.856,426.49,472.468,425.265,470.833z"/>
			</g>
		</g>
		<g transform="translate(0.000000, 5.000000)">
			<g>
				<path fill="#E2E4C9" d="M538.072,459.134h6.045v-2.124h-6.372v2.043c-0.572-0.245-0.817-0.327-1.308-0.572v-5.393h8.742v5.72
					h3.922v-8.497h-12.664v-1.308h11.111v-3.022h-26.552v2.941h11.11v1.307h-12.418v8.497h3.922v-5.719h8.496v5.474
					c-0.408,0.245-0.816,0.408-1.307,0.572v-2.043h-6.209v2.124h5.964c-3.677,1.798-8.415,3.104-12.419,3.677l1.308,3.513
					c0.98-0.245,1.961-0.49,3.187-0.898v2.778h17.646c-2.042,1.307-3.268,1.96-5.964,3.104c0.653,1.797,2.696,1.879,4.249,1.062
					c3.35-1.797,5.719-3.35,7.516-4.983v-1.798c1.062,0.327,1.961,0.49,2.778,0.654l1.307-3.514
					C546.568,462.32,542.157,460.932,538.072,459.134z M544.853,465.18h-8.333c0-1.226,0-2.859,0-2.859h-4.33c0,0,0,1.797,0,2.859
					h-8.415c4.493-1.389,7.68-2.941,10.621-4.657C537.745,462.32,540.768,463.873,544.853,465.18z"/>
				<path fill="#E2E4C9" d="M534.723,471.389c-3.269-1.062-4.004-1.307-6.7-2.124l-1.47,2.859l14.297,5.393l1.634-3.432
					c0,0-1.879-0.653-3.513-1.226C537.01,471.797,537.5,471.634,534.723,471.389z"/>
				<path fill="#E2E4C9" d="M544.117,454.068h-6.454v2.206h6.454V454.068z"/>
				<path fill="#E2E4C9" d="M531.046,454.068h-6.291v2.206h6.291V454.068z"/>
			</g>
		</g>
		<path fill="#E2E4C9" d="M411.438,459.968c5.311,0,9.069,0.816,11.765,1.797v-4.33c-2.287-0.735-5.882-1.471-11.683-1.471
			c-7.353,0-10.866,1.471-12.582,3.187c-1.634,1.634-2.45,3.758-2.45,6.536c0,2.777,0.816,4.901,2.45,6.536
			c1.798,1.797,5.229,3.186,12.337,3.186c5.719,0,9.232-0.816,11.438-3.022c1.225-1.226,1.797-2.859,1.797-5.801v-2.451h-15.932
			v3.595h11.274c0,0.409,0,1.39-0.653,2.043c-1.144,1.144-4.085,1.552-7.843,1.552c-4.657,0-7.108-0.816-8.252-1.96
			c-0.817-0.817-1.308-2.043-1.308-3.759c0-1.634,0.49-2.941,1.39-3.84C404.167,460.784,406.699,459.968,411.438,459.968
			C411.438,459.968,406.699,459.968,411.438,459.968L411.438,459.968L411.438,459.968z"/>
		<path fill="#E2E4C9" d="M501.226,456.536h-5.964l-9.641,14.297l-9.559-14.297h-6.291l12.5,18.137h6.372l0,0L501.226,456.536
			L501.226,456.536z"/>
		<path fill="#E2E4C9" d="M468.219,444.036h-5.146l-33.742,43.219h5.229L468.219,444.036z"/>
		<path fill="#E2E4C9" d="M461.029,459.15c-1.716-1.716-4.983-3.268-12.255-3.268c-6.944,0-10.539,1.552-12.255,3.268
			c-1.553,1.553-2.451,3.595-2.451,6.454s0.817,4.902,2.451,6.454c1.716,1.716,5.147,3.269,12.255,3.269
			c7.108,0,10.539-1.553,12.255-3.269c1.553-1.552,2.451-3.595,2.451-6.454C463.48,462.663,462.663,460.703,461.029,459.15z
			 M448.856,471.487c-4.657,0-7.108-0.98-8.089-1.961c-0.816-0.817-1.389-1.879-1.389-3.84s0.49-3.023,1.389-3.922
			c1.062-1.062,3.514-1.961,8.17-1.961c4.657,0,7.026,0.898,8.089,1.961c0.816,0.817,1.389,1.879,1.389,3.84
			s-0.49,3.022-1.389,3.922C455.883,470.588,453.513,471.487,448.856,471.487z"/>
	</g>
	<g>
		<g>
			<g>
				<g>
					<g>
						<g>
							<path fill="#E2E4C9" d="M775.49,99.51H667.075c-1.471,0-2.696-1.062-2.859-2.533s-0.163-3.921-0.082-6.291
								c0-0.98,0.082-1.798,0.082-2.533c0-23.285,15.522-38.889,38.644-38.889c17.483,0,31.046,8.987,37.418,24.265
								c4.004-5.474,10.131-8.823,16.667-8.823c12.582,0,21.323,8.66,21.323,20.997v10.866
								C778.35,98.203,777.043,99.51,775.49,99.51z M669.853,93.709h102.696v-7.925c0-10.539-7.843-15.196-15.604-15.196
								c-6.372,0-12.255,4.575-14.542,11.274c-0.409,1.226-1.471,2.042-2.859,1.961c-1.308-0.082-2.37-0.899-2.696-2.125
								c-4.249-16.667-16.994-26.552-34.069-26.552c-20.016,0-32.925,12.99-32.925,33.17c0,0.735,0,1.634-0.081,2.696
								C669.935,91.749,669.853,92.811,669.853,93.709z"/>
						</g>
						<g>
							<path fill="#E2E4C9" d="M767.402,122.712c-7.925,0-14.625-5.474-17.239-13.235c-4.248,16.585-16.911,28.758-36.846,28.758
								c-20.425,0-35.785-13.154-35.785-36.029c0-2.288-0.245-6.618,0-8.415h108.334c0,3.758,0,7.843,0,10.866
								C785.866,115.931,777.614,122.712,767.402,122.712z"/>
						</g>
					</g>
				</g>
			</g>
			<g>
				<path fill="#E2E4C9" d="M428.758,162.827c-2.369-0.898-4.82-1.634-7.353-2.124s-5.147-0.735-7.925-0.735
					c-5.801,0-10.539,1.797-14.134,5.311c-3.595,3.595-5.393,8.497-5.393,14.706c0,6.128,1.552,10.866,4.82,14.298
					c3.187,3.431,7.68,5.147,13.562,5.147c2.695,0,5.146-0.327,7.353-1.062v-20.098h11.111v27.533
					c-5.883,2.369-12.5,3.595-19.689,3.595c-9.15,0-16.34-2.533-21.405-7.517c-5.147-4.983-7.68-11.928-7.68-20.833
					c0-9.15,2.941-16.585,8.742-22.386c5.8-5.719,13.644-8.66,23.529-8.66c2.778,0,5.556,0.245,8.252,0.654
					c2.696,0.408,5.393,1.062,8.089,1.797L428.758,162.827z"/>
				<path fill="#E2E4C9" d="M460.947,209.232c-6.535,0-11.765-2.288-15.604-6.863s-5.8-12.091-5.8-22.467
					c0-9.559,2.124-16.912,6.454-22.059s9.641-7.762,16.013-7.762c7.271,0,12.663,2.451,16.258,7.435
					c3.514,4.983,5.311,12.173,5.311,21.487c0,9.885-2.205,17.32-6.699,22.467C472.467,206.699,467.157,209.232,460.947,209.232z
					 M461.928,159.232c-3.268,0-5.882,1.552-7.843,4.739c-1.961,3.186-2.941,8.251-2.941,15.196c0,7.026,0.817,12.337,2.369,15.768
					c1.553,3.432,4.249,5.147,7.844,5.147c3.022,0,5.556-1.715,7.517-5.065c2.042-3.35,3.022-8.579,3.022-15.605
					c0-7.189-0.817-12.336-2.451-15.441C467.893,160.784,465.359,159.232,461.928,159.232z"/>
				<path fill="#E2E4C9" d="M516.585,208.497h-12.99l-16.585-44.526h12.01l7.598,20.67c1.226,3.104,2.37,7.108,3.596,11.928
					c1.062-3.677,1.715-5.964,1.96-6.863c0.245-0.899,0.817-2.533,1.716-4.984l7.68-20.67h11.356L516.585,208.497z"/>
				<path fill="#E2E4C9" d="M601.879,162.827c-2.369-0.898-4.82-1.634-7.353-2.124c-2.533-0.49-5.147-0.735-7.925-0.735
					c-5.801,0-10.539,1.797-14.135,5.311c-3.594,3.595-5.392,8.497-5.392,14.706c0,6.128,1.552,10.866,4.82,14.298
					c3.187,3.431,7.68,5.147,13.562,5.147c2.696,0,5.147-0.327,7.354-1.062v-20.098h11.111v27.533
					c-5.883,2.369-12.5,3.595-19.689,3.595c-9.15,0-16.34-2.533-21.405-7.517c-5.147-4.983-7.68-11.928-7.68-20.833
					c0-9.15,2.94-16.585,8.741-22.386c5.801-5.719,13.644-8.66,23.529-8.66c2.778,0,5.556,0.245,8.252,0.654
					c2.696,0.408,5.393,1.062,8.088,1.797L601.879,162.827z"/>
				<path fill="#E2E4C9" d="M638.644,208.497l-10.947-17.32h-0.409v17.32h-11.11v-44.363c3.268,0,6.209,0,8.823-0.082
					c2.532-0.082,4.983-0.082,7.189-0.164c5.556,0,9.886,1.062,12.908,3.187c3.023,2.124,4.494,5.311,4.494,9.559
					c0,3.268-0.98,6.046-2.941,8.17c-1.961,2.125-4.575,3.677-7.844,4.412l3.351,4.902l9.804,14.379H638.644L638.644,208.497z
					 M630.638,172.222h-3.269v11.356c0.572,0.082,1.144,0.163,1.798,0.245c0.653,0.082,1.226,0.082,1.879,0.082
					c2.124,0,3.758-0.572,5.065-1.634c1.307-1.144,1.879-2.615,1.879-4.494c0-1.797-0.653-3.104-1.961-4.085
					C634.641,172.631,632.843,172.222,630.638,172.222z"/>
				<path fill="#E2E4C9" d="M689.379,208.497l-2.696-7.761h-17.156l-2.778,7.761h-11.11l16.503-44.526h13.072l16.421,44.526H689.379
					z M680.147,182.189c-0.082-0.245-0.49-1.307-1.062-3.104c-0.572-1.879-0.98-3.023-1.062-3.513
					c-0.245,0.817-0.489,1.716-0.816,2.778s-0.735,2.288-1.226,3.595l-3.922,10.784h11.929L680.147,182.189z"/>
				<path fill="#E2E4C9" d="M737.418,208.497l-13.316-21.732c-0.654-0.98-1.308-2.206-2.043-3.676
					c-0.735-1.471-1.471-2.941-2.124-4.494v1.307c0,0.49,0,1.389,0,2.859c0,1.389,0,2.696,0,3.758v21.977h-10.457v-44.526h14.787
					l12.908,21.242c1.716,2.614,3.269,5.474,4.575,8.497v-1.634c0-0.654-0.081-1.961-0.163-4.085s-0.163-3.84-0.163-5.229v-18.791
					h10.702v44.526H737.418z"/>
				<path fill="#E2E4C9" d="M783.252,173.366v35.13h-11.111v-35.13h-11.602v-9.396h34.313v9.396H783.252z"/>
			</g>
			<g>
				<path fill="#E2E4C9" d="M387.827,133.088v-13.726l12.827-14.461c6.944-7.761,11.765-14.134,14.379-18.954
					c2.696-4.82,4.004-9.232,4.004-12.99c0-3.431-1.062-6.291-3.104-8.579c-2.043-2.206-5.147-3.35-9.232-3.35
					c-2.532,0-5.229,0.409-8.088,1.307c-2.86,0.899-5.474,2.042-7.762,3.513l-2.369-14.706c3.268-1.634,6.699-2.859,10.294-3.676
					c3.513-0.817,7.68-1.307,12.418-1.307c8.334,0,14.788,2.288,19.2,6.781c4.411,4.493,6.617,10.212,6.617,17.157
					c0,5.556-1.553,11.356-4.657,17.402c-3.104,5.964-8.251,13.154-15.44,21.405l-7.68,8.987h3.431
					c6.128,0,11.193-0.082,15.278-0.164c4.085-0.082,8.006-0.163,11.602-0.245v15.604H387.827L387.827,133.088z"/>
				<path fill="#E2E4C9" d="M481.046,134.232c-9.723,0-17.483-3.431-23.203-10.212c-5.719-6.781-8.66-17.974-8.66-33.415
					c0-14.216,3.187-25.163,9.641-32.761c6.454-7.68,14.38-11.438,23.856-11.438c10.784,0,18.873,3.676,24.102,11.111
					c5.229,7.435,7.843,18.055,7.843,31.862c0,14.625-3.268,25.735-9.886,33.415C498.121,130.392,490.196,134.232,481.046,134.232z
					 M482.435,59.967c-4.902,0-8.823,2.369-11.683,7.026c-2.859,4.657-4.33,12.173-4.33,22.549c0,10.458,1.144,18.301,3.513,23.366
					c2.369,5.147,6.291,7.68,11.683,7.68c4.494,0,8.252-2.533,11.193-7.517c3.022-5.065,4.493-12.745,4.493-23.121
					c0-10.621-1.226-18.301-3.595-22.958C491.34,62.255,487.582,59.967,482.435,59.967z"/>
				<path fill="#E2E4C9" d="M538.726,133.088V64.379L524.02,70.18l-2.451-15.441l21.978-7.19h11.928v85.621h-16.748V133.088z"/>
				<path fill="#E2E4C9" d="M587.01,134.396c-4.493,0-8.333-0.327-11.52-0.98v-14.706c1.634,0.572,3.35,0.98,5.311,1.308
					c1.961,0.327,4.412,0.49,7.517,0.49c12.418,0,20.261-5.964,23.447-17.892l1.553-6.209c-1.716,2.042-4.085,3.676-7.108,4.983
					c-3.022,1.308-6.536,1.961-10.376,1.961c-7.843,0-14.134-2.369-18.79-7.108c-4.657-4.738-6.945-11.274-6.945-19.526
					c0-8.987,2.859-16.258,8.66-21.977c5.801-5.719,13.317-8.579,22.631-8.579c9.396,0,16.83,3.023,22.304,8.987
					c5.475,5.964,8.252,15.196,8.252,27.533c0,16.994-3.84,29.902-11.602,38.644C612.582,129.984,601.471,134.396,587.01,134.396z
					 M600.49,59.967c-4.003,0-7.189,1.389-9.804,4.167c-2.533,2.778-3.84,6.209-3.84,10.294c0,4.657,1.144,8.251,3.431,10.784
					c2.288,2.533,5.475,3.84,9.641,3.84c4.004,0,7.271-1.389,9.805-4.085c2.614-2.778,3.84-5.719,3.84-8.905
					c0-5.065-1.226-8.987-3.514-11.765C607.762,61.356,604.493,59.967,600.49,59.967z"/>
			</g>
		</g>
		<g>
			<g>
				<defs>
					<path id="SVGID_7_" d="M1074.51,211.928c-182.843-50.654-358.742,10.703-484.804-72.794
						C463.644,55.637,381.373-24.347,231.536-24.51C81.781-24.673,354.494,232.843,354.494,232.843l716.503,5.719L1074.51,211.928z"
						/>
				</defs>
				<clipPath id="SVGID_8_">
					<use xlink:href="#SVGID_7_"  overflow="visible"/>
				</clipPath>
				<g clip-path="url(#SVGID_8_)">
					<g>
						<g>
							<g>
								<g>
									<path fill="#F14839" d="M775.49,99.51H667.075c-1.471,0-2.696-1.062-2.859-2.533s-0.163-3.921-0.082-6.291
										c0-0.98,0.082-1.798,0.082-2.533c0-23.285,15.522-38.889,38.644-38.889c17.483,0,31.046,8.987,37.418,24.265
										c4.004-5.474,10.131-8.823,16.667-8.823c12.582,0,21.323,8.66,21.323,20.997v10.866
										C778.35,98.203,777.043,99.51,775.49,99.51z M669.853,93.709h102.696v-7.925c0-10.539-7.843-15.196-15.604-15.196
										c-6.372,0-12.255,4.575-14.542,11.274c-0.409,1.226-1.471,2.042-2.859,1.961c-1.308-0.082-2.37-0.899-2.696-2.125
										c-4.249-16.667-16.994-26.552-34.069-26.552c-20.016,0-32.925,12.99-32.925,33.17c0,0.735,0,1.634-0.081,2.696
										C669.935,91.749,669.853,92.811,669.853,93.709z"/>
								</g>
								<g>
									<path fill="#F14839" d="M767.402,122.712c-7.925,0-14.625-5.474-17.239-13.235c-4.248,16.585-16.911,28.758-36.846,28.758
										c-20.425,0-35.785-13.154-35.785-36.029c0-2.288-0.245-6.618,0-8.415h108.334c0,3.758,0,7.843,0,10.866
										C785.866,115.931,777.614,122.712,767.402,122.712z"/>
								</g>
							</g>
						</g>
					</g>
					<g>
						<path fill="#F14839" d="M428.758,162.827c-2.369-0.898-4.82-1.634-7.353-2.124s-5.147-0.735-7.925-0.735
							c-5.801,0-10.539,1.797-14.134,5.311c-3.595,3.595-5.393,8.497-5.393,14.706c0,6.128,1.552,10.866,4.82,14.298
							c3.187,3.431,7.68,5.147,13.562,5.147c2.695,0,5.146-0.327,7.353-1.062v-20.098h11.111v27.533
							c-5.883,2.369-12.5,3.595-19.689,3.595c-9.15,0-16.34-2.533-21.405-7.517c-5.147-4.983-7.68-11.928-7.68-20.833
							c0-9.15,2.941-16.585,8.742-22.386c5.8-5.719,13.644-8.66,23.529-8.66c2.778,0,5.556,0.245,8.252,0.654
							c2.696,0.408,5.393,1.062,8.089,1.797L428.758,162.827z"/>
						<path fill="#F14839" d="M460.947,209.232c-6.535,0-11.765-2.288-15.604-6.863s-5.8-12.091-5.8-22.467
							c0-9.559,2.124-16.912,6.454-22.059s9.641-7.762,16.013-7.762c7.271,0,12.663,2.451,16.258,7.435
							c3.514,4.983,5.311,12.173,5.311,21.487c0,9.885-2.205,17.32-6.699,22.467C472.467,206.699,467.157,209.232,460.947,209.232z
							 M461.928,159.232c-3.268,0-5.882,1.552-7.843,4.739c-1.961,3.186-2.941,8.251-2.941,15.196
							c0,7.026,0.817,12.337,2.369,15.768c1.553,3.432,4.249,5.147,7.844,5.147c3.022,0,5.556-1.715,7.517-5.065
							c2.042-3.35,3.022-8.579,3.022-15.605c0-7.189-0.817-12.336-2.451-15.441C467.893,160.784,465.359,159.232,461.928,159.232z"
							/>
						<path fill="#F14839" d="M516.585,208.497h-12.99l-16.585-44.526h12.01l7.598,20.67c1.226,3.104,2.37,7.108,3.596,11.928
							c1.062-3.677,1.715-5.964,1.96-6.863c0.245-0.899,0.817-2.533,1.716-4.984l7.68-20.67h11.356L516.585,208.497z"/>
						<path fill="#F14839" d="M601.879,162.827c-2.369-0.898-4.82-1.634-7.353-2.124c-2.533-0.49-5.147-0.735-7.925-0.735
							c-5.801,0-10.539,1.797-14.135,5.311c-3.594,3.595-5.392,8.497-5.392,14.706c0,6.128,1.552,10.866,4.82,14.298
							c3.187,3.431,7.68,5.147,13.562,5.147c2.696,0,5.147-0.327,7.354-1.062v-20.098h11.111v27.533
							c-5.883,2.369-12.5,3.595-19.689,3.595c-9.15,0-16.34-2.533-21.405-7.517c-5.147-4.983-7.68-11.928-7.68-20.833
							c0-9.15,2.94-16.585,8.741-22.386c5.801-5.719,13.644-8.66,23.529-8.66c2.778,0,5.556,0.245,8.252,0.654
							c2.696,0.408,5.393,1.062,8.088,1.797L601.879,162.827z"/>
						<path fill="#F14839" d="M638.644,208.497l-10.947-17.32h-0.409v17.32h-11.11v-44.363c3.268,0,6.209,0,8.823-0.082
							c2.532-0.082,4.983-0.082,7.189-0.164c5.556,0,9.886,1.062,12.908,3.187c3.023,2.124,4.494,5.311,4.494,9.559
							c0,3.268-0.98,6.046-2.941,8.17c-1.961,2.125-4.575,3.677-7.844,4.412l3.351,4.902l9.804,14.379H638.644L638.644,208.497z
							 M630.638,172.222h-3.269v11.356c0.572,0.082,1.144,0.163,1.798,0.245c0.653,0.082,1.226,0.082,1.879,0.082
							c2.124,0,3.758-0.572,5.065-1.634c1.307-1.144,1.879-2.615,1.879-4.494c0-1.797-0.653-3.104-1.961-4.085
							C634.641,172.631,632.843,172.222,630.638,172.222z"/>
						<path fill="#F14839" d="M689.379,208.497l-2.696-7.761h-17.156l-2.778,7.761h-11.11l16.503-44.526h13.072l16.421,44.526
							H689.379z M680.147,182.189c-0.082-0.245-0.49-1.307-1.062-3.104c-0.572-1.879-0.98-3.023-1.062-3.513
							c-0.245,0.817-0.489,1.716-0.816,2.778s-0.735,2.288-1.226,3.595l-3.922,10.784h11.929L680.147,182.189z"/>
						<path fill="#F14839" d="M737.418,208.497l-13.316-21.732c-0.654-0.98-1.308-2.206-2.043-3.676
							c-0.735-1.471-1.471-2.941-2.124-4.494v1.307c0,0.49,0,1.389,0,2.859c0,1.389,0,2.696,0,3.758v21.977h-10.457v-44.526h14.787
							l12.908,21.242c1.716,2.614,3.269,5.474,4.575,8.497v-1.634c0-0.654-0.081-1.961-0.163-4.085s-0.163-3.84-0.163-5.229v-18.791
							h10.702v44.526H737.418z"/>
						<path fill="#F14839" d="M783.252,173.366v35.13h-11.111v-35.13h-11.602v-9.396h34.313v9.396H783.252z"/>
					</g>
					<g>
						<path fill="#F14839" d="M387.827,133.088v-13.726l12.827-14.461c6.944-7.761,11.765-14.134,14.379-18.954
							c2.696-4.82,4.004-9.232,4.004-12.99c0-3.431-1.062-6.291-3.104-8.579c-2.043-2.206-5.147-3.35-9.232-3.35
							c-2.532,0-5.229,0.409-8.088,1.307c-2.86,0.899-5.474,2.042-7.762,3.513l-2.369-14.706c3.268-1.634,6.699-2.859,10.294-3.676
							c3.513-0.817,7.68-1.307,12.418-1.307c8.334,0,14.788,2.288,19.2,6.781c4.411,4.493,6.617,10.212,6.617,17.157
							c0,5.556-1.553,11.356-4.657,17.402c-3.104,5.964-8.251,13.154-15.44,21.405l-7.68,8.987h3.431
							c6.128,0,11.193-0.082,15.278-0.164c4.085-0.082,8.006-0.163,11.602-0.245v15.604H387.827L387.827,133.088z"/>
						<path fill="#F14839" d="M481.046,134.232c-9.723,0-17.483-3.431-23.203-10.212c-5.719-6.781-8.66-17.974-8.66-33.415
							c0-14.216,3.187-25.163,9.641-32.761c6.454-7.68,14.38-11.438,23.856-11.438c10.784,0,18.873,3.676,24.102,11.111
							c5.229,7.435,7.843,18.055,7.843,31.862c0,14.625-3.268,25.735-9.886,33.415C498.121,130.392,490.196,134.232,481.046,134.232
							z M482.435,59.967c-4.902,0-8.823,2.369-11.683,7.026c-2.859,4.657-4.33,12.173-4.33,22.549
							c0,10.458,1.144,18.301,3.513,23.366c2.369,5.147,6.291,7.68,11.683,7.68c4.494,0,8.252-2.533,11.193-7.517
							c3.022-5.065,4.493-12.745,4.493-23.121c0-10.621-1.226-18.301-3.595-22.958C491.34,62.255,487.582,59.967,482.435,59.967z"/>
						<path fill="#F14839" d="M538.726,133.088V64.379L524.02,70.18l-2.451-15.441l21.978-7.19h11.928v85.621h-16.748V133.088z"/>
						<path fill="#F14839" d="M587.01,134.396c-4.493,0-8.333-0.327-11.52-0.98v-14.706c1.634,0.572,3.35,0.98,5.311,1.308
							c1.961,0.327,4.412,0.49,7.517,0.49c12.418,0,20.261-5.964,23.447-17.892l1.553-6.209c-1.716,2.042-4.085,3.676-7.108,4.983
							c-3.022,1.308-6.536,1.961-10.376,1.961c-7.843,0-14.134-2.369-18.79-7.108c-4.657-4.738-6.945-11.274-6.945-19.526
							c0-8.987,2.859-16.258,8.66-21.977c5.801-5.719,13.317-8.579,22.631-8.579c9.396,0,16.83,3.023,22.304,8.987
							c5.475,5.964,8.252,15.196,8.252,27.533c0,16.994-3.84,29.902-11.602,38.644C612.582,129.984,601.471,134.396,587.01,134.396z
							 M600.49,59.967c-4.003,0-7.189,1.389-9.804,4.167c-2.533,2.778-3.84,6.209-3.84,10.294c0,4.657,1.144,8.251,3.431,10.784
							c2.288,2.533,5.475,3.84,9.641,3.84c4.004,0,7.271-1.389,9.805-4.085c2.614-2.778,3.84-5.719,3.84-8.905
							c0-5.065-1.226-8.987-3.514-11.765C607.762,61.356,604.493,59.967,600.49,59.967z"/>
					</g>
				</g>
			</g>
		</g>
	</g>
	<g>
		<path fill="#E2E4C9" d="M390.719,322.693h5.609v-16.51h-4.728v-3.211c2.611-0.493,4.41-1.164,6.068-2.187h3.846v21.907h4.903
			v4.198h-15.699V322.693z"/>
		<path fill="#E2E4C9" d="M410.122,323.893c7.091-6.35,11.289-11.253,11.289-15.275c0-2.646-1.446-4.233-3.915-4.233
			c-1.905,0-3.493,1.235-4.799,2.682l-2.822-2.822c2.399-2.54,4.728-3.951,8.291-3.951c4.938,0,8.22,3.175,8.22,8.043
			c0,4.728-3.916,9.808-8.679,14.465c1.306-0.142,3.034-0.283,4.233-0.283h5.68v4.375h-17.498V323.893z"/>
		<path fill="#E2E4C9" d="M431.887,323.999c0-1.905,1.376-3.387,3.21-3.387c1.87,0,3.246,1.481,3.246,3.387
			c0,1.904-1.376,3.387-3.246,3.387C433.263,327.386,431.887,325.903,431.887,323.999z"/>
		<path fill="#E2E4C9" d="M443.74,322.693h5.609v-16.51h-4.728v-3.211c2.611-0.493,4.41-1.164,6.068-2.187h3.845v21.907h4.904v4.198
			H443.74V322.693z"/>
		<path fill="#E2E4C9" d="M463.177,313.732c0-9.031,3.528-13.44,8.855-13.44c5.292,0,8.819,4.445,8.819,13.44
			c0,8.996-3.527,13.653-8.819,13.653C466.706,327.386,463.177,322.729,463.177,313.732z M475.949,313.732
			c0-7.302-1.693-9.419-3.916-9.419c-2.258,0-3.951,2.117-3.951,9.419c0,7.338,1.693,9.596,3.951,9.596
			C474.255,323.328,475.949,321.07,475.949,313.732z"/>
		<path fill="#E2E4C9" d="M484.131,314.933h9.631v3.704h-9.631V314.933z"/>
		<path fill="#E2E4C9" d="M498.348,322.693h5.609v-16.51h-4.728v-3.211c2.611-0.493,4.41-1.164,6.068-2.187h3.846v21.907h4.903
			v4.198h-15.699V322.693z"/>
		<path fill="#E2E4C9" d="M518.739,323.999c0-1.905,1.376-3.387,3.21-3.387c1.87,0,3.246,1.481,3.246,3.387
			c0,1.904-1.376,3.387-3.246,3.387C520.115,327.386,518.739,325.903,518.739,323.999z"/>
		<path fill="#E2E4C9" d="M530.591,322.693h5.609v-16.51h-4.728v-3.211c2.611-0.493,4.41-1.164,6.068-2.187h3.845v21.907h4.904
			v4.198h-15.699V322.693z"/>
		<path fill="#E2E4C9" d="M549.393,323.752l2.435-3.281c1.552,1.518,3.457,2.682,5.82,2.682c2.646,0,4.445-1.306,4.445-3.634
			c0-2.575-1.517-4.163-7.196-4.163v-3.739c4.798,0,6.35-1.658,6.35-3.986c0-2.047-1.27-3.246-3.492-3.281
			c-1.87,0.035-3.387,0.917-4.939,2.328l-2.646-3.175c2.258-1.976,4.763-3.21,7.832-3.21c5.045,0,8.467,2.469,8.467,6.949
			c0,2.822-1.588,4.869-4.375,5.963v0.176c2.964,0.812,5.222,2.999,5.222,6.421c0,4.798-4.198,7.585-9.173,7.585
			C554.015,327.386,551.228,325.833,549.393,323.752z"/>
		<path fill="#E2E4C9" d="M584.211,310.84v19.121h-4.093v-31.609h13.582v12.488H584.211z M584.211,301.351v1.799h5.538v-1.799
			H584.211z M589.75,307.806v-1.939h-5.538v1.939H589.75z M600.086,322.023v7.267h-3.669v-7.267h-3.387
			c-0.353,2.434-1.518,5.856-4.516,7.902c-0.6-0.741-1.87-1.835-2.682-2.399c2.258-1.411,3.246-3.704,3.599-5.503h-3.563v-3.422
			h3.705v-2.646h-3.211v-3.315h17.04v3.315h-3.316v2.646h3.88v3.422H600.086z M596.417,318.602v-2.646h-3.281v2.646H596.417z
			 M609.859,325.058c0,2.151-0.389,3.315-1.658,3.986c-1.271,0.705-3.105,0.811-5.787,0.811c-0.141-1.164-0.705-3.068-1.27-4.162
			c1.588,0.07,3.316,0.07,3.846,0.035c0.564,0,0.74-0.212,0.74-0.706V310.91h-9.702v-12.559h13.831V325.058z M600.016,301.351v1.799
			h5.714v-1.799H600.016z M605.73,307.877v-2.011h-5.714v2.011H605.73z"/>
		<path fill="#E2E4C9" d="M644.078,307.276c-0.742,5.116-1.977,9.455-3.881,13.019c1.764,2.54,4.021,4.516,6.949,5.855
			c-0.953,0.847-2.258,2.47-2.893,3.599c-2.682-1.411-4.834-3.316-6.598-5.68c-1.939,2.398-4.373,4.375-7.479,5.962
			c-0.354-0.917-1.553-2.787-2.328-3.669c3.246-1.481,5.715-3.492,7.549-6.032c-1.094-2.188-1.904-4.622-2.645-7.268
			c-0.6,1.094-1.236,2.011-1.941,2.893c-0.494-0.67-1.553-1.834-2.469-2.716c-0.178,9.807-0.354,13.617-1.234,14.816
			c-0.707,0.988-1.342,1.341-2.365,1.553c-0.916,0.141-2.293,0.176-3.773,0.141c-0.105-1.164-0.494-2.752-1.094-3.81
			c1.129,0.07,2.152,0.105,2.717,0.105c0.422,0,0.705-0.105,0.986-0.529c0.459-0.776,0.672-3.739,0.812-11.994h-2.963
			c-0.037,5.573-0.812,11.43-5.188,16.263c-0.67-0.917-2.045-2.046-3.068-2.752c3.775-4.374,4.305-9.419,4.305-13.97v-6.809h-3.459
			v-3.881h6.809c-0.281-1.341-0.916-3.175-1.445-4.586l3.703-0.882c0.637,1.446,1.342,3.387,1.693,4.621l-2.893,0.847h7.691v3.881
			h-8.148v3.457h6.984c0,0,0,1.199-0.035,1.693v0.282c2.574-3.562,4.197-8.996,5.045-14.676l4.268,0.67
			c-0.316,1.94-0.705,3.881-1.199,5.716h10.23v3.88H644.078z M635.258,307.418c0.6,3.069,1.412,5.962,2.504,8.502
			c1.023-2.505,1.73-5.362,2.188-8.644h-4.621L635.258,307.418z"/>
		<path fill="#E2E4C9" d="M662.951,299.304c-2.576,5.786-6.703,11.748-10.514,15.452c-0.811-0.917-2.682-2.752-3.74-3.599
			c3.74-3.14,7.445-8.255,9.561-13.37L662.951,299.304z M672.828,315.497c2.857,3.88,6.104,8.89,7.832,12.171l-4.34,2.293
			c-0.459-1.023-1.094-2.188-1.834-3.457c-17.039,1.34-19.438,1.552-21.166,2.187c-0.283-0.882-1.094-3.245-1.73-4.48
			c1.166-0.317,2.117-1.27,3.529-2.822c1.48-1.517,5.891-7.514,8.678-13.37l4.904,2.046c-2.717,4.763-6.104,9.49-9.525,13.301
			l12.947-0.848c-1.129-1.764-2.293-3.598-3.387-5.15L672.828,315.497z M673.498,297.857c1.518,4.939,4.729,9.913,9.066,12.56
			c-0.951,0.917-2.469,2.928-3.174,4.233c-4.021-3.069-7.162-7.797-9.137-12.454h-5.645v-4.339H673.498z"/>
		<path fill="#E2E4C9" d="M690.043,310.84v19.121h-4.092v-31.609h13.582v12.488H690.043z M690.043,301.351v1.799h5.539v-1.799
			H690.043z M695.582,307.806v-1.939h-5.539v1.939H695.582z M705.918,322.023v7.267h-3.668v-7.267h-3.387
			c-0.354,2.434-1.518,5.856-4.516,7.902c-0.6-0.741-1.871-1.835-2.682-2.399c2.258-1.411,3.246-3.704,3.598-5.503h-3.562v-3.422
			h3.705v-2.646h-3.211v-3.315h17.039v3.315h-3.316v2.646h3.881v3.422H705.918z M702.25,318.602v-2.646h-3.281v2.646H702.25z
			 M715.691,325.058c0,2.151-0.389,3.315-1.658,3.986c-1.271,0.705-3.105,0.811-5.787,0.811c-0.141-1.164-0.705-3.068-1.27-4.162
			c1.588,0.07,3.316,0.07,3.846,0.035c0.564,0,0.74-0.212,0.74-0.706V310.91h-9.701v-12.559h13.83V325.058z M705.848,301.351v1.799
			h5.715v-1.799H705.848z M711.562,307.877v-2.011h-5.715v2.011H711.562z"/>
		<path fill="#E2E4C9" d="M727.262,316.837v8.221c0,1.939-0.318,2.963-1.377,3.598c-1.059,0.706-2.611,0.847-4.869,0.812
			c-0.105-1.022-0.564-2.752-1.092-3.845c1.305,0.035,2.504,0.035,2.928,0c0.422,0,0.6-0.142,0.6-0.601v-7.056
			c-1.164,0.318-2.223,0.636-3.246,0.918l-0.953-4.058c1.199-0.247,2.611-0.635,4.199-1.022v-6.244h-3.811v-3.881h3.811v-6.668
			h3.811v6.668h3.527v3.881h-3.527v5.221l3.174-0.847l0.564,3.774L727.262,316.837z M743.312,325.728
			c0.811,0.07,1.588,0.105,2.469,0.105c1.199,0,5.574,0,7.092-0.035c-0.494,0.847-0.988,2.61-1.129,3.669h-6.139
			c-4.621,0-8.184-0.847-10.584-5.115c-0.916,2.223-2.152,4.093-3.703,5.539c-0.635-0.671-2.223-1.976-3.07-2.505
			c2.928-2.328,4.375-6.244,4.904-11.042l3.811,0.458c-0.178,1.271-0.389,2.47-0.67,3.563c0.775,2.046,1.799,3.316,3.068,4.128
			v-9.208h-8.291v-3.387h20.85v3.387h-8.607v3.104h6.738v3.281h-6.738V325.728z M750.156,310.275h-17.357v-12.171h17.357V310.275z
			 M746.135,301.032h-9.49v1.765h9.49V301.032z M746.135,305.513h-9.49v1.8h9.49V305.513z"/>
		<path fill="#E2E4C9" d="M787.338,322.059h-8.148c2.752,1.376,6.104,3.316,7.938,4.798l-3.281,2.928
			c-1.869-1.693-5.82-4.127-8.889-5.715l2.398-2.011h-4.057v7.902H769.1v-7.902h-5.926l4.127,1.376
			c-2.047,2.398-5.504,4.586-8.502,5.927c-0.812-0.812-2.541-2.117-3.527-2.787c2.998-0.988,6.139-2.682,7.76-4.516h-7.689v-3.457
			H769.1v-2.435h4.199v2.435h14.039V322.059z M783,317.755c-2.506-1.023-5.998-2.047-10.02-3.034
			c-3.951,1.623-9.207,2.363-16.158,2.752c-0.316-1.271-0.846-2.575-1.445-3.458c4.057-0.105,7.479-0.388,10.371-0.882
			c-1.975-0.388-3.951-0.74-6.031-1.058c0.916-0.812,1.939-1.8,2.928-2.894h-7.021v-3.28h9.914c0.846-1.059,1.588-2.082,2.223-3.069
			h-7.656v1.94h-3.881v-5.398h12.525c-0.248-0.528-0.494-1.022-0.742-1.481l4.445-0.882c0.459,0.67,0.953,1.553,1.377,2.363h12.594
			v5.398h-4.057v-1.94h-12.947l2.539,0.776c-0.564,0.74-1.129,1.517-1.799,2.293h6.809c0.318-0.671,0.6-1.411,0.848-2.152
			l4.092,0.812c-0.141,0.458-0.318,0.917-0.494,1.341h5.539v3.28h-7.197c-0.775,1.2-1.693,2.223-2.682,3.034
			c3.811,0.917,7.268,1.905,9.914,2.822L783,317.755z M767.09,309.182c-0.283,0.317-0.564,0.6-0.883,0.882
			c1.939,0.318,3.916,0.706,5.785,1.094c1.023-0.564,1.941-1.199,2.717-1.976H767.09z"/>
		<path fill="#E2E4C9" d="M416.649,363.243c-0.105,1.481-0.177,2.716-0.282,3.845h3.951v3.669h-4.374
			c-0.247,1.482-0.529,2.364-0.918,2.894c-0.775,1.129-1.729,1.481-2.928,1.657c-1.129,0.177-2.928,0.177-4.692,0.071
			c-0.035-0.917-0.493-2.293-1.022-3.211c1.587,0.142,2.963,0.177,3.704,0.142c0.6,0,0.917-0.07,1.234-0.564
			c0.142-0.212,0.282-0.494,0.424-0.988h-18.98c0.424-2.081,0.848-4.727,1.271-7.514h-4.868v-3.74h5.397
			c0.282-2.116,0.529-4.304,0.741-6.244c-0.883,1.059-1.729,2.082-2.611,2.964c-0.882-0.671-2.716-1.905-3.774-2.435
			c3.245-2.716,6.314-7.161,8.114-11.5l4.162,1.199c-0.317,0.705-0.67,1.446-1.022,2.188h20.355v3.739h-22.543
			c-0.6,0.952-1.199,1.834-1.835,2.716h20.885c0,0-0.035,1.341-0.035,1.835c-0.07,2.046-0.141,3.845-0.211,5.538h5.08v3.74H416.649z
			 M398.234,363.102c-0.212,1.411-0.389,2.717-0.6,3.986h7.726c-1.234-0.952-2.787-1.94-4.198-2.61l1.411-1.376H398.234z
			 M399.186,355.799c-0.141,1.271-0.317,2.54-0.493,3.846h7.02c-1.234-0.917-2.716-1.835-4.092-2.435l1.446-1.411H399.186z
			 M412.275,367.088c0.07-1.129,0.176-2.398,0.246-3.986h-7.338c1.623,0.882,3.176,1.94,4.128,2.787l-1.199,1.199H412.275z
			 M412.663,359.645c0.07-1.199,0.105-2.435,0.142-3.846h-7.162c1.553,0.812,3.069,1.835,4.021,2.646l-1.199,1.199H412.663z"/>
		<path fill="#E2E4C9" d="M434.64,343.734c-0.776,2.222-1.693,4.479-2.752,6.702v25.013h-3.986v-18.062
			c-0.776,1.094-1.553,2.116-2.363,3.034c-0.318-1.023-1.341-3.493-1.976-4.551c2.928-3.211,5.608-8.256,7.196-13.336
			L434.64,343.734z M456.195,344.263v30.799h-3.986v-1.729h-13.265v2.046h-3.81v-31.116H456.195z M452.208,369.699v-21.803h-13.265
			v21.803H452.208z M447.128,355.271v3.033h3.387v9.455h-9.771v-9.455h3.14v-3.033h-4.058v-3.034h4.058v-3.599h3.245v3.599h4.269
			v3.034H447.128z M447.375,361.196h-3.599v3.705h3.599V361.196z"/>
		<path fill="#E2E4C9" d="M492.072,367.935h-7.867v3.422c0,1.94-0.353,2.929-1.799,3.493c-1.411,0.529-3.387,0.564-6.067,0.564
			c-0.177-1.129-0.706-2.61-1.2-3.669c1.693,0.07,3.705,0.07,4.27,0.07c0.564-0.035,0.74-0.141,0.74-0.6v-3.281H470.2
			c1.481,1.059,2.963,2.293,3.774,3.246l-3.104,2.681c-1.022-1.376-3.387-3.387-5.292-4.691l1.482-1.235h-7.056v-3.315h20.144
			v-1.306c-6.949,0.141-13.617,0.247-18.557,0.282l-0.105-2.999c3.316,0.035,7.655,0,12.418,0v-1.27h-10.16v-10.16h10.16v-1.271
			h-12.947v-3.175h12.947v-2.223h4.092v2.223h12.877v3.175h-12.877v1.271h10.654v10.16h-2.363c1.764,0.917,3.422,1.976,4.551,2.822
			l-2.575,2.152c-0.424-0.354-0.917-0.776-1.481-1.165l-2.576,0.071v1.411h7.867V367.935z M467.66,353.013h6.244v-1.306h-6.244
			V353.013z M473.904,356.752v-1.341h-6.244v1.341H473.904z M477.996,351.707v1.306h6.562v-1.306H477.996z M484.558,356.752v-1.341
			h-6.562v1.341H484.558z M477.996,360.562l4.445-0.035c-0.494-0.212-0.987-0.459-1.446-0.635l0.706-0.564h-3.705V360.562z"/>
		<path fill="#E2E4C9" d="M527.349,367.512h-8.148c2.751,1.376,6.103,3.316,7.938,4.798l-3.281,2.928
			c-1.87-1.693-5.821-4.127-8.891-5.715l2.399-2.011h-4.057v7.902h-4.198v-7.902h-5.927l4.127,1.376
			c-2.046,2.398-5.503,4.586-8.502,5.927c-0.812-0.812-2.54-2.117-3.527-2.787c2.998-0.988,6.138-2.682,7.761-4.516h-7.69v-3.457
			h13.759v-2.435h4.198v2.435h14.04V367.512z M523.01,363.208c-2.505-1.023-5.997-2.047-10.019-3.034
			c-3.951,1.623-9.208,2.363-16.158,2.752c-0.317-1.271-0.847-2.575-1.446-3.458c4.058-0.105,7.479-0.388,10.372-0.882
			c-1.976-0.388-3.951-0.74-6.033-1.058c0.918-0.812,1.94-1.8,2.929-2.894h-7.021v-3.28h9.913c0.847-1.059,1.588-2.082,2.223-3.069
			h-7.655v1.94h-3.881v-5.398h12.523c-0.246-0.528-0.493-1.022-0.74-1.481l4.445-0.882c0.458,0.67,0.952,1.553,1.375,2.363h12.595
			v5.398h-4.057v-1.94h-12.947l2.54,0.776c-0.564,0.74-1.129,1.517-1.799,2.293h6.809c0.317-0.671,0.6-1.411,0.847-2.152
			l4.092,0.812c-0.141,0.458-0.317,0.917-0.494,1.341h5.539v3.28h-7.196c-0.776,1.2-1.693,2.223-2.682,3.034
			c3.811,0.917,7.268,1.905,9.913,2.822L523.01,363.208z M507.1,354.635c-0.282,0.317-0.564,0.6-0.882,0.882
			c1.939,0.318,3.915,0.706,5.785,1.094c1.023-0.564,1.94-1.199,2.717-1.976H507.1z"/>
		<path fill="#E2E4C9" d="M552.607,368.253c3.774,1.27,8.043,2.822,10.548,3.915l-1.905,3.281
			c-3.068-1.517-9.349-3.916-13.758-5.433l1.094-1.764h-1.059c-1.658,2.963-5.786,5.855-15.17,7.373
			c-0.494-0.988-1.552-2.47-2.328-3.387c6.35-0.953,9.948-2.399,11.959-3.986h-11.783v-3.458h14.147
			c0.035-0.317,0.07-0.635,0.07-0.952v-2.328h4.163v2.469c0,0.282,0,0.529-0.035,0.812h6.138c-0.74-0.635-1.587-1.27-2.328-1.764
			l1.271-1.199h-1.341c-0.142-0.953-0.6-2.117-1.023-3.034c1.129,0.07,2.435,0.07,2.822,0.07c0.388-0.035,0.494-0.141,0.494-0.494
			v-2.046h-5.856c0.917,0.706,1.835,1.446,2.328,2.117l-2.751,2.081c-0.671-0.917-2.152-2.258-3.458-3.104l1.447-1.094h-3.493
			v-2.716h1.376c-0.353-0.706-0.917-1.482-1.376-1.976c3.175-0.317,6.209-0.953,8.819-1.976c-0.775-0.883-1.869-1.905-2.928-2.752
			c-1.129,0.423-2.435,0.847-3.811,1.234c-0.423-0.74-1.375-1.869-2.046-2.363c4.233-0.847,7.409-2.082,9.243-3.457l3.457,0.705
			c-0.494,0.424-0.987,0.812-1.517,1.199h4.903l0.671-0.105l2.151,1.094c-1.552,2.822-4.021,4.763-7.021,6.139h3.846v2.258h3.986
			v2.716h-3.986v2.188c0,1.658-0.317,2.399-1.481,2.893c-0.494,0.212-1.129,0.317-1.87,0.389c1.059,0.705,2.117,1.517,2.752,2.187
			l-0.812,0.812h5.856v3.458H552.607z M536.061,356.152c0,1.657-0.493,5.115-2.822,7.056c-0.705-0.564-2.223-1.411-3.175-1.8
			c1.905-1.481,2.293-3.951,2.328-5.256h-1.976v-3.246h7.515v-1.94h-6.139v-7.62h3.492v4.445h2.646v-5.257h3.81v20.109h-3.81v-6.491
			H536.061z M549.22,350.084c-1.729,0.177-3.352,0.353-4.939,0.529l-0.353-2.116c1.481-0.106,3.21-0.247,5.257-0.389L549.22,350.084
			z M554.583,353.612v-2.188c-2.223,0.987-4.692,1.693-7.338,2.188H554.583z M551.901,346.485c0.776,0.636,1.553,1.376,2.223,2.047
			c1.023-0.6,1.94-1.271,2.682-2.047H551.901z"/>
		<path fill="#E2E4C9" d="M597.198,351.919c-0.317,14.464-0.635,19.649-1.8,21.272c-0.811,1.199-1.657,1.588-2.928,1.799
			c-1.129,0.212-2.963,0.177-4.798,0.106c-0.07-1.129-0.494-2.893-1.234-3.986c1.729,0.105,3.315,0.141,4.092,0.141
			c0.564,0,0.917-0.105,1.235-0.6c0.811-0.952,1.129-5.327,1.34-16.651h-3.739c-0.529,9.313-2.435,16.722-9.243,21.414
			c-0.635-1.023-1.939-2.435-2.928-3.175c1.729-1.164,3.104-2.47,4.163-3.986c-5.397,1.34-11.184,2.681-15.487,3.704l-0.67-4.305
			c0.705-0.141,1.552-0.282,2.434-0.458V343.91h12.242v20.779l1.517-0.317l0.388,3.316c2.364-3.67,3.211-8.221,3.528-13.688h-4.48
			v-3.951h4.621c0.035-2.399,0.035-4.903,0.035-7.585h4.128c0,2.646,0,5.186-0.07,7.585h7.655V351.919z M571.338,347.686v3.562
			h4.657v-3.562H571.338z M575.996,354.917h-4.657v3.634h4.657V354.917z M571.338,366.488c1.481-0.282,3.034-0.635,4.657-0.952
			v-3.316h-4.657V366.488z"/>
		<path fill="#E2E4C9" d="M608.414,369.205l2.436-3.281c1.551,1.518,3.457,2.682,5.82,2.682c2.646,0,4.445-1.306,4.445-3.634
			c0-2.575-1.518-4.163-7.197-4.163v-3.739c4.799,0,6.35-1.658,6.35-3.986c0-2.047-1.27-3.246-3.492-3.281
			c-1.869,0.035-3.387,0.917-4.939,2.328l-2.645-3.175c2.258-1.976,4.762-3.21,7.832-3.21c5.045,0,8.467,2.469,8.467,6.949
			c0,2.822-1.588,4.869-4.375,5.963v0.176c2.963,0.812,5.221,2.999,5.221,6.421c0,4.798-4.197,7.585-9.172,7.585
			C613.037,372.839,610.25,371.286,608.414,369.205z"/>
		<path fill="#E2E4C9" d="M629.828,359.186c0-9.031,3.527-13.44,8.854-13.44c5.293,0,8.82,4.445,8.82,13.44
			c0,8.996-3.527,13.653-8.82,13.653C633.355,372.839,629.828,368.182,629.828,359.186z M642.598,359.186
			c0-7.302-1.693-9.419-3.916-9.419c-2.258,0-3.951,2.117-3.951,9.419c0,7.338,1.693,9.596,3.951,9.596
			C640.904,368.781,642.598,366.523,642.598,359.186z"/>
		<path fill="#E2E4C9" d="M650.781,360.386h9.631v3.704h-9.631V360.386z"/>
		<path fill="#E2E4C9" d="M663.021,369.275l2.4-3.316c1.48,1.446,3.316,2.646,5.75,2.646c2.717,0,4.621-1.729,4.621-4.798
			c0-3.034-1.764-4.728-4.41-4.728c-1.553,0-2.398,0.388-3.916,1.376l-2.363-1.553l0.705-12.664h13.971v4.339h-9.49l-0.494,5.538
			c1.023-0.493,1.941-0.74,3.141-0.74c4.375,0,8.043,2.61,8.043,8.29c0,5.821-4.303,9.173-9.137,9.173
			C667.715,372.839,664.963,371.216,663.021,369.275z"/>
		<path fill="#E2E4C9" d="M684.436,359.186c0-9.031,3.527-13.44,8.855-13.44c5.291,0,8.818,4.445,8.818,13.44
			c0,8.996-3.527,13.653-8.818,13.653C687.963,372.839,684.436,368.182,684.436,359.186z M697.207,359.186
			c0-7.302-1.693-9.419-3.916-9.419c-2.258,0-3.951,2.117-3.951,9.419c0,7.338,1.693,9.596,3.951,9.596
			C695.514,368.781,697.207,366.523,697.207,359.186z"/>
		<path fill="#E2E4C9" d="M720.912,347.686h-7.338v-3.423h7.338v-1.799h4.127v1.799h3.705v3.423h-3.705v1.517h-4.127V347.686z
			 M743.736,371.675c0,1.693-0.281,2.575-1.375,3.14c-1.023,0.564-2.506,0.6-4.375,0.6c-0.141-0.847-0.459-1.835-0.848-2.717
			l-1.729,0.459c-0.07-0.529-0.211-1.129-0.422-1.764c-5.01,0.353-10.16,0.635-13.9,0.882l-0.318-3.528
			c1.766-0.07,4.023-0.176,6.457-0.282v-2.681h-7.938v9.561h-4.021v-9.561h-1.342v-3.352h1.342v-0.988h4.021v0.988h7.938v-1.481
			h-9.736v-11.219h23.777v11.219h-10.02v1.481h12.488V371.675z M721.512,354.07h5.715v-1.622h-5.715V354.07z M727.227,358.233
			v-1.588h-5.715v1.588H727.227z M745.006,344.263v3.423h-7.514v1.517h-4.127v-1.517h-3.492v-3.423h3.492v-1.799h4.127v1.799
			H745.006z M737.033,352.448h-5.785v1.622h5.785V352.448z M737.033,356.646h-5.785v1.588h5.785V356.646z M733.787,368.146
			c-0.246-0.564-0.527-1.129-0.811-1.623l2.963-0.74h-4.691v2.505L733.787,368.146z M739.186,372.062
			c0.354,0,0.459-0.105,0.459-0.459v-5.82h-3.527c1.129,1.94,2.15,4.516,2.504,6.279H739.186z"/>
	</g>
</g>
</svg>
