<svg enable-background="new 0 0 539 612" viewBox="0 0 539 612" xmlns="http://www.w3.org/2000/svg" xmlns:xlink="http://www.w3.org/1999/xlink"><clipPath id="a"><path d="m0-1213h1929v1097h-1929z"/></clipPath><clipPath id="b"><path d="m684-4h1929v1097h-1929z"/></clipPath><clipPath id="c"><path d="m850.3 259.4c-223.8-62-439.1 13.1-593.4-89.1s-255-200.1-438.4-200.3c-183.3-.2 150.5 315 150.5 315l877 7z"/></clipPath><path clip-path="url(#a)" d="m1277 611s-64.1-67.7-87.7-219-43.2-304.6-246-417.9-429.7-91.4-555.3-227.2-200.4-254.9-378.5-298.6-292.2-25.6-369.2-101l-18 83.3 883.5 833.4z" fill="#167b87"/><g clip-path="url(#a)"><image height="891" opacity=".55" overflow="visible" transform="translate(-574.2378 -441.2378)" width="1941" xlink:href="1900BD3F76788E0E.png"/><path d="m1329.1 411.9s-245.6-107.4-304.4-248.8c-58.8-141.4-80.2-234.3-304-296.2s-305.8 18.4-460.1-83.7-255.1-200.2-438.4-200.4-290 44.4-382.6-10.6l2.3 85.2 1055.9 600.3z" fill="#165969"/></g><path clip-path="url(#b)" d="m1961 1820s-64.1-67.7-87.7-219-43.2-304.6-246-417.9-429.7-91.4-555.3-227.2-200.4-254.9-378.5-298.6-292.2-25.6-369.2-101l-18 83.3 883.5 833.4z" fill="#167b87"/><path d="m40.4 277.2c-4 9-10.5 18.4-16.4 24.2-1.3-1.4-4.2-4.3-5.8-5.6 5.8-4.9 11.6-12.9 14.9-20.9zm15.4 25.3c4.5 6.1 9.5 13.9 12.2 19l-6.8 3.6c-.7-1.6-1.7-3.4-2.9-5.4-26.6 2.1-30.4 2.4-33.1 3.4-.4-1.4-1.7-5.1-2.7-7 1.8-.5 3.3-2 5.5-4.4 2.3-2.4 9.2-11.7 13.6-20.9l7.7 3.2c-4.2 7.4-9.5 14.8-14.9 20.8l20.2-1.3c-1.8-2.8-3.6-5.6-5.3-8.1zm1.1-27.6c2.4 7.7 7.4 15.5 14.2 19.6-1.5 1.4-3.9 4.6-5 6.6-6.3-4.8-11.2-12.2-14.3-19.5h-8.8v-6.8h13.9z" fill="#f14839"/><path d="m107.9 306.4c2.4 6.8 6 11.6 9 11.6 1.4 0 1.9-2.3 2.3-7.8 1.5 1.3 3.9 2.5 5.7 3.1-.9 9.2-3.3 11.2-8.3 11.2-6.9 0-12.7-7.6-15.7-18.1h-14.4v10.3l13.1-2.8c.1 1.9.4 4.7.7 6.2-16.2 3.8-18.9 4.3-20.6 5.2-.4-1.7-1.9-4.5-2.9-5.8 1.2-.8 2.8-2.3 2.8-4.7v-38.8h40.1v18h-14.4c.2 2.2.5 4.2.9 6.2h17.4v6.1h-15.7zm-21.4-24.2v5.8h26.6v-5.8zm12.9 18c-.4-2-.7-4.1-.8-6.2h-12.1v6.2z" fill="#f14839"/><path d="m147 308.8c-.7-1.5-2-3.9-3.3-6.1v22.4h-6.3v-19.9c-1.8 4.2-3.9 8.2-6 10.9-.6-1.9-2-4.6-3-6.2 3.1-3.5 6.2-9.4 8.2-14.8h-7.6v-6.1h8.3v-6.2c-2.2.3-4.2.7-6.2.9-.2-1.5-1-3.6-1.8-5.1 6.3-.9 13.2-2.6 17.8-4.5l3.7 5.3c-2.2.8-4.6 1.5-7.1 2v7.6h7.3v6.1h-7.3v.4c1.6 1.5 6.1 6.7 7.2 8zm27.2 2.4v13.9h-6.5v-12.7l-16.7 2.9-1-6.2 17.7-3v-32.3h6.5v31.2l5.5-.9 1 6.1zm-13.9-7.7c-1.7-2.4-5.6-6-8.8-8.4l4.2-3.8c3.1 2.2 7.2 5.6 9 8zm1.5-14.6c-1.5-2.4-5.1-5.9-8.2-8.3l4.3-3.8c3 2.3 6.8 5.5 8.5 7.9z" fill="#f14839"/><path d="m203.2 303.1c-1.9.6-3.9 1.1-5.9 1.6v13.2c0 3.2-.6 4.7-2.5 5.8-1.8 1-4.5 1.2-8.3 1.2-.3-1.7-1.1-4.2-1.9-6 2.2.1 4.4.1 5.1.1.8 0 1-.3 1-1.1v-11.4l-5.3 1.3-1.7-6.2c2-.4 4.4-.9 7.1-1.6v-9.8h-6.3v-6.1h6.3v-10.5h6.5v10.5h5.4v6.1h-5.4v8.2l5.1-1.3zm30.6-7.5c-2.1 7.7-5.6 13.7-10.3 18.3 3.6 2.5 7.8 4.4 12.7 5.6-1.4 1.3-3.3 4-4.2 5.7-5.3-1.6-9.9-3.9-13.7-6.9-4.3 3-9.2 5.2-14.5 6.8-.7-1.8-2.3-4.5-3.5-6 4.9-1.2 9.3-2.9 13.2-5.4-3.3-3.7-5.8-8.1-7.8-13.1l1.7-.5h-2.9v-5.9h10.9v-6.6h-11.9v-6.1h11.9v-7.9h6.5v7.9h12.4v6.1h-12.4v6.6h6.6l1.2-.3zm-21.8 4.4c1.5 3.6 3.8 6.9 6.5 9.8 2.9-2.8 5.2-6 6.9-9.8z" fill="#f14839"/><path d="m250.6 289.1v-2.1c-1.9 1.4-3.9 2.8-5.9 4h23.3v17.3h-19.1c-.1.6-.2 1.2-.3 1.7h20.7v14.7h-5.7v-1.5h-10.2v1.7h-5.5v-11.4c-.8 3.5-1.9 6.8-3.5 9.7-1.3-.8-4.1-2-5.7-2.5 4.4-7 4.8-16.9 4.8-23.3v-5.6l-1.3.7c-.6-1.5-2.3-4.9-3.4-6.3 6.4-2.7 12.8-7.2 16.4-12.5l6 2.4c-.3.5-.7.9-1 1.4 4.1 2.4 8.7 5.1 11.2 6.9l-3.4 5.5c-1.5-1.2-3.6-2.6-6-4.2v3.6h-11.4zm11.5 14.6v-2.3h-12.6c0 .7-.1 1.5-.1 2.3zm-12.6-8.2v1.8.3h12.5v-2.2h-12.5zm12.1-10.3c-1.8-1.1-3.6-2.3-5.2-3.3-1.2 1.1-2.4 2.3-3.6 3.3zm-8.2 29.2v3.9h10.2v-3.9zm25.2-4.3h-6.2v-30.8h6.2zm10.1-36.3v43.5c0 3.5-.7 5.3-2.7 6.3-1.9 1.1-5.1 1.3-9.5 1.3-.3-1.8-1-4.7-1.9-6.6 2.8.1 5.7.1 6.6.1s1.3-.3 1.3-1.2v-43.4z" fill="#f14839"/><path d="m303.9 309.6c-1.4 4-3.6 8.5-5.6 11.3-1-.8-3.1-2.3-4.3-3 1.9-2.6 3.7-6.3 4.9-9.8zm7.7-3.2v18.3h-6.3v-18.3h-10.3v-5.5h10.3v-4.2h-10.6v-5.4h5.3c-.3-1.7-.9-4-1.6-5.7l4.5-1.1h-7.4v-5.3h9.4c-.5-1.5-1.1-3-1.7-4.4l6.6-1.6c.8 1.8 1.8 4.1 2.5 6h7.9v5.3h-6.9l4.5.9c-.8 2.1-1.7 4.2-2.5 6h5.7v5.4h-9.4v4.2h8.5v5.5h-8.5zm-7.9-22c.8 1.8 1.5 4.2 1.8 5.7l-4 1.1h7.9c.8-2 1.8-4.8 2.4-6.8zm41.9 13.4h-5.1v27.1h-6.4v-27.1h-5.1v.7c0 8.1-.7 19.5-5.4 26.5-1.1-1.2-3.7-3.3-5.1-3.9 1-1.6 1.9-3.4 2.5-5.3l-3.9 2.4c-.9-2.2-2.8-5.7-4.3-8.3l4.3-2.3c1.5 2.2 3.2 5.1 4.1 7.2 1.5-5.3 1.7-11.2 1.7-16.3v-19.6c6-1.1 12.7-2.8 16.7-4.7l5 4.8c-4.5 1.8-10.3 3.1-15.7 4.1v8.7h16.7z" fill="#f14839"/><path d="m384.6 313.9c5.9 2 12.6 4.4 16.5 6.1l-3 5.1c-4.8-2.4-14.6-6.1-21.5-8.5l1.7-2.8h-1.7c-2.6 4.6-9 9.2-23.7 11.5-.8-1.5-2.4-3.9-3.6-5.3 9.9-1.5 15.6-3.8 18.7-6.2h-18.4v-5.4h22.1c.1-.5.1-1 .1-1.5v-3.6h6.5v3.9c0 .4 0 .8-.1 1.3h9.6c-1.2-1-2.5-2-3.6-2.8l2-1.9h-2.1c-.2-1.5-.9-3.3-1.6-4.7 1.8.1 3.8.1 4.4.1.6-.1.8-.2.8-.8v-3.2h-9.2c1.4 1.1 2.9 2.3 3.6 3.3l-4.3 3.3c-1-1.4-3.4-3.5-5.4-4.9l2.3-1.7h-5.5v-4.2h2.2c-.6-1.1-1.4-2.3-2.2-3.1 5-.5 9.7-1.5 13.8-3.1-1.2-1.4-2.9-3-4.6-4.3-1.8.7-3.8 1.3-6 1.9-.7-1.2-2.2-2.9-3.2-3.7 6.6-1.3 11.6-3.3 14.4-5.4l5.4 1.1c-.8.7-1.5 1.3-2.4 1.9h7.7l1-.2 3.4 1.7c-2.4 4.4-6.3 7.4-11 9.6h6v3.5h6.2v4.2h-6.2v3.4c0 2.6-.5 3.8-2.3 4.5-.8.3-1.8.5-2.9.6 1.7 1.1 3.3 2.4 4.3 3.4l-1.3 1.3h9.2v5.4h-16.1zm-25.9-18.9c0 2.6-.8 8-4.4 11-1.1-.9-3.5-2.2-5-2.8 3-2.3 3.6-6.2 3.6-8.2h-3.1v-5.1h11.7v-3h-9.5v-11.9h5.5v6.9h4.1v-8.2h6v31.4h-6v-10.1zm20.6-9.5c-2.7.3-5.2.6-7.7.8l-.6-3.3c2.3-.2 5-.4 8.2-.6zm8.4 5.5v-3.4c-3.5 1.5-7.3 2.6-11.5 3.4zm-4.2-11.1c1.2 1 2.4 2.2 3.5 3.2 1.6-.9 3-2 4.2-3.2z" fill="#f14839"/><path d="m454.3 288.4c-.5 22.6-1 30.7-2.8 33.3-1.3 1.9-2.6 2.5-4.6 2.8-1.8.3-4.6.3-7.5.2-.1-1.8-.8-4.5-1.9-6.2 2.7.2 5.2.2 6.4.2.9 0 1.4-.2 1.9-.9 1.3-1.5 1.8-8.3 2.1-26h-5.9c-.8 14.6-3.8 26.1-14.4 33.5-1-1.6-3-3.8-4.6-5 2.7-1.8 4.9-3.9 6.5-6.2-8.4 2.1-17.5 4.2-24.2 5.8l-1-6.7c1.1-.2 2.4-.4 3.8-.7v-36.4h19.1v32.5l2.4-.5.6 5.2c3.7-5.7 5-12.8 5.5-21.4h-7v-6.2h7.2c.1-3.8.1-7.7.1-11.9h6.5c0 4.1 0 8.1-.1 11.9h12v2.7zm-40.4-6.6v5.6h7.3v-5.6zm7.2 11.3h-7.3v5.7h7.3zm-7.2 18.1c2.3-.4 4.7-1 7.3-1.5v-5.2h-7.3z" fill="#f14839"/><path d="m488.9 295.6v5.7h17.6v5.9h-8.7l5.5 2c-1.9 3.1-4.1 6.4-5.8 8.8h11.9v6h-47.7v-6h10.9c-.9-2.5-2.8-6.2-4.6-8.9l4.4-1.8h-8v-5.9h17.5v-5.7h-11.2v-2.7c-2.3 1.1-4.7 2.1-7.1 3-.9-1.9-2.7-4.4-4.4-6.1 10.4-3 20.3-8.5 25.5-16.8l6.2 2.8c-.5.7-1 1.4-1.5 2.2 5.4 4.9 14.3 9.4 22.6 11.7-1.5 1.4-3.5 4-4.5 5.7-2.5-.9-5-2-7.5-3.2v3.3zm-15.4 11.6c1.9 2.7 4 6.3 4.8 8.8l-4.5 2h8.1v-10.8zm21.6-17.6c-3.5-2.2-6.7-4.6-9.5-7.2-2.6 2.8-5.7 5.1-8.9 7.2zm-6.2 17.6v10.8h6.9l-3.7-1.5c1.7-2.5 3.8-6.3 4.9-9.2h-8.1z" fill="#f14839"/><g fill="#e2e4c9"><path d="m18.3 382.6c0-8.8 3.7-15.5 8.1-19.8l3.9 1.7c-4.1 4.5-7.4 10.2-7.4 18.1s3.3 13.6 7.4 18.1l-3.9 1.7c-4.4-4.4-8.1-11-8.1-19.8z"/><path d="m56.8 376.6c4.4 3.2 10.8 7.9 13.8 11.2l-4.2 3.8c-2.6-3.1-8.2-7.8-12.6-11.2v21.4h-5.4v-20.2c-3.8 4-8.2 7.6-13.1 10.2-.8-1.3-2.3-3.3-3.4-4.5 7.5-3.5 14-9.9 17.8-16.2h-16.5v-5h35.8v5h-12.9c-.7 1.3-1.5 2.6-2.4 3.8v4.3z"/><path d="m90.3 391c-3.3 4-8.1 8.3-12.5 11-1-1-2.9-2.6-4.1-3.4 4.3-2.4 9.1-6.3 11.4-9.6zm16.8-24.7v19.8h-29.2v-19.8zm-24.1 15.1h18.8v-10.4h-18.8zm16.8 7.4c3.8 2.9 8.8 7.2 11.2 10l-4.6 2.9c-2.1-2.9-7-7.3-10.9-10.4z"/><path d="m125.2 382.6c0 8.8-3.7 15.5-8.1 19.8l-3.9-1.7c4.1-4.5 7.4-10.2 7.4-18.1s-3.3-13.6-7.4-18.1l3.9-1.7c4.4 4.3 8.1 10.9 8.1 19.8z"/><path d="m171.2 387.6s0 1.2-.1 1.7c-.3 6.8-.8 9.8-1.9 10.9-.9 1-1.9 1.3-3.1 1.4-1.2.2-3.1.2-5.2.1 0-1.3-.6-3.1-1.2-4.2 1.7.2 3.3.2 4.1.2.6 0 1 0 1.4-.4.5-.5.8-2.1 1.1-5.8h-20.5c-.4.3-.8.7-1.2 1l3.1 1.2c-.7 2.5-1.8 5.5-3.3 7.3l-4-1.7c1.2-1.6 2.4-3.9 3.1-6.1-1.7 1.1-3.5 2.1-5.2 2.9-.6-1-2-2.9-2.9-3.8 4-1.4 7.8-3.6 10.3-6.5h-4v-12.3c3.4-.6 7.2-1.6 9.6-2.6l2.9 3c-2.4.8-5.3 1.5-8.1 2.1v1.7h6.9v3.2h-6.9v1.7h16.9v-1.7h-7v-3.2h6.8v-1.6h-7.5v-3.3h11.9v13.1h-16.3c-.4.7-.9 1.3-1.4 1.9h21.7zm1.1-21.5v8.5h-4.6v-4.3h-26.7v4.3h-4.5v-8.5h14.8c-.2-.6-.5-1.2-.8-1.8l5-1.4c.6 1 1.2 2.1 1.6 3.2zm-20.4 26.6c.8 2.4 1.3 5.3 1.2 7.2l-3.9.5c.1-1.9-.3-5-1-7.4zm4.9-.3c1.1 1.9 2 4.3 2.2 6l-3.6 1c-.2-1.7-1-4.1-1.9-6.1zm4.2 4.8c-.5-1.2-1.6-2.9-2.6-4.1l3.1-1.3c1.2 1.2 2.4 2.8 2.9 4z"/><path d="m189.4 390.7c-.5-1.4-1.6-3.4-2.6-5.2v16.5h-4.7v-15.4c-1.2 3.4-2.6 6.7-4.1 8.9-.4-1.5-1.4-3.6-2.1-4.9 1.9-2.7 3.9-7.1 5.1-11.1h-4.5v-4.6h5.7v-5c-1.3.2-2.6.5-3.9.7-.2-1.1-.8-2.8-1.3-3.8 4.2-.7 8.9-2 11.9-3.4l2.6 4.1c-1.4.6-3 1.1-4.7 1.5v6h4.6v4.6h-4.6v.7c1.1 1.2 4.4 5.5 5.2 6.5zm25.3 6v4.4h-23.9v-4.4h10v-3.7h-7.8v-4.2h7.9v-3.3c-2.2.2-4.4.3-6.5.4-.2-1.1-.7-2.7-1.2-3.7 6-.4 12.7-1.2 16.9-2.2l3 3.7c-2.2.5-4.7 1-7.3 1.3v3.9h7.4v4.2h-7.4v3.8h8.9zm-1.9-17.4h-19.6v-14.2h19.6zm-4.8-10.1h-10.3v6h10.3z"/><path d="m244.4 375.1c.9 12.1 3.4 21.6 6.4 21.6.9 0 1.4-2.2 1.6-7.4 1.1 1.2 2.9 2.4 4.3 2.9-.7 7.8-2.4 9.7-6.3 9.7-7.1 0-10.2-12.2-11.2-26.8h-20.5v-4.8h20.3c-.1-2.2-.1-4.5-.1-6.8h5.3v6.8h6.5c-1.1-1.4-3.2-3.1-4.8-4.3l3.3-2.7c1.9 1.3 4.3 3.2 5.4 4.6l-2.8 2.4h3.9v4.8zm-13 18.6c2.5-.5 5.2-1 7.7-1.4l.4 4.4c-6.8 1.5-14.1 3-19.4 4.1l-1.4-5c2.1-.3 4.8-.7 7.8-1.2v-10h-6.2v-4.8h17.7v4.8h-6.6z"/><path d="m295.5 375.2c-1 6.4-2.6 11.7-5.2 16 2.1 2.6 4.7 4.8 7.9 6.2-1.1 1-2.6 2.9-3.3 4.2-3.1-1.6-5.5-3.7-7.6-6.3-2.4 2.7-5.3 5-9 6.7-.5-1.2-1.9-3.5-2.9-4.5 3.8-1.6 6.7-3.8 8.9-6.5-1.5-2.7-2.6-5.8-3.6-9.2-.7 1.1-1.4 2.1-2.1 3.1-.5-.7-1.7-2-2.7-3v.6h-10v10.6l9.9-3.4c0 1.5.3 3.6.5 4.6-11.9 4.5-13.8 5.5-15.1 6.4-.2-1.4-1.1-3.9-1.9-5.1.8-.4 1.5-1.1 1.5-2.6v-15.3h10v-6.9h-10.5v-4.8h15.3v14c2.9-4.2 5-10.4 6.1-16.7l4.8.9c-.4 2.2-.9 4.4-1.5 6.5h12.1v4.5zm-11.8.2c.8 4 1.9 7.6 3.5 10.9 1.5-3.1 2.5-6.8 3.1-11.1h-6.6z"/><path d="m313.1 382.5c-.9 4-2.2 8.1-3.9 11.2.5.4 1.2.8 1.9 1.3 2.8 1.7 6.7 1.9 11.5 1.9s12.2-.4 16.7-1.1c-.6 1.3-1.3 3.7-1.4 5-3.5.2-10.7.5-15.5.5-5.5 0-8.9-.5-11.9-2.2-1.7-1-3.2-2.3-4-2.3-1 0-2.3 2.8-3.3 5.2l-3.3-4.7c1.7-2.1 3.6-3.7 5.1-4.4 1-2 1.9-4.5 2.5-6.9h-5.5c1-2.3 2.1-5.6 3.1-8.7h-4.4v-4.4h10.2c-.9 2.8-1.9 6-2.9 8.8h2.4l.7-.2zm-7.8-10.6c-.5-1.8-1.5-4.7-2.3-6.9l4.5-1.3c.8 2.2 1.8 4.9 2.4 6.7zm9.7 3.7c-1-.8-2.9-1.8-4.1-2.3 2.6-2.3 4.7-6 5.9-9.6l4.5 1.1c-.3 1.1-.8 2.2-1.2 3.2h2.9v-4.6h4.9v4.6h9v4.2h-9v3.5h10.7v4.1h-26.6v-4.1h3zm15.9 19.2v-1.1h-11.2v1.2h-4.7v-13.1h20.8v12.9h-4.9zm-13.1-22.7c-.8 1.3-1.7 2.5-2.6 3.5h7.9v-3.5zm13.1 17.4v-3.8h-11.2v3.8z"/><path d="m355.6 389.8c-.7-1.1-1.9-2.6-3-4v16.1h-4.8v-15.2c-1.6 1.4-3.1 2.7-4.7 3.6-.3-1.4-1.3-4.1-1.9-5 4.1-2.3 8.1-6.3 10.6-10.7h-9.4v-4.4h7.2c-.7-1.5-2.1-3.6-3.3-5.1l3.9-2c1.4 1.6 3 3.7 3.8 5.2l-3.3 1.9h3.8l.8-.2 2.6 1.9c-1.2 3-2.9 6-4.8 8.6 1.7 1.5 4.7 4.4 5.5 5.2zm24.8 5.9v4.9h-23.9v-4.9h10v-15.3h-8.1v-4.8h8.1v-12.1h5.1v12.1h7.8v4.8h-7.8v15.3z"/><path d="m406 364.5c-.2.2-.4.5-.6.8 3.8 3.3 10.6 6.2 17.2 7.4-1 .9-2.4 2.6-3.1 3.8-.8-.2-1.7-.5-2.6-.7v10.7h-28.7v-10.5c-.9.3-1.7.6-2.6.8-.5-.9-1.8-2.9-2.6-3.8 7.6-1.8 15-5.2 18.7-10zm9.4 10.7c-1.9-.7-3.8-1.6-5.6-2.5v1.1h-14.5v-.8c-1.6.8-3.3 1.6-5 2.3h25.1zm-24.9 12.6h24.3v14h-5v-1h-14.4v1.1h-4.8v-14.1zm4.6-4.4c-.2-1.3-.7-3-1.4-4.3l3.2-.9h-4.7v5.2zm.2 7.6v1.7h14.4v-1.7zm14.4 6.5v-1.7h-14.4v1.7zm-9.4-19.3h-3.2c.7 1.4 1.4 3.2 1.7 4.4l-2.6.8h4.2v-5.2zm6-7.6c-1.2-.9-2.4-1.8-3.5-2.7-1.1.9-2.3 1.8-3.5 2.7zm-2 7.6v5.2h3.8l-2.5-.7c.6-1.2 1.2-3.1 1.6-4.5zm8.2 0h-4.3l3.2.8c-.8 1.7-1.6 3.3-2.3 4.4h3.3v-5.2z"/><path d="m13.1 446.6h6.6v-19.3h-5.5v-3.8c3.1-.6 5.2-1.4 7.1-2.6h4.5v25.7h5.7v4.9h-18.4z"/><path d="m35.9 448.1c8.3-7.4 13.2-13.2 13.2-17.9 0-3.1-1.7-5-4.6-5-2.2 0-4.1 1.4-5.6 3.1l-3.3-3.3c2.8-3 5.5-4.6 9.7-4.6 5.8 0 9.6 3.7 9.6 9.4 0 5.5-4.6 11.5-10.2 16.9 1.5-.2 3.6-.3 5-.3h6.7v5.1h-20.5z"/><path d="m69.3 418.3h4.1l-10.3 40.8h-4.1z"/><path d="m77.9 446.6h6.6v-19.3h-5.5v-3.8c3.1-.6 5.2-1.4 7.1-2.6h4.5v25.7h5.7v4.9h-18.4z"/><path d="m100.6 436.1c0-10.6 4.1-15.7 10.4-15.7 6.2 0 10.3 5.2 10.3 15.7s-4.1 16-10.3 16-10.4-5.4-10.4-16zm15 0c0-8.6-2-11-4.6-11s-4.6 2.5-4.6 11c0 8.6 2 11.2 4.6 11.2 2.6.1 4.6-2.6 4.6-11.2z"/><path d="m125.2 437.6h11.3v4.3h-11.3z"/><path d="m140.3 436.1c0-10.6 4.1-15.7 10.4-15.7 6.2 0 10.3 5.2 10.3 15.7s-4.1 16-10.3 16c-6.3 0-10.4-5.4-10.4-16zm14.9 0c0-8.6-2-11-4.6-11s-4.6 2.5-4.6 11c0 8.6 2 11.2 4.6 11.2 2.7.1 4.6-2.6 4.6-11.2z"/><path d="m166.2 446.6h6.6v-19.3h-5.5v-3.8c3.1-.6 5.2-1.4 7.1-2.6h4.5v25.7h5.7v4.9h-18.4z"/><path d="m198 418.3h4.1l-10.3 40.8h-4.1z"/><path d="m206.6 446.6h6.6v-19.3h-5.5v-3.8c3.1-.6 5.2-1.4 7.1-2.6h4.5v25.7h5.7v4.9h-18.4z"/><path d="m228.6 447.9 2.9-3.8c1.8 1.8 4.1 3.1 6.8 3.1 3.1 0 5.2-1.5 5.2-4.3 0-3-1.8-4.9-8.4-4.9v-4.4c5.6 0 7.4-1.9 7.4-4.7 0-2.4-1.5-3.8-4.1-3.8-2.2 0-4 1.1-5.8 2.7l-3.1-3.7c2.6-2.3 5.6-3.8 9.2-3.8 5.9 0 9.9 2.9 9.9 8.1 0 3.3-1.9 5.7-5.1 7v.2c3.5 1 6.1 3.5 6.1 7.5 0 5.6-4.9 8.9-10.7 8.9-4.9.1-8.1-1.7-10.3-4.1z"/><path d="m269.4 432.8v22.4h-4.8v-37h15.9v14.6zm0-11.2v2.1h6.5v-2.1zm6.5 7.6v-2.3h-6.5v2.3zm12.1 16.7v8.5h-4.3v-8.5h-4c-.4 2.9-1.8 6.9-5.3 9.3-.7-.9-2.2-2.1-3.1-2.8 2.6-1.7 3.8-4.3 4.2-6.4h-4.2v-4h4.3v-3.1h-3.6v-3.9h20v3.9h-4v3.1h4.5v4h-4.5zm-4.3-4v-3.1h-3.8v3.1zm15.8 7.5c0 2.5-.5 3.9-1.9 4.7-1.5.8-3.6 1-6.8 1-.2-1.4-.8-3.6-1.5-4.9 1.9.1 3.9.1 4.5 0 .7 0 .9-.2.9-.8v-16.5h-11.4v-14.7h16.2zm-11.5-27.8v2.1h6.7v-2.1zm6.6 7.7v-2.4h-6.6v2.4z"/><path d="m339.6 428.6c-.9 6-2.3 11.1-4.5 15.3 2.1 3 4.7 5.3 8.1 6.9-1.1 1-2.6 2.9-3.4 4.2-3.1-1.7-5.7-3.9-7.7-6.7-2.3 2.8-5.1 5.1-8.8 7-.4-1.1-1.8-3.3-2.7-4.3 3.8-1.7 6.7-4.1 8.8-7.1-1.3-2.6-2.2-5.4-3.1-8.5-.7 1.3-1.4 2.4-2.3 3.4-.6-.8-1.8-2.1-2.9-3.2-.2 11.5-.4 16-1.4 17.4-.8 1.2-1.6 1.6-2.8 1.8-1.1.2-2.7.2-4.4.2-.1-1.4-.6-3.2-1.3-4.5 1.3.1 2.5.1 3.2.1.5 0 .8-.1 1.2-.6.5-.9.8-4.4 1-14.1h-3.5c0 6.5-1 13.4-6.1 19.1-.8-1.1-2.4-2.4-3.6-3.2 4.4-5.1 5-11 5-16.4v-8h-4.1v-4.5h8c-.3-1.6-1.1-3.7-1.7-5.4l4.3-1c.7 1.7 1.6 4 2 5.4l-3.4 1h9v4.5h-9.5v4.1h8.2v2 .3c3-4.2 4.9-10.5 5.9-17.2l5 .8c-.4 2.3-.8 4.5-1.4 6.7h12v4.5zm-10.3.1c.7 3.6 1.7 7 2.9 10 1.2-2.9 2-6.3 2.6-10.1h-5.4z"/><path d="m361.7 419.2c-3 6.8-7.9 13.8-12.3 18.1-1-1.1-3.1-3.2-4.4-4.2 4.4-3.7 8.7-9.7 11.2-15.7zm11.6 19c3.3 4.5 7.2 10.4 9.2 14.3l-5.1 2.7c-.5-1.2-1.3-2.6-2.1-4.1-20 1.6-22.8 1.8-24.8 2.6-.3-1-1.3-3.8-2-5.2 1.4-.4 2.5-1.5 4.1-3.3 1.7-1.8 6.9-8.8 10.2-15.7l5.7 2.4c-3.2 5.6-7.2 11.1-11.2 15.6l15.2-1c-1.3-2.1-2.7-4.2-4-6zm.8-20.7c1.8 5.8 5.5 11.6 10.6 14.7-1.1 1.1-2.9 3.4-3.7 5-4.7-3.6-8.4-9.1-10.7-14.6h-6.6v-5.1z"/><path d="m393.5 432.8v22.4h-4.8v-37h15.9v14.6zm0-11.2v2.1h6.5v-2.1zm6.5 7.6v-2.3h-6.5v2.3zm12.1 16.7v8.5h-4.3v-8.5h-4c-.4 2.9-1.8 6.9-5.3 9.3-.7-.9-2.2-2.1-3.1-2.8 2.6-1.7 3.8-4.3 4.2-6.4h-4.2v-4h4.3v-3.1h-3.7v-3.9h20v3.9h-3.9v3.1h4.5v4h-4.5zm-4.3-4v-3.1h-3.8v3.1zm15.7 7.5c0 2.5-.5 3.9-1.9 4.7-1.5.8-3.6 1-6.8 1-.2-1.4-.8-3.6-1.5-4.9 1.9.1 3.9.1 4.5 0 .7 0 .9-.2.9-.8v-16.5h-11.4v-14.7h16.2zm-11.5-27.8v2.1h6.7v-2.1zm6.7 7.7v-2.4h-6.7v2.4z"/><path d="m437.1 439.8v9.6c0 2.3-.4 3.5-1.6 4.2-1.2.8-3.1 1-5.7 1-.1-1.2-.7-3.2-1.3-4.5h3.4c.5 0 .7-.2.7-.7v-8.3c-1.4.4-2.6.7-3.8 1.1l-1.1-4.8c1.4-.3 3.1-.7 4.9-1.2v-7.3h-4.5v-4.5h4.5v-7.8h4.5v7.8h4.1v4.5h-4.1v6.1l3.7-1 .7 4.4zm18.8 10.4c1 .1 1.9.1 2.9.1h8.3c-.6 1-1.2 3.1-1.3 4.3h-7.2c-5.4 0-9.6-1-12.4-6-1.1 2.6-2.5 4.8-4.3 6.5-.7-.8-2.6-2.3-3.6-2.9 3.4-2.7 5.1-7.3 5.7-12.9l4.5.5c-.2 1.5-.5 2.9-.8 4.2.9 2.4 2.1 3.9 3.6 4.8v-10.8h-9.7v-4h24.4v4h-10.1v3.6h7.9v3.8h-7.9zm8-18.1h-20.3v-14.3h20.3zm-4.7-10.8h-11.1v2.1h11.1zm0 5.2h-11.1v2.1h11.1z"/><path d="m507.5 445.9h-9.5c3.2 1.6 7.2 3.9 9.3 5.6l-3.8 3.4c-2.2-2-6.8-4.8-10.4-6.7l2.8-2.4h-4.9v9.3h-4.9v-9.3h-6.9l4.8 1.6c-2.4 2.8-6.4 5.4-10 6.9-1-1-3-2.5-4.1-3.3 3.5-1.2 7.2-3.1 9.1-5.3h-9v-4.1h16.1v-2.6h4.9v2.9h16.5zm-5.1-5c-2.9-1.2-7-2.4-11.7-3.6-4.6 1.9-10.8 2.8-18.9 3.2-.4-1.5-1-3-1.7-4.1 4.8-.1 8.8-.5 12.2-1-2.3-.5-4.6-.9-7.1-1.2 1.1-1 2.3-2.1 3.4-3.4h-8.2v-3.8h11.6c1-1.2 1.9-2.4 2.6-3.6h-9v2.3h-4.6v-6.3h14.7c-.3-.6-.6-1.2-.9-1.7l5.2-1c.5.8 1.1 1.8 1.6 2.8h14.8v6.3h-4.8v-2.3h-15.2l3 .9c-.7.9-1.3 1.8-2.1 2.7h8c.4-.8.7-1.7 1-2.5l4.8 1c-.2.5-.4 1.1-.6 1.6h6.5v3.8h-8.4c-.9 1.4-2 2.6-3.1 3.6 4.5 1.1 8.5 2.2 11.6 3.3zm-18.6-10.1c-.3.4-.7.7-1 1 2.3.4 4.6.8 6.8 1.3 1.2-.7 2.3-1.4 3.2-2.3z"/><g transform="translate(425 1)"><path d="m-76.7 553.6h-14.3v-3.6h-5.5v3.6h-14.9v14c0 7-1.4 13.4-3.3 17.8l4.6 3.2c1.6-4.1 2.5-8.3 3.1-14.1l2.6 3c.7-1 1.2-1.8 2-3.1v14.1h4.6v-22.3c1-2.2 1.6-4.1 2.3-6.2l-4.6-1.2c-1.5 5.2-3.8 9.6-6.7 13.9.1-2 .2-3.7.2-5.1v-9.3h30z"/><path d="m-75.8 563.8h-4.6v-4.6h-4.8v4.6h-11v4.8h11v13.1c0 .8-.5 1.3-1.4 1.3-.5 0-4.4-.3-4.4-.3l.6 5.1h6.3c2.4 0 3.6-1.4 3.6-4.1v-15h4.6z"/><path d="m-92.6 569.9-3.6 2.3c1.7 2.4 2.7 4.3 4.6 7.4l4-2.7c-1.9-2.6-3.2-4.6-5-7z"/></g><path d="m11.2 578.2c2.4-4.1 3.7-7.4 4.5-15.5h2.5v-4.8h-11.4c.6-1.6 1.8-4.5 2.2-6.4l-4.7-1.1c-1.7 5.9-3.6 9.8-5.5 13.9l-4.5-.1v-6.4h5.5v-4.6h-19.5v4.6h9.2v21.7c-1.1.3-1.3.4-2.5.7v-17.4h-4.5v18.4l-3.9 1 1.6 5.1c7.3-1.8 15.3-4.7 20.4-7.1l-.5-4.4c-1.4.6-4 1.4-5.8 2.1v-9h2.1l-.6.8 3.8 2.7c.7-1 1.1-1.6 1.8-3.1 1.3 4.3 2.2 5.5 3.9 8.4-2.9 3-4.8 4.5-9.2 7.2l3.1 4.4c3.7-2.8 6.6-5.6 8.9-7.7 1.9 2.2 4.4 5.1 7.4 7.7l3.2-4.2c-3.3-2.4-5.5-4.3-7.5-6.9zm-3.1-3.5c-1.9-3.7-3-5.9-3.6-10.8.2-.4.4-.7.6-1.2h5.9c-.6 5.7-1 8-2.9 12z" transform="translate(285)"/><g transform="translate(149)"><path d="m107.3 563.2h-9.6v-3.2h8.1v-4.3h-8.1v-5.3h-5v5.3h-7.8v4.3h7.8v3.2h-8.8v4.5h13.2v2.8h-13.2v4.8h13.2v7.7c0 1-.5 1.4-1.4 1.4-.3 0-3.3-.3-3.3-.3l.6 5.3h5.4c2.4 0 3.6-1.4 3.6-4.3v-9.9h5v-4.8h-5v-2.8h5.1z"/><path d="m82.9 554.7h-13v29.4h13zm-8.3 12.1v-7.9h3.7v7.9zm0 12.9v-8.7h3.7v8.6h-3.7z"/><path d="m89 576.3-3.6 2.2c1.3 1.9 2.2 3.6 3.8 6.2l3.9-2.5c-1.5-2.2-2.6-3.9-4.1-5.9z"/></g><g transform="translate(0 5)"><path d="m193.7 563.1h7.4v-2.6h-7.8v2.5c-.7-.3-1-.4-1.6-.7v-6.6h10.7v7h4.8v-10.4h-15.5v-1.6h13.6v-3.7h-32.5v3.6h13.6v1.6h-15.2v10.4h4.8v-7h10.4v6.7c-.5.3-1 .5-1.6.7v-2.5h-7.6v2.6h7.3c-4.5 2.2-10.3 3.8-15.2 4.5l1.6 4.3c1.2-.3 2.4-.6 3.9-1.1v3.4h21.6c-2.5 1.6-4 2.4-7.3 3.8.8 2.2 3.3 2.3 5.2 1.3 4.1-2.2 7-4.1 9.2-6.1v-2.2c1.3.4 2.4.6 3.4.8l1.6-4.3c-4.4-.5-9.8-2.2-14.8-4.4zm8.3 7.4h-10.2c0-1.5 0-3.5 0-3.5h-5.3v3.5h-10.3c5.5-1.7 9.4-3.6 13-5.7 4.1 2.2 7.8 4.1 12.8 5.7z"/><path d="m189.6 578.1c-4-1.3-4.9-1.6-8.2-2.6l-1.8 3.5 17.5 6.6 2-4.2s-2.3-.8-4.3-1.5c-2.4-1.3-1.8-1.5-5.2-1.8z"/><path d="m201.1 556.9h-7.9v2.7h7.9z"/><path d="m185.1 556.9h-7.7v2.7h7.7z"/></g><path d="m38.7 563c6.5 0 11.1 1 14.4 2.2v-5.3c-2.8-.9-7.2-1.8-14.3-1.8-9 0-13.3 1.8-15.4 3.9-2 2-3 4.6-3 8s1 6 3 8c2.2 2.2 6.4 3.9 15.1 3.9 7 0 11.3-1 14-3.7 1.5-1.5 2.2-3.5 2.2-7.1v-3h-19.5v4.4h13.8c0 .5 0 1.7-.8 2.5-1.4 1.4-5 1.9-9.6 1.9-5.7 0-8.7-1-10.1-2.4-1-1-1.6-2.5-1.6-4.6 0-2 .6-3.6 1.7-4.7 1.2-1.2 4.3-2.2 10.1-2.2z"/><path d="m148.6 558.8h-7.3l-11.8 17.5-11.7-17.5h-7.7l15.3 22.2h7.8z"/><path d="m108.2 543.5h-6.3l-41.3 52.9h6.4z"/><path d="m99.4 562c-2.1-2.1-6.1-4-15-4-8.5 0-12.9 1.9-15 4-1.9 1.9-3 4.4-3 7.9s1 6 3 7.9c2.1 2.1 6.3 4 15 4s12.9-1.9 15-4c1.9-1.9 3-4.4 3-7.9 0-3.6-1-6-3-7.9zm-14.9 15.1c-5.7 0-8.7-1.2-9.9-2.4-1-1-1.7-2.3-1.7-4.7s.6-3.7 1.7-4.8c1.3-1.3 4.3-2.4 10-2.4s8.6 1.1 9.9 2.4c1 1 1.7 2.3 1.7 4.7s-.6 3.7-1.7 4.8c-1.4 1.3-4.3 2.4-10 2.4z"/><path d="m484.3 121.8h-132.7c-1.8 0-3.3-1.3-3.5-3.1s-.2-4.8-.1-7.7c0-1.2.1-2.2.1-3.1 0-28.5 19-47.6 47.3-47.6 21.4 0 38 11 45.8 29.7 4.9-6.7 12.4-10.8 20.4-10.8 15.4 0 26.1 10.6 26.1 25.7v13.3c.1 2-1.5 3.6-3.4 3.6zm-129.3-7.1h125.7v-9.7c0-12.9-9.6-18.6-19.1-18.6-7.8 0-15 5.6-17.8 13.8-.5 1.5-1.8 2.5-3.5 2.4-1.6-.1-2.9-1.1-3.3-2.6-5.2-20.4-20.8-32.5-41.7-32.5-24.5 0-40.3 15.9-40.3 40.6 0 .9 0 2-.1 3.3.2.9.1 2.2.1 3.3z"/><path d="m474.4 150.2c-9.7 0-17.9-6.7-21.1-16.2-5.2 20.3-20.7 35.2-45.1 35.2-25 0-43.8-16.1-43.8-44.1 0-2.8-.3-8.1 0-10.3h132.6v13.3c0 13.8-10.1 22.1-22.6 22.1z"/><path d="m59.9 199.3c-2.9-1.1-5.9-2-9-2.6s-6.3-.9-9.7-.9c-7.1 0-12.9 2.2-17.3 6.5-4.4 4.4-6.6 10.4-6.6 18 0 7.5 1.9 13.3 5.9 17.5 3.9 4.2 9.4 6.3 16.6 6.3 3.3 0 6.3-.4 9-1.3v-24.6h13.6v33.7c-7.2 2.9-15.3 4.4-24.1 4.4-11.2 0-20-3.1-26.2-9.2-6.3-6.1-9.4-14.6-9.4-25.5 0-11.2 3.6-20.3 10.7-27.4 7.1-7 16.7-10.6 28.8-10.6 3.4 0 6.8.3 10.1.8s6.6 1.3 9.9 2.2z"/><path d="m99.3 256.1c-8 0-14.4-2.8-19.1-8.4s-7.1-14.8-7.1-27.5c0-11.7 2.6-20.7 7.9-27s11.8-9.5 19.6-9.5c8.9 0 15.5 3 19.9 9.1 4.3 6.1 6.5 14.9 6.5 26.3 0 12.1-2.7 21.2-8.2 27.5-5.4 6.4-11.9 9.5-19.5 9.5zm1.2-61.2c-4 0-7.2 1.9-9.6 5.8s-3.6 10.1-3.6 18.6c0 8.6 1 15.1 2.9 19.3s5.2 6.3 9.6 6.3c3.7 0 6.8-2.1 9.2-6.2 2.5-4.1 3.7-10.5 3.7-19.1 0-8.8-1-15.1-3-18.9-1.9-3.9-5-5.8-9.2-5.8z"/><path d="m167.4 255.2h-15.9l-20.3-54.5h14.7l9.3 25.3c1.5 3.8 2.9 8.7 4.4 14.6 1.3-4.5 2.1-7.3 2.4-8.4s1-3.1 2.1-6.1l9.4-25.3h13.9z"/><path d="m271.8 199.3c-2.9-1.1-5.9-2-9-2.6s-6.3-.9-9.7-.9c-7.1 0-12.9 2.2-17.3 6.5-4.4 4.4-6.6 10.4-6.6 18 0 7.5 1.9 13.3 5.9 17.5 3.9 4.2 9.4 6.3 16.6 6.3 3.3 0 6.3-.4 9-1.3v-24.6h13.6v33.7c-7.2 2.9-15.3 4.4-24.1 4.4-11.2 0-20-3.1-26.2-9.2-6.3-6.1-9.4-14.6-9.4-25.5 0-11.2 3.6-20.3 10.7-27.4 7.1-7 16.7-10.6 28.8-10.6 3.4 0 6.8.3 10.1.8s6.6 1.3 9.9 2.2z"/><path d="m316.8 255.2-13.4-21.2h-.5v21.2h-13.6v-54.3c4 0 7.6 0 10.8-.1 3.1-.1 6.1-.1 8.8-.2 6.8 0 12.1 1.3 15.8 3.9s5.5 6.5 5.5 11.7c0 4-1.2 7.4-3.6 10s-5.6 4.5-9.6 5.4l4.1 6 12 17.6zm-9.8-44.4h-4v13.9c.7.1 1.4.2 2.2.3s1.5.1 2.3.1c2.6 0 4.6-.7 6.2-2 1.6-1.4 2.3-3.2 2.3-5.5 0-2.2-.8-3.8-2.4-5-1.7-1.3-3.9-1.8-6.6-1.8z"/><path d="m378.9 255.2-3.3-9.5h-21l-3.4 9.5h-13.6l20.2-54.5h16l20.1 54.5zm-11.3-32.2c-.1-.3-.6-1.6-1.3-3.8-.7-2.3-1.2-3.7-1.3-4.3-.3 1-.6 2.1-1 3.4s-.9 2.8-1.5 4.4l-4.8 13.2h14.6z"/><path d="m437.7 255.2-16.3-26.6c-.8-1.2-1.6-2.7-2.5-4.5s-1.8-3.6-2.6-5.5v1.6 3.5 4.6 26.9h-12.8v-54.5h18.1l15.8 26c2.1 3.2 4 6.7 5.6 10.4v-2c0-.8-.1-2.4-.2-5s-.2-4.7-.2-6.4v-23h13.1v54.5z"/><path d="m493.8 212.2v43h-13.6v-43h-14.2v-11.5h42v11.5z"/><path d="m9.8 162.9v-16.8l15.7-17.7c8.5-9.5 14.4-17.3 17.6-23.2 3.3-5.9 4.9-11.3 4.9-15.9 0-4.2-1.3-7.7-3.8-10.5-2.5-2.7-6.3-4.1-11.3-4.1-3.1 0-6.4.5-9.9 1.6s-6.7 2.5-9.5 4.3l-2.9-18c4-2 8.2-3.5 12.6-4.5 4.3-1 9.4-1.6 15.2-1.6 10.2 0 18.1 2.8 23.5 8.3s8.1 12.5 8.1 21c0 6.8-1.9 13.9-5.7 21.3-3.8 7.3-10.1 16.1-18.9 26.2l-9.4 11h4.2c7.5 0 13.7-.1 18.7-.2s9.8-.2 14.2-.3v19.1z"/><path d="m123.9 164.3c-11.9 0-21.4-4.2-28.4-12.5s-10.6-22-10.6-40.9c0-17.4 3.9-30.8 11.8-40.1 7.9-9.4 17.6-14 29.2-14 13.2 0 23.1 4.5 29.5 13.6s9.6 22.1 9.6 39c0 17.9-4 31.5-12.1 40.9-8.1 9.3-17.8 14-29 14zm1.7-90.9c-6 0-10.8 2.9-14.3 8.6s-5.3 14.9-5.3 27.6c0 12.8 1.4 22.4 4.3 28.6 2.9 6.3 7.7 9.4 14.3 9.4 5.5 0 10.1-3.1 13.7-9.2 3.7-6.2 5.5-15.6 5.5-28.3 0-13-1.5-22.4-4.4-28.1-2.9-5.8-7.5-8.6-13.8-8.6z"/><path d="m194.5 162.9v-84.1l-18 7.1-3-18.9 26.9-8.8h14.6v104.8h-20.5z"/><path d="m253.6 164.5c-5.5 0-10.2-.4-14.1-1.2v-18c2 .7 4.1 1.2 6.5 1.6s5.4.6 9.2.6c15.2 0 24.8-7.3 28.7-21.9l1.9-7.6c-2.1 2.5-5 4.5-8.7 6.1s-8 2.4-12.7 2.4c-9.6 0-17.3-2.9-23-8.7s-8.5-13.8-8.5-23.9c0-11 3.5-19.9 10.6-26.9s16.3-10.5 27.7-10.5c11.5 0 20.6 3.7 27.3 11s10.1 18.6 10.1 33.7c0 20.8-4.7 36.6-14.2 47.3-9.5 10.6-23.1 16-40.8 16zm16.5-91.1c-4.9 0-8.8 1.7-12 5.1-3.1 3.4-4.7 7.6-4.7 12.6 0 5.7 1.4 10.1 4.2 13.2s6.7 4.7 11.8 4.7c4.9 0 8.9-1.7 12-5 3.2-3.4 4.7-7 4.7-10.9 0-6.2-1.5-11-4.3-14.4-2.8-3.6-6.8-5.3-11.7-5.3z"/></g><g clip-path="url(#c)" fill="#f14839"><path d="m484.3 121.8h-132.7c-1.8 0-3.3-1.3-3.5-3.1s-.2-4.8-.1-7.7c0-1.2.1-2.2.1-3.1 0-28.5 19-47.6 47.3-47.6 21.4 0 38 11 45.8 29.7 4.9-6.7 12.4-10.8 20.4-10.8 15.4 0 26.1 10.6 26.1 25.7v13.3c.1 2-1.5 3.6-3.4 3.6zm-129.3-7.1h125.7v-9.7c0-12.9-9.6-18.6-19.1-18.6-7.8 0-15 5.6-17.8 13.8-.5 1.5-1.8 2.5-3.5 2.4-1.6-.1-2.9-1.1-3.3-2.6-5.2-20.4-20.8-32.5-41.7-32.5-24.5 0-40.3 15.9-40.3 40.6 0 .9 0 2-.1 3.3.2.9.1 2.2.1 3.3z"/><path d="m474.4 150.2c-9.7 0-17.9-6.7-21.1-16.2-5.2 20.3-20.7 35.2-45.1 35.2-25 0-43.8-16.1-43.8-44.1 0-2.8-.3-8.1 0-10.3h132.6v13.3c0 13.8-10.1 22.1-22.6 22.1z"/><path d="m59.9 199.3c-2.9-1.1-5.9-2-9-2.6s-6.3-.9-9.7-.9c-7.1 0-12.9 2.2-17.3 6.5-4.4 4.4-6.6 10.4-6.6 18 0 7.5 1.9 13.3 5.9 17.5 3.9 4.2 9.4 6.3 16.6 6.3 3.3 0 6.3-.4 9-1.3v-24.6h13.6v33.7c-7.2 2.9-15.3 4.4-24.1 4.4-11.2 0-20-3.1-26.2-9.2-6.3-6.1-9.4-14.6-9.4-25.5 0-11.2 3.6-20.3 10.7-27.4 7.1-7 16.7-10.6 28.8-10.6 3.4 0 6.8.3 10.1.8s6.6 1.3 9.9 2.2z"/><path d="m99.3 256.1c-8 0-14.4-2.8-19.1-8.4s-7.1-14.8-7.1-27.5c0-11.7 2.6-20.7 7.9-27s11.8-9.5 19.6-9.5c8.9 0 15.5 3 19.9 9.1 4.3 6.1 6.5 14.9 6.5 26.3 0 12.1-2.7 21.2-8.2 27.5-5.4 6.4-11.9 9.5-19.5 9.5zm1.2-61.2c-4 0-7.2 1.9-9.6 5.8s-3.6 10.1-3.6 18.6c0 8.6 1 15.1 2.9 19.3s5.2 6.3 9.6 6.3c3.7 0 6.8-2.1 9.2-6.2 2.5-4.1 3.7-10.5 3.7-19.1 0-8.8-1-15.1-3-18.9-1.9-3.9-5-5.8-9.2-5.8z"/><path d="m167.4 255.2h-15.9l-20.3-54.5h14.7l9.3 25.3c1.5 3.8 2.9 8.7 4.4 14.6 1.3-4.5 2.1-7.3 2.4-8.4s1-3.1 2.1-6.1l9.4-25.3h13.9z"/><path d="m271.8 199.3c-2.9-1.1-5.9-2-9-2.6s-6.3-.9-9.7-.9c-7.1 0-12.9 2.2-17.3 6.5-4.4 4.4-6.6 10.4-6.6 18 0 7.5 1.9 13.3 5.9 17.5 3.9 4.2 9.4 6.3 16.6 6.3 3.3 0 6.3-.4 9-1.3v-24.6h13.6v33.7c-7.2 2.9-15.3 4.4-24.1 4.4-11.2 0-20-3.1-26.2-9.2-6.3-6.1-9.4-14.6-9.4-25.5 0-11.2 3.6-20.3 10.7-27.4 7.1-7 16.7-10.6 28.8-10.6 3.4 0 6.8.3 10.1.8s6.6 1.3 9.9 2.2z"/><path d="m316.8 255.2-13.4-21.2h-.5v21.2h-13.6v-54.3c4 0 7.6 0 10.8-.1 3.1-.1 6.1-.1 8.8-.2 6.8 0 12.1 1.3 15.8 3.9s5.5 6.5 5.5 11.7c0 4-1.2 7.4-3.6 10s-5.6 4.5-9.6 5.4l4.1 6 12 17.6zm-9.8-44.4h-4v13.9c.7.1 1.4.2 2.2.3s1.5.1 2.3.1c2.6 0 4.6-.7 6.2-2 1.6-1.4 2.3-3.2 2.3-5.5 0-2.2-.8-3.8-2.4-5-1.7-1.3-3.9-1.8-6.6-1.8z"/><path d="m378.9 255.2-3.3-9.5h-21l-3.4 9.5h-13.6l20.2-54.5h16l20.1 54.5zm-11.3-32.2c-.1-.3-.6-1.6-1.3-3.8-.7-2.3-1.2-3.7-1.3-4.3-.3 1-.6 2.1-1 3.4s-.9 2.8-1.5 4.4l-4.8 13.2h14.6z"/><path d="m437.7 255.2-16.3-26.6c-.8-1.2-1.6-2.7-2.5-4.5s-1.8-3.6-2.6-5.5v1.6 3.5 4.6 26.9h-12.8v-54.5h18.1l15.8 26c2.1 3.2 4 6.7 5.6 10.4v-2c0-.8-.1-2.4-.2-5s-.2-4.7-.2-6.4v-23h13.1v54.5z"/><path d="m493.8 212.2v43h-13.6v-43h-14.2v-11.5h42v11.5z"/><path d="m9.8 162.9v-16.8l15.7-17.7c8.5-9.5 14.4-17.3 17.6-23.2 3.3-5.9 4.9-11.3 4.9-15.9 0-4.2-1.3-7.7-3.8-10.5-2.5-2.7-6.3-4.1-11.3-4.1-3.1 0-6.4.5-9.9 1.6s-6.7 2.5-9.5 4.3l-2.9-18c4-2 8.2-3.5 12.6-4.5 4.3-1 9.4-1.6 15.2-1.6 10.2 0 18.1 2.8 23.5 8.3s8.1 12.5 8.1 21c0 6.8-1.9 13.9-5.7 21.3-3.8 7.3-10.1 16.1-18.9 26.2l-9.4 11h4.2c7.5 0 13.7-.1 18.7-.2s9.8-.2 14.2-.3v19.1z"/><path d="m123.9 164.3c-11.9 0-21.4-4.2-28.4-12.5s-10.6-22-10.6-40.9c0-17.4 3.9-30.8 11.8-40.1 7.9-9.4 17.6-14 29.2-14 13.2 0 23.1 4.5 29.5 13.6s9.6 22.1 9.6 39c0 17.9-4 31.5-12.1 40.9-8.1 9.3-17.8 14-29 14zm1.7-90.9c-6 0-10.8 2.9-14.3 8.6s-5.3 14.9-5.3 27.6c0 12.8 1.4 22.4 4.3 28.6 2.9 6.3 7.7 9.4 14.3 9.4 5.5 0 10.1-3.1 13.7-9.2 3.7-6.2 5.5-15.6 5.5-28.3 0-13-1.5-22.4-4.4-28.1-2.9-5.8-7.5-8.6-13.8-8.6z"/><path d="m194.5 162.9v-84.1l-18 7.1-3-18.9 26.9-8.8h14.6v104.8h-20.5z"/><path d="m253.6 164.5c-5.5 0-10.2-.4-14.1-1.2v-18c2 .7 4.1 1.2 6.5 1.6s5.4.6 9.2.6c15.2 0 24.8-7.3 28.7-21.9l1.9-7.6c-2.1 2.5-5 4.5-8.7 6.1s-8 2.4-12.7 2.4c-9.6 0-17.3-2.9-23-8.7s-8.5-13.8-8.5-23.9c0-11 3.5-19.9 10.6-26.9s16.3-10.5 27.7-10.5c11.5 0 20.6 3.7 27.3 11s10.1 18.6 10.1 33.7c0 20.8-4.7 36.6-14.2 47.3-9.5 10.6-23.1 16-40.8 16zm16.5-91.1c-4.9 0-8.8 1.7-12 5.1-3.1 3.4-4.7 7.6-4.7 12.6 0 5.7 1.4 10.1 4.2 13.2s6.7 4.7 11.8 4.7c4.9 0 8.9-1.7 12-5 3.2-3.4 4.7-7 4.7-10.9 0-6.2-1.5-11-4.3-14.4-2.8-3.6-6.8-5.3-11.7-5.3z"/></g></svg>